<?xml version="1.0" encoding="UTF-8" standalone="no"?>
<svg width="24px" height="24px" viewBox="0 0 24 24" version="1.1" xmlns="http://www.w3.org/2000/svg" xmlns:xlink="http://www.w3.org/1999/xlink">
    <!-- Generator: Sketch 47.1 (45422) - http://www.bohemiancoding.com/sketch -->
    <title>facebook-white</title>
    <desc>Created with Sketch.</desc>
    <defs></defs>
    <g id="icons" stroke="none" stroke-width="1" fill="none" fill-rule="evenodd">
        <g id="facebook-white" fill-rule="nonzero" fill="#FFFFFF">
            <g id="Facebook-1">
                <path d="M21.5,0 L2.5,0 C1.122,0 0,1.122 0,2.5 L0,21.5 C0,22.878 1.122,24 2.5,24 L13.5,24 C13.776,24 14,23.776 14,23.5 L14,14.5 C14,14.224 13.776,14 13.5,14 L11,14 L11,12 L13.5,12 C13.776,12 14,11.776 14,11.5 L14,8.5 C14,6.019 16.019,4 18.5,4 L20,4 L20,6 L18.5,6 C17.122,6 16,7.122 16,8.5 L16,11.5 C16,11.776 16.224,12 16.5,12 L19.806,12 L19.139,14 L16.5,14 C16.224,14 16,14.224 16,14.5 L16,23.5 C16,23.776 16.224,24 16.5,24 L21.5,24 C22.878,24 24,22.878 24,21.5 L24,2.5 C24,1.122 22.878,0 21.5,0 Z" id="Shape"></path>
            </g>
        </g>
    </g>
</svg>