<?xml version="1.0" encoding="UTF-8"?>
<svg width="420px" height="95px" viewBox="0 0 420 95" version="1.1" xmlns="http://www.w3.org/2000/svg" xmlns:xlink="http://www.w3.org/1999/xlink">
    <!-- Generator: Sketch 48.2 (47327) - http://www.bohemiancoding.com/sketch -->
    <title>Logo</title>
    <desc>Created with Sketch.</desc>
    <defs></defs>
    <g id="logo-light" stroke="none" stroke-width="1" fill="none" fill-rule="evenodd" transform="translate(-75.000000, -75.000000)">
        <g id="Logo" transform="translate(75.000000, 75.000000)">
            <path d="M0,47.9861111 L0,2.01388889 C0,1.31944444 0.627460973,0.694444444 1.32463983,0.694444444 L9.62106826,0.694444444 C10.387965,0.694444444 10.9457081,1.31944444 10.9457081,2.01388889 L10.9457081,19.5138889 L30.8850235,19.5138889 L30.8850235,2.01388889 C30.8850235,1.31944444 31.4427665,0.694444444 32.2096633,0.694444444 L40.5060917,0.694444444 C41.2032706,0.694444444 41.8307315,1.31944444 41.8307315,2.01388889 L41.8307315,47.9861111 C41.8307315,48.6805556 41.2032706,49.3055556 40.5060917,49.3055556 L32.2096633,49.3055556 C31.4427665,49.3055556 30.8850235,48.6805556 30.8850235,47.9861111 L30.8850235,29.7222222 L10.9457081,29.7222222 L10.9457081,47.9861111 C10.9457081,48.6805556 10.387965,49.3055556 9.62106826,49.3055556 L1.32463983,49.3055556 C0.627460973,49.3055556 0,48.6805556 0,47.9861111 Z M50.0574421,25.0694444 C50.0574421,11.1805556 61.1425859,0 75.0861631,0 C89.0297403,0 100.184602,11.1805556 100.184602,25.0694444 C100.184602,38.9583333 89.0297403,50 75.0861631,50 C61.1425859,50 50.0574421,38.9583333 50.0574421,25.0694444 Z M61.2123038,25.0694444 C61.2123038,32.6388889 67.4869136,38.8888889 75.0861631,38.8888889 C82.7551306,38.8888889 89.0297403,32.6388889 89.0297403,25.0694444 C89.0297403,17.4305556 82.7551306,11.1111111 75.0861631,11.1111111 C67.4869136,11.1111111 61.2123038,17.4305556 61.2123038,25.0694444 Z M105.831751,47.7777778 L113.709872,1.11111111 C113.77959,0.486111111 114.407051,0 114.964794,0 L116.08028,0 C116.428869,0 117.05633,0.277777778 117.265484,0.694444444 L133.440034,30.6944444 L133.579469,30.6944444 L149.754019,0.694444444 C149.963173,0.277777778 150.590634,0 150.939223,0 L152.054709,0 C152.612452,0 153.239913,0.486111111 153.309631,1.11111111 L161.187752,47.7777778 C161.327188,48.6805556 160.699727,49.3055556 159.863112,49.3055556 L151.636402,49.3055556 C151.008941,49.3055556 150.38148,48.75 150.311762,48.1944444 L147.174457,26.7361111 L147.035021,26.7361111 L135.322417,49.2361111 C135.113263,49.6527778 134.485802,50 134.137212,50 L132.882291,50 C132.463983,50 131.90624,49.6527778 131.697086,49.2361111 L119.914764,26.7361111 L119.775328,26.7361111 L116.707741,48.1944444 C116.638023,48.75 116.08028,49.3055556 115.383101,49.3055556 L107.156391,49.3055556 C106.319776,49.3055556 105.692315,48.6805556 105.831751,47.7777778 Z M169.623616,47.9861111 L169.623616,2.01388889 C169.623616,1.31944444 170.18136,0.694444444 170.948256,0.694444444 L199.811461,0.694444444 C200.578358,0.694444444 201.136101,1.31944444 201.136101,2.01388889 L201.136101,9.58333333 C201.136101,10.2777778 200.578358,10.9027778 199.811461,10.9027778 L180.499607,10.9027778 L180.499607,19.5138889 L196.395285,19.5138889 C197.092463,19.5138889 197.719924,20.1388889 197.719924,20.8333333 L197.719924,28.4027778 C197.719924,29.1666667 197.092463,29.7222222 196.395285,29.7222222 L180.499607,29.7222222 L180.499607,39.0972222 L199.811461,39.0972222 C200.578358,39.0972222 201.136101,39.7222222 201.136101,40.4166667 L201.136101,47.9861111 C201.136101,48.6805556 200.578358,49.3055556 199.811461,49.3055556 L170.948256,49.3055556 C170.18136,49.3055556 169.623616,48.6805556 169.623616,47.9861111 Z M209.920554,47.9861111 L209.920554,2.01388889 C209.920554,1.31944444 210.478298,0.694444444 211.245194,0.694444444 L232.090842,0.694444444 C240.945014,0.694444444 247.289341,7.43055556 247.289341,15.6944444 C247.289341,22.0833333 243.454858,27.2222222 236.971094,29.6527778 L246.522445,47.2916667 C247.01047,48.1944444 246.522445,49.3055556 245.337241,49.3055556 L236.064762,49.3055556 C235.507019,49.3055556 235.088711,48.9583333 234.949276,48.6805556 L225.676797,30.2777778 L220.866263,30.2777778 L220.866263,47.9861111 C220.866263,48.6805556 220.238802,49.3055556 219.541623,49.3055556 L211.245194,49.3055556 C210.478298,49.3055556 209.920554,48.6805556 209.920554,47.9861111 Z M220.866263,21.4583333 L231.18451,21.4583333 C234.042943,21.4583333 236.483069,19.1666667 236.483069,15.9027778 C236.483069,12.6388889 234.042943,10.625 231.18451,10.625 L220.866263,10.625 L220.866263,21.4583333 Z M253.28508,25.0694444 C253.28508,11.1805556 264.370223,0 278.313801,0 C292.257378,0 303.412239,11.1805556 303.412239,25.0694444 C303.412239,38.9583333 292.257378,50 278.313801,50 C264.370223,50 253.28508,38.9583333 253.28508,25.0694444 Z M264.439941,25.0694444 C264.439941,32.6388889 270.714551,38.8888889 278.313801,38.8888889 C285.982768,38.8888889 292.257378,32.6388889 292.257378,25.0694444 C292.257378,17.4305556 285.982768,11.1111111 278.313801,11.1111111 C270.714551,11.1111111 264.439941,17.4305556 264.439941,25.0694444 Z M308.850235,25.0694444 C308.850235,11.1805556 319.935378,0 333.878956,0 C347.822533,0 358.977395,11.1805556 358.977395,25.0694444 C358.977395,38.9583333 347.822533,50 333.878956,50 C319.935378,50 308.850235,38.9583333 308.850235,25.0694444 Z M320.005096,25.0694444 C320.005096,32.6388889 326.279706,38.8888889 333.878956,38.8888889 C341.547923,38.8888889 347.822533,32.6388889 347.822533,25.0694444 C347.822533,17.4305556 341.547923,11.1111111 333.878956,11.1111111 C326.279706,11.1111111 320.005096,17.4305556 320.005096,25.0694444 Z M364.624543,47.7777778 L372.502664,1.11111111 C372.572382,0.486111111 373.199843,0 373.757586,0 L374.873073,0 C375.221662,0 375.849123,0.277777778 376.058277,0.694444444 L392.232826,30.6944444 L392.372262,30.6944444 L408.546811,0.694444444 C408.755965,0.277777778 409.383426,0 409.732015,0 L410.847502,0 C411.405245,0 412.032706,0.486111111 412.102424,1.11111111 L419.980545,47.7777778 C420.11998,48.6805556 419.49252,49.3055556 418.655905,49.3055556 L410.429194,49.3055556 C409.801733,49.3055556 409.174272,48.75 409.104555,48.1944444 L405.96725,26.7361111 L405.827814,26.7361111 L394.115209,49.2361111 C393.906055,49.6527778 393.278594,50 392.930005,50 L391.675083,50 C391.256776,50 390.699033,49.6527778 390.489879,49.2361111 L378.707556,26.7361111 L378.56812,26.7361111 L375.500534,48.1944444 C375.430816,48.75 374.873073,49.3055556 374.175894,49.3055556 L365.949183,49.3055556 C365.112569,49.3055556 364.485108,48.6805556 364.624543,47.7777778 Z" id="HOMEROOM" fill="#FFFFFF"></path>
            <path d="M320,90.4008439 C320,87.8270042 322.195872,85.7172996 324.787,85.7172996 C327.378129,85.7172996 329.661836,87.8270042 329.661836,90.4008439 C329.661836,92.8902954 327.378129,95 324.787,95 C322.195872,95 320,92.8902954 320,90.4008439 Z M334.492754,93.7341772 L334.492754,65.8016878 C334.492754,65.3797468 334.844093,65 335.327185,65 L340.55336,65 C340.992534,65 341.387791,65.3797468 341.387791,65.8016878 L341.387791,88.3333333 L351.840141,88.3333333 C352.323232,88.3333333 352.674572,88.7130802 352.674572,89.1350211 L352.674572,93.7341772 C352.674572,94.1561181 352.323232,94.535865 351.840141,94.535865 L335.327185,94.535865 C334.844093,94.535865 334.492754,94.1561181 334.492754,93.7341772 Z M356.890646,93.7341772 L356.890646,65.8016878 C356.890646,65.3797468 357.285903,65 357.725077,65 L362.995169,65 C363.434343,65 363.8296,65.3797468 363.8296,65.8016878 L363.8296,93.7341772 C363.8296,94.1561181 363.434343,94.535865 362.995169,94.535865 L357.725077,94.535865 C357.285903,94.535865 356.890646,94.1561181 356.890646,93.7341772 Z M382.143171,80.8649789 L389.389548,65.464135 C389.477383,65.2531646 389.784805,65 390.136144,65 L395.977163,65 C396.635924,65 396.987264,65.5485232 396.723759,66.0970464 L382.933685,94.4936709 C382.801932,94.7468354 382.538428,94.9578059 382.187088,94.9578059 L381.747914,94.9578059 C381.396574,94.9578059 381.13307,94.7468354 381.001318,94.4936709 L367.299078,66.0970464 C367.035573,65.5485232 367.386913,65 368.045674,65 L373.886693,65 C374.238032,65 374.545455,65.2531646 374.633289,65.464135 L381.879666,80.8649789 L382.143171,80.8649789 Z M400.149319,93.7341772 L400.149319,65.8016878 C400.149319,65.3797468 400.500659,65 400.983751,65 L419.165569,65 C419.648661,65 420,65.3797468 420,65.8016878 L420,70.4008439 C420,70.8227848 419.648661,71.2025316 419.165569,71.2025316 L407.000439,71.2025316 L407.000439,76.4345992 L417.013614,76.4345992 C417.452789,76.4345992 417.848046,76.814346 417.848046,77.2362869 L417.848046,81.835443 C417.848046,82.2995781 417.452789,82.6371308 417.013614,82.6371308 L407.000439,82.6371308 L407.000439,88.3333333 L419.165569,88.3333333 C419.648661,88.3333333 420,88.7130802 420,89.1350211 L420,93.7341772 C420,94.1561181 419.648661,94.535865 419.165569,94.535865 L400.983751,94.535865 C400.500659,94.535865 400.149319,94.1561181 400.149319,93.7341772 Z" id=".LIVE" fill="#70BF8E"></path>
            <rect id="Rectangle-5" fill="#70BF8E" x="0" y="85.5000019" width="300" height="9.30000007" rx="4.65000004"></rect>
        </g>
    </g>
</svg>