<?xml version="1.0" encoding="UTF-8"?>
<svg width="840px" height="727px" viewBox="0 0 840 727" version="1.1" xmlns="http://www.w3.org/2000/svg" xmlns:xlink="http://www.w3.org/1999/xlink">
    <!-- Generator: Sketch 51.1 (57501) - http://www.bohemiancoding.com/sketch -->
    <title>undraw_taken_yju1</title>
    <desc>Created with Sketch.</desc>
    <defs>
        <linearGradient x1="50%" y1="100.004407%" x2="50%" y2="-3.13124773e-15%" id="linearGradient-1">
            <stop stop-color="#808080" stop-opacity="0.25" offset="0%"></stop>
            <stop stop-color="#808080" stop-opacity="0.12" offset="54%"></stop>
            <stop stop-color="#808080" stop-opacity="0.1" offset="100%"></stop>
        </linearGradient>
        <linearGradient x1="34.9303722%" y1="102.04872%" x2="75.9722833%" y2="3.34347078%" id="linearGradient-2">
            <stop stop-color="#808080" stop-opacity="0.25" offset="0%"></stop>
            <stop stop-color="#808080" stop-opacity="0.12" offset="54%"></stop>
            <stop stop-color="#808080" stop-opacity="0.1" offset="100%"></stop>
        </linearGradient>
        <linearGradient x1="-171.220811%" y1="100%" x2="-170.708726%" y2="-1.45528466e-13%" id="linearGradient-3">
            <stop stop-color="#808080" stop-opacity="0.25" offset="0%"></stop>
            <stop stop-color="#808080" stop-opacity="0.12" offset="54%"></stop>
            <stop stop-color="#808080" stop-opacity="0.1" offset="100%"></stop>
        </linearGradient>
        <linearGradient x1="-22.9286245%" y1="100%" x2="-22.7598082%" y2="-9.17895279e-15%" id="linearGradient-4">
            <stop stop-color="#808080" stop-opacity="0.25" offset="0%"></stop>
            <stop stop-color="#808080" stop-opacity="0.12" offset="54%"></stop>
            <stop stop-color="#808080" stop-opacity="0.1" offset="100%"></stop>
        </linearGradient>
    </defs>
    <g id="Landing/Homeroom-Page-Redesign" stroke="none" stroke-width="1" fill="none" fill-rule="evenodd">
        <g id="undraw_taken_yju1" fill-rule="nonzero">
            <g id="Group" opacity="0.8" transform="translate(285.000000, 18.000000)" fill="url(#linearGradient-1)">
                <ellipse id="Oval" cx="147" cy="114.31" rx="146.46" ry="113.46"></ellipse>
            </g>
            <ellipse id="Oval" fill="#70BF8E" cx="432" cy="132.31" rx="143.21" ry="110.94"></ellipse>
            <path d="M311.94,144.64 C311.94,83.37 376.06,33.7 455.15,33.7 C479.701796,33.5656525 504.008672,38.5837362 526.5,48.43 C501.33,31.43 468.4,21.09 432.36,21.09 C353.27,21.09 289.15,70.76 289.15,132.03 C289.15,173.17 318.06,209.09 361,228.24 C330.94,207.91 311.94,178 311.94,144.64 Z" id="Shape" fill="#FFFFFF" opacity="0.1"></path>
            <polygon id="Shape" fill="#70BF8E" opacity="0.2" points="432 176.9 590.76 451.88 749.52 726.85 432 726.85 114.48 726.85 273.24 451.88"></polygon>
            <g id="Group" opacity="0.3" transform="translate(341.000000, 447.000000)" fill="url(#linearGradient-2)">
                <path d="M128.67,119.22 L141,82.63 C149.708419,56.4693165 140.290026,27.6904433 117.8,11.74 L117.9,11.68 C113.047024,8.27078325 107.729351,5.57658551 102.11,3.68 L101.94,3.63 L101.75,3.56 C96.2919642,1.71922659 90.6038065,0.648910515 84.85,0.38 C82.8033333,0.286666667 80.7633333,0.286666667 78.73,0.38 C75.2018855,0.565446511 71.6959257,1.05052683 68.25,1.83 C67.27,2.05 66.2966667,2.29666667 65.33,2.57 C64.3633333,2.84333333 63.4033333,3.13333333 62.45,3.44 C60.55,4.06666667 58.6833333,4.78333333 56.85,5.59 C55.9366667,5.99 55.03,6.41333333 54.13,6.86 C51.4416584,8.19403269 48.8517696,9.71788989 46.38,11.42 C45.5533333,11.9866667 44.7433333,12.5733333 43.95,13.18 C34.062771,20.6943168 26.6625938,31.0071814 22.71,42.78 L3.35,100.33 C0.298817363,109.370965 -0.618451423,118.995442 0.67,128.45 C0.87,129.903333 1.11666667,131.343333 1.41,132.77 C1.70333333,134.196667 2.03666667,135.61 2.41,137.01 C2.67,137.943333 2.95333333,138.87 3.26,139.79 C3.72,141.17 4.22666667,142.53 4.78,143.87 C5.14666667,144.763333 5.53333333,145.65 5.94,146.53 C6.76,148.283333 7.65666667,149.996667 8.63,151.67 C9.60333333,153.343333 10.6533333,154.97 11.78,156.55 C12.6266667,157.73 13.5133333,158.883333 14.44,160.01 C15.6733333,161.51 16.98,162.953333 18.36,164.34 C24.3338,170.358172 31.4820143,175.082801 39.36,178.22 L39.7,178.36 C40.1224819,177.605888 40.5899948,176.877904 41.1,176.18 C44.1,172.08 49.32,169.18 54.29,170.26 C54.65,170.34 55.01,170.44 55.37,170.56 C57.89,171.45 60.37,173.03 62.8,173.82 C64.589077,174.623883 66.6415382,174.598273 68.41,173.75 C73.26,171.16 71.46,162.99 75.64,159.4 C75.8307663,159.238068 76.0311304,159.087795 76.24,158.95 L76.08,158.71 C79.29,156.71 83.76,158.04 87.47,159.34 C91.47,160.74 96.69,161.69 99.47,158.42 C101.35,156.18 101.22,152.77 103,150.42 C105.08,147.72 109,147.42 112.39,147.9 C114.18,148.18 125.23,160.9 133.78,156.67 C120,144.97 127.59,122.43 128.67,119.22 Z" id="Shape"></path>
            </g>
            <path d="M383.21,620.21 C386.13,616.21 391.14,613.41 395.94,614.5 C400.74,615.59 405.29,620.16 409.57,617.87 C414.25,615.37 412.52,607.48 416.57,604.03 C419.7,601.35 424.44,602.73 428.33,604.08 C432.22,605.43 437.23,606.35 439.88,603.2 C441.69,601.04 441.57,597.75 443.29,595.51 C445.29,592.91 449.11,592.58 452.35,593.08 C454.08,593.35 464.74,605.64 472.99,601.55 C459.64,590.19 466.99,568.43 467.99,565.34 L479.87,530.04 C490.368964,498.528348 473.449716,464.453063 442,453.77 C410.488348,443.271036 376.413063,460.190284 365.73,491.64 L347,547.16 C336.906453,577.479335 352.171164,610.414824 381.83,622.31 C382.247216,621.582802 382.708058,620.881521 383.21,620.21 Z" id="Shape" fill="#FFFFFF"></path>
            <circle id="Oval" fill="#000000" opacity="0.2" transform="translate(405.372412, 486.135810) rotate(-71.400000) translate(-405.372412, -486.135810) " cx="405.372412" cy="486.13581" r="6.51"></circle>
            <circle id="Oval" fill="#000000" opacity="0.2" transform="translate(442.399480, 498.593656) rotate(-71.400000) translate(-442.399480, -498.593656) " cx="442.39948" cy="498.593656" r="6.51"></circle>
            <ellipse id="Oval" fill="#E0E0E0" transform="translate(415.581318, 517.047604) rotate(-71.400000) translate(-415.581318, -517.047604) " cx="415.581318" cy="517.047604" rx="9.76" ry="6.51"></ellipse>
            <circle id="Oval" fill="#FFFFFF" transform="translate(552.561629, 487.582556) rotate(-71.400000) translate(-552.561629, -487.582556) " cx="552.561629" cy="487.582556" r="9.76"></circle>
            <circle id="Oval" fill="#FFFFFF" transform="translate(583.485606, 472.221532) rotate(-71.400000) translate(-583.485606, -472.221532) " cx="583.485606" cy="472.221532" r="4.88"></circle>
            <g id="Group" opacity="0.8" transform="translate(334.000000, 249.000000)" fill="url(#linearGradient-3)">
                <rect id="Rectangle-path" x="0.36" y="0.03" width="195.28" height="19.53"></rect>
            </g>
            <rect id="Rectangle-path" fill="#E0E0E0" x="334.36" y="245.78" width="195.28" height="19.53"></rect>
            <path d="M569.52,99.43 C571.377742,106.588628 572.318606,113.954248 572.32,121.35 C572.32,182.62 508.2,232.29 429.11,232.29 C364.38,232.33 309.69,199.07 292,153.43 C305.14,204.2 363,242.43 432.41,242.43 C511.5,242.43 575.62,192.76 575.62,131.49 C575.601971,120.516609 573.533116,109.643253 569.52,99.43 Z" id="Shape" fill="#000000" opacity="0.1"></path>
            <g id="Group" opacity="0.8" transform="translate(135.000000, 103.000000)" fill="url(#linearGradient-4)">
                <ellipse id="Oval" cx="297" cy="77.68" rx="296.18" ry="77.41"></ellipse>
            </g>
            <path d="M432,105.83 C273.82,105.83 145.58,139.35 145.58,180.69 L718.42,180.69 C718.42,139.34 590.18,105.83 432,105.83 Z" id="Shape" fill="#FFFFFF"></path>
            <path d="M432,255.54 C590.18,255.54 718.42,222.02 718.42,180.68 L145.58,180.68 C145.58,222.03 273.82,255.54 432,255.54 Z" id="Shape" fill="#FFFFFF"></path>
            <path d="M432,255.54 C590.18,255.54 718.42,222.02 718.42,180.68 L145.58,180.68 C145.58,222.03 273.82,255.54 432,255.54 Z" id="Shape" fill="#000000" opacity="0.05"></path>
            <rect id="Rectangle-path" fill="#000000" opacity="0.05" x="295.3" y="161.15" width="273.4" height="39.06" rx="17.22"></rect>
            <path d="M133.89,57.81 C132.196042,57.0491345 131.337355,55.1428487 131.89,53.37 C131.932757,53.2369702 131.95961,53.0993453 131.97,52.96 C132.022417,52.1472697 131.534319,51.3967697 130.770154,51.1151137 C130.00599,50.8334578 129.147578,51.0876616 128.66,51.74 C128.579553,51.8518091 128.512432,51.9726267 128.46,52.1 C127.699135,53.7939578 125.792849,54.6526451 124.02,54.1 C123.88697,54.0572432 123.749345,54.0303895 123.61,54.02 C122.79727,53.9675833 122.04677,54.4556806 121.765114,55.2198455 C121.483458,55.9840104 121.737662,56.8424216 122.39,57.33 C122.501809,57.4104473 122.622627,57.4775682 122.75,57.53 C124.443958,58.2908655 125.302645,60.1971513 124.75,61.97 C124.707243,62.1030298 124.68039,62.2406547 124.67,62.38 C124.617583,63.1927303 125.105681,63.9432303 125.869846,64.2248863 C126.63401,64.5065422 127.492422,64.2523384 127.98,63.6 C128.060447,63.4881909 128.127568,63.3673733 128.18,63.24 C128.940865,61.5460422 130.847151,60.6873549 132.62,61.24 C132.75303,61.2827568 132.890655,61.3096105 133.03,61.32 C133.84273,61.3724167 134.59323,60.8843194 134.874886,60.1201545 C135.156542,59.3559896 134.902338,58.4975784 134.25,58.01 C134.138191,57.9295527 134.017373,57.8624318 133.89,57.81 Z" id="Shape" fill="#4D8AF0" opacity="0.5"></path>
            <path d="M642.89,363.81 C641.196042,363.049135 640.337355,361.142849 640.89,359.37 C640.932757,359.23697 640.95961,359.099345 640.97,358.96 C641.022417,358.14727 640.534319,357.39677 639.770154,357.115114 C639.00599,356.833458 638.147578,357.087662 637.66,357.74 C637.579553,357.851809 637.512432,357.972627 637.46,358.1 C636.699135,359.793958 634.792849,360.652645 633.02,360.1 C632.88697,360.057243 632.749345,360.03039 632.61,360.02 C631.79727,359.967583 631.04677,360.455681 630.765114,361.219846 C630.483458,361.98401 630.737662,362.842422 631.39,363.33 C631.501809,363.410447 631.622627,363.477568 631.75,363.53 C633.443958,364.290865 634.302645,366.197151 633.75,367.97 C633.707243,368.10303 633.68039,368.240655 633.67,368.38 C633.617583,369.19273 634.105681,369.94323 634.869846,370.224886 C635.63401,370.506542 636.492422,370.252338 636.98,369.6 C637.060447,369.488191 637.127568,369.367373 637.18,369.24 C637.940865,367.546042 639.847151,366.687355 641.62,367.24 C641.75303,367.282757 641.890655,367.30961 642.03,367.32 C642.84273,367.372417 643.59323,366.884319 643.874886,366.120154 C644.156542,365.35599 643.902338,364.497578 643.25,364.01 C643.138191,363.929553 643.017373,363.862432 642.89,363.81 Z" id="Shape" fill="#4D8AF0" opacity="0.5"></path>
            <path d="M80.89,505.81 C79.1960422,505.049135 78.3373549,503.142849 78.89,501.37 C78.9327568,501.23697 78.9596105,501.099345 78.97,500.96 C79.0224167,500.14727 78.5343194,499.39677 77.7701545,499.115114 C77.0059896,498.833458 76.1475784,499.087662 75.66,499.74 C75.5795527,499.851809 75.5124318,499.972627 75.46,500.1 C74.6991345,501.793958 72.7928487,502.652645 71.02,502.1 C70.8869702,502.057243 70.7493453,502.03039 70.61,502.02 C69.7972697,501.967583 69.0467697,502.455681 68.7651137,503.219846 C68.4834578,503.98401 68.7376616,504.842422 69.39,505.33 C69.5018091,505.410447 69.6226267,505.477568 69.75,505.53 C71.4439578,506.290865 72.3026451,508.197151 71.75,509.97 C71.7072432,510.10303 71.6803895,510.240655 71.67,510.38 C71.6175833,511.19273 72.1056806,511.94323 72.8698455,512.224886 C73.6340104,512.506542 74.4924216,512.252338 74.98,511.6 C75.0604473,511.488191 75.1275682,511.367373 75.18,511.24 C75.9408655,509.546042 77.8471513,508.687355 79.62,509.24 C79.7530298,509.282757 79.8906547,509.30961 80.03,509.32 C80.8427303,509.372417 81.5932303,508.884319 81.8748863,508.120154 C82.1565422,507.35599 81.9023384,506.497578 81.25,506.01 C81.1381909,505.929553 81.0173733,505.862432 80.89,505.81 Z" id="Shape" fill="#4D8AF0" opacity="0.5"></path>
            <path d="M25.89,174.81 C24.1960422,174.049135 23.3373549,172.142849 23.89,170.37 C23.9327568,170.23697 23.9596105,170.099345 23.97,169.96 C24.0224167,169.14727 23.5343194,168.39677 22.7701545,168.115114 C22.0059896,167.833458 21.1475784,168.087662 20.66,168.74 C20.5795527,168.851809 20.5124318,168.972627 20.46,169.1 C19.6991345,170.793958 17.7928487,171.652645 16.02,171.1 C15.8869702,171.057243 15.7493453,171.03039 15.61,171.02 C14.7972697,170.967583 14.0467697,171.455681 13.7651137,172.219846 C13.4834578,172.98401 13.7376616,173.842422 14.39,174.33 C14.5018091,174.410447 14.6226267,174.477568 14.75,174.53 C16.4439578,175.290865 17.3026451,177.197151 16.75,178.97 C16.7072432,179.10303 16.6803895,179.240655 16.67,179.38 C16.6175833,180.19273 17.1056806,180.94323 17.8698455,181.224886 C18.6340104,181.506542 19.4924216,181.252338 19.98,180.6 C20.0604473,180.488191 20.1275682,180.367373 20.18,180.24 C20.9408655,178.546042 22.8471513,177.687355 24.62,178.24 C24.7530298,178.282757 24.8906547,178.30961 25.03,178.32 C25.8427303,178.372417 26.5932303,177.884319 26.8748863,177.120154 C27.1565422,176.35599 26.9023384,175.497578 26.25,175.01 C26.1381909,174.929553 26.0173733,174.862432 25.89,174.81 Z" id="Shape" fill="#4D8AF0" opacity="0.5"></path>
            <path d="M632.89,6.81 C631.196042,6.04913454 630.337355,4.14284871 630.89,2.37 C630.932757,2.23697023 630.95961,2.09934535 630.97,1.96 C631.022417,1.14726969 630.534319,0.396769671 629.770154,0.115113726 C629.00599,-0.166542218 628.147578,0.0876616154 627.66,0.74 C627.579553,0.851809142 627.512432,0.972626711 627.46,1.1 C626.699135,2.79395775 624.792849,3.65264506 623.02,3.1 C622.88697,3.05724315 622.749345,3.03038952 622.61,3.02 C621.719191,2.83313159 620.825614,3.32565567 620.507942,4.17861782 C620.19027,5.03157997 620.543975,5.98863407 621.34,6.43 C621.451809,6.5104473 621.572627,6.57756817 621.7,6.63 C623.393958,7.39086546 624.252645,9.29715129 623.7,11.07 C623.657243,11.2030298 623.63039,11.3406547 623.62,11.48 C623.532985,12.3276809 624.039393,13.124202 624.843911,13.405069 C625.648428,13.685936 626.540537,13.3776545 627,12.66 C627.080447,12.5481909 627.147568,12.4273733 627.2,12.3 C627.960865,10.6060422 629.867151,9.74735494 631.64,10.3 C631.77303,10.3427568 631.910655,10.3696105 632.05,10.38 C632.86273,10.4324167 633.61323,9.94431936 633.894886,9.18015446 C634.176542,8.41598956 633.922338,7.5575784 633.27,7.07 C633.155194,6.96715767 633.027447,6.87975166 632.89,6.81 Z" id="Shape" fill="#4D8AF0" opacity="0.5"></path>
            <g id="Group" opacity="0.5" transform="translate(103.000000, 257.000000)" fill="#47E6B1">
                <rect id="Rectangle-path" x="7" y="0.85" width="3" height="17"></rect>
                <rect id="Rectangle-path" transform="translate(8.500000, 9.350000) rotate(90.000000) translate(-8.500000, -9.350000) " x="7" y="0.85" width="3" height="17"></rect>
            </g>
            <g id="Group" opacity="0.5" transform="translate(823.000000, 177.000000)" fill="#47E6B1">
                <rect id="Rectangle-path" x="7" y="0.85" width="3" height="17"></rect>
                <rect id="Rectangle-path" transform="translate(8.500000, 9.350000) rotate(90.000000) translate(-8.500000, -9.350000) " x="7" y="0.85" width="3" height="17"></rect>
            </g>
            <g id="Group" opacity="0.5" transform="translate(723.000000, 456.000000)" fill="#47E6B1">
                <rect id="Rectangle-path" x="7" y="0.85" width="3" height="17"></rect>
                <rect id="Rectangle-path" transform="translate(8.500000, 9.350000) rotate(90.000000) translate(-8.500000, -9.350000) " x="7" y="0.85" width="3" height="17"></rect>
            </g>
            <circle id="Oval" fill="#F55F44" opacity="0.5" cx="723" cy="81.85" r="6"></circle>
            <circle id="Oval" fill="#F55F44" opacity="0.5" cx="6" cy="12.85" r="6"></circle>
            <circle id="Oval" fill="#F55F44" opacity="0.5" cx="186" cy="357.85" r="6"></circle>
        </g>
    </g>
</svg>