<?xml version="1.0" encoding="UTF-8"?>
<svg width="413px" height="288px" viewBox="0 0 413 288" version="1.1" xmlns="http://www.w3.org/2000/svg" xmlns:xlink="http://www.w3.org/1999/xlink">
    <!-- Generator: Sketch 51 (57462) - http://www.bohemiancoding.com/sketch -->
    <title>undraw_social_networking_nqk4 (2) copy</title>
    <desc>Created with Sketch.</desc>
    <defs>
        <linearGradient x1="49.9476714%" y1="99.9552248%" x2="49.9476714%" y2="-0.0551246908%" id="linearGradient-1">
            <stop stop-color="#808080" stop-opacity="0.25" offset="0%"></stop>
            <stop stop-color="#808080" stop-opacity="0.12" offset="54%"></stop>
            <stop stop-color="#808080" stop-opacity="0.1" offset="100%"></stop>
        </linearGradient>
        <linearGradient x1="49.9970071%" y1="99.9999882%" x2="49.9970071%" y2="-0.0123733516%" id="linearGradient-2">
            <stop stop-color="#808080" stop-opacity="0.25" offset="0%"></stop>
            <stop stop-color="#808080" stop-opacity="0.12" offset="54%"></stop>
            <stop stop-color="#808080" stop-opacity="0.1" offset="100%"></stop>
        </linearGradient>
    </defs>
    <g id="Landing/Homeroom-Page-Redesign" stroke="none" stroke-width="1" fill="none" fill-rule="evenodd">
        <g id="Desktop-Copy-6" transform="translate(-562.000000, -101.000000)">
            <g id="undraw_social_networking_nqk4-(2)-copy" transform="translate(562.000000, 101.000000)">
                <path d="M388.614199,167.921373 C374.269885,187.607034 379.003692,215.706373 387.295182,238.092766 C390.072446,245.586656 393.227096,253.512956 391.787168,261.666455 C390.028479,271.633879 381.762637,279.102117 373.170704,283.169705 C357.507373,290.582976 339.004491,289.399345 324.993596,280.05855 C312.902604,271.996664 304.391278,258.599274 292.065794,250.922159 C271.437829,238.078108 244.658113,243.816706 221.699883,253.622891 C205.45765,260.559778 187.665572,269.493814 171.837364,263.088279 C160.698995,258.580951 153.198916,247.107421 149.252856,234.84236 C147.347609,228.920538 146.013936,222.493016 142.218097,217.857431 C139.961112,215.101732 136.978667,213.181537 133.911952,211.576489 C105.923137,196.918513 69.9212915,206.079748 42.7861738,189.725112 C24.4664886,178.680327 13.0643165,157.246702 8.32684591,134.71373 C3.58937532,112.180757 4.76183518,88.394527 6.64876275,65.0150561 C7.98976371,48.4002408 10.1111833,30.645768 20.0990756,17.5891763 C30.6622061,3.78136342 48.3663499,-1.70804841 64.1982218,0.457667474 C80.0300937,2.62338335 94.2205219,11.4291621 106.641268,21.9096146 C122.16537,35.0101802 136.458388,51.4527642 155.778328,56.4218179 C168.935526,59.8078103 182.913446,57.4112313 196.590923,56.3521925 C219.45389,54.5859065 242.23625,56.6197006 264.879381,58.9173383 C286.555233,61.1160346 308.381306,63.5712455 328.910345,70.7793049 C343.437855,75.8802804 354.953609,85.5215638 368.631086,92.1103238 C377.545445,96.4051106 387.353805,97.4018529 395.74422,102.949897 C406.098506,109.784178 415.456202,121.891665 412.418798,136.421384 C409.549935,150.229197 396.22786,157.473901 388.614199,167.921373 Z" id="Shape" fill="#70BF8E" fill-rule="nonzero" opacity="0.1"></path>
                <rect id="Rectangle-path" fill="#474059" fill-rule="nonzero" x="140" y="57" width="75" height="52" rx="9.61"></rect>
                <rect id="Rectangle-path" fill="#FFFFFF" fill-rule="nonzero" x="141" y="64" width="72" height="42"></rect>
                <circle id="Oval" fill="#FFFFFF" fill-rule="nonzero" cx="177.5" cy="61.5" r="1"></circle>
                <rect id="Rectangle-path" fill="#474059" fill-rule="nonzero" x="171" y="107" width="14" height="15"></rect>
                <path d="M169.142857,120 L184.857143,120 C186.04061,120 187,120.895431 187,122 L167,122 C167,120.895431 167.95939,120 169.142857,120 Z" id="Shape" fill="#474059" fill-rule="nonzero"></path>
                <rect id="Rectangle-path" fill="#C0BCCF" fill-rule="nonzero" x="84" y="132" width="54" height="19"></rect>
                <rect id="Rectangle-path" fill="#C0BCCF" fill-rule="nonzero" x="306" y="123" width="11" height="101"></rect>
                <rect id="Rectangle-path" fill="#000000" fill-rule="nonzero" opacity="0.1" x="84" y="132" width="54" height="1"></rect>
                <rect id="Rectangle-path" fill="#000000" fill-rule="nonzero" opacity="0.1" x="306" y="123" width="11" height="10"></rect>
                <rect id="Rectangle-path" fill="#C0BCCF" fill-rule="nonzero" x="84" y="150" width="54" height="19"></rect>
                <circle id="Oval" fill="#70BF8E" fill-rule="nonzero" cx="112" cy="159" r="3"></circle>
                <circle id="Oval" fill="#70BF8E" fill-rule="nonzero" cx="112" cy="140" r="3"></circle>
                <rect id="Rectangle-path" fill="#C0BCCF" fill-rule="nonzero" x="84" y="168" width="54" height="19"></rect>
                <circle id="Oval" fill="#70BF8E" fill-rule="nonzero" cx="112" cy="175" r="3"></circle>
                <rect id="Rectangle-path" fill="#C0BCCF" fill-rule="nonzero" x="84" y="187" width="54" height="19"></rect>
                <circle id="Oval" fill="#70BF8E" fill-rule="nonzero" cx="112" cy="195" r="3"></circle>
                <rect id="Rectangle-path" fill="#C0BCCF" fill-rule="nonzero" x="84" y="206" width="54" height="19"></rect>
                <circle id="Oval" fill="#70BF8E" fill-rule="nonzero" cx="112" cy="214" r="3"></circle>
                <rect id="Rectangle-path" fill="#000000" fill-rule="nonzero" opacity="0.1" x="84" y="167" width="54" height="1"></rect>
                <rect id="Rectangle-path" fill="#000000" fill-rule="nonzero" opacity="0.1" x="84" y="148" width="54" height="1"></rect>
                <rect id="Rectangle-path" fill="#000000" fill-rule="nonzero" opacity="0.1" x="84" y="186" width="54" height="1"></rect>
                <rect id="Rectangle-path" fill="#000000" fill-rule="nonzero" opacity="0.1" x="84" y="205" width="54" height="1"></rect>
                <path d="M56,212 C56,212 54.7949631,175.735029 35.4815088,155.243243 C27.3748973,146.644409 22.0508253,135.72337 20.6412974,123.90461 C19.9823897,118.29562 19.8308221,112.637091 20.1884957,107" id="Shape" stroke="#535461" stroke-width="2"></path>
                <path d="M7.41098342,93.3710073 C8.80890305,97.5051351 20.4942755,107 20.4942755,107 C20.4942755,107 24.0740311,92.5343386 22.6761114,88.4039967 C21.2781042,84.2714181 16.7275803,82.032357 12.5122316,83.4029136 C8.29688299,84.7734703 6.01297637,89.2346429 7.41098342,93.3672215 L7.41098342,93.3710073 Z" id="Shape" fill="#70BF8E" fill-rule="nonzero"></path>
                <path d="M2.81287288,121.405554 C6.03545921,124.204201 20,126 20,126 C20,126 15.3451531,111.575305 12.1225667,108.780545 C8.91005429,105.983347 4.2169431,106.542845 1.64020952,110.030219 C-0.936524074,113.517592 -0.421123478,118.612243 2.79138897,121.409441 L2.81287288,121.405554 Z" id="Shape" fill="#70BF8E" fill-rule="nonzero"></path>
                <path d="M15.5462208,158.951497 C19.7357168,159.598388 33,153.560736 33,153.560736 C33,153.560736 21.9740416,143.738 17.788227,143.087258 C13.5998111,142.439709 9.70253904,145.466098 9.08342612,149.846887 C8.46431319,154.227676 11.3578049,158.303948 15.5462208,158.951497 Z" id="Shape" fill="#70BF8E" fill-rule="nonzero"></path>
                <path d="M32.4340435,184.68594 C36.566954,186.068539 51,182.43825 51,182.43825 C51,182.43825 41.467459,170.786569 37.3345485,169.40397 C33.20279,168.017567 28.7529367,170.31465 27.395523,174.534649 C26.0381093,178.754648 28.2871601,183.299536 32.4189185,184.68594 L32.4340435,184.68594 Z" id="Shape" fill="#70BF8E" fill-rule="nonzero"></path>
                <path d="M35.1131974,119.543407 C33.109843,123.077445 20.3351572,130 20.3351572,130 C20.3351572,130 19.1731362,116.421674 21.1764906,112.884172 C22.4718129,110.597894 24.9969008,109.119907 27.800578,109.006956 C30.6042552,108.894004 33.2605766,110.163247 34.7689314,112.336573 C36.2772863,114.5099 36.4085198,117.257129 35.1131974,119.543407 Z" id="Shape" fill="#70BF8E" fill-rule="nonzero"></path>
                <path d="M53.6860287,151.508987 C50.5909737,154.608094 36,158 36,158 C36,158 39.3504352,143.428493 42.4416786,140.329386 C45.535142,137.231724 50.5600231,137.22236 53.6650647,140.308472 C56.7701062,143.394583 56.7794922,148.407522 53.6860287,151.505184 L53.6860287,151.508987 Z" id="Shape" fill="#70BF8E" fill-rule="nonzero"></path>
                <path d="M67.4901956,183.499218 C65.0970778,186.738267 52,192 52,192 C52,192 52.788066,178.475245 55.1847987,175.23275 C56.6946556,173.043934 59.3360614,171.813555 62.0754566,172.023049 C64.8148518,172.232544 67.2166765,173.848603 68.341117,176.238877 C69.4655576,178.62915 69.1338297,181.413588 67.4757356,183.502664 L67.4901956,183.499218 Z" id="Shape" fill="#70BF8E" fill-rule="nonzero"></path>
                <path d="M52,196 C52,196 63.7939168,180.215979 61.7260501,165.36511 C60.814812,159.141222 62.1225473,152.813318 65.4529278,147.331396 C67.0545845,144.736797 68.9113766,142.282732 71,140" id="Shape" stroke="#535461" stroke-width="2"></path>
                <path d="M67.1750498,130.165295 C66.4005156,132.578442 68.4472121,141 68.4472121,141 C68.4472121,141 75.000654,135.431826 75.7751882,133.022755 C76.5509249,130.610533 75.2545772,128.016288 72.8797146,127.228348 C70.504852,126.440408 67.9507865,127.757149 67.1750498,130.169372 L67.1750498,130.165295 Z" id="Shape" fill="#70BF8E" fill-rule="nonzero"></path>
                <path d="M57.1506833,138.70489 C57.788567,141.122115 64.0149545,147 64.0149545,147 C64.0149545,147 66.5343948,138.805607 65.896511,136.380325 C65.4830054,134.811467 64.2674378,133.583313 62.7077007,133.158495 C61.1479636,132.733678 59.4810182,133.176738 58.3347868,134.320778 C57.1885553,135.464818 56.7371776,137.136032 57.1506833,138.70489 Z" id="Shape" fill="#70BF8E" fill-rule="nonzero"></path>
                <path d="M50.1683379,159.78151 C51.7163359,161.327371 59,163 59,163 C59,163 57.3010634,155.700295 55.7495552,154.154434 C54.1986515,152.608339 51.6919975,152.616222 50.150787,154.172041 C48.6095764,155.727859 48.6174342,158.242457 50.1683379,159.788552 L50.1683379,159.78151 Z" id="Shape" fill="#70BF8E" fill-rule="nonzero"></path>
                <path d="M49.7402621,177.304628 C51.0221904,179.099917 58,182 58,182 C58,182 57.5490169,174.475365 56.2670885,172.680076 C54.9864316,170.88284 52.4871742,170.461134 50.6848409,171.738168 C48.8825076,173.015203 48.4596052,175.507392 49.7402621,177.304628 Z" id="Shape" fill="#70BF8E" fill-rule="nonzero"></path>
                <path d="M70.705173,150.455688 C68.6778218,151.539981 61,150.669381 61,150.669381 C61,150.669381 65.0837163,143.522545 67.1146942,142.454081 C68.4266022,141.753544 69.9813717,141.869902 71.1933358,142.759323 C72.4052999,143.648744 73.0903326,145.176105 72.9903886,146.766063 C72.8904446,148.356021 72.0207079,149.767023 70.7087997,150.46756 L70.705173,150.455688 Z" id="Shape" fill="#70BF8E" fill-rule="nonzero"></path>
                <path d="M70.1826208,170.971117 C67.7381569,171.343916 60,167.984716 60,167.984716 C60,167.984716 66.4087812,162.428807 68.8532451,162.051999 C71.2958096,161.676746 73.5770436,163.372745 73.9485238,165.840119 C74.320004,168.307493 72.6410584,170.611898 70.1984939,170.987151 L70.1826208,170.971117 Z" id="Shape" fill="#70BF8E" fill-rule="nonzero"></path>
                <path d="M65.8498157,188.810356 C63.4391987,189.613555 55,187.605557 55,187.605557 C55,187.605557 60.5391164,181.023341 62.9497334,180.23219 C65.3601247,179.443701 67.9633384,180.728388 68.764174,183.101619 C69.5650097,185.47485 68.260207,188.03793 65.8498157,188.82642 L65.8498157,188.810356 Z" id="Shape" fill="#70BF8E" fill-rule="nonzero"></path>
                <path d="M67.1750498,130.165295 C66.4005156,132.578442 68.4472121,141 68.4472121,141 C68.4472121,141 75.000654,135.431826 75.7751882,133.022755 C76.5509249,130.610533 75.2545772,128.016288 72.8797146,127.228348 C70.504852,126.440408 67.9507865,127.757149 67.1750498,130.169372 L67.1750498,130.165295 Z" id="Shape" fill="#FFFFFF" fill-rule="nonzero" opacity="0.5"></path>
                <path d="M57.1506833,138.70489 C57.788567,141.122115 64.0149545,147 64.0149545,147 C64.0149545,147 66.5343948,138.805607 65.896511,136.380325 C65.4830054,134.811467 64.2674378,133.583313 62.7077007,133.158495 C61.1479636,132.733678 59.4810182,133.176738 58.3347868,134.320778 C57.1885553,135.464818 56.7371776,137.136032 57.1506833,138.70489 Z" id="Shape" fill="#FFFFFF" fill-rule="nonzero" opacity="0.5"></path>
                <path d="M50.1683379,159.78151 C51.7163359,161.327371 59,163 59,163 C59,163 57.3010634,155.700295 55.7495552,154.154434 C54.1986515,152.608339 51.6919975,152.616222 50.150787,154.172041 C48.6095764,155.727859 48.6174342,158.242457 50.1683379,159.788552 L50.1683379,159.78151 Z" id="Shape" fill="#FFFFFF" fill-rule="nonzero" opacity="0.5"></path>
                <path d="M49.7402621,177.304628 C51.0221904,179.099917 58,182 58,182 C58,182 57.5490169,174.475365 56.2670885,172.680076 C54.9864316,170.88284 52.4871742,170.461134 50.6848409,171.738168 C48.8825076,173.015203 48.4596052,175.507392 49.7402621,177.304628 Z" id="Shape" fill="#FFFFFF" fill-rule="nonzero" opacity="0.5"></path>
                <path d="M70.705173,150.455688 C68.6778218,151.539981 61,150.669381 61,150.669381 C61,150.669381 65.0837163,143.522545 67.1146942,142.454081 C68.4266022,141.753544 69.9813717,141.869902 71.1933358,142.759323 C72.4052999,143.648744 73.0903326,145.176105 72.9903886,146.766063 C72.8904446,148.356021 72.0207079,149.767023 70.7087997,150.46756 L70.705173,150.455688 Z" id="Shape" fill="#FFFFFF" fill-rule="nonzero" opacity="0.5"></path>
                <path d="M70.1826208,170.971117 C67.7381569,171.343916 60,167.984716 60,167.984716 C60,167.984716 66.4087812,162.428807 68.8532451,162.051999 C71.2958096,161.676746 73.5770436,163.372745 73.9485238,165.840119 C74.320004,168.307493 72.6410584,170.611898 70.1984939,170.987151 L70.1826208,170.971117 Z" id="Shape" fill="#FFFFFF" fill-rule="nonzero" opacity="0.5"></path>
                <path d="M65.8498157,188.810356 C63.4391987,189.613555 55,187.605557 55,187.605557 C55,187.605557 60.5391164,181.023341 62.9497334,180.23219 C65.3601247,179.443701 67.9633384,180.728388 68.764174,183.101619 C69.5650097,185.47485 68.260207,188.03793 65.8498157,188.82642 L65.8498157,188.810356 Z" id="Shape" fill="#FFFFFF" fill-rule="nonzero" opacity="0.5"></path>
                <polygon id="Shape" fill="#474059" fill-rule="nonzero" points="70.3309375 238 39.6654688 238 32 191 78 191"></polygon>
                <polygon id="Shape" fill="#000000" fill-rule="nonzero" opacity="0.1" points="73.8008698 191 66.239752 234.919158 39 234.919158 39.5311372 238 71.9039511 238 80 191"></polygon>
                <rect id="Rectangle-path" fill="#C0BCCF" fill-rule="nonzero" x="83" y="120" width="235" height="11"></rect>
                <rect id="Rectangle-path" fill="#E8EAF1" fill-rule="nonzero" x="142" y="67" width="34" height="36"></rect>
                <rect id="Rectangle-path" fill="#FFFFFF" fill-rule="nonzero" x="143" y="67" width="32" height="35"></rect>
                <path d="M172.531136,93.2937736 C172.981685,89.6938358 172.080586,89.4683777 172.080586,89.4683777 L170.787546,88.8437478 C170.808485,88.6325357 170.817047,88.4202604 170.813187,88.2080299 C170.823337,88.0320011 170.823337,87.8555257 170.813187,87.6794969 C170.684982,86.2602196 169.849817,85.022048 169.25641,83.7284359 C168.711445,82.5338149 168.367306,81.2560133 168.238095,79.9473924 C168.080586,78.3322253 168.238095,76.6542255 167.688645,75.1425474 C167.17724,73.9270828 166.396573,72.8460419 165.406593,71.9824377 C164.357038,70.9167659 163.113221,70.0658534 161.74359,69.4765262 C160.355649,68.8878207 158.799917,68.843008 157.380952,69.3508611 C156.135531,69.8461297 155.18315,70.8292749 154.238095,71.801332 C153.556951,72.4495372 152.960006,73.1822666 152.461538,73.9819925 C151.93884,75.0131351 151.60033,76.1291573 151.461538,77.2788554 C151.163894,79.1040618 150.9585,80.9433698 150.846154,82.7896431 C150.747253,84.3271935 150.59707,86.0754179 149.380952,87.0216028 C148.783883,87.4836071 147.948718,87.7423295 147.673993,88.4408801 C147.598016,88.6512162 147.568026,88.8756454 147.586081,89.0987742 C147.578607,89.2855927 147.590886,89.4726829 147.622711,89.6568755 C147.622711,89.7640605 147.663004,89.8712455 147.684982,89.9784305 C147.335186,90.9195803 147.04162,91.8810417 146.805861,92.8576415 C145.977807,96.1870524 145.374469,99.5692913 145,102.98108 L166.728938,102.98108 C166.93453,103.006307 167.142393,103.006307 167.347985,102.98108 L173,102.98108 L172.531136,93.2937736 Z" id="Shape" fill="url(#linearGradient-1)" fill-rule="nonzero"></path>
                <rect id="Rectangle-path" fill="#B96B6B" fill-rule="nonzero" x="153" y="77" width="12" height="10"></rect>
                <rect id="Rectangle-path" fill="#000000" fill-rule="nonzero" opacity="0.1" x="153" y="77" width="12" height="10"></rect>
                <path d="M167,88.7277487 L162.030963,96 L156.816122,95.5327225 C156.816122,95.5327225 150.039475,96 154.547155,90.604712 C156.7178,88.013089 157.428743,85.8534031 157.572444,84.3219895 C157.699059,83.4348686 157.587844,82.528674 157.251007,81.7028796 L162.900734,81 C162.646863,81.7898546 162.615377,82.6385411 162.809975,83.4463351 C163.543608,86.4856021 167,88.7277487 167,88.7277487 Z" id="Shape" fill="#FFB9B9" fill-rule="nonzero"></path>
                <path d="M161.899598,83.6977924 C160.309462,84.9887565 158.226483,85.3462507 156.341365,84.6517317 C156.47583,83.6765548 156.35772,82.6804109 156,81.7726477 L162,81 C161.727506,81.8705041 161.692665,82.8066767 161.899598,83.6977924 Z" id="Shape" fill="#000000" fill-rule="nonzero" opacity="0.1"></path>
                <circle id="Oval" fill="#FFB9B9" fill-rule="nonzero" cx="158.5" cy="77.5" r="5.5"></circle>
                <path d="M160.067173,92.8436985 C160.067173,92.8436985 162.108235,90.445098 162.108235,88.4809472 C162.672679,87.429036 163.652901,86.6396759 164.828387,86.2904444 C166.869449,85.6369445 166.641821,86.2904444 166.641821,86.2904444 L168,91.525746 L167.548538,100.904749 L167.776166,102 L151,102 L152.138139,97.6372487 L151.906717,93.9389499 L152.813435,88.2691986 L155.533586,86.7431483 L157.574649,89.3607991 L160.067173,92.8436985 Z" id="Shape" fill="#000000" fill-rule="nonzero" opacity="0.1"></path>
                <path d="M160.067173,92.8436985 C160.067173,92.8436985 162.108235,90.445098 162.108235,88.4809472 C162.672679,87.429036 163.652901,86.6396759 164.828387,86.2904444 C166.869449,85.6369445 166.641821,86.2904444 166.641821,86.2904444 L168,91.525746 L167.548538,100.904749 L167.776166,102 L151,102 L152.138139,97.6372487 L151.910511,93.9279974 L152.817228,88.2582461 L155.53738,86.7321958 L157.578442,89.3498466 L160.067173,92.8436985 Z" id="Shape" fill="#FEC5D9" fill-rule="nonzero"></path>
                <path d="M155.829003,86 L149.114804,87.1004127 C149.114804,87.1004127 148.02719,86.8803301 146.732931,92.1403026 C145.938326,95.3840287 145.359386,98.6779692 145,102 L153.374622,102 C153.374622,102 153.87855,93.2333792 155.187311,92.5767996 L157,89.741403 C157,89.741403 154.099698,89.5103164 154.527492,87.9770747 C154.955287,86.4438331 155.829003,86 155.829003,86 Z" id="Shape" fill="#000000" fill-rule="nonzero" opacity="0.1"></path>
                <path d="M155.821752,86 L149.107553,87.100665 C149.107553,87.100665 148.01994,86.880532 146.72568,92.1417106 C145.933676,95.3851455 145.35716,98.6786084 145,102 L153.374622,102 C153.374622,102 153.87855,93.231369 155.187311,92.5746388 L157,89.7385921 C157,89.7385921 154.099698,89.5074524 154.527492,87.9738592 C154.955287,86.440266 155.821752,86 155.821752,86 Z" id="Shape" fill="#747B9C" fill-rule="nonzero"></path>
                <path d="M164,84 L172.03033,87.5789474 C172.03033,87.5789474 173.004074,87.8035675 172.515165,91.3825149 L173,101 L164.362608,101 C165.019451,97.9817972 165.143262,94.8861172 164.729289,91.8317551 C164.304053,89.2381996 164.060456,86.6222351 164,84 Z" id="Shape" fill="#000000" fill-rule="nonzero" opacity="0.1"></path>
                <path d="M164,84 L172.03033,87.5789474 C172.03033,87.5789474 173.004074,87.8035675 172.515165,91.3825149 L173,101 L164.346311,101 C165.003154,97.9817972 165.126965,94.8861172 164.712992,91.8317551 C164.293212,89.237876 164.055058,86.6219133 164,84 Z" id="Shape" fill="#747B9C" fill-rule="nonzero"></path>
                <path d="M157.137944,75.7199505 C157.039344,76.6370035 156.409821,77.3911091 155.886482,78.1527936 C155.363144,78.9144781 154.908067,79.854268 155.200075,80.7296368 C155.313844,81.0706896 155.53759,81.3738476 155.617229,81.7262688 C155.753752,82.3325848 155.446575,82.9578483 155.499667,83.5755327 C155.571721,84.4243752 156.292259,85.0534281 156.690452,85.8037442 C157.532344,87.3915343 156.887652,89.358272 155.977498,90.9043779 C155.067344,92.4504839 153.876559,93.9170108 153.576967,95.6866958 C153.300128,97.3237491 153.831051,98.9797498 154.40369,100.537224 C154.553672,100.838552 154.599035,101.181186 154.532628,101.511119 C154.358182,102.034067 153.702113,102.189435 153.148436,102.22733 C152.543518,102.265025 151.936838,102.265025 151.33192,102.22733 C151.102947,102.23125 150.876057,102.183315 150.668266,102.08712 C150.251113,101.859751 150.125966,101.329224 149.970482,100.889645 C149.814997,100.450066 149.473689,99.9498555 148.999651,99.9991186 C148.688682,100.033224 148.445974,100.298487 148.138797,100.35154 C147.850379,100.377842 147.567263,100.261851 147.380335,100.040803 C146.815281,99.4306973 146.951804,98.4454338 147.323451,97.7026966 C147.695097,96.9599595 148.263943,96.3119592 148.510443,95.5199588 C149.121005,93.5494317 147.592704,91.5978519 147.270358,89.5591142 C147.199386,89.2268025 147.217704,88.88164 147.323451,88.5586927 C147.600289,87.8538503 148.438389,87.5923765 149.037574,87.1300606 C150.262489,86.1789023 150.414182,84.4167962 150.512782,82.8706903 C150.617028,81.0139625 150.814476,79.1636337 151.104382,77.326688 C151.242877,76.1717149 151.581664,75.0496787 152.105551,74.0108971 C152.604768,73.2073905 153.203645,72.4701763 153.887936,71.8167909 C154.820844,70.8466852 155.78409,69.8538427 157.043136,69.353632 C158.465473,68.8422092 160.028696,68.8868781 161.41946,69.4786847 C162.800644,70.079021 164.051427,70.9427166 165.101791,72.0214226 C166.091949,72.894874 166.870078,73.9821455 167.377176,75.2007923 C167.934646,76.7355298 167.756407,78.4256358 167.927061,80.0513207 C168.057547,81.3617036 168.402161,82.6418424 168.947192,83.840796 C169.542584,85.1443755 170.380684,86.3911129 170.509623,87.8197451 C170.612015,88.9565876 170.240369,90.0934302 170.050754,91.2113254 C169.71703,93.1704842 169.918023,95.1751166 170.115223,97.1494332 C170.143115,97.6277206 170.24283,98.0990972 170.411023,98.5477496 C170.740889,99.1768363 171.201131,99.7284557 171.761085,100.165856 C171.888304,100.255095 171.974372,100.391609 172,100.544803 C171.991345,100.676402 171.926403,100.797905 171.821762,100.878277 C171.135354,101.488382 169.948361,101.037435 169.205069,101.57933 C168.997568,101.759955 168.808309,101.960496 168.640015,102.178067 C167.996009,102.877156 167.016066,103.15982 166.098292,102.911226 C165.180519,102.662633 164.477588,101.924135 164.275068,100.995751 C164.08166,100.109013 164.369876,99.1995393 164.479853,98.2976442 C164.821161,95.4517483 163.364914,92.7460629 162.204468,90.1275355 C161.658376,88.903535 161.161583,87.5772186 161.362576,86.2509023 C161.525645,85.1860597 162.121037,84.2500593 162.557153,83.2647958 C163.433176,81.2980581 163.694845,78.9940571 162.936383,76.9742668 C162.368457,75.4342184 161.215623,74.1801203 159.728091,73.48416 C159.189583,73.2416336 158.423537,72.9081598 157.858483,73.2340547 C156.929367,73.7645812 157.21379,74.871108 157.137944,75.7199505 Z" id="Shape" fill="#000000" fill-rule="nonzero" opacity="0.1"></path>
                <path d="M157.134869,75.7267389 C157.036299,76.6442009 156.406967,77.3986428 155.883787,78.1606671 C155.360607,78.9226913 154.905669,79.8629004 155.197588,80.7386596 C155.311322,81.0798645 155.535001,81.3831577 155.614615,81.7357361 C155.751097,82.3423226 155.444013,82.9678649 155.497089,83.5858249 C155.569121,84.4350459 156.289441,85.0643794 156.687513,85.8150302 C157.52915,87.4035285 156.884653,89.3711434 155.974775,90.9179389 C155.064897,92.4647344 153.874474,93.9319154 153.574972,95.7023897 C153.298218,97.3401732 153.82898,98.9969125 154.401445,100.555082 C154.551381,100.856543 154.59673,101.199331 154.530344,101.529411 C154.355951,102.052592 153.70008,102.20803 153.146571,102.245941 C152.541837,102.283653 151.935341,102.283653 151.330607,102.245941 C151.101702,102.249863 150.874881,102.201907 150.667154,102.105668 C150.250126,101.878198 150.125018,101.347435 149.969581,100.90766 C149.814143,100.467885 149.472939,99.9674509 148.999044,100.016736 C148.688169,100.050856 148.445535,100.316238 148.138451,100.369314 C147.850121,100.395628 147.567091,100.279586 147.38022,100.058439 C146.815337,99.4480612 146.951819,98.4623582 147.323352,97.7192897 C147.694886,96.9762213 148.26356,96.327932 148.509985,95.5355784 C149.120361,93.5641724 147.592525,91.6117222 147.270276,89.5720751 C147.199326,89.2396152 147.217638,88.8942988 147.323352,88.5712075 C147.600107,87.8660507 148.437953,87.6044603 149.036956,87.1419381 C150.2615,86.1903555 150.413146,84.4274636 150.511716,82.8806681 C150.623341,81.0214597 150.828322,79.1690351 151.125884,77.3304018 C151.264337,76.1749137 151.603022,75.052377 152.12675,74.0131321 C152.625815,73.2092671 153.22451,72.4717241 153.908594,71.8180473 C154.841219,70.8475089 155.804173,69.8542235 157.062837,69.3537897 C158.484742,68.8421388 160.047491,68.8868276 161.437834,69.4788982 C162.814004,70.0735957 164.061629,70.9298109 165.111466,72.0000232 C166.101323,72.8738642 166.879216,73.9616206 167.386161,75.180811 C167.943461,76.716233 167.765276,78.4070928 167.935879,80.0335028 C168.066325,81.3444702 168.410835,82.6251799 168.9557,83.8246683 C169.550912,85.1288292 170.388758,86.3761227 170.517657,87.805392 C170.620018,88.9427417 170.248485,90.0800913 170.058927,91.1984851 C169.725305,93.1585177 169.926237,95.1640442 170.123377,97.1392414 C170.148069,97.6199132 170.245207,98.0941002 170.411505,98.5457638 C170.74127,99.175131 171.201373,99.7269965 171.761157,100.164591 C171.888338,100.25387 171.97438,100.390445 172,100.543708 C171.991348,100.675366 171.926425,100.796923 171.821816,100.877331 C171.135616,101.487708 169.948984,101.03656 169.205917,101.578696 C168.998478,101.759402 168.809277,101.960032 168.641034,102.1777 C167.997223,102.877101 167.017578,103.159891 166.100082,102.911187 C165.182587,102.662482 164.479869,101.923655 164.277411,100.994857 C164.084062,100.107724 164.37219,99.1978443 164.482134,98.2955469 C164.823338,95.4483816 163.367533,92.7414895 162.207439,90.1217941 C161.661512,88.8972477 161.16487,87.5703398 161.365802,86.2434319 C161.528822,85.1781144 162.124033,84.2416965 162.560017,83.2559935 C163.435774,81.2883786 163.697364,78.98335 162.939132,76.9626588 C162.371378,75.4219235 161.218894,74.1672661 159.731813,73.4709954 C159.193468,73.2283608 158.427654,72.8947382 157.862772,73.2207785 C156.926356,73.7704975 157.210693,74.881309 157.134869,75.7267389 Z" id="Shape" fill="#B96B6B" fill-rule="nonzero"></path>
                <rect id="Rectangle-path" fill="#E8EAF1" fill-rule="nonzero" x="183" y="69" width="27" height="1"></rect>
                <rect id="Rectangle-path" fill="#E8EAF1" fill-rule="nonzero" x="183" y="72" width="27" height="1"></rect>
                <rect id="Rectangle-path" fill="#E8EAF1" fill-rule="nonzero" x="183" y="75" width="27" height="1"></rect>
                <rect id="Rectangle-path" fill="#E8EAF1" fill-rule="nonzero" x="183" y="79" width="27" height="1"></rect>
                <rect id="Rectangle-path" fill="#E8EAF1" fill-rule="nonzero" x="183" y="81" width="27" height="1"></rect>
                <rect id="Rectangle-path" fill="#E8EAF1" fill-rule="nonzero" x="183" y="83" width="27" height="1"></rect>
                <rect id="Rectangle-path" fill="#E8EAF1" fill-rule="nonzero" x="183" y="86" width="27" height="1"></rect>
                <rect id="Rectangle-path" fill="#E8EAF1" fill-rule="nonzero" x="183" y="90" width="27" height="1"></rect>
                <rect id="Rectangle-path" fill="#E8EAF1" fill-rule="nonzero" x="183" y="92" width="27" height="1"></rect>
                <rect id="Rectangle-path" fill="#E8EAF1" fill-rule="nonzero" x="183" y="96" width="27" height="1"></rect>
                <rect id="Rectangle-path" fill="#E8EAF1" fill-rule="nonzero" x="183" y="98" width="27" height="1"></rect>
                <path d="M275.843953,156.239909 C278.015338,151.158331 278.563059,145.531413 277.412332,140.127431 C276.068482,133.673571 275.191216,127.131566 274.787323,120.552038 C274.367616,114.247475 273.447206,110.163295 272.442118,107.516481 C272.442118,107.516481 272.82869,98.9363935 267.008018,94.4625432 C261.187346,89.9886929 247.602095,82.9011142 247.602095,82.9011142 L248.96062,77.3611862 L248.905396,77.3611862 C249.3145,77.2310821 249.706366,77.0521059 250.072475,76.8281473 C250.459984,76.5863157 250.812942,76.293243 251.121743,75.9569045 C253.419086,73.9497375 253.452221,70.2662552 254.541986,67.3327034 C255.3814,65.0755596 256.95346,63.1419152 258.080042,61.0024075 C260.130715,57.1057096 260.609328,52.3230644 258.702239,48.3601963 C256.79515,44.3973281 252.277778,41.5483273 247.767769,42.0593094 C246.31066,42.2798265 244.883023,42.6633305 243.511794,43.2025858 C240.246179,44.3495384 237.669031,41.1035155 234.403417,42.2541442 C232.765087,42.8312967 226.649884,43.4562388 225.324493,45.1362302 C225.02099,45.3339175 224.798838,45.6340268 224.698615,45.9817401 C224.352541,47.6139419 227.345714,50.8820215 229.565742,53.4920738 C227.801602,55.6313294 226.836033,58.3158047 226.833966,61.0869585 C226.833966,61.1494527 226.833966,61.2119469 226.833966,61.2744411 C226.833966,61.3369353 226.833966,61.3994295 226.833966,61.4619237 C226.841505,64.7088307 228.162558,67.8149583 230.497197,70.0750964 C230.309434,71.7146504 230.029629,73.5600677 229.62833,75.4495986 L229.359571,75.4495986 C229.359571,75.4495986 227.805919,82.162212 222.762072,82.162212 C221.414592,82.162212 219.573772,82.0813372 217.607777,81.9673772 C211.666283,81.6674482 205.716054,82.3518868 199.998494,83.9929248 C198.032498,84.5406682 195.867694,84.5884579 194.056328,83.2834317 C189.726719,80.1623973 185.065763,72.2146041 184.42884,71.108089 C184.914816,67.8841229 184.848547,61.9802581 178.144281,60.9068281 C170.28398,59.6495916 170.714732,68.7443374 175.235785,74.5305661 C175.123911,74.8188548 175.049668,75.120324 175.014887,75.4275418 C174.628315,80.2763573 179.285589,89.227734 180.448987,90.3452775 C181.612385,91.4628211 181.641838,98.5467237 189.778262,100.425226 C197.914686,102.303729 203.768493,103.035278 204.136657,112.36162 C204.504821,121.687962 212.287807,131.381917 208.407359,142.200768 C206.076881,148.692814 206.684352,152.093234 207.542174,153.773225 C207.472223,153.993793 207.405953,154.210685 207.33232,154.434929 C206.448727,157.114828 205.351598,159.805755 204.136657,161.419576 C203.856852,161.787189 203.584411,162.184211 203.323015,162.595937 C200.164168,164.639866 196.865419,166.926419 195.591571,168.319672 C192.874521,171.30469 194.037919,183.237408 195.591571,188.086223 C197.145223,192.935039 206.846344,222.399221 206.846344,222.399221 L207.214508,222.399221 L207.33232,223.134447 L207.722574,225.575397 C207.595427,225.506795 207.472488,225.430686 207.35441,225.347477 C207.201892,225.241026 207.010023,225.207401 206.830315,225.255629 C206.650608,225.303858 206.501475,225.428999 206.422955,225.597454 L204.526911,229.825004 C204.526911,229.825004 196.766014,226.476049 196.368397,234.309882 C196.368397,234.622354 196.368397,234.92012 196.368397,235.206858 C196.349989,239.371914 198.647332,240.92324 200.617009,241.482012 C202.426038,241.966673 204.137463,242.760163 205.675582,243.827383 C207.542174,245.165494 210.3844,246.533015 213.616879,245.790437 C214.270241,245.644644 214.939591,245.582875 215.608646,245.60663 C217.003988,245.647068 219.363919,245.239017 219.290286,242.129011 C219.305284,241.884165 219.305284,241.638632 219.290286,241.393785 C219.290286,241.393785 217.651956,235.096574 217.582005,232.20346 C217.574038,231.909176 217.626668,231.616393 217.736634,231.343246 C218.012757,230.813883 218.104798,229.813975 218.079027,228.744222 C218.079215,227.809869 218.03129,226.876125 217.935443,225.946687 C217.912695,225.767313 217.780908,225.62084 217.60472,225.57911 C217.428532,225.537379 217.2449,225.609143 217.14389,225.759204 L217.081302,225.843755 C216.830951,225.016626 216.540101,224.049803 216.26766,223.138123 L216.04308,222.402897 L216.565873,222.402897 C216.565873,222.402897 213.454887,204.092093 214.618285,202.621641 C215.380385,201.647467 214.150717,189.990459 213.208217,182.035313 C222.662668,182.634522 237.731619,180.965559 248.04021,180.450901 C250.010255,180.355544 251.93383,179.820412 253.669437,178.88487 C252.737983,186.428289 251.007612,201.504098 251.876479,202.617965 C253.039877,204.110474 249.936255,222.384517 249.936255,222.384517 L250.403823,222.384517 L250.234468,222.943288 L250.293374,222.943288 C250.006206,223.910111 249.693267,224.950455 249.424507,225.836403 L249.361919,225.751852 C249.260909,225.601791 249.077277,225.530026 248.901089,225.571757 C248.724901,225.613488 248.593114,225.759961 248.570366,225.939334 C248.474519,226.868773 248.426594,227.802517 248.426783,228.736869 C248.426783,229.806623 248.496734,230.806531 248.769175,231.335893 C248.879242,231.609012 248.931876,231.901816 248.923804,232.196108 C248.853853,235.107603 247.215523,241.386433 247.215523,241.386433 C247.200534,241.63128 247.200534,241.876812 247.215523,242.121659 C247.138209,245.246369 249.49814,245.643391 250.897163,245.599278 C251.566218,245.575522 252.235568,245.637292 252.88893,245.783084 C256.121409,246.51831 258.963635,245.154466 260.830227,243.820031 C262.368346,242.75281 264.079771,241.959321 265.8888,241.47466 C267.858477,240.915888 270.15582,239.364561 270.137412,235.199506 C270.137412,234.912768 270.137412,234.615001 270.137412,234.30253 C269.72875,226.476049 261.967853,229.825004 261.967853,229.825004 L260.060764,225.58275 C259.982244,225.414294 259.833112,225.289153 259.653404,225.240925 C259.473697,225.192696 259.281827,225.226321 259.129309,225.332773 C259.011236,225.415989 258.888296,225.492098 258.761145,225.560693 L259.272893,222.373488 L259.641057,222.373488 C259.641057,222.373488 269.342178,192.909306 270.89583,188.06049 C272.449482,183.211675 273.61288,171.275281 270.89583,168.293939 C269.610937,166.882305 266.2496,164.558991 263.057619,162.496682 C265.786369,164.132256 268.404727,165.944803 270.89583,167.92265 L275.843953,156.239909 Z M259.085129,159.978533 L257.85178,159.243307 C257.595479,158.801301 257.282334,158.394698 256.920325,158.03386 C256.578192,157.702009 256.26073,157.345706 255.970462,156.967782 C255.212044,154.677553 252.410317,145.204166 256.147181,140.318589 C258.860549,136.760096 259.066721,129.885732 258.853186,125.349388 C260.694006,134.359583 263.271154,147.038555 263.521505,149.641255 C263.827081,152.890954 260.491516,158.004451 259.085129,159.978533 Z" id="Shape" fill="url(#linearGradient-2)" fill-rule="nonzero"></path>
                <path d="M259,218.64 L257.571429,228 L249,226.2 C249,226.2 250.785714,220.08 251.142857,218.64 C251.5,217.2 251.5,218.64 251.5,218.64 L259,218.64 Z" id="Shape" fill="#D6E6F9" fill-rule="nonzero"></path>
                <path d="M220,226.2 L211.428571,228 L210.439286,221.52 L210,218.64 L217.5,218.64 C217.5,218.64 217.5,217.2 217.857143,218.64 C217.985714,219.1584 218.3,220.2888 218.653571,221.52 C219.285714,223.7016 220,226.2 220,226.2 Z" id="Shape" fill="#D6E6F9" fill-rule="nonzero"></path>
                <path d="M219,222 L210.456872,222 L210,218.727273 L217.800248,218.727273 C217.800248,218.727273 217.800248,217.090909 218.171688,218.727273 C218.305407,219.316364 218.632274,220.600909 219,222 Z" id="Shape" fill="#000000" fill-rule="nonzero" opacity="0.1"></path>
                <path d="M250,222 L258.543128,222 L259,218.727273 L251.192324,218.727273 C251.192324,218.727273 251.192324,217.090909 250.820883,218.727273 C250.694593,219.316364 250.367726,220.600909 250,222 Z" id="Shape" fill="#000000" fill-rule="nonzero" opacity="0.1"></path>
                <path d="M268.042696,105 C268.042696,105 272.827865,105.371429 273.932134,122.828571 C274.320012,129.379224 275.157585,135.894852 276.438827,142.328571 C277.532557,147.701387 277.0201,153.280951 274.966467,158.359429 L270.251236,170 C270.251236,170 261.417079,162.571429 258.47236,162.942857 C258.47236,162.942857 263.625618,155.885714 263.257528,151.8 C262.889438,147.714286 257,118.371429 257,118.371429 L268.042696,105 Z" id="Shape" fill="#D6E6F9" fill-rule="nonzero"></path>
                <path d="M211.50163,158 C211.50163,158 200.848538,165.069767 198.443001,168.046512 C196.037465,171.023256 197.068409,182.930233 198.443001,187.767442 C199.817594,192.604651 208.408797,222 208.408797,222 L217,222 C217,222 214.250815,203.767442 215.281759,202.27907 C216.312704,200.790698 213.219871,174.372093 213.219871,174.372093 L211.50163,158 Z" id="Shape" fill="#5F546F" fill-rule="nonzero"></path>
                <path d="M255.49837,158 C255.49837,158 266.151462,165.069767 268.556999,168.046512 C270.962535,171.023256 269.931591,182.930233 268.556999,187.767442 C267.182406,192.604651 258.591203,222 258.591203,222 L250,222 C250,222 252.749185,203.767442 251.718241,202.27907 C250.687296,200.790698 253.780129,174.372093 253.780129,174.372093 L255.49837,158 Z" id="Shape" fill="#5F546F" fill-rule="nonzero"></path>
                <path d="M211.50163,158 C211.50163,158 200.848538,165.069767 198.443001,168.046512 C196.037465,171.023256 197.068409,182.930233 198.443001,187.767442 C199.817594,192.604651 208.408797,222 208.408797,222 L217,222 C217,222 214.250815,203.767442 215.281759,202.27907 C216.312704,200.790698 213.219871,174.372093 213.219871,174.372093 L211.50163,158 Z" id="Shape" fill="#000000" fill-rule="nonzero" opacity="0.1"></path>
                <path d="M255.49837,158 C255.49837,158 266.151462,165.069767 268.556999,168.046512 C270.962535,171.023256 269.931591,182.930233 268.556999,187.767442 C267.182406,192.604651 258.591203,222 258.591203,222 L250,222 C250,222 252.749185,203.767442 251.718241,202.27907 C250.687296,200.790698 253.780129,174.372093 253.780129,174.372093 L255.49837,158 Z" id="Shape" fill="#000000" fill-rule="nonzero" opacity="0.1"></path>
                <path d="M231.730137,66.6250475 C231.730137,66.6250475 231.730137,81.0217922 226.614575,88.4047382 C221.499014,95.7876842 250,89.5121801 250,89.5121801 C248.70234,88.5468711 247.742512,87.1893206 247.259521,85.6361335 C245.754084,80.2207426 245.184064,70.6819763 247.442219,66.6250475 C250.730795,60.7186907 231.730137,66.6250475 231.730137,66.6250475 Z" id="Shape" fill="#FFCED8" fill-rule="nonzero"></path>
                <circle id="Oval" fill="#000000" fill-rule="nonzero" opacity="0.1" cx="239.5" cy="64.5" r="12.5"></circle>
                <circle id="Oval" fill="#FFCED8" fill-rule="nonzero" cx="239.5" cy="64.5" r="12.5"></circle>
                <path d="M248.278078,187.667852 C235.274545,188.242684 213.644404,190.665712 210.365347,187.071191 C205.075959,181.275572 206.951783,176.058423 209.681907,172.882293 C210.750691,171.634397 211.710415,169.546082 212.488373,167.461406 C212.750115,166.755599 212.993682,166.053431 213.215436,165.384006 C214.055195,162.789984 216.850754,161 220.013481,161 L246.271382,161 C249.452285,161 252.25148,162.819089 253.076697,165.413111 C253.445206,166.630616 254.010067,167.77966 254.748943,168.814808 C255.135993,169.352113 255.586391,169.840733 256.090376,170.27008 C257.413631,171.394277 258.271567,173.817305 258.82777,176.48409 C260.001978,182.130544 255.028863,187.369521 248.278078,187.667852 Z" id="Shape" fill="#5F546F" fill-rule="nonzero"></path>
                <path d="M248.278078,187.667852 C235.274545,188.242684 213.644404,190.665712 210.365347,187.071191 C205.075959,181.275572 206.951783,176.058423 209.681907,172.882293 C210.750691,171.634397 211.710415,169.546082 212.488373,167.461406 C212.750115,166.755599 212.993682,166.053431 213.215436,165.384006 C214.055195,162.789984 216.850754,161 220.013481,161 L246.271382,161 C249.452285,161 252.25148,162.819089 253.076697,165.413111 C253.445206,166.630616 254.010067,167.77966 254.748943,168.814808 C255.135993,169.352113 255.586391,169.840733 256.090376,170.27008 C257.413631,171.394277 258.271567,173.817305 258.82777,176.48409 C260.001978,182.130544 255.028863,187.369521 248.278078,187.667852 Z" id="Shape" fill="#000000" fill-rule="nonzero" opacity="0.1"></path>
                <path d="M213.202647,225.880293 C212.091066,225.649987 209.189589,224.99197 208.063801,224.110959 C207.924313,224.006674 207.746185,223.973694 207.580137,224.02141 C207.414089,224.069127 207.278313,224.192311 207.21147,224.355888 L205.471294,228.526982 C205.471294,228.526982 198.368536,225.236899 198.013398,232.913758 C197.807418,237.391927 200.016376,239.007723 201.895055,239.578004 C203.561875,240.053207 205.133486,240.829282 206.536708,241.870095 C208.244922,243.178816 210.848083,244.520439 213.80283,243.796621 C214.399584,243.652982 215.01222,243.591517 215.624688,243.613839 C216.949353,243.657706 219.23289,243.248274 218.980742,239.852177 C218.980742,239.852177 216.849914,231.078623 217.56019,229.616364 C218.007664,228.695141 217.890468,226.326282 217.744862,224.695863 C217.724313,224.530787 217.607925,224.395363 217.45126,224.35424 C217.294594,224.313117 217.129419,224.374635 217.034586,224.509425 C216.435437,225.458847 215.395558,226.014182 214.296472,225.971684 C213.929705,225.982861 213.562862,225.95221 213.202647,225.880293 Z" id="Shape" fill="#000000" fill-rule="nonzero" opacity="0.1"></path>
                <path d="M213.202647,225.880293 C212.091066,225.649987 209.189589,224.99197 208.063801,224.110959 C207.924313,224.006674 207.746185,223.973694 207.580137,224.02141 C207.414089,224.069127 207.278313,224.192311 207.21147,224.355888 L205.471294,228.526982 C205.471294,228.526982 198.368536,225.236899 198.013398,232.913758 C197.807418,237.391927 200.016376,239.007723 201.895055,239.578004 C203.561875,240.053207 205.133486,240.829282 206.536708,241.870095 C208.244922,243.178816 210.848083,244.520439 213.80283,243.796621 C214.399584,243.652982 215.01222,243.591517 215.624688,243.613839 C216.949353,243.657706 219.23289,243.248274 218.980742,239.852177 C218.980742,239.852177 216.849914,231.078623 217.56019,229.616364 C218.007664,228.695141 217.890468,226.326282 217.744862,224.695863 C217.724313,224.530787 217.607925,224.395363 217.45126,224.35424 C217.294594,224.313117 217.129419,224.374635 217.034586,224.509425 C216.435437,225.458847 215.395558,226.014182 214.296472,225.971684 C213.929705,225.982861 213.562862,225.95221 213.202647,225.880293 Z" id="Shape" fill="#BC8387" fill-rule="nonzero"></path>
                <path d="M253.790001,225.879606 C254.9029,225.649384 257.807816,224.991608 258.934938,224.110919 C259.074591,224.006672 259.25293,223.973704 259.419175,224.021403 C259.585421,224.069101 259.721357,224.19224 259.788279,224.355758 L261.519851,228.525327 C261.519851,228.525327 268.631028,225.236447 268.986586,232.910501 C269.192811,237.387033 266.981234,239.002238 265.100328,239.572311 C263.439755,240.052389 261.874894,240.830564 260.478063,241.870873 C258.767825,243.179117 256.161579,244.520249 253.203329,243.796695 C252.605868,243.653108 251.992506,243.591667 251.379312,243.61398 C250.053078,243.657831 247.766834,243.248549 248.019281,239.853693 C248.019281,239.853693 250.152634,231.083345 249.441517,229.621621 C248.993512,228.700734 249.110847,226.33274 249.256626,224.702917 C249.277199,224.537901 249.393724,224.402527 249.550576,224.361419 C249.707427,224.320312 249.872798,224.381807 249.967744,224.516547 C250.567603,225.465622 251.608714,226.020755 252.709102,225.978272 C253.071824,225.985965 253.434277,225.952879 253.790001,225.879606 Z" id="Shape" fill="#000000" fill-rule="nonzero" opacity="0.1"></path>
                <path d="M253.790001,225.879606 C254.9029,225.649384 257.807816,224.991608 258.934938,224.110919 C259.074591,224.006672 259.25293,223.973704 259.419175,224.021403 C259.585421,224.069101 259.721357,224.19224 259.788279,224.355758 L261.519851,228.525327 C261.519851,228.525327 268.631028,225.236447 268.986586,232.910501 C269.192811,237.387033 266.981234,239.002238 265.100328,239.572311 C263.439755,240.052389 261.874894,240.830564 260.478063,241.870873 C258.767825,243.179117 256.161579,244.520249 253.203329,243.796695 C252.605868,243.653108 251.992506,243.591667 251.379312,243.61398 C250.053078,243.657831 247.766834,243.248549 248.019281,239.853693 C248.019281,239.853693 250.152634,231.083345 249.441517,229.621621 C248.993512,228.700734 249.110847,226.33274 249.256626,224.702917 C249.277199,224.537901 249.393724,224.402527 249.550576,224.361419 C249.707427,224.320312 249.872798,224.381807 249.967744,224.516547 C250.567603,225.465622 251.608714,226.020755 252.709102,225.978272 C253.071824,225.985965 253.434277,225.952879 253.790001,225.879606 Z" id="Shape" fill="#BC8387" fill-rule="nonzero"></path>
                <path d="M187.440203,73.7562328 C187.440203,73.7562328 190.487987,63.5231296 182.360563,62.1116671 C174.233139,60.7002046 176.264995,73.0505015 182.360563,77.6377547 C188.456131,82.2250079 187.440203,73.7562328 187.440203,73.7562328 Z" id="Shape" fill="#FFCED8" fill-rule="nonzero"></path>
                <path d="M256,158.762648 C245.759084,176.287446 211.378866,156.476804 211.378866,156.476804 C211.378866,156.476804 210.56325,156.012016 210,154.49574 C210.281625,153.569974 210.541306,152.644207 210.775384,151.764157 C211.68296,148.351392 214.668646,145.991608 218.068379,146.000022 L246.230898,146.000022 C249.642278,145.992338 252.633398,148.372042 253.523893,151.802255 C253.908134,153.376383 254.511946,154.883298 255.316053,156.274888 C255.678143,157.810213 256,158.762648 256,158.762648 Z" id="Shape" fill="#000000" fill-rule="nonzero" opacity="0.1"></path>
                <path d="M231.9383,76.4046636 L229.763632,76.4046636 C229.763632,76.4046636 228.313854,83.0018853 223.602074,83.0018853 C222.344391,83.0018853 220.626404,82.9249177 218.777936,82.8076338 C213.223089,82.5130954 207.659508,83.186284 202.3302,84.7977957 C200.492606,85.3365688 198.47379,85.3842154 196.781173,84.1014223 C192.431838,80.8028114 187.720058,72.0065158 187.720058,72.0065158 C187.720058,72.0065158 179.383832,71.6400035 179.021388,76.4046636 C178.658943,81.1693237 183.008278,89.9656194 184.095612,91.0651563 C185.182946,92.1646933 185.182946,99.1284273 192.794283,100.960989 C200.405619,102.793551 205.842288,103.526575 206.204733,112.689383 C206.567178,121.852191 213.81607,131.381511 210.191624,142.010369 C206.567178,152.639226 210.554068,154.8383 210.554068,154.8383 C210.554068,154.8383 244.623861,173.89694 254.77231,157.037374 C254.77231,157.037374 250.785419,145.675492 254.77231,140.177807 C258.759201,134.680122 256.946978,121.119166 256.946978,121.119166 L269.994983,107.924723 C269.994983,107.924723 270.357428,99.4949397 264.920759,95.0967918 C259.48409,90.698644 246.798529,83.73491 246.798529,83.73491 L248.067085,78.2885369 L231.9383,76.4046636 Z" id="Shape" fill="#D6E6F9" fill-rule="nonzero"></path>
                <path d="M233.257839,66.2475661 C232.97012,69.7214583 233.083693,73.686347 235.718597,76.0453449 C237.013334,77.2045396 238.747221,77.7841369 240.447037,78.1865325 C242.237087,78.6102767 244.063129,78.8734838 245.902347,78.9728651 C247.583233,79.061466 249.373907,78.9728651 250.786003,78.0979316 C253.67834,76.2779222 253.610196,72.2318161 254.768645,69.068027 C255.586373,66.8308552 257.1234,64.9222449 258.221277,62.7921325 C260.220169,58.9379949 260.689606,54.2015404 258.827001,50.2809522 C256.964397,46.360364 252.561535,43.5472866 248.162458,44.0604333 C246.733877,44.2790717 245.336318,44.6594249 243.998099,45.193786 C240.810472,46.3308304 238.300499,43.1153574 235.112872,44.2524018 C233.371413,44.8726079 226.451006,45.5555728 226.026998,47.5749342 C225.52349,49.9745409 232.220535,55.9587909 232.94362,58.0593697 C233.89385,60.7653877 233.257839,63.4787892 233.257839,66.2475661 Z" id="Shape" fill="#000000" fill-rule="nonzero" opacity="0.1"></path>
                <path d="M233.257839,66.2475661 C232.97012,69.7214583 233.083693,73.686347 235.718597,76.0453449 C237.013334,77.2045396 238.747221,77.7841369 240.447037,78.1865325 C242.237087,78.6102767 244.063129,78.8734838 245.902347,78.9728651 C247.583233,79.061466 249.373907,78.9728651 250.786003,78.0979316 C253.67834,76.2779222 253.610196,72.2318161 254.768645,69.068027 C255.586373,66.8308552 257.1234,64.9222449 258.221277,62.7921325 C260.220169,58.9379949 260.689606,54.2015404 258.827001,50.2809522 C256.964397,46.360364 252.561535,43.5472866 248.162458,44.0604333 C246.733877,44.2790717 245.336318,44.6594249 243.998099,45.193786 C240.810472,46.3308304 238.300499,43.1153574 235.112872,44.2524018 C233.371413,44.8726079 226.451006,45.5555728 226.026998,47.5749342 C225.52349,49.9745409 232.220535,55.9587909 232.94362,58.0593697 C233.89385,60.7653877 233.257839,63.4787892 233.257839,66.2475661 Z" id="Shape" fill="#AE767A" fill-rule="nonzero"></path>
                <path d="M227,82 C227,82 229.264151,83.0316246 235.679245,85.0866537 C242.09434,87.1416828 247,85.0866537 247,85.0866537" id="Shape" fill="#000000" fill-rule="nonzero" opacity="0.1"></path>
                <path d="M210,133 C210,133 220.342342,133.571429 223.666667,137.857143 C226.990991,142.142857 228.099099,143.571429 232.162162,143.571429 C236.225225,143.571429 249.153153,144.285714 251,145" id="Shape" fill="#000000" fill-rule="nonzero" opacity="0.1"></path>
                <rect id="Rectangle-path" fill="#C0BCCF" fill-rule="nonzero" x="233" y="245" width="6" height="7"></rect>
                <rect id="Rectangle-path" fill="#CB919B" fill-rule="nonzero" x="272" y="160" width="5" height="36"></rect>
                <rect id="Rectangle-path" fill="#CB919B" fill-rule="nonzero" x="263" y="193" width="10" height="1"></rect>
                <rect id="Rectangle-path" fill="#CB919B" fill-rule="nonzero" x="196" y="160" width="5" height="36"></rect>
                <rect id="Rectangle-path" fill="#CB919B" fill-rule="nonzero" x="197" y="193" width="10" height="1"></rect>
                <rect id="Rectangle-path" fill="#C0BCCF" fill-rule="nonzero" x="232" y="196" width="10" height="43"></rect>
                <path d="M236,181.9391 C263.106227,182.885683 264,172.484277 264,172.484277 L262.249084,143.642846 C261.813187,98.7241785 236,105.342922 236,105.342922 C236,105.342922 210.186813,98.7388542 209.750916,143.642846 L208,172.484277 C208,172.484277 208.875458,182.885683 236,181.9391 Z" id="Shape" fill="#CB919B" fill-rule="nonzero"></path>
                <path d="M236,181.9391 C263.106227,182.885683 264,172.484277 264,172.484277 L262.249084,143.642846 C261.813187,98.7241785 236,105.342922 236,105.342922 C236,105.342922 210.186813,98.7388542 209.750916,143.642846 L208,172.484277 C208,172.484277 208.875458,182.885683 236,181.9391 Z" id="Shape" fill="#FFFFFF" fill-rule="nonzero" opacity="0.1"></path>
                <path d="M237,179.94145 C263.158682,180.851468 264,170.852362 264,170.852362 L262.313658,143.13379 C261.891146,99.967098 237,106.329829 237,106.329829 C237,106.329829 212.108854,99.967098 211.686342,143.13379 L210,170.852362 C210,170.852362 210.841318,180.851468 237,179.94145 Z" id="Shape" fill="#CB919B" fill-rule="nonzero"></path>
                <rect id="Rectangle-path" fill="#C0BCCF" fill-rule="nonzero" x="231" y="168" width="11" height="19" rx="5.5"></rect>
                <polygon id="Shape" fill="#000000" fill-rule="nonzero" opacity="0.1" points="242 236.251572 242 238 232 238 232 236.264151 232.871309 236 241.143274 236"></polygon>
                <path d="M196.134652,252 C196.134652,252 191.76108,248.365136 232.865344,237 L241.169642,237 C241.169642,237 276.564473,246.081451 277,252 L271.755373,252 C271.755373,252 252.522632,246.081451 243.779146,246.081451 C235.035661,246.081451 208.808864,246.991119 200.958392,251.992388 L196.134652,252 Z" id="Shape" fill="#C0BCCF" fill-rule="nonzero"></path>
                <path d="M196.605475,155 L198.394525,155 C200.938059,155 203,157.131977 203,159.761905 L203,162 L192,162 L192,159.761905 C192,157.131977 194.061941,155 196.605475,155 Z" id="Shape" fill="#CB919B" fill-rule="nonzero"></path>
                <path d="M272.605475,155 L274.394525,155 C276.938059,155 279,157.131977 279,159.761905 L279,162 L268,162 L268,159.761905 C268,157.131977 270.061941,155 272.605475,155 Z" id="Shape" fill="#CB919B" fill-rule="nonzero"></path>
                <circle id="Oval" fill="#5A5773" fill-rule="nonzero" cx="198" cy="255" r="3"></circle>
                <circle id="Oval" fill="#5A5773" fill-rule="nonzero" cx="236" cy="255" r="3"></circle>
                <circle id="Oval" fill="#5A5773" fill-rule="nonzero" cx="275" cy="255" r="3"></circle>
                <rect id="Rectangle-path" fill="#000000" fill-rule="nonzero" opacity="0.1" x="232" y="196" width="10" height="2"></rect>
                <path d="M237.998668,198 L267.554788,198 L269.771497,193.715311 C271.094134,186.430622 266.243235,186 266.243235,186 L209.757795,186 C209.757795,186 204.903202,186.427033 206.229533,193.715311 L208.446242,198 L237.998668,198 Z" id="Shape" fill="#CB919B" fill-rule="nonzero"></path>
                <path d="M237.998668,198 L267.554788,198 L269.771497,193.715311 C271.094134,186.430622 266.243235,186 266.243235,186 L209.757795,186 C209.757795,186 204.903202,186.427033 206.229533,193.715311 L208.446242,198 L237.998668,198 Z" id="Shape" fill="#FFFFFF" fill-rule="nonzero" opacity="0.1"></path>
                <path d="M237.998668,197 L267.554788,197 L269.771497,193.428322 C271.094134,187.359261 266.243235,187 266.243235,187 L209.757795,187 C209.757795,187 204.903202,187.348797 206.229533,193.428322 L208.446242,197 L237.998668,197 Z" id="Shape" fill="#CB919B" fill-rule="nonzero"></path>
                <path d="M295.971692,109.326165 C295.971692,109.326165 292.393789,108.246851 290.673417,111.072629 C289.74977,112.620918 289.777854,114.482543 290.747875,116.008136 C291.88042,117.831444 294.208213,120.199649 298.624748,119.986581 C302.371161,119.808442 303.613434,117.262097 303.954373,114.890399 C304.207732,113.086856 303.394268,111.295127 301.804994,110.156196 C300.215721,109.017265 298.077729,108.693874 296.155877,109.301715 L295.971692,109.326165 Z" id="Shape" fill="#70BF8E" fill-rule="nonzero"></path>
                <path d="M291.353057,116.768511 C290.480512,115.164641 290.455249,113.207497 291.286081,111.579767 C292.833577,108.642049 296.051946,109.743693 296.051946,109.743693 L296.217624,109.681267 C297.444873,109.218394 298.793845,109.249826 300,109.769399 C298.651496,108.93215 297.01362,108.769075 295.537289,109.325069 L295.371612,109.387495 C295.371612,109.387495 292.153243,108.252802 290.605747,111.223569 C289.774915,112.851299 289.800177,114.808443 290.672723,116.412312 C291.468769,117.99493 292.747238,119.256993 294.307048,120 C293.057988,119.223534 292.036495,118.106081 291.353057,116.768511 Z" id="Shape" fill="#FFFFFF" fill-rule="nonzero" opacity="0.1"></path>
                <path d="M294,111 C294,111 295.455642,113.25 299,111" id="Shape" fill="#000000" fill-rule="nonzero" opacity="0.2"></path>
                <path d="M294,105 C294,105 296.34107,110.549168 296.147326,112 L298,111.83056 C298,111.83056 294.875883,106.966213 295.65893,105.00353 L294,105 Z" id="Shape" fill="#70BF8E" fill-rule="nonzero"></path>
                <path d="M294,105 C294,105 296.34107,110.549168 296.147326,112 L298,111.83056 C298,111.83056 294.875883,106.966213 295.65893,105.00353 L294,105 Z" id="Shape" fill="#000000" fill-rule="nonzero" opacity="0.2"></path>
                <path d="M303,105.914334 C303,105.914334 299.944785,104.088089 298.576129,105.597576 C297.207474,107.107064 297,110.962905 297,110.962905 C297,110.962905 301.982711,111.764576 303,105.914334 Z" id="Shape" fill="#70BF8E" fill-rule="nonzero"></path>
                <path d="M303,105.914334 C303,105.914334 299.944785,104.088089 298.576129,105.597576 C297.207474,107.107064 297,110.962905 297,110.962905 C297,110.962905 301.982711,111.764576 303,105.914334 Z" id="Shape" fill="#FFFFFF" fill-rule="nonzero" opacity="0.1"></path>
                <path d="M297,111 C297,111 297.803123,106.565453 303,106" id="Shape" stroke="#70BF8E"></path>
            </g>
        </g>
    </g>
</svg>