<?xml version="1.0" encoding="UTF-8"?>
<svg width="1099px" height="847px" viewBox="0 0 1099 847" version="1.1" xmlns="http://www.w3.org/2000/svg" xmlns:xlink="http://www.w3.org/1999/xlink">
    <!-- Generator: Sketch 51.1 (57501) - http://www.bohemiancoding.com/sketch -->
    <title>undraw_loading_frh4</title>
    <desc>Created with Sketch.</desc>
    <defs>
        <linearGradient x1="50.030931%" y1="99.9774172%" x2="50.030931%" y2="0.0260206048%" id="linearGradient-1">
            <stop stop-color="#808080" stop-opacity="0.25" offset="0%"></stop>
            <stop stop-color="#808080" stop-opacity="0.12" offset="54%"></stop>
            <stop stop-color="#808080" stop-opacity="0.1" offset="100%"></stop>
        </linearGradient>
        <linearGradient x1="50.0046414%" y1="99.9931366%" x2="50.0046414%" y2="-0.00127448826%" id="linearGradient-2">
            <stop stop-color="#808080" stop-opacity="0.25" offset="0%"></stop>
            <stop stop-color="#808080" stop-opacity="0.12" offset="54%"></stop>
            <stop stop-color="#808080" stop-opacity="0.1" offset="100%"></stop>
        </linearGradient>
        <linearGradient x1="3.03456219e-14%" y1="50.0027962%" x2="99.9733077%" y2="50.0027962%" id="linearGradient-3">
            <stop stop-color="#808080" stop-opacity="0.25" offset="0%"></stop>
            <stop stop-color="#808080" stop-opacity="0.12" offset="54%"></stop>
            <stop stop-color="#808080" stop-opacity="0.1" offset="100%"></stop>
        </linearGradient>
    </defs>
    <g id="v1-Web-Landing/Homeroom-Page-Redesign" stroke="none" stroke-width="1" fill="none" fill-rule="evenodd">
        <g id="undraw_loading_frh4">
            <path d="M871.17,695.75 C887.17,703.84 906.74,698.92 924.92,699.49 C927.41,699.57 930.04,699.81 932.04,701.2 C934.04,702.59 935.04,704.87 936.39,706.81 C941.48,714.02 951.92,716.34 961.04,715.12 C970.16,713.9 978.53,709.84 987.14,706.75 C1002.02,701.42 1019.03,698.99 1033.71,704.81 C1035.00962,705.47796 1036.45994,705.79834 1037.92,705.74 C1041.14,705.27 1042.09,701.39 1044.35,699.18 C1048.41,695.18 1057.23,696.28 1059.02,691.02 C1060.02,687.93 1057.66,684.77 1055.02,682.67 C1045.02,674.61 1030.64,673.28 1017.5,674.53 C1004.36,675.78 991.5,679.19 978.27,679.21 C961.83,679.21 945.94,673.95 929.66,671.8 C918.38,670.3 906.07,670.49 895.49,674.89 C884.06,679.69 881.55,690.33 871.17,695.75 Z" id="Shape" fill="#70BF8E" fill-rule="nonzero" opacity="0.1"></path>
            <path d="M12.85,430.97 C30.21,505.17 66.96,569.31 125.03,600.4 C245.74,665.01 517.95,631.68 721.1,593.4 C823.75605,574.121117 916.93715,520.855652 985.64,442.18 L12.85,430.97 Z" id="Shape" fill="#70BF8E" fill-rule="nonzero" opacity="0.1"></path>
            <path d="M1078.2,81.69 L966.73,81.69 C961.411498,81.69 957.1,77.3785021 957.1,72.06 C957.1,66.7414979 961.411498,62.43 966.73,62.43 L986,62.43 C980.79953,62.2624389 976.670443,57.9981689 976.670443,52.795 C976.670443,47.5918311 980.79953,43.3275611 986,43.16 L972.24,43.16 C967.03953,42.9924389 962.910443,38.7281689 962.910443,33.525 C962.910443,28.3218311 967.03953,24.0575611 972.24,23.89 L1030.42,23.89 C1017.51,17.89 1002.42,13.62 985.03,11.39 C826.39,-8.99 769.75,4.49 749.77,18.39 C725.12,35.49 697.62,48.07 668.23,54.13 C570.35,74.32 387.3,98.62 221.39,46.36 C138.93,20.36 77.65,64.27 40.91,137.64 L1097.55,137.64 C1096.17,116.31 1092.04,96.64 1084.46,79.39 C1082.71707,80.8832478 1080.4951,81.6996258 1078.2,81.69 Z" id="Shape" fill="#70BF8E" fill-rule="nonzero" opacity="0.1"></path>
            <path d="M3.39,276.1 C-0.891314269,319.25149 0.561315728,362.779951 7.71,405.55 L986.39,441.35 C1013.63337,410.011026 1036.50783,375.127464 1054.39,337.65 L3.39,276.1 Z M390.47,368.45 L371.2,368.45 C376.518502,368.45 380.83,372.761498 380.83,378.08 C380.83,383.398502 376.518502,387.71 371.2,387.71 L259.73,387.71 C254.411498,387.71 250.1,383.398502 250.1,378.08 C250.1,372.761498 254.411498,368.45 259.73,368.45 L279,368.45 C273.79953,368.282439 269.670443,364.018169 269.670443,358.815 C269.670443,353.611831 273.79953,349.347561 279,349.18 L265.24,349.18 C260.03953,349.012439 255.910443,344.748169 255.910443,339.545 C255.910443,334.341831 260.03953,330.077561 265.24,329.91 L376.71,329.91 C381.91047,330.077561 386.039557,334.341831 386.039557,339.545 C386.039557,344.748169 381.91047,349.012439 376.71,349.18 L390.47,349.18 C395.67047,349.347561 399.799557,353.611831 399.799557,358.815 C399.799557,364.018169 395.67047,368.282439 390.47,368.45 Z" id="Shape" fill="#70BF8E" fill-rule="nonzero" opacity="0.1"></path>
            <path d="M1097.6,138.29 L29.12,164.29 C16.12,197.69 7.55,235.46 3.55,274.62 L1078.88,274.62 C1085.89759,251.618009 1091.09035,228.098439 1094.41,204.28 C1097.61,181.27 1098.89,159.02 1097.6,138.29 Z M220.47,223.45 L201.2,223.45 C206.518502,223.45 210.83,227.761498 210.83,233.08 C210.83,238.398502 206.518502,242.71 201.2,242.71 L89.73,242.71 C84.4114979,242.71 80.1,238.398502 80.1,233.08 C80.1,227.761498 84.4114979,223.45 89.73,223.45 L109,223.45 C103.79953,223.282439 99.6704432,219.018169 99.6704432,213.815 C99.6704432,208.611831 103.79953,204.347561 109,204.18 L95.24,204.18 C90.0395299,204.012439 85.9104432,199.748169 85.9104432,194.545 C85.9104432,189.341831 90.0395299,185.077561 95.24,184.91 L206.71,184.91 C211.91047,185.077561 216.039557,189.341831 216.039557,194.545 C216.039557,199.748169 211.91047,204.012439 206.71,204.18 L220.47,204.18 C225.67047,204.347561 229.799557,208.611831 229.799557,213.815 C229.799557,219.018169 225.67047,223.282439 220.47,223.45 Z" id="Shape" fill="#70BF8E" fill-rule="nonzero" opacity="0.1"></path>
            <g id="Group" opacity="0.1" transform="translate(577.000000, 373.000000)">
                <path d="M7.31,221.62 C7.31,221.62 35.51,152.12 88.17,126.33 C110.325375,115.66038 128.421232,98.0908706 139.74,76.26 C145.032349,65.8506891 149.360418,54.9786326 152.67,43.78" id="Shape" stroke="#535461" stroke-width="2"></path>
                <path d="M185.76,27.34 C180.27,34.24 151.86,44.34 151.86,44.34 C151.86,44.34 155.28,14.39 160.77,7.49 C164.182556,2.61742899 170.016645,0.0403745349 175.916771,0.799314549 C181.816898,1.55825456 186.80888,5.52787891 188.877221,11.1054638 C190.945561,16.6830487 189.748751,22.9476678 185.77,27.37 L185.76,27.34 Z" id="Shape" fill="#70BF8E" fill-rule="nonzero"></path>
                <path d="M176.01,81.99 C167.65,84.8 138.33,77.82 138.33,77.82 C138.33,77.82 157.48,54.54 165.84,51.73 C171.363929,49.436846 177.705626,50.4160788 182.280587,54.2686205 C186.855548,58.1211622 188.899805,64.203681 187.580239,70.0372982 C186.260672,75.8709155 181.797635,80.4814817 176.01,81.99 Z" id="Shape" fill="#70BF8E" fill-rule="nonzero"></path>
                <path d="M123.15,146.6 C114.52,144.81 92.73,123.97 92.73,123.97 C92.73,123.97 121.02,113.54 129.65,115.34 C137.762796,117.601109 142.733855,125.764214 141.019313,134.009844 C139.30477,142.255474 131.491685,147.760329 123.15,146.6 Z" id="Shape" fill="#70BF8E" fill-rule="nonzero"></path>
                <path d="M72.15,186.48 C63.34,186.17 38.34,169.32 38.34,169.32 C38.34,169.32 64.46,154.26 73.27,154.56 C79.2189297,154.403177 84.7633862,157.560954 87.6633409,162.757552 C90.5632957,167.954149 90.3395513,174.330864 87.0825033,179.311425 C83.8254552,184.291987 78.0733081,187.053393 72.15,186.48 Z" id="Shape" fill="#70BF8E" fill-rule="nonzero"></path>
                <path d="M111.03,58.29 C112.15,67.03 131.25,90.36 131.25,90.36 C131.25,90.36 143.83,62.96 142.7,54.21 C142.325647,48.2557934 138.669667,43.0043988 133.215552,40.5866841 C127.761437,38.1689693 121.415185,38.9865476 116.751927,42.7076688 C112.08867,46.42879 109.883032,52.4353283 111.03,58.29 Z" id="Shape" fill="#70BF8E" fill-rule="nonzero"></path>
                <path d="M51.97,105.69 C55.66,113.69 80.87,130.24 80.87,130.24 C80.87,130.24 84.66,100.33 80.97,92.32 C76.9518545,84.9016233 67.8639666,81.8779051 60.2023225,85.4101872 C52.5406784,88.9424693 48.938233,97.8168687 51.97,105.69 Z" id="Shape" fill="#70BF8E" fill-rule="nonzero"></path>
                <path d="M0.89,159.62 C3.18,168.13 25.22,188.7 25.22,188.7 C25.22,188.7 34.02,159.86 31.74,151.35 C29.0522695,143.334758 20.5928675,138.793566 12.4273012,140.98252 C4.26173476,143.171474 -0.791865944,151.335115 0.89,159.62 Z" id="Shape" fill="#70BF8E" fill-rule="nonzero"></path>
                <path d="M185.76,27.34 C180.27,34.24 151.86,44.34 151.86,44.34 C151.86,44.34 155.28,14.39 160.77,7.49 C164.182556,2.61742899 170.016645,0.0403745349 175.916771,0.799314549 C181.816898,1.55825456 186.80888,5.52787891 188.877221,11.1054638 C190.945561,16.6830487 189.748751,22.9476678 185.77,27.37 L185.76,27.34 Z" id="Shape" fill="#000000" fill-rule="nonzero" opacity="0.25"></path>
                <path d="M176.01,81.99 C167.65,84.8 138.33,77.82 138.33,77.82 C138.33,77.82 157.48,54.54 165.84,51.73 C171.363929,49.436846 177.705626,50.4160788 182.280587,54.2686205 C186.855548,58.1211622 188.899805,64.203681 187.580239,70.0372982 C186.260672,75.8709155 181.797635,80.4814817 176.01,81.99 Z" id="Shape" fill="#000000" fill-rule="nonzero" opacity="0.25"></path>
                <path d="M123.15,146.6 C114.52,144.81 92.73,123.97 92.73,123.97 C92.73,123.97 121.02,113.54 129.65,115.34 C137.762796,117.601109 142.733855,125.764214 141.019313,134.009844 C139.30477,142.255474 131.491685,147.760329 123.15,146.6 Z" id="Shape" fill="#000000" fill-rule="nonzero" opacity="0.25"></path>
                <path d="M72.15,186.48 C63.34,186.17 38.34,169.32 38.34,169.32 C38.34,169.32 64.46,154.26 73.27,154.56 C79.2189297,154.403177 84.7633862,157.560954 87.6633409,162.757552 C90.5632957,167.954149 90.3395513,174.330864 87.0825033,179.311425 C83.8254552,184.291987 78.0733081,187.053393 72.15,186.48 Z" id="Shape" fill="#000000" fill-rule="nonzero" opacity="0.25"></path>
                <path d="M111.03,58.29 C112.15,67.03 131.25,90.36 131.25,90.36 C131.25,90.36 143.83,62.96 142.7,54.21 C142.325647,48.2557934 138.669667,43.0043988 133.215552,40.5866841 C127.761437,38.1689693 121.415185,38.9865476 116.751927,42.7076688 C112.08867,46.42879 109.883032,52.4353283 111.03,58.29 Z" id="Shape" fill="#000000" fill-rule="nonzero" opacity="0.25"></path>
                <path d="M51.97,105.69 C55.66,113.69 80.87,130.24 80.87,130.24 C80.87,130.24 84.66,100.33 80.97,92.32 C76.9518545,84.9016233 67.8639666,81.8779051 60.2023225,85.4101872 C52.5406784,88.9424693 48.938233,97.8168687 51.97,105.69 Z" id="Shape" fill="#000000" fill-rule="nonzero" opacity="0.25"></path>
                <path d="M0.89,159.62 C3.18,168.13 25.22,188.7 25.22,188.7 C25.22,188.7 34.02,159.86 31.74,151.35 C29.0522695,143.334758 20.5928675,138.793566 12.4273012,140.98252 C4.26173476,143.171474 -0.791865944,151.335115 0.89,159.62 Z" id="Shape" fill="#000000" fill-rule="nonzero" opacity="0.25"></path>
            </g>
            <g id="Group" opacity="0.1" transform="translate(575.000000, 224.000000)">
                <path d="M30.41,265.39 C30.41,265.39 33.97,190.47 75.1,148.69 C92.4653451,131.273373 103.711637,108.693065 107.15,84.34 C108.681826,72.7671558 109.15045,61.0783306 108.55,49.42" id="Shape" stroke="#535461" stroke-width="2"></path>
                <path d="M134.34,22.93 C131.45,31.26 107.99,50.18 107.99,50.18 C107.99,50.18 101.29,20.79 104.17,12.46 C105.761506,6.71670753 110.413214,2.33394234 116.241006,1.0868907 C122.068798,-0.160160934 128.106719,1.9351996 131.909181,6.52427175 C135.711642,11.1133439 136.648388,17.4354897 134.34,22.93 Z" id="Shape" fill="#70BF8E" fill-rule="nonzero"></path>
                <path d="M143.27,77.69 C136.27,83.12 106.33,86.25 106.33,86.25 C106.33,86.25 116.68,57.93 123.63,52.51 C130.602628,47.7598102 140.06559,49.2400799 145.254507,55.8926724 C150.443423,62.545265 149.574996,72.0838542 143.27,77.69 Z" id="Shape" fill="#70BF8E" fill-rule="nonzero"></path>
                <path d="M114.83,156.2 C106.09,157.37 78.62,144.94 78.62,144.94 C78.62,144.94 101.85,125.69 110.55,124.55 C118.964361,123.974182 126.380837,130.028839 127.500701,138.388202 C128.620565,146.747564 123.059225,154.540798 114.79,156.2 L114.83,156.2 Z" id="Shape" fill="#70BF8E" fill-rule="nonzero"></path>
                <path d="M79.93,210.74 C71.52,213.37 42.35,205.74 42.35,205.74 C42.35,205.74 61.99,182.87 70.41,180.24 C75.9761123,178.09469 82.2734769,179.22394 86.7473443,183.169631 C91.2212117,187.115321 93.1286065,193.22219 91.6957264,199.01277 C90.2628463,204.80335 85.7276497,209.315999 79.93,210.72 L79.93,210.74 Z" id="Shape" fill="#70BF8E" fill-rule="nonzero"></path>
                <path d="M74.1,76.91 C78.1,84.78 103.82,100.46 103.82,100.46 C103.82,100.46 106.59,70.46 102.63,62.56 C100.295402,57.077653 95.1076468,53.3468456 89.1673684,52.8782613 C83.2270901,52.4096771 77.5185459,55.2809567 74.3532474,60.3294579 C71.1879489,65.377959 71.0903613,71.7671843 74.1,76.91 Z" id="Shape" fill="#70BF8E" fill-rule="nonzero"></path>
                <path d="M34.1,141.2 C40.24,147.53 69.5,154.78 69.5,154.78 C69.5,154.78 63.17,125.31 57.03,118.98 C53.1687294,114.427544 47.0942704,112.403169 41.2739551,113.72914 C35.4536398,115.055111 30.8554764,119.510898 29.3471531,125.286643 C27.8388299,131.062388 29.6712043,137.197496 34.1,141.2 Z" id="Shape" fill="#70BF8E" fill-rule="nonzero"></path>
                <path d="M3.8,209.03 C8.8,216.31 36.4,228.39 36.4,228.39 C36.4,228.39 35.13,198.27 30.16,191 C27.1426497,185.828237 21.4901833,182.774012 15.5106204,183.084427 C9.5310575,183.394842 4.2252289,187.017942 1.75961475,192.47434 C-0.705999391,197.930738 0.0812837118,204.307167 3.8,209 L3.8,209.03 Z" id="Shape" fill="#70BF8E" fill-rule="nonzero"></path>
            </g>
            <path d="M989.6,623.69 C989.6,623.69 995.1,630.88 987.07,641.69 C979.04,652.5 972.42,661.69 975.07,668.46 C975.07,668.46 987.19,648.32 997.07,648.03 C1006.95,647.74 1000.45,635.8 989.6,623.69 Z" id="Shape" fill="#70BF8E" fill-rule="nonzero"></path>
            <path d="M989.6,623.69 C990.081068,624.386447 990.461483,625.147277 990.73,625.95 C1000.35,637.25 1005.47,647.8 996.22,648.06 C987.61,648.31 977.28,663.71 974.8,667.6 C974.881568,667.901376 974.978359,668.198423 975.09,668.49 C975.09,668.49 987.21,648.35 997.09,648.06 C1006.97,647.77 1000.45,635.8 989.6,623.69 Z" id="Shape" fill="#000000" fill-rule="nonzero" opacity="0.1"></path>
            <path d="M999.82,632.84 C999.82,635.37 999.53,637.42 999.18,637.42 C998.83,637.42 998.55,635.37 998.55,632.84 C998.55,630.31 998.9,631.5 999.25,631.5 C999.6,631.5 999.82,630.31 999.82,632.84 Z" id="Shape" fill="#FFD037" fill-rule="nonzero"></path>
            <path d="M1003.32,635.86 C1001.1,637.07 999.16,637.8 999,637.49 C998.84,637.18 1000.49,635.96 1002.71,634.75 C1004.93,633.54 1004.06,634.42 1004.23,634.75 C1004.4,635.08 1005.55,634.69 1003.32,635.86 Z" id="Shape" fill="#FFD037" fill-rule="nonzero"></path>
            <path d="M960.55,623.69 C960.55,623.69 955.05,630.88 963.08,641.69 C971.11,652.5 977.73,661.69 975.08,668.46 C975.08,668.46 962.97,648.32 953.08,648.03 C943.19,647.74 949.74,635.8 960.55,623.69 Z" id="Shape" fill="#70BF8E" fill-rule="nonzero"></path>
            <path d="M960.55,623.69 C960.068932,624.386447 959.688517,625.147277 959.42,625.95 C949.8,637.25 944.68,647.8 953.93,648.06 C962.54,648.31 972.87,663.71 975.35,667.6 C975.269586,667.902913 975.169371,668.200219 975.05,668.49 C975.05,668.49 962.94,648.35 953.05,648.06 C943.16,647.77 949.74,635.8 960.55,623.69 Z" id="Shape" fill="#000000" fill-rule="nonzero" opacity="0.1"></path>
            <path d="M950.37,632.84 C950.37,635.37 950.66,637.42 951.01,637.42 C951.36,637.42 951.64,635.37 951.64,632.84 C951.64,630.31 951.29,631.5 950.94,631.5 C950.59,631.5 950.37,630.31 950.37,632.84 Z" id="Shape" fill="#FFD037" fill-rule="nonzero"></path>
            <path d="M946.87,635.86 C949.09,637.07 951.02,637.8 951.19,637.49 C951.36,637.18 949.7,635.96 947.48,634.75 C945.26,633.54 946.13,634.42 945.96,634.75 C945.79,635.08 944.65,634.69 946.87,635.86 Z" id="Shape" fill="#FFD037" fill-rule="nonzero"></path>
            <path d="M952.12,667.54 C952.12,667.54 967.48,667.07 972.12,663.77 C976.76,660.47 995.75,656.54 996.9,661.77 C998.05,667 1019.98,688.07 1002.64,688.21 C985.3,688.35 962.35,685.5 957.73,682.69 C953.11,679.88 952.12,667.54 952.12,667.54 Z" id="Shape" fill="#A8A8A8" fill-rule="nonzero"></path>
            <path d="M1002.94,686.41 C985.6,686.55 962.65,683.71 958.03,680.9 C954.51,678.76 953.11,671.07 952.64,667.52 L952.12,667.52 C952.12,667.52 953.12,679.91 957.72,682.72 C962.32,685.53 985.29,688.37 1002.63,688.24 C1007.63,688.19 1009.36,686.41 1009.27,683.78 C1008.55,685.39 1006.66,686.38 1002.94,686.41 Z" id="Shape" fill="#000000" fill-rule="nonzero" opacity="0.2"></path>
            <path d="M1.84,719.52 C22.52,727 47.75,722.45 71.21,722.98 C74.42,723.05 77.83,723.27 80.4,724.56 C82.97,725.85 84.25,727.95 86.01,729.74 C92.59,736.41 106.01,738.56 117.84,737.43 C129.67,736.3 140.41,732.55 151.55,729.69 C170.76,724.76 192.72,722.51 211.67,727.89 C213.40872,728.519836 215.25175,728.811734 217.1,728.75 C221.25,728.31 222.49,724.75 225.4,722.69 C230.64,719 242.03,720 244.34,715.13 C245.69,712.28 242.58,709.36 239.2,707.41 C226.25,699.96 207.72,698.73 190.78,699.88 C173.84,701.03 157.17,704.2 140.13,704.21 C118.91,704.21 98.4,699.35 77.38,697.36 C62.82,695.98 46.94,696.15 33.29,700.22 C18.47,704.62 15.21,714.5 1.84,719.52 Z" id="Shape" fill="#70BF8E" fill-rule="nonzero" opacity="0.1"></path>
            <path d="M235.64,699.91 C237.478364,698.418993 238.818012,696.402543 239.48,694.13 C239.97,691.83 238.99,689.08 236.8,688.24 C234.34,687.3 231.71,689 229.72,690.72 C227.73,692.44 225.44,694.41 222.83,694.05 C225.560422,691.573337 226.790465,687.845245 226.07,684.23 C225.95621,683.494263 225.64519,682.803107 225.17,682.23 C223.81,680.77 221.33,681.4 219.69,682.55 C214.49,686.21 213.04,693.27 213.02,699.63 C212.49,697.33 212.93,694.95 212.92,692.63 C212.91,690.31 212.26,687.63 210.28,686.41 C209.056943,685.732898 207.677804,685.388114 206.28,685.41 C203.94,685.33 201.34,685.56 199.74,687.27 C197.74,689.39 198.27,692.96 200,695.27 C201.73,697.58 204.35,699.07 206.76,700.69 C208.699532,701.843074 210.353936,703.418859 211.6,705.3 C211.747514,705.560409 211.868136,705.835159 211.96,706.12 L226.55,706.12 C229.848904,704.474025 232.907234,702.38467 235.64,699.91 Z" id="Shape" fill="#70BF8E" fill-rule="nonzero"></path>
            <path d="M119.21,715.69 C119.21,715.69 105.21,667.98 121.84,632.86 C128.930911,618.17737 131.071216,601.591754 127.94,585.59 C126.384941,578.005273 124.142346,570.57793 121.24,563.4" id="Shape" stroke="#535461" stroke-width="2"></path>
            <path d="M131.63,541.21 C131.63,547.06 121.04,564.01 121.04,564.01 C121.04,564.01 110.45,547.01 110.45,541.21 C110.45,535.361304 115.191304,530.62 121.04,530.62 C126.888696,530.62 131.63,535.361304 131.63,541.21 Z" id="Shape" fill="#70BF8E" fill-rule="nonzero"></path>
            <path d="M149.13,573.6 C145.95,578.5 127.85,586.98 127.85,586.98 C127.85,586.98 128.17,566.98 131.35,562.09 C134.528399,557.180189 141.085188,555.776602 145.995,558.955 C150.904811,562.133399 152.308398,568.690189 149.13,573.6 Z" id="Shape" fill="#70BF8E" fill-rule="nonzero"></path>
            <path d="M148.36,628.94 C143.14,631.57 123.23,629.76 123.23,629.76 C123.23,629.76 133.61,612.67 138.83,610.04 C142.20616,608.337629 146.234064,608.565734 149.39644,610.638389 C152.558816,612.711044 154.375224,616.313364 154.16144,620.088389 C153.947656,623.863414 151.73616,627.237629 148.36,628.94 Z" id="Shape" fill="#70BF8E" fill-rule="nonzero"></path>
            <path d="M138.35,670.69 C133.65,674.16 113.72,675.69 113.72,675.69 C113.72,675.69 121.06,657.09 125.72,653.61 C128.742211,651.132714 132.883076,650.521103 136.492412,652.018903 C140.101747,653.516703 142.592913,656.880469 142.97315,660.769701 C143.353387,664.658933 141.560894,668.441499 138.31,670.61 L138.35,670.69 Z" id="Shape" fill="#70BF8E" fill-rule="nonzero"></path>
            <path d="M105.62,588.12 C109.81,592.19 129.35,596.41 129.35,596.41 C129.35,596.41 124.56,577 120.35,572.93 C117.65882,570.179505 113.687423,569.105287 109.976679,570.124132 C106.265934,571.142977 103.399878,574.094529 102.490516,577.833611 C101.581154,581.572693 102.771611,585.510807 105.6,588.12 L105.62,588.12 Z" id="Shape" fill="#70BF8E" fill-rule="nonzero"></path>
            <path d="M94.55,637.09 C99.77,639.72 119.68,637.9 119.68,637.9 C119.68,637.9 109.31,620.81 104.08,618.18 C98.8801943,615.690012 92.6438999,617.816996 90.0492826,622.965392 C87.4546653,628.113788 89.4551189,634.391814 94.55,637.09 Z" id="Shape" fill="#70BF8E" fill-rule="nonzero"></path>
            <path d="M90.29,686.16 C94.99,689.64 114.92,691.16 114.92,691.16 C114.92,691.16 107.58,672.56 102.92,669.09 C99.8977892,666.612714 95.7569236,666.001103 92.1475882,667.498903 C88.5382529,668.996703 86.0470868,672.360469 85.6668498,676.249701 C85.2866128,680.138933 87.0791064,683.921499 90.33,686.09 L90.29,686.16 Z" id="Shape" fill="#70BF8E" fill-rule="nonzero"></path>
            <path d="M131.63,541.21 C131.63,547.06 121.04,564.01 121.04,564.01 C121.04,564.01 110.45,547.01 110.45,541.21 C110.45,535.361304 115.191304,530.62 121.04,530.62 C126.888696,530.62 131.63,535.361304 131.63,541.21 Z" id="Shape" fill="#70BF8E" fill-rule="nonzero"></path>
            <path d="M149.13,573.6 C145.95,578.5 127.85,586.98 127.85,586.98 C127.85,586.98 128.17,566.98 131.35,562.09 C134.528399,557.180189 141.085188,555.776602 145.995,558.955 C150.904811,562.133399 152.308398,568.690189 149.13,573.6 Z" id="Shape" fill="#70BF8E" fill-rule="nonzero"></path>
            <path d="M148.36,628.94 C143.14,631.57 123.23,629.76 123.23,629.76 C123.23,629.76 133.61,612.67 138.83,610.04 C142.20616,608.337629 146.234064,608.565734 149.39644,610.638389 C152.558816,612.711044 154.375224,616.313364 154.16144,620.088389 C153.947656,623.863414 151.73616,627.237629 148.36,628.94 Z" id="Shape" fill="#70BF8E" fill-rule="nonzero"></path>
            <path d="M138.35,670.69 C133.65,674.16 113.72,675.69 113.72,675.69 C113.72,675.69 121.06,657.09 125.72,653.61 C128.742211,651.132714 132.883076,650.521103 136.492412,652.018903 C140.101747,653.516703 142.592913,656.880469 142.97315,660.769701 C143.353387,664.658933 141.560894,668.441499 138.31,670.61 L138.35,670.69 Z" id="Shape" fill="#70BF8E" fill-rule="nonzero"></path>
            <path d="M105.62,588.12 C109.81,592.19 129.35,596.41 129.35,596.41 C129.35,596.41 124.56,577 120.35,572.93 C117.65882,570.179505 113.687423,569.105287 109.976679,570.124132 C106.265934,571.142977 103.399878,574.094529 102.490516,577.833611 C101.581154,581.572693 102.771611,585.510807 105.6,588.12 L105.62,588.12 Z" id="Shape" fill="#70BF8E" fill-rule="nonzero"></path>
            <path d="M94.55,637.09 C99.77,639.72 119.68,637.9 119.68,637.9 C119.68,637.9 109.31,620.81 104.08,618.18 C98.8801943,615.690012 92.6438999,617.816996 90.0492826,622.965392 C87.4546653,628.113788 89.4551189,634.391814 94.55,637.09 Z" id="Shape" fill="#70BF8E" fill-rule="nonzero"></path>
            <path d="M90.29,686.16 C94.99,689.64 114.92,691.16 114.92,691.16 C114.92,691.16 107.58,672.56 102.92,669.09 C99.8977892,666.612714 95.7569236,666.001103 92.1475882,667.498903 C88.5382529,668.996703 86.0470868,672.360469 85.6668498,676.249701 C85.2866128,680.138933 87.0791064,683.921499 90.33,686.09 L90.29,686.16 Z" id="Shape" fill="#70BF8E" fill-rule="nonzero"></path>
            <path d="M86,712.69 C86,712.69 103.11,709.29 107.67,704.76 C112.23,700.23 132.77,692.3 135.05,697.97 C137.33,703.64 165.85,722.88 146.46,726.28 C127.07,729.68 100.83,730.81 95.12,728.55 C89.41,726.29 86,712.69 86,712.69 Z" id="Shape" fill="#A8A8A8" fill-rule="nonzero"></path>
            <path d="M146.46,724.17 C127.06,727.57 100.83,728.7 95.12,726.43 C90.78,724.71 87.76,716.43 86.57,712.56 L86,712.68 C86,712.68 89.42,726.27 95.12,728.54 C100.82,730.81 127.06,729.67 146.46,726.27 C152.05,725.27 153.65,722.99 153.05,720.07 C152.55,721.97 150.62,723.44 146.46,724.17 Z" id="Shape" fill="#000000" fill-rule="nonzero" opacity="0.2"></path>
            <path d="M344.82,814.24 C384.14,827.45 432.11,819.41 476.72,820.35 C482.83,820.48 489.3,820.86 494.2,823.14 C499.1,825.42 501.5,829.14 504.86,832.3 C517.37,844.08 542.98,847.88 565.37,845.87 C587.76,843.86 608.29,837.25 629.37,832.21 C665.89,823.49 707.64,819.53 743.66,829.03 C746.97,829.9 750.45,830.9 753.99,830.55 C761.89,829.78 764.24,823.45 769.77,819.84 C779.77,813.32 801.39,815.09 805.77,806.5 C808.34,801.5 802.43,796.29 796,792.86 C771.39,779.69 736.17,777.52 703.94,779.56 C671.71,781.6 640.04,787.18 607.65,787.2 C567.3,787.2 528.31,778.62 488.35,775.1 C460.67,772.65 430.46,772.96 404.51,780.1 C376.44,787.93 370.24,805.37 344.82,814.24 Z" id="Shape" fill="#70BF8E" fill-rule="nonzero" opacity="0.1"></path>
            <path d="M710.93,713.52 C711.15,711.61 711.47,709.71 711.81,707.81 C713.31,699.58 711.02,691.74 709.81,688.51 C709.46,687.51 709.2,686.94 709.2,686.94 C703.13,685.29 679.2,703.83 670.52,710.82 C667.52,710.82 664.22,710.95 660.65,711.19 C659.09,711.3 657.52,711.34 655.96,711.31 C654.56,711.31 652.57,711.31 650.25,711.31 C642.16,704.8 617.15,685.21 610.91,686.91 C610.91,686.91 610.66,687.47 610.3,688.48 C609.13,691.71 606.85,699.55 608.3,707.78 C608.65,709.68 608.96,711.58 609.18,713.49 C609.65,717.68 611.4,725.69 617.76,731.12 C619.11,741.02 624.21,754.03 628.13,761.93 C628.423785,763.424812 628.869429,764.885721 629.46,766.29 C627.84,772.53 625.98,780.68 626.46,783.37 C626.46,783.37 618.01,781.32 617.15,791.5 C617.15,791.6 617.15,791.71 617.15,791.81 C614.09,793.22 610.28,796.42 614.57,803.15 C615.087056,803.975877 615.864737,804.605763 616.78,804.94 C617.54,805.21 618.28,805.21 618.2,804.14 L623.49,810.14 C623.49,810.14 633.07,811.24 633.18,805.68 L633.74,805.77 C635.03,805.96 636.38,806.12 637.74,806.26 L638.4,808.46 C638.4,808.46 631.21,808.31 633.17,812.73 C633.17,812.73 634.98,814.41 635.6,813.8 C635.6,813.8 634.67,816.7 638.4,816.7 C638.4,816.7 642.4,818.84 643.99,817.32 C645.58,815.8 648.82,813.5 649.13,812.58 C649.22,812.33 649.26,810.07 649.27,806.95 L649.89,806.95 C657.89,807.14 666.43,806.88 674.19,806.46 L674.81,806.46 C674.81,809.85 674.86,812.33 674.95,812.6 C675.26,813.52 678.53,815.81 680.09,817.34 C681.65,818.87 685.68,816.72 685.68,816.72 C689.41,816.72 688.48,813.82 688.48,813.82 C689.1,814.43 690.91,812.75 690.91,812.75 C692.91,808.33 685.68,808.48 685.68,808.48 L686.53,805.66 L690.53,805.33 L691.15,805.27 C690.77,811.32 700.84,810.16 700.84,810.16 L706.13,804.16 C706.05,805.23 706.79,805.23 707.55,804.96 C708.465263,804.625763 709.242944,803.995877 709.76,803.17 C716.24,793.03 704.26,790.88 704.26,790.88 C703.890526,790.781298 703.511855,790.720978 703.13,790.7 C703.13,790.52 703.13,790.34 703.13,790.17 C703.274812,788.84165 703.301583,787.503078 703.21,786.17 C702.76,784.34 699.8,781.44 696.07,780.98 C693.64,780.68 693.58,769.49 693.84,761.73 C694.111584,760.269361 694.238863,758.785553 694.22,757.3 C694.245849,754.909622 693.908675,752.529171 693.22,750.24 C697.99,742.16 701.81,733.7 702.22,731.15 C708.72,725.69 710.46,717.69 710.93,713.52 Z" id="Shape" fill="url(#linearGradient-1)" fill-rule="nonzero"></path>
            <path d="M701.72,790.69 C701.34,795.96 700.32,804.42 700.32,804.42 C700.32,804.42 696.08,804.94 689.53,805.53 L685.09,805.91 C681.67,806.18 677.85,806.45 673.81,806.68 C666.33,807.09 658.12,807.34 650.39,807.16 C646.52,807.07 642.77,806.87 639.29,806.53 C637.74,806.38 636.29,806.2 634.8,805.98 C625.93,804.66 619.62,802.13 619.04,797.68 C618.760946,795.806901 618.690516,793.908628 618.83,792.02 C619.66,782.02 627.83,784.02 627.83,784.02 C627.3,781.26 629.28,772.68 630.83,766.47 C631.83,762.56 632.7,759.59 632.7,759.59 L689.93,755.75 L690.12,755.75 C690.888424,755.75178 691.622596,756.06817 692.151601,756.625515 C692.680605,757.182859 692.958287,757.932528 692.92,758.7 C692.58,765.56 692.09,781.28 694.92,781.63 C698.52,782.08 701.37,784.93 701.8,786.73 C701.894052,788.04968 701.867274,789.375195 701.72,790.69 Z" id="Shape" fill="#D3899B" fill-rule="nonzero"></path>
            <path d="M653.1,715.34 C653.1,715.34 631.52,741.34 621.1,734.13 C620.85,733.96 620.61,733.78 620.38,733.6 C613.38,728.3 611.55,719.78 611.07,715.45 C610.86,713.57 610.56,711.71 610.23,709.84 C608.78,701.76 610.99,694.07 612.11,690.89 C612.45,689.89 612.69,689.36 612.69,689.36 C619.93,687.36 653.1,715.34 653.1,715.34 Z" id="Shape" fill="#D3899B" fill-rule="nonzero"></path>
            <path d="M641.55,717.74 C641.55,717.74 634.75,722.54 625.16,730.33 C623.684188,731.549771 622.108665,732.643605 620.45,733.6 C613.45,728.3 611.62,719.78 611.14,715.45 C610.93,713.57 610.63,711.71 610.3,709.84 C608.85,701.76 611.06,694.07 612.18,690.89 C625.55,691.83 641.55,717.74 641.55,717.74 Z" id="Shape" fill="#EEC5CD" fill-rule="nonzero"></path>
            <path d="M634.12,715.18 C634.12,715.18 630.49,717.74 625.37,721.9 C624.578714,722.562441 623.736064,723.16099 622.85,723.69 C619.12,720.86 618.14,716.31 617.85,714 C617.74,713 617.58,712 617.4,711 C616.892973,707.599137 617.236545,704.125632 618.4,700.89 C625.6,701.35 634.12,715.18 634.12,715.18 Z" id="Shape" fill="#000000" fill-rule="nonzero" opacity="0.1"></path>
            <path d="M667.09,715.34 C667.09,715.34 688.68,741.34 699.09,734.13 L699.81,733.6 C706.81,728.3 708.63,719.78 709.11,715.45 C709.32,713.57 709.63,711.71 709.96,709.84 C711.4,701.76 709.2,694.07 708.07,690.89 C707.73,689.89 707.48,689.36 707.48,689.36 C700.27,687.36 667.09,715.34 667.09,715.34 Z" id="Shape" fill="#D3899B" fill-rule="nonzero"></path>
            <path d="M678.68,717.74 C678.68,717.74 685.48,722.54 695.07,730.33 C696.550814,731.547835 698.129493,732.641538 699.79,733.6 C706.79,728.3 708.61,719.78 709.09,715.45 C709.3,713.57 709.61,711.71 709.94,709.84 C711.38,701.76 709.18,694.07 708.05,690.89 C694.64,691.83 678.68,717.74 678.68,717.74 Z" id="Shape" fill="#EEC5CD" fill-rule="nonzero"></path>
            <path d="M686.13,715.16 C686.13,715.16 689.74,717.71 694.83,721.84 C695.614362,722.487372 696.450498,723.069323 697.33,723.58 C701.03,720.77 702.01,716.24 702.27,713.95 C702.38,712.95 702.54,711.95 702.71,710.95 C703.209063,707.565456 702.865585,704.110066 701.71,700.89 C694.6,701.41 686.13,715.16 686.13,715.16 Z" id="Shape" fill="#000000" fill-rule="nonzero" opacity="0.1"></path>
            <path d="M689.95,755.77 C687.23,760.08 684.33,763.97 681.68,766.3 C673.09,773.89 636.12,770.9 633.68,770.5 C633.18,770.42 632.13,768.92 630.81,766.5 C631.81,762.59 632.68,759.62 632.68,759.62 L689.95,755.77 Z" id="Shape" fill="#000000" fill-rule="nonzero" opacity="0.1"></path>
            <path d="M660.66,713.16 C659.16,713.27 657.66,713.3 656.15,713.28 C648.42,713.15 622.42,713.49 619.53,723.98 C616.13,736.32 631.32,769.5 633.72,769.9 C636.12,770.3 673.09,773.3 681.72,765.7 C690.35,758.1 701.51,734.33 700.91,732.13 C700.87,732.13 711.55,709.63 660.66,713.16 Z" id="Shape" fill="#D3899B" fill-rule="nonzero"></path>
            <path d="M659.85,733.23 C659.85,733.23 640.85,730.3 631.85,749.04 C628.212112,756.446862 628.854421,765.240383 633.53,772.04 C636.53,776.22 640.86,779.33 646.93,776.82 C660.44,771.27 659.85,733.23 659.85,733.23 Z" id="Shape" fill="#000000" fill-rule="nonzero" opacity="0.1"></path>
            <path d="M659.25,732.03 C659.25,732.03 640.25,729.1 631.25,747.84 C627.612112,755.246862 628.254421,764.040383 632.93,770.84 C635.93,775.02 640.26,778.13 646.33,775.63 C659.84,770.07 659.25,732.03 659.25,732.03 Z" id="Shape" fill="#000000" fill-rule="nonzero" opacity="0.1"></path>
            <path d="M659.25,732.63 C659.25,732.63 640.25,729.7 631.25,748.44 C627.612112,755.846862 628.254421,764.640383 632.93,771.44 C635.93,775.62 640.26,778.73 646.33,776.22 C659.84,770.69 659.25,732.63 659.25,732.63 Z" id="Shape" fill="#EEC5CD" fill-rule="nonzero"></path>
            <path d="M638.71,749.01 C638.71,749.01 636.11,751.41 637.11,752.01 C638.11,752.61 638.71,749.01 638.71,749.01 Z" id="Shape" fill="#3F2B3B" fill-rule="nonzero"></path>
            <path d="M641.55,752.08 C641.55,752.08 640.14,755.21 641.14,755.56 C642.14,755.91 642.75,753.31 642.75,753.31 L641.55,752.08 Z" id="Shape" fill="#3F2B3B" fill-rule="nonzero"></path>
            <path d="M635.23,756.81 C635.23,756.81 633.85,760.51 635.23,760.51 C636.61,760.51 635.23,756.81 635.23,756.81 Z" id="Shape" fill="#3F2B3B" fill-rule="nonzero"></path>
            <path d="M633.55,766.69 C633.55,766.69 636.32,773.79 643.55,773.29" id="Shape" stroke="#3F2B3B"></path>
            <path d="M640.01,768.8 C640.01,768.8 642.91,771.6 646.01,769.6" id="Shape" stroke="#3F2B3B"></path>
            <path d="M662.25,733.23 C662.25,733.23 681.25,730.3 690.25,749.04 C693.896513,756.445185 693.253868,765.243295 688.57,772.04 C685.57,776.22 681.24,779.33 675.18,776.82 C661.65,771.27 662.25,733.23 662.25,733.23 Z" id="Shape" fill="#000000" fill-rule="nonzero" opacity="0.1"></path>
            <path d="M662.85,732.03 C662.85,732.03 681.85,729.1 690.85,747.84 C694.496513,755.245185 693.853868,764.043295 689.17,770.84 C686.17,775.02 681.84,778.13 675.78,775.63 C662.25,770.07 662.85,732.03 662.85,732.03 Z" id="Shape" fill="#000000" fill-rule="nonzero" opacity="0.1"></path>
            <path d="M662.85,732.63 C662.85,732.63 681.85,729.7 690.85,748.44 C694.496513,755.845185 693.853868,764.643295 689.17,771.44 C686.17,775.62 681.84,778.73 675.78,776.22 C662.25,770.69 662.85,732.63 662.85,732.63 Z" id="Shape" fill="#EEC5CD" fill-rule="nonzero"></path>
            <path d="M683.38,749.01 C683.38,749.01 685.98,751.41 684.98,752.01 C683.98,752.61 683.38,749.01 683.38,749.01 Z" id="Shape" fill="#3F2B3B" fill-rule="nonzero"></path>
            <path d="M680.55,752.08 C680.55,752.08 681.97,755.21 680.96,755.56 C679.95,755.91 679.35,753.31 679.35,753.31 L680.55,752.08 Z" id="Shape" fill="#3F2B3B" fill-rule="nonzero"></path>
            <path d="M686.86,756.81 C686.86,756.81 688.24,760.51 686.86,760.51 C685.48,760.51 686.86,756.81 686.86,756.81 Z" id="Shape" fill="#3F2B3B" fill-rule="nonzero"></path>
            <path d="M688.55,766.69 C688.55,766.69 685.77,773.79 678.55,773.29" id="Shape" stroke="#3F2B3B"></path>
            <path d="M682.08,768.8 C682.08,768.8 679.18,771.6 676.08,769.6" id="Shape" stroke="#3F2B3B"></path>
            <path d="M652,786.89 C652.5,786.79 662,782.69 671.79,786.89 L652,786.89 Z" id="Shape" fill="#3F2B3B" fill-rule="nonzero"></path>
            <path d="M634.8,805.98 C625.93,804.66 619.62,802.13 619.04,797.68 C618.760946,795.806901 618.690516,793.908628 618.83,792.02 C619.897314,791.452099 621.038159,791.034799 622.22,790.78 C623.83,790.33 625.82,790.63 630.02,791.78 C634.22,792.93 633.92,797.93 634.82,804.37 C634.900355,804.904223 634.8936,805.447938 634.8,805.98 Z" id="Shape" fill="#000000" fill-rule="nonzero" opacity="0.1"></path>
            <path d="M621.63,791.38 C621.63,791.38 610.08,793.5 616.33,803.45 C616.822975,804.258553 617.573008,804.878298 618.46,805.21 C619.19,805.47 619.9,805.47 619.83,804.42 L624.92,810.27 C624.92,810.27 635.12,811.47 634.22,805.02 C633.32,798.57 633.62,793.63 629.42,792.43 C625.22,791.23 623.23,790.93 621.63,791.38 Z" id="Shape" fill="#D3899B" fill-rule="nonzero"></path>
            <path d="M624.37,798.08 C624.37,798.08 626.82,803.68 630.22,798.98" id="Shape" stroke="#3F2B3B"></path>
            <path d="M618.76,800.28 C618.76,800.28 620.03,805.56 624.82,801.62" id="Shape" stroke="#3F2B3B"></path>
            <path d="M701.72,790.69 C701.34,795.96 700.32,804.42 700.32,804.42 C700.32,804.42 696.08,804.94 689.53,805.53 C689.496099,805.160777 689.496099,804.789223 689.53,804.42 C690.43,797.98 690.13,793.03 694.33,791.83 C698.19,790.74 700.19,790.39 701.72,790.69 Z" id="Shape" fill="#000000" fill-rule="nonzero" opacity="0.1"></path>
            <path d="M702.77,791.38 C702.77,791.38 714.31,793.5 708.07,803.45 C707.570398,804.256716 706.817986,804.875522 705.93,805.21 C705.2,805.47 704.49,805.47 704.57,804.42 L699.47,810.27 C699.47,810.27 689.28,811.47 690.18,805.02 C691.08,798.57 690.78,793.63 694.97,792.43 C699.16,791.23 701.16,790.93 702.77,791.38 Z" id="Shape" fill="#D3899B" fill-rule="nonzero"></path>
            <path d="M700.02,798.08 C700.02,798.08 697.57,803.68 694.17,798.98" id="Shape" stroke="#3F2B3B"></path>
            <path d="M705.64,800.28 C705.64,800.28 704.37,805.56 699.57,801.62" id="Shape" stroke="#3F2B3B"></path>
            <path d="M650.39,807.16 C646.52,807.07 642.77,806.87 639.29,806.53 L635.84,794.89 C635.012489,792.11958 635.874325,789.120947 638.046538,787.212677 C640.218751,785.304407 643.303426,784.836064 645.944151,786.013591 C648.584877,787.191118 650.297916,789.798811 650.33,792.69 C650.36,797.26 650.4,803 650.39,807.16 Z" id="Shape" fill="#000000" fill-rule="nonzero" opacity="0.1"></path>
            <path d="M635.24,794.89 L639.31,808.62 C639.31,808.62 632.38,808.47 634.31,812.82 C634.31,812.82 636.05,814.47 636.65,813.82 C636.65,813.82 635.76,816.67 639.35,816.67 C639.35,816.67 643.24,818.76 644.74,817.27 C646.24,815.78 649.4,813.52 649.74,812.62 C649.93,812.03 649.87,800.55 649.81,792.62 C649.771597,788.560456 646.469726,785.289818 642.41,785.29 C640.03729,785.251952 637.790645,786.35564 636.370641,788.256901 C634.950637,790.158161 634.530038,792.625678 635.24,794.89 Z" id="Shape" fill="#D3899B" fill-rule="nonzero"></path>
            <path d="M640.74,812.17 C640.74,812.17 637.74,815.07 639.31,816.72" id="Shape" stroke="#3F2B3B"></path>
            <path d="M639.41,810.36 C639.41,810.36 636.61,811.27 636.61,813.87" id="Shape" stroke="#3F2B3B"></path>
            <path d="M688.67,792.78 C688.66853,793.494571 688.564124,794.205203 688.36,794.89 L685.09,805.89 C681.67,806.16 677.85,806.43 673.81,806.66 C673.81,802.55 673.81,797.07 673.87,792.66 C673.886569,788.573093 677.213093,785.273432 681.3,785.290001 C685.386907,785.306569 688.686568,788.633093 688.67,792.72 L688.67,792.78 Z" id="Shape" fill="#000000" fill-rule="nonzero" opacity="0.1"></path>
            <path d="M688.95,794.89 L684.88,808.62 C684.88,808.62 691.81,808.47 689.88,812.82 C689.88,812.82 688.14,814.47 687.54,813.82 C687.54,813.82 688.44,816.67 684.84,816.67 C684.84,816.67 680.96,818.76 679.45,817.27 C677.94,815.78 674.8,813.52 674.45,812.62 C674.25,812.03 674.31,800.55 674.38,792.62 C674.412948,788.562067 677.711933,785.289866 681.77,785.29 C684.14446,785.248692 686.3941,786.351021 687.816455,788.252776 C689.238809,790.154532 689.660556,792.623973 688.95,794.89 Z" id="Shape" fill="#D3899B" fill-rule="nonzero"></path>
            <path d="M683.45,812.17 C683.45,812.17 686.45,815.07 684.88,816.72" id="Shape" stroke="#3F2B3B"></path>
            <path d="M684.78,810.36 C684.78,810.36 687.58,811.27 687.58,813.87" id="Shape" stroke="#3F2B3B"></path>
            <path d="M659.25,729.63 C659.25,729.63 645.16,729.18 644.71,740.12 C644.26,751.06 666.71,746.42 666.71,746.42 C666.71,746.42 676.16,745.15 674.51,738.51 C672.86,731.87 669.45,730.23 659.25,729.63 Z" id="Shape" fill="#000000" fill-rule="nonzero" opacity="0.1"></path>
            <path d="M659.25,728.43 C659.25,728.43 645.16,727.98 644.71,738.92 C644.26,749.86 666.71,745.22 666.71,745.22 C666.71,745.22 676.16,743.95 674.51,737.31 C672.86,730.67 669.45,729.03 659.25,728.43 Z" id="Shape" fill="#000000" fill-rule="nonzero" opacity="0.1"></path>
            <path d="M659.25,729.03 C659.25,729.03 645.16,728.58 644.71,739.52 C644.26,750.46 666.71,745.82 666.71,745.82 C666.71,745.82 676.16,744.55 674.51,737.91 C672.86,731.27 669.45,729.63 659.25,729.03 Z" id="Shape" fill="#3F2B3B" fill-rule="nonzero"></path>
            <path d="M627.8,784.04 C627.8,784.04 632.52,785.74 633.48,788.98" id="Shape" fill="#000000" fill-rule="nonzero" opacity="0.1"></path>
            <path d="M694.92,781.69 C694.92,781.69 691.54,783.11 691.77,789.03" id="Shape" fill="#000000" fill-rule="nonzero" opacity="0.1"></path>
            <ellipse id="Oval" fill="#EEC5CD" fill-rule="nonzero" transform="translate(627.801730, 805.529572) rotate(-30.000000) translate(-627.801730, -805.529572) " cx="627.80173" cy="805.529572" rx="2.2" ry="3.64"></ellipse>
            <ellipse id="Oval" fill="#EEC5CD" fill-rule="nonzero" transform="translate(700.100800, 802.561200) rotate(-60.113473) translate(-700.100800, -802.561200) " cx="700.1008" cy="802.5612" rx="3.65253641" ry="2.20757695"></ellipse>
            <path d="M631.86,407.1 C628.61,406.04 609.48,391.21 608.04,384.5 C606.6,377.79 618.14,315.3 618.14,315.3 C618.14,315.3 617.08,315.25 615.38,315.09 L615.38,314.09 L617.75,231.98 C617.75,231.98 627.49,176.91 609.09,180.08 C590.69,183.25 602.23,231.98 602.23,231.98 C602.23,231.98 600.13,256.7 598.66,264.12 C597.23,271.26 590.81,300.38 595.2,309.43 C595.355459,309.753615 595.536011,310.064564 595.74,310.36 C595.74,310.36 596.46,341.42 588.52,345.66 C580.94,349.66 577.79,370.02 577.52,371.85 L577.12,371.67 C574.86167,370.29002 572.869962,368.515096 571.24,366.43 C571.09,366.22 570.95,365.99 570.8,365.77 C581.524245,354.024187 581.15927,335.933707 569.97,324.63 L569.22,323.9 C569.839881,323.285134 570.296956,322.525633 570.55,321.69 C571.95,317.47 567.11,314.08 564.6,311.44 C558.79,305.26 553.55,297.69 545.45,294.19 C547.771515,295.506593 549.921184,297.105409 551.85,298.95 C549.404729,296.840548 546.604697,295.181521 543.58,294.05 C535.1,291.05 525.34,293.53 517.94,298.59 C510.54,303.65 505.07,310.94 500.07,318.29 L497.65,321.89 C495.531905,319.510441 493.224343,317.306553 490.75,315.3 C486.06,311.77 476.68,300.12 476.68,300.12 C476.68,300.12 447.45,270.46 445.28,262.34 C443.11,254.22 413.89,205.49 407.39,213.97 C400.89,222.45 429.76,259.51 429.76,259.51 C429.76,259.51 435.18,272.93 439.51,277.51 C443.84,282.09 475.95,328 475.95,328 L478.67,333.5 L479.18,334.5 L478.84,334.31 L478.84,341.02 L481.84,341.29 C480.507625,342.469918 479.288946,343.772297 478.2,345.18 C476.57082,347.54605 475.359901,350.174217 474.62,352.95 C469.89,368.58 471.82,385.69 477.92,400.86 C479.18,403.98 480.62,407.09 481,410.42 C481.55,415.08 480,419.69 479.06,424.3 C477.76,430.77 477.81,437.82 481.06,443.59 C485.41,451.25 495.16,455.24 504,453.81 C508.034578,453.128583 511.851373,451.50456 515.14,449.07 C519.2819,446.195419 522.623565,442.313444 524.85,437.79 C526.5,434.42 527.53,430.79 529.17,427.41 C529.48,426.76 529.83,426.14 530.17,425.51 C533.91,429.7 537.27,433.51 537.27,433.51 C537.27,433.51 545.21,471.64 538.35,482.23 C534.702133,487.558945 530.284065,492.317383 525.24,496.35 C523.966893,497.39812 522.79812,498.566893 521.75,499.84 C521.07,500.33 520.67,500.59 520.67,500.59 C520.67,500.59 520.49,501.1 520.23,501.88 C518.620067,504.246377 517.454395,506.886082 516.79,509.67 C516.541537,510.381969 516.452772,511.139887 516.53,511.89 C517.02,512.89 513,516.89 514.18,518.6 C504.18,530.1 502.26,547.54 502.26,547.54 L484.03,574.73 C474.65,598.91 460.58,601.39 460.58,601.39 C460.58,601.39 427.58,579.67 426.65,578.61 C425.72,577.55 413.12,572.26 413.12,572.26 C411.623612,569.682504 409.352613,567.642453 406.63,566.43 C402.3,564.67 401.94,558.14 401.94,558.14 C401.4,542.78 392.19,541.54 392.19,541.54 C384.77,540.93 379.09,542.22 374.74,544.59 L373.42,544.69 C367.03,545.2 359.33,545.76 350.87,546.31 C327.4,547.83 321.82,562.73 321.82,562.73 C321.82,562.73 318.93,565.9 322.72,569.34 C326.51,572.78 350.72,569.4 351.72,569.26 C349.875903,569.463405 348.010346,569.338131 346.21,568.89 C350.03,568.75 355.27,568.62 359.73,568.61 L360.82,568.61 C360.538866,570.932535 360.405264,573.270558 360.42,575.61 C360.42,580.03 372.87,582.85 372.87,582.85 L410.76,615.85 C410.76,615.85 434.58,626.27 449.76,641.27 C464.94,656.27 478.27,643.39 478.27,643.39 C494.27,639.51 540.48,584.84 540.52,584.79 C540.52,586.47 541.52,639.56 543.36,650.23 C543.431356,650.770445 543.565599,651.300705 543.76,651.81 C545.93,656.41 543.04,668.94 541.76,674.24 C540.48,679.54 540.85,687.65 540.85,687.65 C540.85,687.65 523.55,752.57 525.04,758.22 C526.53,763.87 515.65,790.35 515.65,790.35 L515.65,812.41 C515.65,812.41 516.34,812.41 517.54,812.32 C517.291108,812.668987 517.064009,813.033013 516.86,813.41 C516.814672,813.487223 516.774582,813.567404 516.74,813.65 C516.74,813.65 528.28,816.12 536.04,815.41 C543.8,814.7 557.15,821.28 557.15,821.28 C557.15,821.28 561.67,823.36 575.56,824.28 C589.45,825.2 589.45,818.28 589.45,818.28 C587.85,808.89 565.92,805.76 565.23,805.67 C563.46,804.58 561.8,803.39 560.44,802.37 L560.15,802.14 C560.25381,801.938715 560.337547,801.727697 560.4,801.51 C562.75,792.15 549.76,788.09 549.76,788.09 L549.76,785.8 C558.23,781.56 559.86,752.43 559.86,752.43 C559.86,752.43 572.49,716.43 574.29,710.43 C576.09,704.43 574.29,695.43 574.29,695.43 L575.56,687.67 C575.56,687.67 578.26,682.37 578.26,681.31 C578.6182,678.614158 579.6767,676.059275 581.33,673.9 C583.33,671.6 579.17,666.13 579.17,666.13 L582.78,656.95 L582.78,646.83 L591.25,610.29 C591.25,610.29 600.1,567.74 597.03,553.79 C593.96,539.84 600.64,532.79 600.64,532.79 C600.035556,533.100287 599.414633,533.377365 598.78,533.62 C599.631653,531.710899 600.363081,529.750407 600.97,527.75 L619.97,530.06 C619.97,530.22 619.97,530.33 619.97,530.33 L626.82,530.33 C626.82,530.33 624.66,504.2 624.66,493.61 C624.66,483.02 631.88,445.24 631.88,445.24 C631.88,445.24 635.1,408.16 631.86,407.1 Z M547.6,376.1 C547.6,376.25 547.6,376.39 547.6,376.53 C547.6,377.53 547.5,378.64 547.43,379.73 L547.05,380.31 L546.36,379.72 L545.49,381.03 C545.181375,379.34554 545.73704,377.618472 546.97,376.43 C547.172857,376.309818 547.383299,376.202926 547.6,376.11 L547.6,376.1 Z M610.72,498.43 L611.14,498.43 L610.46,500.15 C610.55,499.59 610.63,499.02 610.72,498.44 L610.72,498.43 Z M541.41,810.83 L538.82,810.2 L540.26,809.96 L541.56,810.81 L541.72,810.91 L541.41,810.83 Z M567.85,807.13 C566.99,806.68 566.12,806.13 565.28,805.65 C565.55,805.8 566.66,806.37 567.85,807.13 Z" id="Shape" fill="url(#linearGradient-2)" fill-rule="nonzero"></path>
            <polygon id="Shape" fill="#F1D2D7" fill-rule="nonzero" points="617.03 472 600.48 515.12 598.16 513.22 588.94 527.53 617.03 531.03"></polygon>
            <polygon id="Shape" fill="#000000" fill-rule="nonzero" opacity="0.1" points="617.01 472 600.45 515.12 596.29 514 588.91 527.53 617.01 531.03"></polygon>
            <polygon id="Shape" fill="#F1D2D7" fill-rule="nonzero" points="591.09 499.59 617.03 499.59 626.55 421.23 591.09 421.23"></polygon>
            <polygon id="Shape" fill="#000000" fill-rule="nonzero" opacity="0.1" points="591.09 499.59 617.03 499.59 626.55 421.23 591.09 421.23"></polygon>
            <path d="M540.42,439.79 L546.01,438.79 L558.88,436.69 C558.88,436.69 597.53,427.99 605.54,427.29 C610.54,426.85 616.07,424.79 619.54,423.29 C621.63,422.4 622.96,421.71 622.96,421.71 L609.04,396.28 L587.44,380.28 C587.44,380.28 573.78,377.37 567.99,369.42 C565.376611,365.941135 564.702862,361.375447 566.2,357.29 C569.73,346.35 545.14,367.74 545.14,367.74 C545.14,367.74 545.38,372.86 545.14,379.39 C545.14,380.68 545.02,382.02 544.93,383.39 C544.87,384.29 544.79,385.19 544.71,386.11 C544.1,392.59 542.87,399.27 540.45,403.26 C534.55,412.97 540.42,439.79 540.42,439.79 Z" id="Shape" fill="#FFBEC7" fill-rule="nonzero"></path>
            <path d="M545.12,379.88 L545.66,379.88 C546.66,379.88 547.43,377.8 548.39,377.7 C556.08,376.96 563.1,375.35 567.98,369.91 C565.371857,366.428948 564.698516,361.866026 566.19,357.78 C569.72,346.84 545.19,368.22 545.19,368.22 C545.19,368.22 545.38,373.34 545.12,379.88 Z" id="Shape" fill="#000000" fill-rule="nonzero" opacity="0.1"></path>
            <path d="M515.19,348.89 C515.217582,365.439013 528.640964,378.840023 545.19,378.84 C546.16527,378.840419 547.139907,378.790352 548.11,378.69 C564.195431,377.11423 576.129152,363.05997 575.076397,346.931863 C574.023642,330.803756 560.364197,318.420078 544.210414,318.948708 C528.056632,319.477338 515.236052,332.727571 515.24,348.89 L515.19,348.89 Z" id="Shape" fill="#FFBEC7" fill-rule="nonzero"></path>
            <path d="M515.19,348.89 C515.217582,365.439013 528.640964,378.840023 545.19,378.84 C546.16527,378.840419 547.139907,378.790352 548.11,378.69 C548.642651,378.470565 549.115613,378.127839 549.49,377.69 C550.194786,376.610723 550.392087,375.277116 550.03,374.04 C548.85,368.19 543.54,363.99 541.63,358.33 C539.95,353.33 541.21,347.66 543.79,343.04 C546.37,338.42 550.18,334.61 553.94,330.87 C554.571092,330.136036 555.365769,329.560581 556.26,329.19 C559.46,328.19 564.26,330.99 566.8,328.13 C558.315342,319.360688 545.364602,316.604058 534.044078,321.157737 C522.723554,325.711415 515.288968,336.668039 515.24,348.87 L515.19,348.89 Z" id="Shape" fill="#000000" fill-rule="nonzero" opacity="0.1"></path>
            <path d="M555.16,328.69 C554.263718,329.056902 553.468237,329.63294 552.84,330.37 C549.09,334.11 545.28,337.91 542.7,342.54 C540.12,347.17 538.86,352.8 540.54,357.82 C542.44,363.49 547.76,367.69 548.93,373.54 C549.291752,374.773865 549.09438,376.104297 548.39,377.18 C547.39,378.43 545.49,378.5 544.19,379.44 C542.53,380.65 542.19,383.05 542.69,385.04 C543.367073,386.977377 544.291376,388.81926 545.44,390.52 C548.24,395.47 549.44,401.91 546.44,406.72 C545.026425,408.682983 543.343199,410.436905 541.44,411.93 C538.287657,414.728824 535.371135,417.782475 532.72,421.06 C530.435058,423.786212 528.48142,426.773733 526.9,429.96 C525.32,433.29 524.32,436.88 522.73,440.21 C519,448 511.66,454.21 503.13,455.62 C494.6,457.03 485.19,453.09 481,445.54 C477.84,439.84 477.8,432.89 479.05,426.54 C479.94,422 481.45,417.45 480.93,412.85 C480.55,409.57 479.16,406.5 477.93,403.42 C472.05,388.42 470.18,371.58 474.74,356.16 C475.45515,353.427427 476.624798,350.834596 478.2,348.49 C479.85578,346.442309 481.682332,344.538814 483.66,342.8 C489.89,336.71 494.48,329.18 499.31,321.93 C504.14,314.68 509.4,307.48 516.55,302.49 C523.7,297.5 533.11,295.03 541.29,298.02 C549.85,301.15 555.14,309.13 561.08,315.55 C563.49,318.17 568.17,321.5 566.82,325.67 C564.85,331.55 558.91,327.51 555.16,328.69 Z" id="Shape" fill="#493545" fill-rule="nonzero"></path>
            <path d="M501.55,454.19 C510.07,452.78 517.41,446.57 521.14,438.77 C522.74,435.45 523.73,431.86 525.32,428.53 C526.898288,425.344236 528.848555,422.356737 531.13,419.63 C533.787195,416.351519 536.706835,413.29476 539.86,410.49 C541.765917,408.999911 543.44954,407.245575 544.86,405.28 C547.86,400.47 546.71,394.03 543.92,389.09 C542.771957,387.383835 541.844581,385.539163 541.16,383.6 C540.64,381.6 541,379.21 542.66,378.01 C543.97,377.07 545.85,377.01 546.87,375.75 C547.57438,374.674297 547.771752,373.343865 547.41,372.11 C546.23,366.25 540.91,362.06 539.01,356.39 C537.33,351.39 538.58,345.73 541.17,341.1 C543.76,336.47 547.55,332.69 551.27,328.93 C551.90453,328.197846 552.702811,327.625688 553.6,327.26 C557.34,326.08 563.29,330.12 565.21,324.21 C566.56,320.04 561.88,316.7 559.47,314.09 C554.36,308.56 549.72,301.88 543.06,298.09 C550.87,301.51 555.93,309 561.56,315.09 C563.97,317.7 568.65,321.03 567.3,325.2 C565.38,331.11 559.43,327.07 555.69,328.25 C554.792161,328.619222 553.993934,329.194767 553.36,329.93 C549.61,333.67 545.81,337.47 543.22,342.1 C540.63,346.73 539.38,352.36 541.06,357.39 C542.96,363.05 548.28,367.25 549.46,373.1 C549.821752,374.333865 549.62438,375.664297 548.92,376.74 C547.92,377.99 546.01,378.06 544.71,379.01 C543.05,380.21 542.71,382.61 543.21,384.6 C543.886446,386.539483 544.81436,388.381863 545.97,390.08 C548.76,395.03 549.97,401.47 546.91,406.28 C545.496939,408.243411 543.813648,409.997401 541.91,411.49 C538.759373,414.293782 535.839916,417.347005 533.18,420.62 C530.900435,423.348129 528.95032,426.335397 527.37,429.52 C525.78,432.86 524.79,436.44 523.19,439.77 C519.46,447.56 512.12,453.77 503.6,455.18 C498.562888,455.969764 493.40674,455.032283 488.97,452.52 C492.91716,454.268904 497.283256,454.848505 501.55,454.19 Z" id="Shape" fill="#000000" fill-rule="nonzero" opacity="0.1"></path>
            <path d="M533.28,803.69 L538.51,807.14 L539.3,807.67 L539.46,807.78 L545.65,811.87 L560.09,814.31 L572.81,813.44 C572.81,813.44 576.47,805.78 570.72,805.95 C568.874574,805.861587 567.074484,805.348253 565.46,804.45 L564.68,804.04 C563.85,803.6 563.01,803.11 562.2,802.59 C560.5,801.51 558.89,800.34 557.58,799.33 C555.68,797.86 554.41,796.74 554.41,796.74 L533.28,803.69 Z" id="Shape" fill="#FFBEC7" fill-rule="nonzero"></path>
            <path d="M538.55,807.16 L539.34,807.69 L539.5,807.8 L545.69,811.89 L560.13,814.33 L572.85,813.46 C572.85,813.46 576.51,805.8 570.76,805.97 C568.914574,805.881587 567.114484,805.368253 565.5,804.47 C566.420889,805.004694 567.127747,805.842321 567.5,806.84 C567.73,808.84 558.1,812.34 558.1,812.34 L544.51,808.75 C544.51,808.75 542.2,808.1 539.03,807.28 L538.73,807.2 L538.55,807.16 Z" id="Shape" fill="#000000" fill-rule="nonzero" opacity="0.1"></path>
            <path d="M515.35,810.5 C515.35,810.5 526.49,812.93 533.98,812.24 C541.47,811.55 554.35,818.02 554.35,818.02 C554.35,818.02 558.71,820.02 572.11,820.95 C585.51,821.88 585.55,815.02 585.55,815.02 C584.01,805.77 562.84,802.67 562.17,802.59 C562.44,802.73 563.51,803.3 564.65,804.04 C566.15,805.04 567.78,806.31 567.9,807.34 C568.13,809.34 558.5,812.84 558.5,812.84 L544.92,809.26 C544.92,809.26 542.61,808.6 539.43,807.78 L539.13,807.7 C534.44983,806.406936 529.694057,805.405018 524.89,804.7 C519.04,804.08 516.04,809.06 515.43,810.21 C515.38,810.42 515.35,810.5 515.35,810.5 Z" id="Shape" fill="#BD577A" fill-rule="nonzero"></path>
            <path d="M339.83,564.81 L345.75,569.34 C345.75,569.34 347.47,569.26 350.03,569.17 L350.85,569.17 C354.53,569.04 359.59,568.91 363.9,568.9 C367.9,568.9 371.22,569.02 372.22,569.37 C375.22,570.37 380.4,552.48 380.4,552.48 L374.46,551.08 L372.46,550.62 L371.08,550.3 L366.26,549.17 L351.63,550.82 L341.36,557.44 L339.83,564.81 Z" id="Shape" fill="#FFBEC7" fill-rule="nonzero"></path>
            <path d="M339.83,564.81 L345.75,569.34 C345.75,569.34 347.47,569.26 350.03,569.17 C348.859102,568.709553 347.895814,567.838683 347.32,566.72 C343.49,556.1 362.47,551.58 362.47,551.58 L371.31,551.19 L373.02,551.12 L374.46,551.05 L372.46,550.59 L371.08,550.27 L366.26,549.14 L351.63,550.79 L341.36,557.41 L339.83,564.81 Z" id="Shape" fill="#000000" fill-rule="nonzero" opacity="0.1"></path>
            <path d="M328.16,569.59 C331.74,572.91 355.16,569.65 356.16,569.51 C354.378975,569.713641 352.575689,569.588224 350.84,569.14 C347.57,568.22 346.78,566.2 346.78,566.2 C342.96,555.58 361.93,551.05 361.93,551.05 L370.78,550.67 L372.49,550.59 L393.97,549.66 L395.02,543.74 C395.02,543.74 388.02,544.41 377.08,545.28 C370.91,545.78 363.47,546.34 355.32,546.87 C332.67,548.37 327.32,563.07 327.32,563.07 C327.32,563.07 324.55,566.2 328.16,569.59 Z" id="Shape" fill="#BD577A" fill-rule="nonzero"></path>
            <path d="M591.1,313.15 C591.247686,313.468516 591.418127,313.775979 591.61,314.07 L596.84,321.73 L610.42,323.13 L610.57,317.75 L612.85,236.75 C612.85,236.75 622.26,182.42 604.5,185.56 C586.74,188.7 597.88,236.75 597.88,236.75 C597.88,236.75 595.88,261.13 594.43,268.44 C593.06,275.5 586.86,304.22 591.1,313.15 Z" id="Shape" fill="#FFBEC7" fill-rule="nonzero"></path>
            <path d="M560.62,514.31 L564.48,520.93 L573.13,535.73 C573.13,535.73 588.83,541.48 592.83,537.12 C595.04,534.72 597.41,526.39 599.08,519.4 C600.45,513.71 601.36,508.91 601.36,508.91 L560.62,514.31 Z" id="Shape" fill="#FFBEC7" fill-rule="nonzero"></path>
            <path d="M560.62,514.31 L564.48,520.93 C564.725733,520.719187 564.950145,520.484726 565.15,520.23 C569.51,514.65 588.76,519.05 599.08,519.4 C600.45,513.71 601.36,508.91 601.36,508.91 L560.62,514.31 Z" id="Shape" fill="#000000" fill-rule="nonzero" opacity="0.1"></path>
            <path d="M363.9,568.87 C367.9,568.87 371.22,568.99 372.22,569.34 C375.22,570.34 380.4,552.45 380.4,552.45 L372.55,550.59 L394.03,549.66 L395.08,543.74 C395.08,543.74 388.08,544.41 377.14,545.28 C374.859871,546.578469 372.828354,548.271401 371.14,550.28 L370.81,550.68 C366.24,556.29 364.55,563.53 363.9,568.87 Z" id="Shape" fill="#000000" fill-rule="nonzero" opacity="0.1"></path>
            <path d="M533.28,803.69 L539.28,807.69 C548.28,806.07 556.49,803.52 557.46,799.53 C557.463769,799.463387 557.463769,799.396613 557.46,799.33 C555.56,797.86 554.29,796.74 554.29,796.74 L533.28,803.69 Z" id="Shape" fill="#000000" fill-rule="nonzero" opacity="0.1"></path>
            <path d="M515.46,810.26 C523.402602,809.874028 531.315993,809.025926 539.16,807.72 C534.47983,806.426936 529.724057,805.425018 524.92,804.72 C519.07,804.13 516.07,809.11 515.46,810.26 Z" id="Shape" fill="#000000" fill-rule="nonzero" opacity="0.1"></path>
            <path d="M364.55,575.78 C364.55,580.13 376.55,582.92 376.55,582.92 L413.12,615.48 C413.12,615.48 436.12,625.75 450.73,640.55 C465.34,655.35 478.26,642.69 478.26,642.69 C493.75,638.86 538.33,584.88 538.33,584.88 C538.33,584.88 539.38,646.52 541.47,651.05 C543.56,655.58 540.77,667.94 539.55,673.17 C538.33,678.4 538.68,686.4 538.68,686.4 C538.68,686.4 521.96,750.3 523.36,755.87 C524.76,761.44 514.3,787.56 514.3,787.56 L514.3,809.33 C514.3,809.33 555.22,807.76 557.48,798.53 C559.74,789.3 547.21,785.3 547.21,785.3 L547.21,782.99 C555.39,778.81 556.96,750.08 556.96,750.08 C556.96,750.08 569.15,714.55 570.89,708.69 C572.63,702.83 570.89,693.88 570.89,693.88 L572.11,686.22 C572.11,686.22 574.72,681 574.72,679.96 C575.072679,677.302295 576.106078,674.780802 577.72,672.64 C579.64,670.38 575.63,664.98 575.63,664.98 L579.12,655.98 L579.12,646.05 L587.3,610.05 C587.3,610.05 595.83,568.05 592.87,554.33 C589.91,540.61 596.36,533.6 596.36,533.6 C582.36,540.94 575.36,524.6 573.03,517.6 C572.43,515.79 572.15,514.6 572.15,514.6 C572.15,514.6 552.96,507.52 535.08,509.2 C531.452822,509.505712 527.878281,510.264966 524.44,511.46 C504.59,518.6 501.44,548.2 501.44,548.2 L483.85,575.02 C474.85,598.87 461.21,601.31 461.21,601.31 C461.21,601.31 429.35,579.89 428.48,578.85 C427.61,577.81 415.42,572.58 415.42,572.58 C413.986604,570.051726 411.792618,568.039697 409.15,566.83 C404.97,565.09 404.63,558.65 404.63,558.65 C404.1,543.5 395.22,542.28 395.22,542.28 C364.38,539.56 364.55,571.43 364.55,575.78 Z" id="Shape" fill="#E7AEB8" fill-rule="nonzero"></path>
            <rect id="Rectangle-path" fill="#F1D2D7" fill-rule="nonzero" transform="translate(551.215000, 461.465000) rotate(-180.000000) translate(-551.215000, -461.465000) " x="541.81" y="432.3" width="18.81" height="58.33"></rect>
            <rect id="Rectangle-path" fill="#000000" fill-rule="nonzero" opacity="0.1" transform="translate(549.475000, 459.075000) rotate(-180.000000) translate(-549.475000, -459.075000) " x="540.07" y="429.91" width="18.81" height="58.33"></rect>
            <path d="M591.09,313.02 C591.08757,313.063299 591.08757,313.106701 591.09,313.15 C591.237686,313.468516 591.408127,313.775979 591.6,314.07 L596.83,321.73 L610.41,323.13 L610.56,317.75 C606.32,317.38 596.68,316.22 591.09,313.02 Z" id="Shape" fill="#000000" fill-rule="nonzero" opacity="0.1"></path>
            <path d="M591.61,314.07 C591.61,314.07 592.31,344.71 584.61,348.89 C576.91,353.07 573.97,374.89 573.97,374.89 C573.97,374.89 597.15,390.17 602.37,396.89 C607.59,403.61 619.43,419.62 617,423.45 C614.57,427.28 622.96,444.69 622.96,444.69 C622.96,444.69 607.63,476.04 611.12,487.88 C614.61,499.72 614.95,531.06 614.95,531.06 L621.55,531.06 C621.55,531.06 619.46,505.29 619.46,494.84 C619.46,484.39 626.46,447.13 626.46,447.13 C626.46,447.13 629.59,410.56 626.46,409.52 C623.33,408.48 604.87,393.85 603.46,387.23 C602.05,380.61 613.21,318.97 613.21,318.97 C613.21,318.97 598.93,318.25 591.61,314.07 Z" id="Shape" fill="#F1D2D7" fill-rule="nonzero"></path>
            <path d="M541.47,426.9 C542.098454,431.162427 543.647688,435.236845 546.01,438.84 L558.88,436.69 C558.88,436.69 597.53,427.99 605.54,427.29 C610.54,426.85 616.07,424.79 619.54,423.29 C616.481134,412.438033 610.500235,402.634755 602.25,394.95 L597.34,390.4 C590.10214,383.704023 581.732037,378.347428 572.62,374.58 C573.19,375.07 613.74,409.69 604.86,416.48 C595.98,423.27 572.09,406.69 572.09,406.69 L544.9,383.33 L543.9,382.48 L542.32,384.92 C543.123551,385.253089 543.908081,385.630331 544.67,386.05 C553.914102,391.146653 560.768806,399.69077 563.74,409.82 C569.35,428.62 541.47,426.9 541.47,426.9 Z" id="Shape" fill="#000000" fill-rule="nonzero" opacity="0.1"></path>
            <path d="M533.11,513.96 C533.11,513.96 558.88,528.24 565.11,520.23 C566.49,518.47 569.35,517.7 572.95,517.49 C572.35,515.68 572.07,514.49 572.07,514.49 C572.07,514.49 552.88,507.41 535,509.09 C533.85,512.06 533.11,513.96 533.11,513.96 Z" id="Shape" fill="#000000" fill-rule="nonzero" opacity="0.1"></path>
            <path d="M544.96,382.5 L573.13,406.69 C573.13,406.69 596.95,423.29 605.89,416.45 C614.83,409.61 573.65,374.54 573.65,374.54 C582.767851,378.302024 591.14215,383.659137 598.38,390.36 L603.29,394.91 C616.19,406.86 619.1,406.86 619.53,424.44 C619.64,428.76 618.17,434.98 617.04,436.11 C612.86,440.25 609.92,469.97 610.57,473.45 C611.22,476.93 602.76,506.99 605.57,515.35 C608.38,523.71 571.45,511.17 565.18,519.18 C558.91,527.19 533.18,512.91 533.18,512.91 C533.18,512.91 547.46,476.34 550.94,473.91 C554.42,471.48 558.6,452.66 550.94,443.91 C543.28,435.16 542.55,426.9 542.55,426.9 C542.55,426.9 570.43,428.63 564.84,409.84 C561.658952,398.82096 553.840047,389.731757 543.42,384.94 L544.96,382.5 Z" id="Shape" fill="#E8E8F0" fill-rule="nonzero"></path>
            <path d="M582.55,444.14 C582.55,444.14 571.75,464.52 557.76,469.81 C557.32,469.97 556.88,470.12 556.43,470.26 C541.81,474.69 583.6,450.41 582.55,444.14 Z" id="Shape" fill="#000000" fill-rule="nonzero" opacity="0.1"></path>
            <path d="M431.42,263.92 C431.42,263.92 436.64,277.16 440.82,281.68 C445,286.2 475.99,331.48 475.99,331.48 L478.62,336.91 L480.87,341.58 L500.72,339.49 L502.11,331.49 L501.35,330.56 C499.35,328.17 493.92,321.75 490.27,318.95 C485.75,315.47 476.69,303.95 476.69,303.95 C476.69,303.95 448.48,274.69 446.4,266.69 C444.32,258.69 416.1,210.62 409.83,218.98 C403.56,227.34 431.42,263.92 431.42,263.92 Z" id="Shape" fill="#FFBEC7" fill-rule="nonzero"></path>
            <path d="M478.62,336.91 L480.87,341.58 L500.72,339.49 L502.11,331.49 L501.35,330.56 C499.21,331.61 483.34,339.22 478.62,336.91 Z" id="Shape" fill="#000000" fill-rule="nonzero" opacity="0.1"></path>
            <path d="M551.91,389.29 C551.91,389.29 547.04,381.63 544.25,383.72 C541.46,385.81 540.38,377.45 538.83,378.84 C537.28,380.23 532.58,384.12 530.67,378.68 C529.15,374.36 512.67,347.06 505.95,336.06 L503.16,331.48 C503.16,331.48 484.35,340.89 479.83,337.75 L479.83,344.37 L483.66,344.72 L504.2,383.02 C504.2,383.02 510.66,393.27 510.2,396.86 C509.74,400.45 518.46,416.11 519.85,417.15 C521.24,418.19 536.22,435.61 536.22,435.61 C536.22,435.61 543.88,473.22 537.22,483.67 C530.56,494.12 519.11,501.78 519.11,501.78 C519.11,501.78 515.66,511.87 516.11,512.92 C516.56,513.97 512.11,518.49 514.18,519.92 C516.25,521.35 519.06,531.07 519.06,531.07 C519.06,531.07 528.81,515.4 534.06,512.96 C539.31,510.52 546.06,478.48 546.06,478.48 C546.06,478.48 547.98,459.59 548.14,447.4 C548.3,435.21 547.73,389.29 551.91,389.29 Z" id="Shape" fill="#000000" fill-rule="nonzero" opacity="0.1"></path>
            <path d="M550.87,389.29 C550.87,389.29 545.99,381.63 543.21,383.72 C540.43,385.81 539.34,377.45 537.79,378.84 C536.24,380.23 531.54,384.12 529.63,378.68 C528.1,374.36 511.63,347.06 504.91,336.06 C503.19,333.23 502.11,331.48 502.11,331.48 C502.11,331.48 483.31,340.89 478.78,337.75 L478.78,344.37 L482.61,344.72 L503.16,383.02 C503.16,383.02 509.61,393.27 509.16,396.86 C508.71,400.45 517.43,416.11 518.82,417.15 C520.21,418.19 535.19,435.61 535.19,435.61 C535.19,435.61 542.85,473.22 536.19,483.67 C532.687621,488.909073 528.427997,493.600051 523.55,497.59 C519.477351,500.973681 516.613726,505.58847 515.39,510.74 C515.154711,511.441074 515.072863,512.184531 515.15,512.92 C515.66,513.92 511.15,518.49 513.22,519.92 C515.29,521.35 518.09,531.07 518.09,531.07 C518.09,531.07 527.84,515.4 533.09,512.96 C538.34,510.52 545.09,478.48 545.09,478.48 C545.09,478.48 547,459.59 547.16,447.4 C547.32,435.21 546.69,389.29 550.87,389.29 Z" id="Shape" fill="#F1D2D7" fill-rule="nonzero"></path>
            <path d="M503.16,547.74 C503.16,547.74 517.79,550.53 523.71,554.74 C529.63,558.95 501.42,548.12 501.42,548.12 L503.16,547.74 Z" id="Shape" fill="#000000" fill-rule="nonzero" opacity="0.1"></path>
            <path d="M538.33,584.83 C538.33,584.83 553.65,597.54 550.87,609.04 C548.09,620.54 541.07,649.44 541.07,649.44 L538.33,584.83 Z" id="Shape" fill="#000000" fill-rule="nonzero" opacity="0.1"></path>
            <path d="M404.87,560.37 C404.87,560.37 383.36,562.72 384.75,565.5 C386.14,568.28 404.87,562.94 404.87,562.94 L404.87,560.37 Z" id="Shape" fill="#000000" fill-rule="nonzero" opacity="0.1"></path>
            <path d="M570.02,666.15 C570.02,666.15 571.42,667.89 563.41,666.15 C555.4,664.41 561.32,659.05 561.32,659.05 L570.02,666.15 Z" id="Shape" fill="#000000" fill-rule="nonzero" opacity="0.1"></path>
            <path d="M567.24,690.18 C567.24,690.18 556.24,691.92 550.43,690.18 C544.62,688.44 567.24,690.18 567.24,690.18 Z" id="Shape" fill="#000000" fill-rule="nonzero" opacity="0.1"></path>
            <path d="M544.77,784.2 C544.77,784.2 542.86,782.11 533.28,785.95 C523.7,789.79 519.87,789.95 517.09,788.73 C514.31,787.51 544.77,784.2 544.77,784.2 Z" id="Shape" fill="#000000" fill-rule="nonzero" opacity="0.1"></path>
            <path d="M555.4,557.41 L541.81,576.3 C541.81,576.3 549.13,559.76 555.4,557.41 Z" id="Shape" fill="#000000" fill-rule="nonzero" opacity="0.1"></path>
            <path d="M528.93,383.69 C528.93,383.69 528.35,389.96 519.59,392.4 C510.83,394.84 509.17,396.83 509.17,396.83" id="Shape" fill="#000000" fill-rule="nonzero" opacity="0.1"></path>
            <path d="M506.24,338.25 C506.24,338.25 494.69,346.47 482.61,344.72" id="Shape" fill="#000000" fill-rule="nonzero" opacity="0.1"></path>
            <path d="M515.04,513.79 C515.04,513.79 518.42,515.91 526.52,506.64" id="Shape" fill="#000000" fill-rule="nonzero" opacity="0.1"></path>
            <path d="M599.19,415.56 C599.52,413.87 598.34,412.29 597.19,410.97 L594.92,408.26 C594.4787,407.702117 593.982918,407.189586 593.44,406.73 C592.1,405.68 590.32,405.36 588.9,404.42" id="Shape" fill="#000000" fill-rule="nonzero" opacity="0.1"></path>
            <path d="M583.33,49.61 L434.38,49.61 C429.327601,49.5807418 424.47052,51.5597834 420.877305,55.1117405 C417.28409,58.6636977 415.24909,63.4975996 415.22,68.55 L415.22,215.84 C415.24909,220.8924 417.28409,225.726302 420.877305,229.278259 C424.47052,232.830217 429.327601,234.809258 434.38,234.78 L583.38,234.78 C588.432399,234.809258 593.28948,232.830217 596.882695,229.278259 C600.47591,225.726302 602.51091,220.8924 602.54,215.84 L602.54,68.55 C602.510954,63.4888741 600.469082,58.6473446 596.865029,55.0939467 C593.260975,51.5405488 588.39103,49.5674078 583.33,49.61 Z" id="Shape" fill="url(#linearGradient-3)" fill-rule="nonzero"></path>
            <rect id="Rectangle-path" fill="#70BF8E" fill-rule="nonzero" x="416.58" y="49.61" width="185.18" height="185.18" rx="18.95"></rect>
            <path d="M477.34,167.9 C472.091344,167.89697 467.571705,171.602544 466.545815,176.749966 C465.519926,181.897387 468.273607,187.052546 473.12239,189.061951 C477.971172,191.071356 483.564148,189.375173 486.480008,185.010982 C489.395868,180.646792 488.822231,174.83049 485.11,171.12 C483.070126,169.02808 480.261632,167.864199 477.34,167.9 Z" id="Shape" fill="#EAEAF3" fill-rule="nonzero"></path>
            <path d="M474.89,144.69 C474.909454,138.823013 470.779248,133.760399 465.027839,132.601425 C459.276431,131.442452 453.507835,134.510346 451.253513,139.926982 C448.99919,145.343619 450.88785,151.598347 455.763279,154.862104 C460.638709,158.125861 467.141195,157.488414 471.29,153.34 C473.634335,151.078416 474.93756,147.947055 474.89,144.69 Z" id="Shape" fill="#EAEAF3" fill-rule="nonzero"></path>
            <path d="M545.9,116.48 C548.823208,116.470061 551.332683,114.397405 551.894769,111.528729 C552.456855,108.660053 550.915142,105.793611 548.211843,104.681219 C545.508544,103.568827 542.395894,104.520026 540.776178,106.953493 C539.156463,109.38696 539.480393,112.625546 541.55,114.69 C542.689859,115.862864 544.264784,116.510937 545.9,116.48 Z" id="Shape" fill="#EAEAF3" fill-rule="nonzero"></path>
            <path d="M477.34,96.9 C470.925205,96.9089733 465.409511,101.446823 464.164548,107.739655 C462.919585,114.032488 466.291881,120.328722 472.220023,122.779602 C478.148165,125.230481 484.982081,123.153814 488.54434,117.819024 C492.106599,112.484234 491.405663,105.376235 486.87,100.84 C484.372363,98.268992 480.924001,96.8433313 477.34,96.9 Z" id="Shape" fill="#EAEAF3" fill-rule="nonzero"></path>
            <path d="M565.8,139.44 C563.313907,136.927656 559.398189,136.524152 556.451999,138.476713 C553.505809,140.429274 552.35172,144.192749 553.696839,147.461262 C555.041958,150.729776 558.510731,152.590765 561.977846,151.904005 C565.444962,151.217244 567.942406,148.174476 567.94,144.64 C567.973901,142.685794 567.199583,140.804272 565.8,139.44 Z" id="Shape" fill="#EAEAF3" fill-rule="nonzero"></path>
            <path d="M545.9,170.35 C541.779174,170.301661 538.200549,173.176901 537.360065,177.211394 C536.519582,181.245886 538.652372,185.310953 542.449698,186.912159 C546.247024,188.513364 550.646555,187.20276 552.948621,183.784568 C555.250686,180.366376 554.811266,175.79686 551.9,172.88 C550.329458,171.25263 548.161593,170.338513 545.9,170.35 Z" id="Shape" fill="#EAEAF3" fill-rule="nonzero"></path>
            <path d="M511.62,183.82 C506.944691,183.820337 502.920684,187.123223 502.008884,191.708758 C501.097083,196.294292 503.551435,200.885353 507.870967,202.67425 C512.190499,204.463147 517.172172,202.951653 519.769416,199.064129 C522.366659,195.176606 521.856111,189.995774 518.55,186.69 C516.732797,184.821292 514.226328,183.78326 511.62,183.82 Z" id="Shape" fill="#EAEAF3" fill-rule="nonzero"></path>
            <path d="M511.62,80.98 C504.657526,81.0172343 498.688714,85.9625068 497.357612,92.7966563 C496.026509,99.6308058 499.703011,106.454717 506.142559,109.102293 C512.582106,111.749869 519.99524,109.485385 523.856132,103.691341 C527.717025,97.8972973 526.952788,90.1837782 522.03,85.26 C519.297697,82.4602961 515.531415,80.9118151 511.62,80.98 Z" id="Shape" fill="#EAEAF3" fill-rule="nonzero"></path>
        </g>
    </g>
</svg>