<?xml version="1.0" encoding="UTF-8"?>
<svg width="402px" height="335px" viewBox="0 0 402 335" version="1.1" xmlns="http://www.w3.org/2000/svg" xmlns:xlink="http://www.w3.org/1999/xlink">
    <!-- Generator: Sketch 51 (57462) - http://www.bohemiancoding.com/sketch -->
    <title>teach-earn</title>
    <desc>Created with Sketch.</desc>
    <defs>
        <linearGradient x1="50.0017673%" y1="100%" x2="50.0017673%" y2="0.00481706169%" id="linearGradient-1">
            <stop stop-color="#808080" stop-opacity="0.25" offset="0%"></stop>
            <stop stop-color="#808080" stop-opacity="0.12" offset="54%"></stop>
            <stop stop-color="#808080" stop-opacity="0.1" offset="100%"></stop>
        </linearGradient>
        <linearGradient x1="49.9783268%" y1="0%" x2="49.9783268%" y2="100.015969%" id="linearGradient-2">
            <stop stop-color="#E0E0E0" offset="0%"></stop>
            <stop stop-color="#FCCC63" offset="31%"></stop>
            <stop stop-color="#F55F44" offset="77%"></stop>
        </linearGradient>
        <linearGradient x1="50.0216732%" y1="0%" x2="50.0216732%" y2="100.015969%" id="linearGradient-3">
            <stop stop-color="#E0E0E0" offset="0%"></stop>
            <stop stop-color="#FCCC63" offset="31%"></stop>
            <stop stop-color="#F55F44" offset="77%"></stop>
        </linearGradient>
        <linearGradient x1="50.0017854%" y1="100.026706%" x2="50.0017854%" y2="0.0090971242%" id="linearGradient-4">
            <stop stop-color="#808080" stop-opacity="0.25" offset="0%"></stop>
            <stop stop-color="#808080" stop-opacity="0.12" offset="54%"></stop>
            <stop stop-color="#808080" stop-opacity="0.1" offset="100%"></stop>
        </linearGradient>
        <linearGradient x1="50%" y1="0%" x2="50%" y2="100%" id="linearGradient-5">
            <stop stop-color="#F2F2F2" offset="0%"></stop>
            <stop stop-color="#E6E6E6" offset="31%"></stop>
            <stop stop-color="#CCCCCC" offset="77%"></stop>
        </linearGradient>
        <linearGradient x1="50.0261588%" y1="0.0667535267%" x2="50.0261588%" y2="100%" id="linearGradient-6">
            <stop stop-color="#F2F2F2" offset="0%"></stop>
            <stop stop-color="#E6E6E6" offset="31%"></stop>
            <stop stop-color="#CCCCCC" offset="77%"></stop>
        </linearGradient>
        <linearGradient x1="50.0018333%" y1="-0.0532481363%" x2="50.0018333%" y2="100.01065%" id="linearGradient-7">
            <stop stop-color="#F2F2F2" offset="0%"></stop>
            <stop stop-color="#E6E6E6" offset="31%"></stop>
            <stop stop-color="#CCCCCC" offset="77%"></stop>
        </linearGradient>
        <linearGradient x1="49.996574%" y1="-0.0251984377%" x2="49.996574%" y2="100%" id="linearGradient-8">
            <stop stop-color="#F2F2F2" offset="0%"></stop>
            <stop stop-color="#E6E6E6" offset="31%"></stop>
            <stop stop-color="#CCCCCC" offset="77%"></stop>
        </linearGradient>
        <linearGradient x1="49.9893736%" y1="-0.0106450926%" x2="49.9893736%" y2="100.010645%" id="linearGradient-9">
            <stop stop-color="#F2F2F2" offset="0%"></stop>
            <stop stop-color="#E6E6E6" offset="31%"></stop>
            <stop stop-color="#CCCCCC" offset="77%"></stop>
        </linearGradient>
        <linearGradient x1="49.9919034%" y1="0.0388432241%" x2="49.9919034%" y2="100%" id="linearGradient-10">
            <stop stop-color="#F2F2F2" offset="0%"></stop>
            <stop stop-color="#E6E6E6" offset="31%"></stop>
            <stop stop-color="#CCCCCC" offset="77%"></stop>
        </linearGradient>
        <linearGradient x1="50%" y1="100%" x2="50%" y2="0%" id="linearGradient-11">
            <stop stop-color="#808080" stop-opacity="0.25" offset="0%"></stop>
            <stop stop-color="#808080" stop-opacity="0.12" offset="54%"></stop>
            <stop stop-color="#808080" stop-opacity="0.1" offset="100%"></stop>
        </linearGradient>
        <linearGradient x1="50%" y1="100%" x2="50%" y2="0.0343170899%" id="linearGradient-12">
            <stop stop-color="#808080" stop-opacity="0.25" offset="0%"></stop>
            <stop stop-color="#808080" stop-opacity="0.12" offset="54%"></stop>
            <stop stop-color="#808080" stop-opacity="0.1" offset="100%"></stop>
        </linearGradient>
        <linearGradient x1="50%" y1="4.10718344e-13%" x2="50%" y2="100%" id="linearGradient-13">
            <stop stop-color="#F2F2F2" offset="0%"></stop>
            <stop stop-color="#E0E0E0" offset="31%"></stop>
            <stop stop-color="#B3B3B3" offset="77%"></stop>
        </linearGradient>
        <linearGradient x1="50%" y1="0%" x2="50%" y2="100.032701%" id="linearGradient-14">
            <stop stop-color="#F2F2F2" offset="0%"></stop>
            <stop stop-color="#E6E6E6" offset="31%"></stop>
            <stop stop-color="#CCCCCC" offset="77%"></stop>
        </linearGradient>
        <linearGradient x1="49.9540293%" y1="99.9430785%" x2="49.9540293%" y2="-0.0566800544%" id="linearGradient-15">
            <stop stop-color="#808080" stop-opacity="0.25" offset="0%"></stop>
            <stop stop-color="#808080" stop-opacity="0.12" offset="54%"></stop>
            <stop stop-color="#808080" stop-opacity="0.1" offset="100%"></stop>
        </linearGradient>
        <linearGradient x1="50.0721261%" y1="100.095365%" x2="50.0721261%" y2="0.0957582806%" id="linearGradient-16">
            <stop stop-color="#808080" stop-opacity="0.25" offset="0%"></stop>
            <stop stop-color="#808080" stop-opacity="0.12" offset="54%"></stop>
            <stop stop-color="#808080" stop-opacity="0.1" offset="100%"></stop>
        </linearGradient>
    </defs>
    <g id="Landing/Homeroom-Page-Redesign" stroke="none" stroke-width="1" fill="none" fill-rule="evenodd">
        <g id="Desktop-Copy-5" transform="translate(-122.000000, -1699.000000)">
            <rect fill="#FFFFFF" x="0" y="0" width="1024" height="3287"></rect>
            <g id="Group-5" transform="translate(122.000000, 1699.000000)" fill-rule="nonzero">
                <g id="teach-earn">
                    <g id="Group" opacity="0.7" transform="translate(131.000000, 21.000000)" fill="url(#linearGradient-1)">
                        <path d="M123.820986,129.698655 C123.856135,119.116588 121.30907,108.684101 116.398451,99.2968006 C114.066901,94.8885317 111.940563,92.1480216 110.285775,90.4672334 C109.006611,89.1176766 107.007022,88.7251066 105.30831,89.4900309 C104.646039,89.7224854 104.047846,90.106281 103.561831,90.6105564 C101.348169,92.8906955 99.3484507,95.9048223 97.6019718,99.1143895 C92.4357413,108.720965 89.7543552,119.455499 89.7995775,130.350124 L89.7995775,136.890866 L85.581831,136.890866 L85.581831,60.8862287 C85.581831,44.9556569 81.9971831,29.237898 74.976338,15.2834467 C71.6492958,8.67755796 68.6147887,4.57330757 66.2788732,2.04995363 C65.1340164,0.752229927 63.4824814,0.0081999372 61.7467606,0.0081999372 C60.0110398,0.0081999372 58.3595047,0.752229927 57.2146479,2.04995363 C54.0535211,5.46799073 51.2023944,9.98483771 48.7092958,14.7883308 C41.3260563,29.0294281 37.575493,45.1901855 37.575493,61.5941577 L37.575493,136.890866 L33.9297183,136.890866 L33.9297183,130.037419 C33.9749406,119.142794 31.2935544,108.40826 26.1273239,98.8016847 C24.3808451,95.5964606 22.3811268,92.5823338 20.1674648,90.2978516 C18.8600795,88.9281018 16.812608,88.5558864 15.1026761,89.3771097 L15.255493,89.4596291 C14.7209052,89.6946597 14.2374468,90.030997 13.8321127,90.4498609 C12.1947887,92.1306491 10.0684507,94.8711592 7.71943662,99.2794281 C2.80881728,108.666728 0.261752163,119.099215 0.296901408,129.681283 L0.296901408,243.31473 L13.308169,243.31473 L11.8891549,252.656785 L11.8891549,280.587403 L22.5252113,280.587403 L22.5252113,252.656785 L21.1061972,243.31473 L33.9297183,243.31473 L33.9297183,139.831159 L37.575493,139.831159 L37.575493,242.850015 L47.9670423,242.850015 L46.4738028,252.652442 L46.4738028,280.587403 L57.1142254,280.587403 L57.1142254,252.656785 L55.6209859,242.854359 L69.6233803,242.854359 L68.1301408,252.656785 L68.1301408,280.587403 L78.7705634,280.587403 L78.7705634,252.656785 L77.2773239,242.854359 L85.5730986,242.854359 L85.5730986,139.831159 L89.7908451,139.831159 L89.7908451,243.471082 L93.2095775,243.471082 L93.2095775,243.31473 L104.513662,243.31473 L103.094648,252.656785 L103.094648,280.587403 L113.73507,280.587403 L113.73507,252.656785 L112.316056,243.31473 L123.820986,243.31473 L123.820986,129.698655 Z" id="Shape"></path>
                    </g>
                    <polygon id="Shape" fill="#535461" points="155 268 145 268 146.785869 256 153.214131 256"></polygon>
                    <g id="Group" opacity="0.1" transform="translate(146.000000, 257.000000)" fill="#000000">
                        <polygon id="Shape" points="0.151111111 2.77 7.76444444 2.77 7.25333333 0.16 0.662222222 0.16"></polygon>
                    </g>
                    <polygon id="Shape" fill="#535461" points="242 268 232 268 233.785869 256 240.214131 256"></polygon>
                    <g id="Group" opacity="0.1" transform="translate(233.000000, 257.000000)" fill="#000000">
                        <polygon id="Shape" points="0.0444444444 2.77 7.65777778 2.77 7.14666667 0.16 0.555555556 0.16"></polygon>
                    </g>
                    <polygon id="Shape" fill="#535461" points="188 268 178 268 179.785095 256 186.214905 256"></polygon>
                    <g id="Group" opacity="0.1" transform="translate(179.000000, 257.000000)" fill="#000000">
                        <polygon id="Shape" points="0.142222222 2.77 7.76 2.77 7.24888889 0.16 0.653333333 0.16"></polygon>
                    </g>
                    <polygon id="Shape" fill="#535461" points="209 268 199 268 200.785869 256 207.214131 256"></polygon>
                    <g id="Group" opacity="0.1" transform="translate(200.000000, 257.000000)" fill="#000000">
                        <polygon id="Shape" points="0.128888889 2.77 7.74666667 2.77 7.23111111 0.16 0.64 0.16"></polygon>
                    </g>
                    <rect id="Rectangle-path" fill="#535461" x="156" y="155" width="72" height="3"></rect>
                    <path d="M237.532807,110.324285 C236.784264,109.48102 235.721282,109 234.606338,109 C233.491394,109 232.428412,109.48102 231.679869,110.324285 C229.639629,112.540865 227.799163,115.473171 226.188223,118.591999 C221.421159,127.971136 218.954767,138.39045 219.000628,148.956113 L219.000628,259 L249.999523,259 L249.999523,148.500651 C250.038482,138.224648 247.691914,128.085344 243.151968,118.912991 C241.001215,114.627313 239.041734,111.959609 237.532807,110.324285 Z" id="Shape" fill="#E0E0E0"></path>
                    <path d="M146.472274,110.324285 C147.220612,109.48102 148.283302,109 149.397941,109 C150.512579,109 151.575269,109.48102 152.323607,110.324285 C154.363288,112.540865 156.20325,115.473171 157.813748,118.591999 C162.579505,127.971136 165.045221,138.39045 164.999372,148.956113 L164.999372,259 L134.000477,259 L134.000477,148.500651 C133.961529,138.224648 136.307453,128.085344 140.846155,118.912991 C142.992069,114.627313 144.951012,111.959609 146.472274,110.324285 Z" id="Shape" fill="#E0E0E0"></path>
                    <polygon id="Shape" fill="#535461" points="135 150 143 150.033613 143 159 135 159"></polygon>
                    <polygon id="Shape" fill="#535461" points="159 150 167 150.033613 167 159 159 159"></polygon>
                    <polygon id="Shape" fill="#535461" points="219 150 227 150.033613 227 159 219 159"></polygon>
                    <polygon id="Shape" fill="#535461" points="243 150 251 150.033613 251 159 243 159"></polygon>
                    <g id="Group" opacity="0.1" transform="translate(149.000000, 109.000000)" fill="#000000">
                        <path d="M10.3928571,9.6416185 C8.77285714,6.52456647 6.91285714,3.59393064 4.85571429,1.37861272 C3.66104397,0.0439036929 1.73399125,-0.322924919 0.141428571,0.481213873 C0.587982001,0.70660163 0.991394479,1.01045693 1.33285714,1.37861272 C3.39,3.59393064 5.24571429,6.52456647 6.87,9.6416185 C11.6765585,19.0154133 14.1633843,29.4287942 14.1171429,39.9884393 L14.1171429,149.960983 L17.6485714,149.960983 L17.6485714,40.0014451 C17.6942476,29.4366841 15.2044115,19.0185517 10.3928571,9.6416185 Z" id="Shape"></path>
                    </g>
                    <g id="Group" opacity="0.1" transform="translate(219.000000, 109.000000)" fill="#000000">
                        <path d="M10.7956098,9.91642651 C12.455122,6.80835735 14.3604878,3.88616715 16.4678049,1.67723343 C16.8624367,1.25916369 17.3387992,0.923924427 17.8682927,0.691642651 C16.2633311,-0.000437964733 14.388652,0.396597264 13.2146341,1.67723343 C11.1073171,3.88616715 9.20634146,6.80835735 7.54243902,9.91642651 C2.61864743,19.2632075 0.071167274,29.6465786 0.118536585,40.1757925 L0.118536585,149.831412 L3.37609756,149.831412 L3.37609756,40.1930836 C3.32452849,29.658387 5.87057826,19.2687719 10.7956098,9.91642651 Z" id="Shape"></path>
                    </g>
                    <rect id="Rectangle-path" fill="url(#linearGradient-2)" x="145" y="269" width="10" height="27"></rect>
                    <rect id="Rectangle-path" fill="url(#linearGradient-3)" x="178" y="269" width="10" height="27"></rect>
                    <rect id="Rectangle-path" fill="url(#linearGradient-3)" x="199" y="269" width="10" height="27"></rect>
                    <rect id="Rectangle-path" fill="url(#linearGradient-3)" x="232" y="269" width="10" height="27"></rect>
                    <path d="M195.903161,23.9881749 C194.848449,22.7276636 193.293873,22 191.655635,22 C190.017396,22 188.46282,22.7276636 187.408108,23.9881749 C184.446729,27.3180996 181.787972,31.7217729 179.436161,36.4080115 C172.51907,50.292841 169,66.0512966 169,82.0314573 L169,259 L214,259 L214,81.318523 C214,65.790467 210.640888,50.453686 204.056682,36.8861991 C200.939668,30.4480549 198.095014,26.4486676 195.903161,23.9881749 Z" id="Shape" fill="#EEEEEE"></path>
                    <rect id="Rectangle-path" fill="#70BF8E" x="180" y="43" width="23" height="10" rx="5"></rect>
                    <g id="Group" opacity="0.7" transform="translate(60.000000, 253.000000)" fill="url(#linearGradient-4)">
                        <path d="M239.060358,39.4728042 C235.973585,20.9431331 219.100549,7.88765966 200.303382,9.48468163 C181.506215,11.0817036 167.098944,26.7947763 167.210211,45.5772487 C167.210211,45.7551323 167.210211,45.9286772 167.210211,46.1065608 C165.872369,46.3083001 164.548084,46.5908319 163.244683,46.9525926 C159.82332,33.3867935 148.161895,23.4570554 134.170613,22.1959348 C120.17933,20.9348142 106.916339,28.617961 101.103545,41.3514286 C98.1803134,40.228651 95.1101086,39.5302161 91.987187,39.2775661 C91.4892495,36.4622016 90.6538603,33.7164803 89.4989268,31.0992593 C88.3747779,13.9730102 74.2116355,0.587104921 56.9748105,0.359983712 C39.7379856,0.132862503 25.2239943,13.1409032 23.6450081,30.2315344 C21.9339543,33.83899 20.8410627,37.7060035 20.4115772,41.6724868 C4.74165989,48.1635272 -3.4478925,65.4120123 1.4598374,81.5878307 L266.226407,81.5878307 C269.019464,72.3703287 267.618704,62.3973872 262.393144,54.2962981 C257.167584,46.1952091 248.641258,40.7783701 239.060358,39.4728042 Z" id="Shape"></path>
                    </g>
                    <circle id="Oval" fill="url(#linearGradient-5)" cx="118.5" cy="286.5" r="31.5"></circle>
                    <circle id="Oval" fill="url(#linearGradient-5)" cx="118.5" cy="298.5" r="34.5"></circle>
                    <circle id="Oval" fill="url(#linearGradient-5)" cx="259.5" cy="298.5" r="34.5"></circle>
                    <circle id="Oval" fill="url(#linearGradient-5)" cx="257.5" cy="300.5" r="31.5"></circle>
                    <path d="M221.999983,306.506902 C222.010471,316.60218 217.089111,326.087252 208.772807,332 L171.256285,332 C159.001942,323.285402 154.620288,307.320204 160.750583,293.720932 C166.880878,280.12166 181.849556,272.600904 196.640337,275.688739 C211.431118,278.776574 222.006132,291.630024 221.995592,306.506902 L221.999983,306.506902 Z" id="Shape" fill="url(#linearGradient-6)"></path>
                    <path d="M180.999981,324.778275 C181.003406,327.902567 180.548679,331.01016 179.650587,334 L119.347398,334 C116.47291,324.398684 118.253857,313.990989 124.15244,305.919761 C130.051023,297.848533 139.37577,293.059937 149.310856,293 L149.50548,293 C150.387776,293 151.262863,293.036386 152.130743,293.109159 C155.107178,293.353559 158.03338,294.028508 160.819626,295.113312 C172.973039,299.84036 180.992926,311.629532 180.999981,324.778275 Z" id="Shape" fill="url(#linearGradient-7)"></path>
                    <path d="M261,330.107219 C261,331.06854 260.958193,332.019571 260.874579,332.960312 C260.877875,332.973328 260.877875,332.986984 260.874579,333 L198.129753,333 C198.043257,332.047499 198.000008,331.081769 198.000008,330.111629 C197.988872,314.228792 209.376171,300.727866 224.779438,298.361598 C226.33701,298.1228 227.909787,298.001937 229.484867,298 C230.289288,298 231.089384,298.030868 231.88083,298.088195 C243.380592,298.984913 253.482089,306.213348 258.219126,316.935366 C258.348871,317.226408 258.474291,317.52186 258.591062,317.817311 C260.181626,321.711706 261.000343,325.888631 261,330.107219 Z" id="Shape" fill="url(#linearGradient-8)"></path>
                    <path d="M320.999981,324.782201 C321.003406,327.905163 320.548566,331.011433 319.650251,334 L259.345012,334 C259.345012,334 259.345012,334 259.345012,334 C257.887006,329.112116 257.609623,323.943182 258.536039,318.925059 C258.587952,318.650096 258.639865,318.370769 258.700429,318.10017 C261.828588,303.456428 274.662553,293.000965 289.51061,293 C290.501277,293 291.47464,293.043645 292.43935,293.139664 C292.871956,293.17458 293.304562,293.226953 293.737168,293.283692 C309.353781,295.427335 320.998895,308.881696 320.999981,324.782201 Z" id="Shape" fill="url(#linearGradient-9)"></path>
                    <path d="M126.644362,334 C126.748147,333.668498 126.838959,333.336997 126.92977,333.001133 C129.848089,321.991675 126.700512,310.248811 118.679821,302.222539 C110.659131,294.196266 98.9926045,291.114715 88.1013094,294.145649 C86.8484274,294.492385 85.6191679,294.920748 84.4212759,295.428037 C69.4795916,301.698127 61.6717373,318.361597 66.3540848,333.986914 L126.644362,333.986914 L126.644362,334 Z" id="Shape" fill="url(#linearGradient-10)"></path>
                    <g id="Group" opacity="0.7" transform="translate(303.000000, 256.000000)" fill="url(#linearGradient-11)">
                        <ellipse id="Oval" cx="5.96888889" cy="6.11571429" rx="5.93777778" ry="5.72571429"></ellipse>
                    </g>
                    <circle id="Oval" fill="url(#linearGradient-5)" cx="308" cy="262" r="5"></circle>
                    <g id="Group" opacity="0.7" transform="translate(329.000000, 312.000000)" fill="url(#linearGradient-12)">
                        <circle id="Oval" cx="6.331" cy="6.578" r="6.31366667"></circle>
                    </g>
                    <circle id="Oval" fill="url(#linearGradient-13)" cx="335" cy="318" r="6"></circle>
                    <g id="Group" opacity="0.7" transform="translate(58.000000, 275.000000)" fill="url(#linearGradient-11)">
                        <circle id="Oval" cx="6.86" cy="6.85151515" r="6.79212121"></circle>
                    </g>
                    <circle id="Oval" fill="url(#linearGradient-14)" cx="65" cy="282" r="7"></circle>
                    <g id="Group" opacity="0.4" transform="translate(292.000000, 0.000000)" fill="url(#linearGradient-15)">
                        <path d="M34.7582022,7.54386364 C33.2031366,5.51890254 31.2547486,3.81908398 29.0265169,2.54340909 C22.0209566,-1.42373941 13.2467171,-0.656462919 7.05953858,4.46434435 C0.872360079,9.58515162 -1.4102306,17.9690409 1.34489858,25.4540512 C4.10002775,32.9390614 11.3061866,37.9312994 19.3860674,37.9525 C19.7935955,37.9525 20.2011236,37.9525 20.6042697,37.9136364 C27.6714291,37.4743269 33.9226072,33.2453574 36.8781948,26.9042022 C39.8337823,20.5630471 39.0160794,13.1346021 34.7494382,7.56545455 L34.7582022,7.54386364 Z" id="Shape"></path>
                    </g>
                    <path d="M328.999981,18.9957364 C329.000759,28.4945908 321.618242,36.3591429 312.135871,36.9609734 C311.75851,36.9869911 311.376812,37 310.995115,37 C303.428398,36.9955221 296.671874,32.2617971 294.08542,25.1528075 C291.498966,18.0438179 293.634548,10.0766651 299.430184,5.21324753 C305.22582,0.349829949 313.444688,-0.371969642 319.999716,3.4067846 C322.085679,4.61786803 323.909611,6.23198117 325.365175,8.15501887 C327.729046,11.274485 329.005738,15.0821887 328.999981,18.9957364 Z" id="Shape" fill="#70BF8E" opacity="0.2"></path>
                    <path d="M307.694553,8.13639501 C306.704075,8.50001184 305.74821,8.92842664 304.835549,9.417789 C304.226069,9.70545001 303.702876,10.1089991 303.306744,10.5969859 C302.911569,11.0968743 302.897112,11.7474065 303.269794,12.2596536 C303.731669,12.8020841 304.655418,12.8885586 305.426749,12.9239345 C306.869987,13.1847832 308.366482,12.7642713 309.343445,11.8233507 L310.992338,10.549818 C311.565062,10.1095845 312.193211,9.50033278 311.943799,8.87928907 C311.754431,8.40367965 311.126281,8.17177092 310.558175,8.09315779 C309.140983,7.85579239 307.67071,8.07577444 306.433635,8.71027085" id="Shape" fill="#F55F44" opacity="0.05"></path>
                    <circle id="Oval" fill="#F55F44" opacity="0.05" cx="301.5" cy="27.5" r="1.5"></circle>
                    <circle id="Oval" fill="#F55F44" opacity="0.05" cx="319.5" cy="19.5" r="3.5"></circle>
                    <path d="M326,7.54865661 C325.959646,9.95826861 323.83486,11.9154456 321.170336,11.9973447 C318.505812,12.0792437 316.238851,10.2570551 316.017505,7.85548699 C315.796159,5.45391883 317.698292,3.31777277 320.341076,3 C322.543257,4.16097208 324.467103,5.70736413 326,7.54865661 Z" id="Shape" fill="#F55F44" opacity="0.05"></path>
                    <path d="M327,29.629343 C323.773825,33.9595245 318.635739,36.6715128 313.03568,37 C313.01338,36.7602012 313,36.5161955 313,36.2721897 C313.001207,33.1460832 314.869905,30.2874412 317.830552,28.8826464 C320.7912,27.4778515 324.338397,27.7667108 327,29.629343 Z" id="Shape" fill="#F55F44" opacity="0.05"></path>
                    <circle id="Oval" fill="#535461" opacity="0.25" cx="314" cy="150" r="2"></circle>
                    <circle id="Oval" fill="#535461" opacity="0.25" cx="18" cy="208" r="2"></circle>
                    <circle id="Oval" fill="#535461" opacity="0.25" cx="400" cy="220" r="2"></circle>
                    <circle id="Oval" fill="#535461" opacity="0.25" cx="125" cy="115" r="2"></circle>
                    <circle id="Oval" fill="#535461" opacity="0.25" cx="118" cy="64" r="2"></circle>
                    <circle id="Oval" fill="#535461" opacity="0.25" cx="56" cy="165" r="2"></circle>
                    <polygon id="Shape" fill="#535461" opacity="0.25" points="369 168.659341 367.338518 168.659341 367.338518 167 366.661482 167 366.661482 168.659341 365 168.659341 365 169.340659 366.661482 169.340659 366.661482 171 367.338518 171 367.338518 169.340659 369 169.340659"></polygon>
                    <polygon id="Shape" fill="#535461" opacity="0.25" points="402 99.6593407 400.338518 99.6593407 400.338518 98 399.661482 98 399.661482 99.6593407 398 99.6593407 398 100.340659 399.661482 100.340659 399.661482 102 400.338518 102 400.338518 100.340659 402 100.340659"></polygon>
                    <polygon id="Shape" fill="#535461" opacity="0.25" points="262 61.6614822 260.338518 61.6614822 260.338518 60 259.661482 60 259.661482 61.6614822 258 61.6614822 258 62.3385178 259.661482 62.3385178 259.661482 64 260.338518 64 260.338518 62.3385178 262 62.3385178"></polygon>
                    <polygon id="Shape" fill="#535461" opacity="0.25" points="346 156.659341 344.336996 156.659341 344.336996 155 343.659341 155 343.659341 156.659341 342 156.659341 342 157.340659 343.659341 157.340659 343.659341 159 344.336996 159 344.336996 157.340659 346 157.340659"></polygon>
                    <polygon id="Shape" fill="#535461" opacity="0.25" points="275 221.659341 273.340659 221.659341 273.340659 220 272.663004 220 272.663004 221.659341 271 221.659341 271 222.340659 272.663004 222.340659 272.663004 224 273.340659 224 273.340659 222.340659 275 222.340659"></polygon>
                    <polygon id="Shape" fill="#535461" opacity="0.25" points="73 86.6593407 71.3385178 86.6593407 71.3385178 85 70.6614822 85 70.6614822 86.6593407 69 86.6593407 69 87.3369963 70.6614822 87.3369963 70.6614822 89 71.3385178 89 71.3385178 87.3369963 73 87.3369963"></polygon>
                    <polygon id="Shape" fill="#535461" opacity="0.25" points="4 112.659341 2.33851784 112.659341 2.33851784 111 1.66148216 111 1.66148216 112.659341 0 112.659341 0 113.336996 1.66148216 113.336996 1.66148216 115 2.33851784 115 2.33851784 113.336996 4 113.336996"></polygon>
                    <polygon id="Shape" fill="#535461" opacity="0.25" points="100 193.661482 98.3369963 193.661482 98.3369963 192 97.6593407 192 97.6593407 193.661482 96 193.661482 96 194.338518 97.6593407 194.338518 97.6593407 196 98.3369963 196 98.3369963 194.338518 100 194.338518"></polygon>
                    <circle id="Oval" fill="url(#linearGradient-5)" cx="335" cy="318" r="6"></circle>
                    <g id="Group" opacity="0.4" transform="translate(100.000000, 148.000000)" fill="url(#linearGradient-16)">
                        <path d="M16.7730233,4.11813953 C16.0263961,3.13047701 15.0906114,2.30133873 14.0202326,1.67906977 C10.6552735,-0.279610344 6.42374247,0.0801975362 3.43779519,2.57889641 C0.451847908,5.07759528 -0.648284458,9.17942724 0.686525787,12.8369754 C2.02133603,16.4945236 5.50488587,18.9235558 9.39837209,18.9116279 C9.5927907,18.9116279 9.79162791,18.9116279 9.98162791,18.9116279 C13.3738746,18.6946422 16.3733444,16.6333738 17.7918844,13.5443344 C19.2104245,10.455295 18.8191386,6.83693327 16.7730233,4.12255814 L16.7730233,4.11813953 Z" id="Shape"></path>
                    </g>
                    <path d="M117.999924,157.517231 C117.999823,162.00289 114.51239,165.716385 110.033548,166 C109.857187,166 109.676524,166 109.495861,166 C105.922736,165.996376 102.732965,163.760626 101.512171,160.404135 C100.291377,157.047644 101.299965,153.286375 104.036568,150.990041 C106.773172,148.693707 110.654054,148.352133 113.750043,150.135115 C114.734554,150.706844 115.595725,151.468225 116.283626,152.375116 C117.404709,153.854497 118.007803,155.661396 117.999924,157.517231 Z" id="Shape" fill="#70BF8E" opacity="0.2"></path>
                    <path d="M106.577815,151.109595 C106.241292,151.325808 105.916418,151.582055 105.606192,151.87597 C105.4029,152.045469 105.227825,152.283985 105.094471,152.573125 C104.96851,152.874703 104.96851,153.260417 105.094471,153.561996 C105.28498,153.847375 105.547511,153.991802 105.813472,153.957544 C106.291227,154.106879 106.784909,153.856284 107.108969,153.299945 L107.659555,152.538514 C107.850641,152.271519 108.061159,151.910581 107.98343,151.549643 C107.895097,151.271934 107.718357,151.084562 107.517051,151.055207 C107.043982,150.913909 106.553398,151.046075 106.140585,151.426034" id="Shape" fill="#F55F44" opacity="0.1"></path>
                    <circle id="Oval" fill="#F55F44" opacity="0.1" cx="105.5" cy="160.5" r="1"></circle>
                    <circle id="Oval" fill="#F55F44" opacity="0.1" cx="113.5" cy="157.5" r="1.5"></circle>
                    <path d="M116,151.016608 C115.986452,152.088041 115.13807,152.960199 114.07196,152.998682 C113.005851,153.037165 112.097328,152.228425 112.007244,151.160733 C111.917159,150.093041 112.677228,149.142269 113.734581,149 C114.615244,149.514859 115.38529,150.200332 116,151.016608 Z" id="Shape" fill="#F55F44" opacity="0.1"></path>
                    <path d="M117.958,161.735124 C116.351154,163.652628 113.790912,164.853964 111,165 C111.000023,164.894429 111.000023,164.784948 111.000023,164.675467 C110.994701,163.284943 111.929366,162.011747 113.412975,161.388557 C114.896583,160.765367 116.673382,160.89961 118,161.735124 L117.958,161.735124 Z" id="Shape" fill="#F55F44" opacity="0.1"></path>
                    <g id="Group" opacity="0.1" transform="translate(169.000000, 88.000000)" fill="#000000">
                        <rect id="Rectangle-path" x="0.255288462" y="0.03" width="44.5673077" height="2.4"></rect>
                    </g>
                </g>
            </g>
        </g>
    </g>
</svg>