<?xml version="1.0" encoding="UTF-8"?>
<svg width="467px" height="248px" viewBox="0 0 467 248" version="1.1" xmlns="http://www.w3.org/2000/svg" xmlns:xlink="http://www.w3.org/1999/xlink">
    <!-- Generator: Sketch 51 (57462) - http://www.bohemiancoding.com/sketch -->
    <title>teach-engage</title>
    <desc>Created with Sketch.</desc>
    <defs>
        <linearGradient x1="49.9980214%" y1="99.9956618%" x2="49.9980214%" y2="0.000918730404%" id="linearGradient-1">
            <stop stop-color="#808080" stop-opacity="0.25" offset="0%"></stop>
            <stop stop-color="#808080" stop-opacity="0.12" offset="54%"></stop>
            <stop stop-color="#808080" stop-opacity="0.1" offset="100%"></stop>
        </linearGradient>
        <linearGradient x1="-5%" y1="65%" x2="-5%" y2="0%" id="linearGradient-2">
            <stop stop-color="#808080" stop-opacity="0.25" offset="0%"></stop>
            <stop stop-color="#808080" stop-opacity="0.12" offset="54%"></stop>
            <stop stop-color="#808080" stop-opacity="0.1" offset="100%"></stop>
        </linearGradient>
        <linearGradient x1="-2%" y1="68%" x2="-2%" y2="0%" id="linearGradient-3">
            <stop stop-color="#808080" stop-opacity="0.25" offset="0%"></stop>
            <stop stop-color="#808080" stop-opacity="0.12" offset="54%"></stop>
            <stop stop-color="#808080" stop-opacity="0.1" offset="100%"></stop>
        </linearGradient>
        <linearGradient x1="21.4102483%" y1="81.26304%" x2="21.4102483%" y2="81.256255%" id="linearGradient-4">
            <stop stop-color="#808080" stop-opacity="0.25" offset="0%"></stop>
            <stop stop-color="#808080" stop-opacity="0.12" offset="54%"></stop>
            <stop stop-color="#808080" stop-opacity="0.1" offset="100%"></stop>
        </linearGradient>
        <linearGradient x1="21.4120485%" y1="81.3156243%" x2="21.4120485%" y2="81.288484%" id="linearGradient-5">
            <stop stop-color="#808080" stop-opacity="0.25" offset="0%"></stop>
            <stop stop-color="#808080" stop-opacity="0.12" offset="54%"></stop>
            <stop stop-color="#808080" stop-opacity="0.1" offset="100%"></stop>
        </linearGradient>
        <linearGradient x1="21.4111484%" y1="81.288484%" x2="21.4111484%" y2="81.26304%" id="linearGradient-6">
            <stop stop-color="#808080" stop-opacity="0.25" offset="0%"></stop>
            <stop stop-color="#808080" stop-opacity="0.12" offset="54%"></stop>
            <stop stop-color="#808080" stop-opacity="0.1" offset="100%"></stop>
        </linearGradient>
    </defs>
    <g id="Landing/Homeroom-Page-Redesign" stroke="none" stroke-width="1" fill="none" fill-rule="evenodd">
        <g id="Desktop-Copy-5" transform="translate(-456.000000, -1243.000000)">
            <rect fill="#FFFFFF" x="0" y="0" width="1024" height="3287"></rect>
            <g id="Group-6" transform="translate(101.000000, 1178.000000)">
                <g id="teach-engage" transform="translate(337.000000, 0.000000)">
                    <path d="M37.8021216,98.9036684 C38.5587386,103.708068 40.4923152,108.348395 40.509129,113.207486 C40.5721804,129.084724 21.3246855,138.836562 18.3780828,154.436137 C16.6294569,163.691549 21.1607518,173.148896 27.5499617,180.052592 C33.9391717,186.956287 42.0854143,191.933175 49.5885325,197.612632 C70.3483384,213.35552 86.350084,234.541406 95.8220324,258.824557 C97.7177782,263.704683 99.3487081,268.736262 99.8867469,273.944534 C100.277666,277.730839 100.092715,281.605491 100.979638,285.303448 C104.4895,299.981689 122.286812,305.677974 137.335083,306.628757 C161.571513,308.134573 185.831396,304.079664 208.26372,294.773417 C213.307833,292.669914 218.51588,290.280335 223.929895,290.873523 C228.259425,291.348915 232.122375,293.692216 235.922273,295.825168 C247.112823,302.110915 259.022223,307.018294 271.390795,310.440304 C278.242382,312.333457 285.434447,313.772252 292.433154,312.543807 C313.450292,308.833228 324.618799,283.321949 345.240814,277.74346 C359.507248,273.885636 374.353754,280.625258 387.148987,288.02538 C399.944221,295.425503 413.15139,303.948895 427.922235,303.96993 C447.627903,303.995172 463.827913,289.068718 477.194813,274.579792 C479.998499,271.538127 482.848423,268.357631 484.185113,264.440909 C486.896324,256.489669 482.503742,247.558197 476.009446,242.215301 C469.515151,236.872404 461.326874,234.221991 453.504295,231.167705 C440.245294,225.990394 427.591973,219.376909 415.770126,211.445265 C408.119887,206.312718 400.709245,200.507051 395.475977,192.934442 C390.974106,186.40517 388.271302,178.836767 385.253241,171.49975 C378.637046,155.433197 369.280217,139.10581 353.656076,131.566857 C340.898674,125.407801 326.081591,126.09775 311.920244,125.933677 C291.054429,125.702292 269.658983,123.190709 251.159698,113.531425 C235.535558,105.374042 222.702494,92.4963995 206.847165,84.7849589 C181.626599,72.5299528 152.79529,74.9321527 125.62013,75.3949233 C112.560081,75.6178946 97.036823,76.9220662 84.4937951,72.6393349 C75.2168304,69.47146 70.4417367,62.996879 59.7860478,65.6052222 C45.2127644,69.1601416 35.4734227,84.0823891 37.8021216,98.9036684 Z" id="Shape" fill="#70BF8E" fill-rule="nonzero" opacity="0.1"></path>
                    <path d="M424.516877,214.058151 C423.858476,211.871054 423.927678,209.528375 424.71402,207.384229 C425.972379,204.118804 429.038582,201.762312 430.116576,198.425351 C432.121562,192.226935 426.719006,186.424073 423.405326,180.806364 C420.365674,175.594163 418.988347,169.573756 419.458272,163.553475 C419.9742,157.089953 422.61256,150.908369 422.813897,144.428016 C422.994262,138.389505 421.043805,132.515106 419.118515,126.792197 C417.528788,122.06238 415.909699,117.27786 413.221004,113.078254 C408.137232,105.137717 399.106407,100.147003 389.819714,99.322231 C385.436429,98.930885 381.149618,100.361612 376.841835,99.8019454 C370.860433,99.0276695 365.206205,97.4707014 359.107356,97.2771324 C353.314709,97.1046035 346.909659,97.8410073 342.962605,102.099525 C339.946737,105.360742 338.981995,110.069518 336.221994,113.55376 C332.304301,118.498186 325.454632,120.194019 321.121681,124.772346 C317.312722,128.88905 315.952506,134.716955 317.543746,140.10217 C318.143564,142.054692 319.125084,143.868349 319.762653,145.808247 C322.442958,153.912897 318.923747,162.581422 316.797119,170.845976 C316.557559,171.521237 316.513924,172.250834 316.671283,172.949987 C317.006846,173.959912 318.063868,174.490123 318.940525,175.087662 C321.809584,177.0486 323.273476,180.600171 323.554509,184.071789 C323.835543,187.543406 323.034387,191.0024 322.245815,194.394066 C320.236635,203.016302 317.724111,212.25291 311.100946,217.988444 C309.898308,215.111221 308.476343,212.3313 306.847691,209.673393 C302.795774,203.083631 299.796684,194.945317 299.74635,187.156268 C299.74341,187.132514 299.74341,187.108486 299.74635,187.084732 C299.74635,186.66393 299.767322,186.243128 299.792489,185.822326 C300.316806,176.632006 304.276443,167.765704 304.188358,158.617465 C304.188358,157.876853 304.167386,157.134839 304.12544,156.391422 C303.609513,148.560293 299.859602,141.318288 295.560207,134.76219 C292.351391,129.868261 288.735705,125.142652 284.104942,121.578458 C276.944878,116.112238 267.846939,113.738913 258.908393,112.484923 C249.969847,111.230932 241.836651,110.052686 232.826798,109.446731 C223.13743,108.794488 212.474932,108.42839 204.815718,114.412197 C194.828539,122.213869 194.274861,137.282795 186.661786,147.424127 C182.131692,153.45843 174.917099,158.120919 172.53041,164.975786 C171.88478,163.293624 171.346787,161.571851 170.91971,159.820959 C170.894543,159.703135 170.869376,159.589518 170.844209,159.471694 C173.722595,151.200484 174.392152,142.317361 172.786277,133.705977 C172.975747,132.311302 173.072435,130.905519 173.075699,129.497955 C173.122562,127.966193 172.957402,126.435314 172.584939,124.949083 C171.506945,120.85047 168.533022,117.572421 165.659768,114.462693 C164.613718,113.275472 163.477815,112.171087 162.262198,111.159396 C146.732147,92.2833053 119.857338,87.4742473 98.7797391,99.7996565 C77.7021403,112.125066 68.6292241,137.955039 77.3481065,160.814052 C76.9789878,163.683923 75.8716315,166.473842 73.8372838,168.4979 C72.9102924,169.419457 71.7106565,170.572455 71.911994,171.750701 C71.849528,172.086232 71.8965998,172.433027 72.046219,172.739586 C72.252304,173.106816 72.5392271,173.422007 72.8851252,173.661143 C75.8195893,175.910897 79.4741599,177.003758 83.1575323,176.732999 C86.2656637,185.897222 92.3591195,193.74458 100.455779,199.010266 C100.455779,199.2908 100.445992,199.562919 100.426418,199.826622 C100.426418,200.293712 100.388667,200.756595 100.367694,201.227893 C100.367694,201.333094 100.367694,201.438294 100.367694,201.543495 C100.367694,201.505623 100.367694,201.463542 100.367694,201.421462 C100.367694,201.379382 85.7623363,220.521673 72.2643346,221.232828 C65.0581299,221.61155 58.7705275,226.488648 54.0055399,232.064276 C48.2841993,238.755031 44.7524039,246.447295 44.4503977,248.576554 C43.892525,252.481598 40,271.459776 40,271.459776 L152.136599,271.459776 C150.811127,278.293603 149.024257,287 149.024257,287 L330.559376,287 C330.139923,281.146642 329.67433,275.735126 329.242294,271.15259 L352.064738,271.15259 L352.039571,271.291455 L457.322306,271.291455 L464,261.238491 C462.34316,231.946452 445.120415,215.842353 424.516877,214.058151 Z M162.400617,181.336574 C164.769098,182.615026 167.313504,183.533958 169.950774,184.063373 C171.095881,184.299022 172.375213,184.446302 173.352538,183.802475 C174.000285,183.311651 174.479667,182.630711 174.72415,181.854161 L174.774485,181.980402 C177.605793,189.134039 180.227375,196.514909 180.734914,204.198756 C180.781053,204.922536 180.810415,205.646316 180.81461,206.374304 C180.825966,210.757398 179.924459,215.094533 178.16786,219.107777 C168.684411,214.104557 159.538818,208.481755 150.790155,202.275691 L150.198726,202.023209 C150.198726,202.069497 150.404258,202.5955 150.647541,203.483393 C150.706264,203.698002 150.769182,203.933651 150.8321,204.186132 C150.232282,202.242026 149.686993,200.25584 149.208816,198.231782 C149.154288,197.991924 149.099759,197.752067 149.04523,197.51221 C154.757271,193.30636 159.345008,187.749834 162.400617,181.336574 Z" id="Shape" fill="url(#linearGradient-1)" fill-rule="nonzero"></path>
                    <path d="M101,201.65 L101,201 L101,201.65 Z" id="Shape" fill="url(#linearGradient-2)" fill-rule="nonzero"></path>
                    <path d="M101,201.68 L101,201 L101,201.68 Z" id="Shape" fill="url(#linearGradient-3)" fill-rule="nonzero"></path>
                    <g id="Group"></g>
                    <g id="Group"></g>
                    <g id="Group"></g>
                    <path d="M357.127214,99.0229122 C351.424523,98.8503138 345.113376,99.5785947 341.231854,103.771472 C338.260915,106.979276 337.312565,111.618383 334.5934,115.049301 C330.737055,119.919943 323.993696,121.58699 319.721923,126.095596 C315.970595,130.149269 314.630565,135.888291 316.19708,141.191638 C316.78875,143.111269 317.753886,144.900398 318.383322,146.807399 C321.022757,154.80586 317.577644,163.322115 315.445953,171.459497 C315.208178,172.126797 315.165948,172.848469 315.324262,173.539096 C315.651569,174.532589 316.696433,175.054594 317.556662,175.643954 C320.380733,177.576214 321.824239,181.070278 322.08021,184.484358 C322.336181,187.898438 321.568269,191.308308 320.791964,194.646613 C318.73161,203.487017 316.129941,213.005185 308.97535,218.574639 C305.954056,220.953129 301.917273,222.881178 301.128379,226.669923 C300.205206,231.106964 304.426625,234.878869 308.475997,236.886904 C320.363948,242.780506 334.165384,242.864701 347.169534,245.491564 C358.621076,247.806907 370.043244,252.193432 381.633261,250.694773 C386.798833,250.029637 391.737809,248.20683 396.62643,246.400862 L427.065961,235.148291 C427.92584,234.884716 428.73469,234.476145 429.457818,233.940103 C431.291576,232.407766 431.354519,229.494642 430.355814,227.318219 C429.357109,225.141796 427.544333,223.474748 425.949761,221.689829 C422.475274,217.787422 419.831642,212.276904 421.728343,207.402052 C422.987215,204.185829 425.987527,201.866276 427.049176,198.561649 C429.021409,192.45756 423.692183,186.740766 420.461078,181.209199 C417.471993,176.082307 416.116198,170.1614 416.575359,164.239834 C417.083104,157.874743 419.680577,151.787493 419.869408,145.405564 C420.04565,139.461445 418.127968,133.677295 416.231267,128.040485 C414.666069,123.384539 413.071498,118.673867 410.42367,114.535716 C405.417554,106.718273 396.52572,101.805534 387.377915,100.98885 C383.059983,100.605765 378.842761,102.011811 374.600361,101.464547 C368.704643,100.736267 363.132035,99.2039299 357.127214,99.0229122 Z" id="Shape" fill="#F7D6C8" fill-rule="nonzero"></path>
                    <path d="M365.468713,266 C365.468713,266 331.091155,244.274782 344.459277,219.229264 C347.552588,213.439805 348.919497,207.962151 349.199567,202.960632 C349.273255,201.642827 349.273255,200.321885 349.199567,199.004081 C349.199567,198.940877 349.199567,198.877673 349.199567,198.81447 C349.154979,198.134679 349.095063,197.466124 349.019821,196.808806 C347.427183,183.586592 339,174.969821 339,174.969821 C339,174.969821 396.021433,158.19556 386.473969,173.318098 C382.04301,180.337922 383.368117,187.222911 386.336024,194.348075 C386.649535,195.098092 386.983947,195.856537 387.3309,196.610767 C390.758623,204.12358 395.515635,211.906062 396.844922,220.345863 C399.57038,237.672103 365.468713,266 365.468713,266 Z" id="Shape" fill="#EFB7B9" fill-rule="nonzero"></path>
                    <path d="M386.911399,173.217105 C382.439612,180.12268 383.77693,186.895615 386.772183,193.904815 C375.485522,201.054617 361.242863,201.976056 349.099488,196.342077 C347.504832,183.318478 339,174.841947 339,174.841947 C339,174.841947 396.551053,158.336545 386.911399,173.217105 Z" id="Shape" fill="#000000" fill-rule="nonzero" opacity="0.1"></path>
                    <ellipse id="Oval" fill="#EFB7B9" fill-rule="nonzero" cx="365.5" cy="162" rx="38.5" ry="39"></ellipse>
                    <path d="M349,199.63 C349,199.48 349,199.33 349,199.18 L349.11,199 C349.05,199.22 349.01,199.43 349,199.63 Z" id="Shape" fill="#000000" fill-rule="nonzero" opacity="0.1"></path>
                    <path d="M365.249596,266 C365.249596,266 330.65354,244.401894 344.106627,219.502914 C347.219599,213.747329 348.595196,208.301724 348.877046,203.329468 C349.663702,209.478813 353.925109,217.123604 361.682298,227.704832 C365.047673,232.312652 366.494785,238.755221 366.953317,245.193601 L367.723147,245.750729 L371.509193,243.471952 C371.929865,236.350777 373.376977,229.154201 376.801246,224.052088 C385.799417,210.647523 387.936431,203.94524 387.271769,197 C390.721278,204.468856 395.508525,212.205804 396.846261,220.596224 C399.568008,237.837846 365.249596,266 365.249596,266 Z" id="Shape" fill="#000000" fill-rule="nonzero" opacity="0.1"></path>
                    <path d="M421.470436,214.532749 C400.864599,213.03235 387.828254,197 387.828254,197 C388.92583,204.510423 387.142794,211.232714 377.533746,225.659301 C374.13168,230.775829 372.689272,238.003873 372.268745,245.185556 L368.483999,247.4783 L367.714434,246.917758 C367.25606,240.444128 365.813651,233.953639 362.445227,229.321791 C352.840384,216.117439 348.567827,207.452216 349.682225,200.573983 C349.682225,200.573983 339.114374,217.765349 318.529564,219.143524 C297.944754,220.5217 280.652672,235.100011 279,261.782663 L285.585457,270.860918 L350.544306,270.860918 L350.519074,271 L454.389311,271 L461,261.083039 C459.347328,231.951703 442.076273,216.033147 421.470436,214.532749 Z" id="Shape" fill="#70BF8E" fill-rule="nonzero"></path>
                    <path d="M421.470436,214.532749 C400.864599,213.03235 387.828254,197 387.828254,197 C388.92583,204.510423 387.142794,211.232714 377.533746,225.659301 C374.13168,230.775829 372.689272,238.003873 372.268745,245.185556 L368.483999,247.4783 L367.714434,246.917758 C367.25606,240.444128 365.813651,233.953639 362.445227,229.321791 C352.840384,216.117439 348.567827,207.452216 349.682225,200.573983 C349.682225,200.573983 339.114374,217.765349 318.529564,219.143524 C297.944754,220.5217 280.652672,235.100011 279,261.782663 L285.585457,270.860918 L350.544306,270.860918 L350.519074,271 L454.389311,271 L461,261.083039 C459.347328,231.951703 442.076273,216.033147 421.470436,214.532749 Z" id="Shape" fill="#000000" fill-rule="nonzero" opacity="0.05"></path>
                    <path d="M392.493453,142.07152 C390.82104,146.188423 387.852506,149.664919 384.608024,152.717249 C380.125956,156.938114 374.489923,160.655802 368.327079,160.368866 C371.686981,157.25577 374.118862,153.281567 375.355397,148.883123 C371.467036,151.137023 368.527769,154.705006 364.815011,157.245842 C361.102253,159.786678 355.855056,161.096601 352.225919,158.443486 C358.817588,155.147457 364.293312,150.00198 367.975873,143.643429 C359.162254,145.918121 354.638376,155.790371 346.698593,160.223319 C342.977473,162.302563 338.625017,163.084358 334.360363,162.992872 C331.329114,162.930494 327.950839,162.22771 326.261701,159.7243 C325.274977,158.26883 325.04502,156.439095 325.007391,154.680055 C324.823425,146.704076 328.088813,138.877802 333.118596,132.66918 C338.148379,126.460558 344.82549,121.740674 351.966695,118.077047 C354.508764,116.771282 357.159539,115.581954 359.990099,115.166106 C363.510529,114.65877 367.097856,115.403139 370.551389,116.193252 C375.041819,117.21624 379.557336,118.339032 383.692378,120.35174 C392.51854,124.697359 396.373452,132.573535 392.493453,142.07152 Z" id="Shape" fill="#000000" fill-rule="nonzero" opacity="0.1"></path>
                    <path d="M392.493453,141.07152 C390.82104,145.188423 387.852506,148.664919 384.608024,151.717249 C380.125956,155.938114 374.489923,159.655802 368.327079,159.368866 C371.686981,156.25577 374.118862,152.281567 375.355397,147.883123 C371.467036,150.137023 368.527769,153.705006 364.815011,156.245842 C361.102253,158.786678 355.855056,160.096601 352.225919,157.443486 C358.817588,154.147457 364.293312,149.00198 367.975873,142.643429 C359.162254,144.918121 354.638376,154.790371 346.698593,159.223319 C342.977473,161.302563 338.625017,162.084358 334.360363,161.992872 C331.329114,161.930494 327.950839,161.22771 326.261701,158.7243 C325.274977,157.26883 325.04502,155.439095 325.007391,153.680055 C324.823425,145.704076 328.088813,137.877802 333.118596,131.66918 C338.148379,125.460558 344.82549,120.740674 351.966695,117.077047 C354.508764,115.771282 357.159539,114.581954 359.990099,114.166106 C363.510529,113.65877 367.097856,114.403139 370.551389,115.193252 C375.041819,116.21624 379.557336,117.339032 383.692378,119.35174 C392.51854,123.689042 396.373452,131.573535 392.493453,141.07152 Z" id="Shape" fill="#F7D6C8" fill-rule="nonzero"></path>
                    <ellipse id="Oval" fill="#C3705A" fill-rule="nonzero" cx="126" cy="144.5" rx="49" ry="49.5"></ellipse>
                    <path d="M171,238.901701 C171,238.901701 125.546943,250.342922 124.421237,251.424015 C123.29553,252.505108 86.1599582,254.421022 96.970989,232.081214 C100.942822,223.879098 102.595274,212.738412 103.096532,201.923307 C103.117772,201.464156 103.139011,201.009178 103.156003,200.554201 C103.839923,182.426064 101.410096,165.604422 101.410096,165.604422 C101.410096,165.604422 154.084666,145.151309 150.206289,176.231693 C149.237756,183.962134 150.040619,191.730143 151.79927,199.034827 C152.385487,201.472504 153.073654,203.855918 153.838285,206.168372 C159.989316,224.801575 171,238.901701 171,238.901701 Z" id="Shape" fill="#ECB4B6" fill-rule="nonzero"></path>
                    <path d="M151,199.623455 C136.804385,210.199286 117.567836,210.81372 102.732423,201.165168 C103.411061,182.770495 101,165.701526 101,165.701526 C101,165.701526 153.267746,144.947693 149.419322,176.485048 C148.462485,184.333386 149.259147,192.215607 151,199.623455 Z" id="Shape" fill="#000000" fill-rule="nonzero" opacity="0.1"></path>
                    <circle id="Oval" fill="#ECB4B6" fill-rule="nonzero" cx="125" cy="164" r="42"></circle>
                    <path d="M171,237.921761 C171,237.921761 125.546943,249.34546 124.421237,250.424897 C123.29553,251.504335 86.1599582,253.417314 96.970989,231.11172 C100.942822,222.922165 102.595274,211.798542 103.096532,201 C103.521327,206.643082 106.809239,220.30901 107.229786,224.855984 C107.256543,225.12183 107.310625,225.384342 107.391208,225.639514 C108.007161,227.660854 110.203351,229.990605 112.849823,232.199492 L113.006997,232.328691 C119.761924,237.887585 129.406496,238.519648 136.854984,233.891583 C140.633176,231.556249 144.259448,228.992311 147.712742,226.214658 C152.657355,222.209487 154.199361,216.8123 154.390519,212.044437 C154.469657,209.75571 154.284399,207.465552 153.838285,205.217725 C159.989316,223.84323 171,237.921761 171,237.921761 Z" id="Shape" fill="#000000" fill-rule="nonzero" opacity="0.1"></path>
                    <path d="M226,270 L43,270 C43,270 46.8303105,251.308552 47.3751031,247.459073 C47.6726436,245.353232 51.1467436,237.772203 56.7748695,231.189343 C61.4600852,225.714155 67.641385,220.891778 74.7278785,220.516938 C87.9914812,219.817799 102.35305,201 102.35305,201 C102.671544,206.475188 106.032495,220.773851 106.455757,225.465666 C106.482153,225.734317 106.535507,225.999598 106.615004,226.257462 C107.222657,228.300128 109.389255,230.654459 112.000069,232.886651 L112.155125,233.017213 C118.817569,238.637392 128.333107,239.277888 135.681781,234.600806 C139.408405,232.239852 142.985758,229.648906 146.39324,226.842886 C151.271228,222.795459 152.792457,217.341329 152.981039,212.523164 C153.07711,209.325892 152.691391,206.132408 151.836974,203.05109 C151.598104,202.17506 151.417903,201.661234 151.392759,201.614906 L151.975268,201.863395 C151.975268,201.863395 176.754946,219.973631 199.456032,227.37777 C202.116468,228.248274 204.627015,229.526877 206.898736,231.168284 C208.738839,232.505203 210.432945,234.03414 211.952734,235.729537 C215.025499,239.221912 217.567427,243.151813 219.496015,247.391687 C224.759549,258.603186 226,270 226,270 Z" id="Shape" fill="#70BF8E" fill-rule="nonzero"></path>
                    <path d="M226,270 L43,270 C43,270 46.8303105,251.308552 47.3751031,247.459073 C47.6726436,245.353232 51.1467436,237.772203 56.7748695,231.189343 C61.4600852,225.714155 67.641385,220.891778 74.7278785,220.516938 C87.9914812,219.817799 102.35305,201 102.35305,201 C102.671544,206.475188 106.032495,220.773851 106.455757,225.465666 C106.482153,225.734317 106.535507,225.999598 106.615004,226.257462 C107.222657,228.300128 109.389255,230.654459 112.000069,232.886651 L112.155125,233.017213 C118.817569,238.637392 128.333107,239.277888 135.681781,234.600806 C139.408405,232.239852 142.985758,229.648906 146.39324,226.842886 C151.271228,222.795459 152.792457,217.341329 152.981039,212.523164 C153.07711,209.325892 152.691391,206.132408 151.836974,203.05109 C151.598104,202.17506 151.417903,201.661234 151.392759,201.614906 L151.975268,201.863395 C151.975268,201.863395 176.754946,219.973631 199.456032,227.37777 C202.116468,228.248274 204.627015,229.526877 206.898736,231.168284 C208.738839,232.505203 210.432945,234.03414 211.952734,235.729537 C215.025499,239.221912 217.567427,243.151813 219.496015,247.391687 C224.759549,258.603186 226,270 226,270 Z" id="Shape" fill="#000000" fill-rule="nonzero" opacity="0.05"></path>
                    <path d="M146.255967,148.820329 C147.345956,153.017347 148.771326,157.680235 152.515019,159.866881 C153.016655,160.107606 153.478878,160.42318 153.88589,160.802816 C154.808188,161.805903 154.527306,163.371391 154.388961,164.731225 C153.911043,169.398309 155.914946,174.128349 159.201682,177.473372 C162.488418,180.818396 166.936411,182.862343 171.526942,183.802475 C172.650469,184.033311 173.91234,184.180207 174.880754,183.546457 C175.5352,183.048544 176.016327,182.356874 176.255817,181.569662 C177.534458,178.16588 176.993655,174.342397 175.924628,170.867266 C174.8556,167.392135 173.279308,164.07649 172.470201,160.53001 C170.545951,152.114989 173.094849,143.418767 174.243529,134.861047 C174.625026,132.015469 174.847216,129.081753 174.113569,126.307524 C173.052926,122.286781 170.126725,119.063471 167.301138,116.012239 C165.779346,114.371205 164.224016,112.700791 162.27042,111.626355 C156.510248,108.474394 149.094131,111.273805 142.944078,108.978036 C140.483218,108.058889 138.391278,106.380082 136.047801,105.20072 C131.071583,102.682509 125.173065,102.544007 119.718928,103.689793 C114.264791,104.835579 109.15442,107.190107 104.094356,109.523649 L100.224895,111.278002 C94.7749505,113.796213 88.9351251,116.641791 86.0005395,121.909049 C82.8773019,127.516265 83.7451008,134.693166 80.6218633,140.300383 C79.6744113,141.97919 78.3538478,143.590845 78.1065042,145.521473 C77.9388135,146.914883 78.3664246,148.308293 78.7646898,149.655536 C79.7372953,152.933407 80.5841329,156.303613 80.5086721,159.728379 C80.4332113,163.153146 79.3432224,166.661853 76.9200931,169.070942 C75.8971804,170.08662 74.530502,171.387696 75.1593417,172.684574 C75.3656565,173.047154 75.6525427,173.357342 75.9977948,173.59113 C80.0423991,176.666209 85.3765683,177.457822 90.1383052,175.689639 C91.9745174,174.988737 93.7101152,173.863937 94.7497969,172.206114 C95.4409506,170.991656 95.9414852,169.678033 96.2338588,168.311282 C97.5586146,163.371391 98.8917549,158.34756 98.7869483,153.231395 C98.7282566,150.293483 98.1916467,147.330388 98.6192577,144.417657 C99.0468688,141.504927 100.744736,138.504059 103.574515,137.702428 C105.670648,137.102255 107.91351,137.828339 110.101872,137.807354 C113.254455,137.782172 117.119724,134.281859 120.041733,135.310128 C122.557092,136.199896 124.548418,141.018073 126.627781,142.864761 C131.901651,147.578012 139.263269,150.041662 146.255967,148.820329 Z" id="Shape" fill="#000000" fill-rule="nonzero" opacity="0.1"></path>
                    <path d="M146.257574,148.841314 C147.3481,153.038333 148.774174,157.70122 152.519714,159.887866 C153.014333,160.123613 153.470966,160.432002 153.874484,160.802816 C154.797237,161.805903 154.516217,163.371391 154.377804,164.731225 C153.89965,169.398309 155.904542,174.128349 159.192899,177.473372 C162.481257,180.818396 166.931445,182.862343 171.524241,183.802475 C172.648322,184.033311 173.910817,184.180207 174.879708,183.546457 C175.534477,183.048544 176.015841,182.356874 176.255449,181.569662 C177.534721,178.16588 176.993652,174.342397 175.924097,170.867266 C174.854542,167.392135 173.277472,164.07649 172.467966,160.53001 C170.542767,152.114989 173.092922,143.418767 174.242169,134.861047 C174.623854,132.015469 174.846153,129.081753 174.112145,126.307524 C173.050978,122.286781 170.123333,119.063471 167.296352,116.012239 C165.773809,114.371205 164.217711,112.700791 162.263152,111.626355 C156.500137,108.474394 149.08036,111.273805 142.927273,108.978036 C140.465199,108.058889 138.372226,106.380082 136.027593,105.20072 C131.048919,102.682509 125.147491,102.544007 119.690663,103.689793 C114.233835,104.835579 109.120942,107.190107 104.058381,109.523649 L100.237343,111.286396 C94.7847085,113.804607 88.9420014,116.650185 86.0059677,121.917443 C82.881189,127.524659 83.7494161,134.70156 80.6246374,140.308777 C79.6767179,141.987584 78.3555028,143.599239 78.1080371,145.529867 C77.9402637,146.923277 78.3680858,148.316687 78.7665475,149.66393 C79.7396329,152.941801 80.5868884,156.312007 80.5113904,159.736773 C80.4358924,163.16154 79.3453656,166.670247 76.9210406,169.079336 C75.8976231,170.095014 74.5302703,171.39609 75.1594204,172.692968 C75.3658369,173.055548 75.6528647,173.365736 75.9982871,173.599524 C80.0448873,176.674603 85.3816887,177.466216 90.1457753,175.698033 C91.9828935,174.997131 93.7193477,173.872331 94.7595425,172.214508 C95.4510372,171.00005 95.9518188,169.686427 96.2443367,168.319676 C97.5697462,163.379785 98.9035444,158.355955 98.798686,153.239789 C98.7399653,150.301877 98.2030906,147.338782 98.6309127,144.426051 C99.0587347,141.513321 100.75744,138.512453 103.588615,137.710822 C105.685782,137.110649 107.929751,137.836733 110.119193,137.815748 C113.273332,137.790566 117.140508,134.290253 120.063959,135.318522 C122.580559,136.20829 124.572868,141.026467 126.653257,142.873155 C131.896175,147.603194 139.261425,150.066844 146.257574,148.841314 Z" id="Shape" fill="#C3705A" fill-rule="nonzero"></path>
                    <rect id="Rectangle-path" fill="#463A3E" fill-rule="nonzero" x="190" y="167" width="96" height="82"></rect>
                    <rect id="Rectangle-path" fill="#000000" fill-rule="nonzero" opacity="0.05" x="190" y="167" width="96" height="82"></rect>
                    <path d="M272,285 L190,285 C191.058469,279.039716 194.154388,272.507211 200.187245,265.465138 C204.950752,259.929226 208.846725,253.704795 211.742551,247.003712 C212.520714,245.21326 213.217993,243.418631 213.834388,241.619825 C215.646521,236.278624 216.879394,230.758726 217.511837,225.154906 C217.511837,224.996188 217.54949,224.83747 217.566224,224.678752 C217.989078,220.806682 218.159573,216.91128 218.076633,213.017145 C218.076633,212.7373 218.076633,212.465809 218.076633,212.181787 C217.783626,202.626513 216.200465,193.154405 213.37,184.021847 L213.265408,183.696057 C212.374286,180.893428 211.721633,179.318777 211.721633,179.318777 C211.721633,179.318777 213.349082,178.437474 216.035,177.138491 L216.260918,177.029895 C226.138571,172.293411 249.521122,162.411118 259.829694,169.453192 L259.997041,169.565965 C263.603367,172.130516 265.544592,176.837762 264.632551,184.677603 C264.632551,184.706841 264.632551,184.740255 264.632551,184.769493 C264.632551,184.91568 264.599082,185.057691 264.586531,185.187172 C264.034316,190.59076 263.773158,196.020055 263.804184,201.451605 C263.804184,201.723096 263.804184,201.994588 263.804184,202.286963 C263.804184,203.559493 263.818129,204.84873 263.84602,206.154674 C263.84602,206.330099 263.84602,206.505525 263.84602,206.68095 C263.929694,210.899511 264.117959,215.255906 264.381531,219.674954 C264.74551,225.802309 265.264286,232.042439 265.862551,238.165617 C266.117755,240.784467 266.393878,243.386609 266.699286,245.946983 C266.732755,246.247712 266.766224,246.556795 266.799694,246.853347 C267.151122,249.973412 267.515102,253.030825 267.887449,255.996348 L267.912551,256.18848 C269.335,267.967037 270.908061,278.250302 272,285 Z" id="Shape" fill="#C17174" fill-rule="nonzero"></path>
                    <path d="M264.778475,184.981211 C264.778475,185.010954 264.778475,185.044945 264.778475,185.074687 C264.190293,190.719706 263.911582,196.393701 263.943637,202.070287 C263.943637,202.346465 263.943637,202.622644 263.943637,202.920067 C252.673432,216.23496 234.258092,220.641092 218.340597,213.831242 C218.340597,213.546565 218.340597,213.270387 218.340597,212.981462 C218.046433,203.144643 216.431346,193.395051 213.540277,184.003964 C212.651174,181.152953 212,179.551117 212,179.551117 C212,179.551117 213.62376,178.6546 216.303591,177.333192 C226.062851,172.531935 249.876612,162.164619 260.153471,169.608692 C263.74745,172.217516 265.684275,177.006026 264.778475,184.981211 Z" id="Shape" fill="#000000" fill-rule="nonzero" opacity="0.1"></path>
                    <ellipse id="Oval" fill="#C17174" fill-rule="nonzero" cx="234" cy="174.5" rx="40" ry="39.5"></ellipse>
                    <path d="M236,285 L150,285 C150,285 153.865454,266.264087 154.415245,262.405451 C154.715515,260.2946 158.22149,252.695536 163.901254,246.097016 C171.196501,240.287747 180.232075,237.087471 189.563806,237.007692 C206.011015,236.762833 210.798426,242.415692 212.096779,246.595177 C212.550346,247.996486 212.666264,249.484859 212.435112,250.939308 L215.547775,255.439643 L236,285 Z" id="Shape" fill="#000000" fill-rule="nonzero" opacity="0.1"></path>
                    <path d="M236,285 L150,285 C150,285 153.865454,266.264087 154.415245,262.405451 C154.715515,260.2946 158.22149,252.695536 163.901254,246.097016 C171.196501,240.287747 180.232075,237.087471 189.563806,237.007692 C206.011015,236.762833 210.798426,242.415692 212.096779,246.595177 C212.550346,247.996486 212.666264,249.484859 212.435112,250.939308 L215.547775,255.439643 L236,285 Z" id="Shape" fill="#70BF8E" fill-rule="nonzero"></path>
                    <path d="M329,285 L240,285 C244.244063,275.949824 255.368018,251.821602 255.986248,246.241636 C256.22435,244.08165 258.521825,242.055616 261.562846,240.335162 C262.523273,239.784147 263.511846,239.28393 264.5245,238.836566 L264.708298,238.752846 C265.265262,238.507266 265.829187,238.279826 266.400075,238.070525 C274.098484,235.246382 282.557315,235.313302 290.210269,238.258895 C297.51624,241.042599 306.919178,244.793273 314.23768,248.305345 L314.296161,248.334647 C316.175913,249.238827 317.926171,250.122077 319.467568,250.97184 C322.550361,252.667178 324.801887,254.216005 325.666573,255.455068 C326.063409,256.024366 326.502018,258.590397 326.982399,262.571302 C327.621515,267.954525 328.319112,275.941452 329,285 Z" id="Shape" fill="#000000" fill-rule="nonzero" opacity="0.1"></path>
                    <path d="M329,285 L240,285 C244.244063,275.949824 255.368018,251.821602 255.986248,246.241636 C256.22435,244.08165 258.521825,242.055616 261.562846,240.335162 C262.523273,239.784147 263.511846,239.28393 264.5245,238.836566 L264.708298,238.752846 C265.265262,238.507266 265.829187,238.279826 266.400075,238.070525 C274.098484,235.246382 282.557315,235.313302 290.210269,238.258895 C297.51624,241.042599 306.919178,244.793273 314.23768,248.305345 L314.296161,248.334647 C316.175913,249.238827 317.926171,250.122077 319.467568,250.97184 C322.550361,252.667178 324.801887,254.216005 325.666573,255.455068 C326.063409,256.024366 326.502018,258.590397 326.982399,262.571302 C327.625692,267.954525 328.319112,275.945638 329,285 Z" id="Shape" fill="#70BF8E" fill-rule="nonzero"></path>
                    <path d="M314,242.894591 C314,244.191106 313.965082,245.489027 313.895245,246.788354 C313.856137,247.421143 313.808648,248.053932 313.752779,248.686722 C313.715067,249.14233 313.668975,249.59372 313.622883,250.045109 L313.56422,250.568215 C312.881218,256.702052 311.61997,262.80214 311.469123,268.965507 C311.469123,269.25659 311.469123,269.547673 311.469123,269.838756 C311.439792,275.626668 312.370015,281.32599 313.631263,287 L262.217583,287 C262.13378,285.94957 262.091878,284.890703 262.104448,283.84871 C262.104448,282.907963 262.163111,281.967216 262.259485,281.022251 C263.051432,273.255818 266.994405,265.987179 267.589412,258.271369 L267.614553,257.917007 C267.652265,257.33906 267.673216,256.756894 267.664836,256.174727 C267.664836,256.124104 267.664836,256.073481 267.664836,256.018639 C267.599698,253.467519 267.209617,250.935364 266.504152,248.484229 C266.47063,248.36189 266.437109,248.239551 266.403587,248.117211 C265.685114,245.685878 264.846023,243.292336 263.889471,240.9456 L263.705102,240.477336 C262.309768,236.967465 260.8432,233.487124 259.850124,229.998347 C259.060711,227.400245 258.652744,224.699925 258.639158,221.983016 C258.639158,221.497878 258.668489,221.012739 258.706201,220.527601 C258.739723,220.131053 258.785815,219.734505 258.844477,219.333739 C258.936048,218.707724 259.059119,218.086792 259.213214,217.473338 C260.051253,214.149086 261.840466,211.031544 263.554255,207.943533 C265.460794,204.505378 267.279338,201.10519 267.606173,197.489855 C267.647475,197.032688 267.662864,196.573523 267.652265,196.114593 C267.639223,195.523471 267.583204,194.934104 267.484657,194.35122 C267.044687,191.786314 265.733156,189.478743 264.656276,187.112111 C264.547331,186.871651 264.438386,186.631192 264.333631,186.386513 C264.333631,186.348546 264.30011,186.310578 264.287539,186.272611 C262.192442,181.400134 260.977286,176.202825 259.699277,171.030828 C259.644804,170.807242 259.590332,170.583657 259.531669,170.36429 C259.217405,169.098711 258.89476,167.833133 258.551164,166.567554 C256.673957,159.665933 254.000613,152.692596 248.913718,147.710436 C243.826822,142.728275 235.714607,140.205555 229.345512,143.377939 C223.835407,146.141118 220.851989,152.325578 219.506937,158.366606 C218.161885,164.407634 218.05294,170.714433 216.305629,176.654215 C216.179923,177.087324 216.04025,177.519027 215.886609,177.949323 C215.811186,178.16869 215.735762,178.371183 215.660339,178.611643 C214.910294,180.763126 213.984261,182.893517 212.986995,185.011251 L212.88224,185.234837 C209.697693,192.056305 205.997752,198.759652 205.880426,205.614868 L205.880426,205.703459 C205.880426,205.889077 205.880426,206.070477 205.880426,206.256095 C205.902183,207.885326 206.147537,209.503709 206.60952,211.065293 C207.447559,213.874877 208.964409,216.325881 210.732671,218.658764 C211.081854,219.117184 211.439417,219.571386 211.80536,220.02137 C213.565242,222.198165 215.47597,224.307462 217.147858,226.551755 L217.20233,226.623471 C218.473641,228.281064 219.54673,230.083556 220.399448,231.993742 C222.441352,236.826866 222.471542,242.282769 220.483252,247.138497 C220.008692,248.249428 219.464259,249.328765 218.853267,250.369941 C217.776387,252.242997 216.590562,254.06543 215.656149,256.014421 C215.341884,256.668303 215.061141,257.334841 214.81811,258.009816 C212.723013,263.443366 212.270472,269.454864 210.560873,275.061377 C209.236784,279.365932 207.176401,283.404702 204.472521,286.995781 L150,286.995781 C150.632719,283.87824 153.771175,268.433964 154.265617,264.966279 C154.563121,262.856982 158.036792,255.263511 163.664222,248.669847 C163.19073,249.045302 162.733999,249.424976 162.294029,249.804649 C158.745266,252.849413 155.670354,256.413014 153.171977,260.376448 C153.293492,259.996774 153.419198,259.612882 153.544904,259.233209 C154.31171,256.929856 155.141368,254.647596 155.983597,252.394867 C158.42229,245.906668 161.137535,239.287692 165.99816,234.368811 C168.742737,231.592975 172.082322,229.454148 174.697003,226.555973 C179.306216,221.455692 181.212755,214.389546 181.158282,207.462613 C181.158282,206.745452 181.128951,206.032509 181.082859,205.319567 C180.584225,197.726096 178.007256,190.457457 175.216587,183.382874 C173.716498,179.586138 172.124224,175.595347 172.195457,171.570808 C172.199987,171.006288 172.240576,170.442645 172.316973,169.88337 C173.469276,161.543208 181.849664,156.548392 186.882087,149.819733 C194.365773,139.809007 194.910498,124.930023 204.728123,117.243744 C212.270472,111.337711 222.745957,111.70051 232.270268,112.341736 C241.128337,112.940777 249.123227,114.10089 257.914254,115.341157 C266.705281,116.581424 275.626204,118.910089 282.6783,124.364732 C287.233041,127.88304 290.786326,132.544587 293.941542,137.374878 C298.165257,143.846203 301.856818,150.992502 302.363831,158.716749 C302.401543,159.269385 302.422494,159.817803 302.422494,160.362001 C302.510488,169.389794 298.617798,178.13916 298.102404,187.20492 C298.081453,187.62678 298.064693,188.048639 298.060502,188.470499 C298.057864,188.49292 298.057864,188.515576 298.060502,188.537996 C297.968318,196.397239 300.964307,204.64881 305.041365,211.318409 C310.833832,220.823475 313.931958,231.743329 314,242.894591 Z" id="Shape" fill="#000000" fill-rule="nonzero" opacity="0.1"></path>
                    <path d="M313.999666,242.032356 C313.999666,243.142693 313.957796,244.257235 313.894992,245.363366 C313.855913,245.994239 313.808461,246.625112 313.752634,247.255985 C313.696808,247.886858 313.634003,248.512123 313.56422,249.131781 C312.881743,255.247043 311.621464,261.328659 311.470732,267.473362 C311.470732,267.944414 311.470732,268.419672 311.470732,268.890724 C311.500041,274.656903 312.47142,280.343172 313.752634,286 L262.303072,286 C262.206772,284.952751 262.148154,283.89709 262.13978,282.858252 C262.128818,281.734674 262.180538,280.611361 262.294698,279.493596 C263.086037,271.750681 267.025981,264.504053 267.620532,256.811608 C267.662402,256.248028 267.691711,255.684448 267.695898,255.12928 C267.695898,254.9989 267.695898,254.864314 267.695898,254.733933 C267.642361,252.011663 267.221214,249.309288 266.443992,246.700817 C265.726071,244.276846 264.887623,241.890552 263.931806,239.550922 C262.483112,235.896065 260.929744,232.266442 259.891374,228.61579 C259.159672,226.19527 258.752736,223.687506 258.681338,221.158871 C258.669595,220.490836 258.691955,219.822636 258.74833,219.156901 C258.781825,218.761554 258.827882,218.366206 258.8865,217.966654 C258.978,217.342535 259.100977,216.723483 259.254954,216.111887 C260.092349,212.797701 261.880188,209.6896 263.592661,206.610939 C265.501922,203.17899 267.327444,199.780687 267.649841,196.172094 C267.674963,195.898715 267.687524,195.621131 267.695898,195.33093 C267.715705,194.557607 267.659608,193.784206 267.528418,193.021934 C267.088786,190.464796 265.778262,188.164212 264.70221,185.804747 C264.593348,185.565015 264.484487,185.325283 264.379812,185.081346 C262.257016,180.194183 261.030232,174.987378 259.749017,169.772161 C259.380563,168.2833 259.003735,166.79444 258.605972,165.318197 C256.730207,158.437475 254.058916,151.485255 248.975927,146.518181 C243.892939,141.551108 235.799514,139.086497 229.439497,142.266097 C223.933624,145.020909 220.952497,151.186641 219.608477,157.209376 C218.264458,163.23211 218.155597,169.519811 216.409628,175.441606 C216.217027,176.093508 215.99093,176.74541 215.777394,177.393107 C214.998617,179.609574 214.027238,181.809218 213.005616,183.996244 C209.735588,190.9737 205.929626,197.837598 206.009179,204.865524 L206.009179,204.953846 C206.03092,206.578144 206.276085,208.191626 206.737713,209.748481 C207.575108,212.549557 209.090793,214.993139 210.857697,217.318957 C211.206612,217.77599 211.563901,218.228816 211.929563,218.677437 C213.709028,220.872875 215.639224,222.996814 217.322388,225.259546 C218.592723,226.912119 219.664988,228.709153 220.517051,230.613555 C222.557387,235.432043 222.587554,240.871424 220.600791,245.712449 C220.126595,246.820015 219.58258,247.896084 218.972057,248.934107 C217.896004,250.801491 216.71109,252.618406 215.777394,254.561495 C215.463371,255.213397 215.182844,255.877916 214.939999,256.550847 C212.846511,261.967944 212.394318,267.961237 210.686031,273.550772 C209.293077,278.063066 207.08927,282.280976 204.183657,285.995794 L150,285.995794 C150,285.995794 153.826896,267.330364 154.371203,263.486245 C154.643356,261.564185 157.578427,255.074605 162.393449,248.92149 C162.812147,248.35791 163.289462,247.79433 163.76259,247.239162 C159.825287,250.365068 156.412795,254.105316 153.65523,258.317292 L153.282589,258.906107 C154.15348,256.218588 155.112298,253.564715 156.096237,250.948695 C158.533057,244.480144 161.246218,237.881212 166.10311,232.977226 C168.845579,230.209796 172.182599,228.077445 174.795272,225.188047 C179.266963,220.237796 181.201346,213.41175 181.251589,206.682438 C181.251589,205.782393 181.251589,204.886553 181.176224,203.994919 C180.677974,196.424443 178.102983,189.177815 175.314457,182.124654 C173.886699,178.499237 172.383574,174.722411 172.295648,170.878291 C172.276214,170.137384 172.316822,169.396116 172.41707,168.661824 C173.572675,160.393182 181.946627,155.43452 186.975186,148.705208 C194.453125,138.724796 194.997432,123.890869 204.807517,116.227865 C212.344074,110.339716 222.811514,110.701417 232.328511,111.340702 C241.179778,111.937928 249.168528,113.094529 257.952804,114.33104 C266.73708,115.567551 275.663713,117.884958 282.70202,123.30626 C287.253263,126.834943 290.803819,131.461345 293.956611,136.281215 C298.177083,142.732943 301.865809,149.857602 302.372433,157.558459 C302.422677,158.290272 302.442216,159.020682 302.431051,159.749691 C302.359872,168.552473 298.616716,177.107111 298.114279,185.964568 C298.080783,186.561795 298.064035,187.154815 298.072409,187.756248 C298.069773,187.7786 298.069773,187.801188 298.072409,187.823541 C298.122653,195.494957 301.070284,203.494426 305.047911,209.975595 C310.93734,219.618885 314.03704,230.719094 313.999666,242.032356 Z" id="Shape" fill="#463A3E" fill-rule="nonzero"></path>
                </g>
            </g>
        </g>
    </g>
</svg>