<?xml version="1.0" encoding="UTF-8"?>
<svg width="424px" height="375px" viewBox="0 0 424 375" version="1.1" xmlns="http://www.w3.org/2000/svg" xmlns:xlink="http://www.w3.org/1999/xlink">
    <!-- Generator: Sketch 51 (57462) - http://www.bohemiancoding.com/sketch -->
    <title>teach-educate</title>
    <desc>Created with Sketch.</desc>
    <defs>
        <linearGradient x1="0%" y1="50.0033336%" x2="100%" y2="50.0033336%" id="linearGradient-1">
            <stop stop-color="#808080" stop-opacity="0.25" offset="0%"></stop>
            <stop stop-color="#808080" stop-opacity="0.12" offset="54%"></stop>
            <stop stop-color="#808080" stop-opacity="0.1" offset="100%"></stop>
        </linearGradient>
        <linearGradient x1="50.0033336%" y1="100%" x2="50.0033336%" y2="6.16656746e-14%" id="linearGradient-2">
            <stop stop-color="#808080" stop-opacity="0.25" offset="0%"></stop>
            <stop stop-color="#808080" stop-opacity="0.12" offset="54%"></stop>
            <stop stop-color="#808080" stop-opacity="0.1" offset="100%"></stop>
        </linearGradient>
        <linearGradient x1="0%" y1="49.9966664%" x2="100%" y2="49.9966664%" id="linearGradient-3">
            <stop stop-color="#808080" stop-opacity="0.25" offset="0%"></stop>
            <stop stop-color="#808080" stop-opacity="0.12" offset="54%"></stop>
            <stop stop-color="#808080" stop-opacity="0.1" offset="100%"></stop>
        </linearGradient>
        <linearGradient x1="-6.16656746e-14%" y1="50.0033336%" x2="100%" y2="50.0033336%" id="linearGradient-4">
            <stop stop-color="#808080" stop-opacity="0.25" offset="0%"></stop>
            <stop stop-color="#808080" stop-opacity="0.12" offset="54%"></stop>
            <stop stop-color="#808080" stop-opacity="0.1" offset="100%"></stop>
        </linearGradient>
        <linearGradient x1="49.9966664%" y1="100%" x2="49.9966664%" y2="0%" id="linearGradient-5">
            <stop stop-color="#808080" stop-opacity="0.25" offset="0%"></stop>
            <stop stop-color="#808080" stop-opacity="0.12" offset="54%"></stop>
            <stop stop-color="#808080" stop-opacity="0.1" offset="100%"></stop>
        </linearGradient>
        <linearGradient x1="49.9904196%" y1="99.9844115%" x2="49.9904196%" y2="-0.0155884645%" id="linearGradient-6">
            <stop stop-color="#808080" stop-opacity="0.25" offset="0%"></stop>
            <stop stop-color="#808080" stop-opacity="0.12" offset="54%"></stop>
            <stop stop-color="#808080" stop-opacity="0.1" offset="100%"></stop>
        </linearGradient>
        <linearGradient x1="50%" y1="100.015588%" x2="50%" y2="0.0155884645%" id="linearGradient-7">
            <stop stop-color="#808080" stop-opacity="0.25" offset="0%"></stop>
            <stop stop-color="#808080" stop-opacity="0.12" offset="54%"></stop>
            <stop stop-color="#808080" stop-opacity="0.1" offset="100%"></stop>
        </linearGradient>
        <linearGradient x1="50%" y1="99.9844115%" x2="50%" y2="-0.0155884645%" id="linearGradient-8">
            <stop stop-color="#808080" stop-opacity="0.25" offset="0%"></stop>
            <stop stop-color="#808080" stop-opacity="0.12" offset="54%"></stop>
            <stop stop-color="#808080" stop-opacity="0.1" offset="100%"></stop>
        </linearGradient>
        <linearGradient x1="50.0095804%" y1="99.9844115%" x2="50.0095804%" y2="-0.0155884645%" id="linearGradient-9">
            <stop stop-color="#808080" stop-opacity="0.25" offset="0%"></stop>
            <stop stop-color="#808080" stop-opacity="0.12" offset="54%"></stop>
            <stop stop-color="#808080" stop-opacity="0.1" offset="100%"></stop>
        </linearGradient>
        <linearGradient x1="50%" y1="100%" x2="50%" y2="2.21525405e-14%" id="linearGradient-10">
            <stop stop-color="#808080" stop-opacity="0.25" offset="0%"></stop>
            <stop stop-color="#808080" stop-opacity="0.12" offset="54%"></stop>
            <stop stop-color="#808080" stop-opacity="0.1" offset="100%"></stop>
        </linearGradient>
        <linearGradient x1="50%" y1="99.9844115%" x2="50%" y2="2.21525405e-14%" id="linearGradient-11">
            <stop stop-color="#808080" stop-opacity="0.25" offset="0%"></stop>
            <stop stop-color="#808080" stop-opacity="0.12" offset="54%"></stop>
            <stop stop-color="#808080" stop-opacity="0.1" offset="100%"></stop>
        </linearGradient>
        <linearGradient x1="50.0105558%" y1="99.9974133%" x2="50.0105558%" y2="-2.23394353e-14%" id="linearGradient-12">
            <stop stop-color="#808080" stop-opacity="0.25" offset="0%"></stop>
            <stop stop-color="#808080" stop-opacity="0.12" offset="54%"></stop>
            <stop stop-color="#808080" stop-opacity="0.1" offset="100%"></stop>
        </linearGradient>
        <linearGradient x1="50.0027505%" y1="99.9921745%" x2="50.0027505%" y2="0.0104783395%" id="linearGradient-13">
            <stop stop-color="#808080" stop-opacity="0.25" offset="0%"></stop>
            <stop stop-color="#808080" stop-opacity="0.12" offset="54%"></stop>
            <stop stop-color="#808080" stop-opacity="0.1" offset="100%"></stop>
        </linearGradient>
        <linearGradient x1="50.4587156%" y1="27%" x2="50.4587156%" y2="1.13686838e-11%" id="linearGradient-14">
            <stop stop-color="#808080" stop-opacity="0.25" offset="0%"></stop>
            <stop stop-color="#808080" stop-opacity="0.12" offset="54%"></stop>
            <stop stop-color="#808080" stop-opacity="0.1" offset="100%"></stop>
        </linearGradient>
        <linearGradient x1="49.9994693%" y1="99.979136%" x2="49.9994693%" y2="-0.00525581877%" id="linearGradient-15">
            <stop stop-color="#808080" stop-opacity="0.25" offset="0%"></stop>
            <stop stop-color="#808080" stop-opacity="0.12" offset="54%"></stop>
            <stop stop-color="#808080" stop-opacity="0.1" offset="100%"></stop>
        </linearGradient>
    </defs>
    <g id="Landing/Homeroom-Page-Redesign" stroke="none" stroke-width="1" fill="none" fill-rule="evenodd">
        <g id="Desktop-Copy-5" transform="translate(-105.000000, -633.000000)">
            <rect fill="#FFFFFF" x="0" y="0" width="1024" height="3287"></rect>
            <g id="Group-4" transform="translate(105.000000, 633.000000)">
                <g id="teach-educate">
                    <ellipse id="Oval" fill="#70BF8E" fill-rule="nonzero" opacity="0.1" cx="192.5" cy="353" rx="133.5" ry="22"></ellipse>
                    <path d="M108.177898,343 C108.177898,343 100.106458,316.057063 109.690425,296.227352 C113.764606,287.935169 114.993254,278.567235 113.191904,269.530012 C112.302538,265.246675 111.015906,261.052473 109.348141,257" id="Shape" stroke="#535461" stroke-width="2"></path>
                    <path d="M116,243.13877 C116,246.436987 110.001145,256 110.001145,256 C110.001145,256 104.00229,246.436987 104.00229,243.13877 C103.942107,240.965989 105.071702,238.932108 106.951808,237.828046 C108.831914,236.723985 111.165814,236.723985 113.04592,237.828046 C114.926026,238.932108 116.055622,240.965989 115.995438,243.13877 L116,243.13877 Z" id="Shape" fill="#70BF8E" fill-rule="nonzero"></path>
                    <path d="M125.122543,261.744446 C123.312182,264.40307 113,269 113,269 C113,269 113.187911,258.164691 114.993689,255.506067 C116.837663,252.931471 120.501449,252.228583 123.248011,253.922495 C125.994574,255.616407 126.820505,259.088279 125.108793,261.744446 L125.122543,261.744446 Z" id="Shape" fill="#70BF8E" fill-rule="nonzero"></path>
                    <path d="M124.731426,293.207776 C121.879514,294.673802 111,293.656102 111,293.656102 C111,293.656102 116.668614,284.142628 119.520526,282.676602 C121.371338,281.685944 123.602783,281.789178 125.357824,282.946656 C127.112866,284.104133 128.118616,286.135879 127.988796,288.261558 C127.858975,290.387237 126.613769,292.276332 124.731426,293.203293 L124.731426,293.207776 Z" id="Shape" fill="#70BF8E" fill-rule="nonzero"></path>
                    <path d="M118.516911,317.093276 C115.935526,319.095995 105,320 105,320 C105,320 109.026784,309.295653 111.608169,307.292935 C113.273559,305.927879 115.514211,305.618576 117.459658,306.485187 C119.405105,307.351798 120.74868,309.257717 120.968421,311.462516 C121.188162,313.667314 120.24943,315.823445 118.516911,317.093276 Z" id="Shape" fill="#70BF8E" fill-rule="nonzero"></path>
                    <path d="M100.874185,270.33115 C103.194697,272.624779 114,275 114,275 C114,275 111.354349,264.075798 109.033837,261.782169 C107.544338,260.240153 105.351089,259.640015 103.302591,260.213931 C101.254092,260.787846 99.6716448,262.445798 99.1674497,264.546375 C98.6632547,266.646952 99.3163931,268.860687 100.874185,270.33115 Z" id="Shape" fill="#70BF8E" fill-rule="nonzero"></path>
                    <path d="M95.2685742,297.207184 C98.1204857,298.674306 109,297.655845 109,297.655845 C109,297.655845 103.340188,288.14423 100.479474,286.677108 C98.6286618,285.685709 96.3972174,285.789021 94.6421759,286.947363 C92.8871344,288.105706 91.8813837,290.138972 92.0112042,292.26624 C92.1410247,294.393509 93.3862309,296.284016 95.2685742,297.211671 L95.2685742,297.207184 Z" id="Shape" fill="#70BF8E" fill-rule="nonzero"></path>
                    <path d="M92.483089,325.093276 C95.0644742,327.095995 106,328 106,328 C106,328 101.973216,317.295653 99.3918306,315.292935 C97.7264406,313.927879 95.4857887,313.618576 93.5403419,314.485187 C91.5948951,315.351798 90.2513196,317.257717 90.0315788,319.462516 C89.811838,321.667314 90.7505703,323.823445 92.483089,325.093276 Z" id="Shape" fill="#70BF8E" fill-rule="nonzero"></path>
                    <path d="M116,243.13877 C116,246.436987 110.001145,256 110.001145,256 C110.001145,256 104.00229,246.436987 104.00229,243.13877 C103.942107,240.965989 105.071702,238.932108 106.951808,237.828046 C108.831914,236.723985 111.165814,236.723985 113.04592,237.828046 C114.926026,238.932108 116.055622,240.965989 115.995438,243.13877 L116,243.13877 Z" id="Shape" fill="#70BF8E" fill-rule="nonzero" opacity="0.1"></path>
                    <path d="M125.122543,261.744446 C123.312182,264.40307 113,269 113,269 C113,269 113.187911,258.164691 114.993689,255.506067 C116.837663,252.931471 120.501449,252.228583 123.248011,253.922495 C125.994574,255.616407 126.820505,259.088279 125.108793,261.744446 L125.122543,261.744446 Z" id="Shape" fill="#70BF8E" fill-rule="nonzero" opacity="0.1"></path>
                    <path d="M124.731426,293.207776 C121.879514,294.673802 111,293.656102 111,293.656102 C111,293.656102 116.668614,284.142628 119.520526,282.676602 C121.371338,281.685944 123.602783,281.789178 125.357824,282.946656 C127.112866,284.104133 128.118616,286.135879 127.988796,288.261558 C127.858975,290.387237 126.613769,292.276332 124.731426,293.203293 L124.731426,293.207776 Z" id="Shape" fill="#70BF8E" fill-rule="nonzero" opacity="0.1"></path>
                    <path d="M118.516911,317.093276 C115.935526,319.095995 105,320 105,320 C105,320 109.026784,309.295653 111.608169,307.292935 C113.273559,305.927879 115.514211,305.618576 117.459658,306.485187 C119.405105,307.351798 120.74868,309.257717 120.968421,311.462516 C121.188162,313.667314 120.24943,315.823445 118.516911,317.093276 Z" id="Shape" fill="#70BF8E" fill-rule="nonzero" opacity="0.1"></path>
                    <path d="M100.874185,270.33115 C103.194697,272.624779 114,275 114,275 C114,275 111.354349,264.075798 109.033837,261.782169 C107.544338,260.240153 105.351089,259.640015 103.302591,260.213931 C101.254092,260.787846 99.6716448,262.445798 99.1674497,264.546375 C98.6632547,266.646952 99.3163931,268.860687 100.874185,270.33115 Z" id="Shape" fill="#70BF8E" fill-rule="nonzero" opacity="0.1"></path>
                    <path d="M95.2685742,297.207184 C98.1204857,298.674306 109,297.655845 109,297.655845 C109,297.655845 103.340188,288.14423 100.479474,286.677108 C98.6286618,285.685709 96.3972174,285.789021 94.6421759,286.947363 C92.8871344,288.105706 91.8813837,290.138972 92.0112042,292.26624 C92.1410247,294.393509 93.3862309,296.284016 95.2685742,297.211671 L95.2685742,297.207184 Z" id="Shape" fill="#70BF8E" fill-rule="nonzero" opacity="0.1"></path>
                    <path d="M92.483089,325.093276 C95.0644742,327.095995 106,328 106,328 C106,328 101.973216,317.295653 99.3918306,315.292935 C97.7264406,313.927879 95.4857887,313.618576 93.5403419,314.485187 C91.5948951,315.351798 90.2513196,317.257717 90.0315788,319.462516 C89.811838,321.667314 90.7505703,323.823445 92.483089,325.093276 Z" id="Shape" fill="#70BF8E" fill-rule="nonzero" opacity="0.1"></path>
                    <path d="M264.177898,341 C264.177898,341 256.106458,314.054213 265.690425,294.222404 C269.764606,285.929344 270.993254,276.560419 269.191904,267.52224 C268.301992,263.241542 267.015367,259.049964 265.348141,255" id="Shape" stroke="#535461" stroke-width="2"></path>
                    <path d="M272,241.600677 C272,244.78044 266,254 266,254 C266,254 260,244.78044 260,241.600677 C260.089595,238.482837 262.748445,236 265.997719,236 C269.246993,236 271.905843,238.482837 271.995437,241.600677 L272,241.600677 Z" id="Shape" fill="#70BF8E" fill-rule="nonzero"></path>
                    <path d="M280.964278,259.847926 C279.175524,262.468632 269,267 269,267 C269,267 269.185668,256.319225 270.969894,253.698519 C272.100753,251.94783 274.141181,250.916984 276.30088,251.005246 C278.46058,251.093507 280.40034,252.287015 281.368854,254.1235 C282.337368,255.959985 282.182517,258.151001 280.964278,259.847926 Z" id="Shape" fill="#70BF8E" fill-rule="nonzero"></path>
                    <path d="M280.871753,291.201946 C277.990696,292.678761 267,291.653571 267,291.653571 C267,291.653571 272.726544,282.07008 275.6076,280.593265 C278.480336,279.182588 281.936001,280.372085 283.372672,283.266132 C284.809344,286.160178 283.696368,289.689818 280.871753,291.19743 L280.871753,291.201946 Z" id="Shape" fill="#70BF8E" fill-rule="nonzero"></path>
                    <path d="M274.731005,314.263121 C272.108734,316.148818 261,317 261,317 C261,317 265.090564,306.921126 267.712836,305.03543 C270.335484,303.253729 273.940744,303.826884 275.842929,306.327931 C277.745113,308.828978 277.252035,312.34781 274.731005,314.263121 Z" id="Shape" fill="#70BF8E" fill-rule="nonzero"></path>
                    <path d="M256.702237,268.585987 C259.053148,270.754425 270,273 270,273 C270,273 267.319691,262.672067 264.96878,260.50363 C262.605182,258.421587 258.923639,258.512714 256.677445,260.708861 C254.431251,262.905008 254.442259,266.402632 256.702237,268.585987 Z" id="Shape" fill="#70BF8E" fill-rule="nonzero"></path>
                    <path d="M251.128247,296.201345 C254.009304,297.679272 265,296.65331 265,296.65331 C265,296.65331 259.273456,287.067119 256.3924,285.593712 C253.519664,284.181972 250.063999,285.372366 248.627328,288.268592 C247.190656,291.164819 248.303632,294.697117 251.128247,296.205864 L251.128247,296.201345 Z" id="Shape" fill="#70BF8E" fill-rule="nonzero"></path>
                    <path d="M248.268995,322.263121 C250.891266,324.148818 262,325 262,325 C262,325 257.909436,314.921126 255.287164,313.03543 C252.664516,311.253729 249.059256,311.826884 247.157071,314.327931 C245.254887,316.828978 245.747965,320.34781 248.268995,322.263121 Z" id="Shape" fill="#70BF8E" fill-rule="nonzero"></path>
                    <path d="M272,241.600677 C272,244.78044 266,254 266,254 C266,254 260,244.78044 260,241.600677 C260.089595,238.482837 262.748445,236 265.997719,236 C269.246993,236 271.905843,238.482837 271.995437,241.600677 L272,241.600677 Z" id="Shape" fill="#70BF8E" fill-rule="nonzero" opacity="0.1"></path>
                    <path d="M280.964278,259.847926 C279.175524,262.468632 269,267 269,267 C269,267 269.185668,256.319225 270.969894,253.698519 C272.100753,251.94783 274.141181,250.916984 276.30088,251.005246 C278.46058,251.093507 280.40034,252.287015 281.368854,254.1235 C282.337368,255.959985 282.182517,258.151001 280.964278,259.847926 Z" id="Shape" fill="#70BF8E" fill-rule="nonzero" opacity="0.1"></path>
                    <path d="M280.871753,291.201946 C277.990696,292.678761 267,291.653571 267,291.653571 C267,291.653571 272.726544,282.07008 275.6076,280.593265 C278.480336,279.182588 281.936001,280.372085 283.372672,283.266132 C284.809344,286.160178 283.696368,289.689818 280.871753,291.19743 L280.871753,291.201946 Z" id="Shape" fill="#70BF8E" fill-rule="nonzero" opacity="0.1"></path>
                    <path d="M274.731005,314.263121 C272.108734,316.148818 261,317 261,317 C261,317 265.090564,306.921126 267.712836,305.03543 C270.335484,303.253729 273.940744,303.826884 275.842929,306.327931 C277.745113,308.828978 277.252035,312.34781 274.731005,314.263121 Z" id="Shape" fill="#70BF8E" fill-rule="nonzero" opacity="0.1"></path>
                    <path d="M256.702237,268.585987 C259.053148,270.754425 270,273 270,273 C270,273 267.319691,262.672067 264.96878,260.50363 C262.605182,258.421587 258.923639,258.512714 256.677445,260.708861 C254.431251,262.905008 254.442259,266.402632 256.702237,268.585987 Z" id="Shape" fill="#70BF8E" fill-rule="nonzero" opacity="0.1"></path>
                    <path d="M251.128247,296.201345 C254.009304,297.679272 265,296.65331 265,296.65331 C265,296.65331 259.273456,287.067119 256.3924,285.593712 C253.519664,284.181972 250.063999,285.372366 248.627328,288.268592 C247.190656,291.164819 248.303632,294.697117 251.128247,296.205864 L251.128247,296.201345 Z" id="Shape" fill="#70BF8E" fill-rule="nonzero" opacity="0.1"></path>
                    <path d="M248.268995,322.263121 C250.891266,324.148818 262,325 262,325 C262,325 257.909436,314.921126 255.287164,313.03543 C252.664516,311.253729 249.059256,311.826884 247.157071,314.327931 C245.254887,316.828978 245.747965,320.34781 248.268995,322.263121 Z" id="Shape" fill="#70BF8E" fill-rule="nonzero" opacity="0.1"></path>
                    <path d="M51.6799616,287 C51.6799616,287 62.2210398,305.409137 53.6275513,315.483834 C45.0340627,325.55853 54.4055833,353 54.4055833,353" id="Shape" stroke="#70BF8E"></path>
                    <path d="M54,281.5 C54,285.089485 51.5,288 51.5,288 C51.5,288 49,285.089485 49,281.5 C49,277.910515 51.5,275 51.5,275 C51.5,275 54,277.905989 54,281.5 Z" id="Shape" fill="#70BF8E" fill-rule="nonzero"></path>
                    <path d="M57.3200384,287 C57.3200384,287 46.7789602,305.409137 55.3724487,315.483834 C63.9659373,325.55853 54.5944167,353 54.5944167,353" id="Shape" stroke="#70BF8E"></path>
                    <path d="M54,281.5 C54,285.089485 56.5,288 56.5,288 C56.5,288 59,285.089485 59,281.5 C59,277.910515 56.5,275 56.5,275 C56.5,275 54,277.905989 54,281.5 Z" id="Shape" fill="#70BF8E" fill-rule="nonzero"></path>
                    <path d="M54,281.5 C54,285.089485 56.5,288 56.5,288 C56.5,288 59,285.089485 59,281.5 C59,277.910515 56.5,275 56.5,275 C56.5,275 54,277.905989 54,281.5 Z" id="Shape" fill="#000000" fill-rule="nonzero" opacity="0.1"></path>
                    <path d="M60.6754952,287 C60.6754952,287 71.2254232,305.409137 62.62472,315.483834 C54.0240168,325.55853 63.428524,353 63.428524,353" id="Shape" stroke="#70BF8E"></path>
                    <path d="M63,281.5 C63,285.089485 60.5,288 60.5,288 C60.5,288 58,285.089485 58,281.5 C58,277.910515 60.5,275 60.5,275 C60.5,275 63,277.905989 63,281.5 Z" id="Shape" fill="#70BF8E" fill-rule="nonzero"></path>
                    <path d="M61.3975904,295.256522 C58.9126506,297.743478 55,298 55,298 C55,298 55.1174699,294.230435 57.6024096,291.743478 C60.0873494,289.256522 64,289 64,289 C64,289 63.8960843,292.769565 61.3975904,295.256522 Z" id="Shape" fill="#70BF8E" fill-rule="nonzero"></path>
                    <path d="M62.3975904,309.256522 C59.9126506,311.743478 56,312 56,312 C56,312 56.1174699,308.230435 58.6024096,305.743478 C61.0873494,303.256522 65,303 65,303 C65,303 64.8870482,306.769565 62.3975904,309.256522 Z" id="Shape" fill="#70BF8E" fill-rule="nonzero"></path>
                    <path d="M48.6074269,315.231764 C51.0951952,318.001847 50.9995118,322 50.9995118,322 C50.9995118,322 46.8803415,321.538319 44.3925731,318.768236 C41.9048048,315.998153 42.0004882,312 42.0004882,312 C42.0004882,312 46.1244427,312.466297 48.6074269,315.231764 Z" id="Shape" fill="#70BF8E" fill-rule="nonzero"></path>
                    <path d="M50.976618,288.406135 C54.0125261,290.295142 55,293.922207 55,293.922207 C55,293.922207 51.0592902,294.482871 48.023382,292.593865 C44.9874739,290.704858 44,287.077793 44,287.077793 C44,287.077793 47.9453027,286.517129 50.976618,288.406135 Z" id="Shape" fill="#70BF8E" fill-rule="nonzero"></path>
                    <path d="M50.976618,288.406135 C54.0125261,290.295142 55,293.922207 55,293.922207 C55,293.922207 51.0592902,294.482871 48.023382,292.593865 C44.9874739,290.704858 44,287.077793 44,287.077793 C44,287.077793 47.9453027,286.517129 50.976618,288.406135 Z" id="Shape" fill="#000000" fill-rule="nonzero" opacity="0.1"></path>
                    <path d="M66.3164604,287 C66.3164604,287 55.7824716,305.409137 64.3701806,315.483834 C72.9578896,325.55853 63.6127366,353 63.6127366,353" id="Shape" stroke="#70BF8E"></path>
                    <path d="M63,281.502262 C63,285.090498 65.5,288 65.5,288 C65.5,288 68,285.090498 68,281.502262 C68,277.914027 65.5,275 65.5,275 C65.5,275 63,277.909502 63,281.502262 Z" id="Shape" fill="#70BF8E" fill-rule="nonzero"></path>
                    <path d="M63,281.502262 C63,285.090498 65.5,288 65.5,288 C65.5,288 68,285.090498 68,281.502262 C68,277.914027 65.5,275 65.5,275 C65.5,275 63,277.909502 63,281.502262 Z" id="Shape" fill="#000000" fill-rule="nonzero" opacity="0.1"></path>
                    <path d="M63.6473214,295.70088 C61.1607143,298.186217 61,302 61,302 C61,302 64.8660714,301.784457 67.3526786,299.29912 C69.8392857,296.813783 70,293 70,293 C70,293 66.1339286,293.215543 63.6473214,295.70088 Z" id="Shape" fill="#70BF8E" fill-rule="nonzero"></path>
                    <path d="M63.6473214,295.70088 C61.1607143,298.186217 61,302 61,302 C61,302 64.8660714,301.784457 67.3526786,299.29912 C69.8392857,296.813783 70,293 70,293 C70,293 66.1339286,293.215543 63.6473214,295.70088 Z" id="Shape" fill="#000000" fill-rule="nonzero" opacity="0.1"></path>
                    <path d="M68.6473214,313.694716 C66.1607143,316.182485 66,320 66,320 C66,320 69.8660714,319.784247 72.3526786,317.296477 C74.8392857,314.808708 75,311 75,311 C75,311 71.1339286,311.220157 68.6473214,313.694716 Z" id="Shape" fill="#70BF8E" fill-rule="nonzero"></path>
                    <path d="M61,310 C61,310 66.8329482,301.190453 75,301" id="Shape" stroke="#70BF8E"></path>
                    <path d="M57,304 C57,304 51.1747445,295.190453 43,295" id="Shape" stroke="#70BF8E"></path>
                    <path d="M56,318 C56,318 61.8252555,309.190453 70,309" id="Shape" stroke="#70BF8E"></path>
                    <circle id="Oval" fill="#70BF8E" fill-rule="nonzero" cx="74.5" cy="300.5" r="1.5"></circle>
                    <circle id="Oval" fill="#70BF8E" fill-rule="nonzero" cx="42.5" cy="295.5" r="1.5"></circle>
                    <path d="M60,320 C60,320 54.1747445,311.190453 46,311" id="Shape" stroke="#70BF8E"></path>
                    <circle id="Oval" fill="#70BF8E" fill-rule="nonzero" cx="46.5" cy="311.5" r="1.5"></circle>
                    <circle id="Oval" fill="#70BF8E" fill-rule="nonzero" cx="69.5" cy="308.5" r="1.5"></circle>
                    <path d="M92,343.357751 C92,343.357751 78.246276,340.638705 74.5783147,337.011819 C70.9103535,333.384933 54.4067892,327.039 52.5705472,331.573726 C50.7343052,336.108451 27.8129394,351.519363 43.4029054,354.242882 C58.9928714,356.966401 80.082518,357.869768 84.6640775,356.054089 C89.245637,354.23841 92,343.357751 92,343.357751 Z" id="Shape" fill="#A8A8A8" fill-rule="nonzero"></path>
                    <path d="M43.397661,352.458133 C58.9907606,355.225479 80.0846462,356.149445 84.6671266,354.301514 C88.1594019,352.895083 90.5840905,346.145125 91.5476327,343 L92,343.095583 C92,343.095583 89.2541307,354.17407 84.6671266,356.035656 C80.0801226,357.897243 58.986237,356.945968 43.397661,354.192276 C38.8966067,353.391202 37.6118837,351.515961 38.0959166,349.140049 C38.4985235,350.673923 40.0456196,351.866431 43.397661,352.458133 Z" id="Shape" fill="#000000" fill-rule="nonzero" opacity="0.2"></path>
                    <path d="M320.113597,310 C320.113597,310 324.500891,315.931022 318.082281,324.906605 C311.66367,333.882188 306.337496,341.421316 308.482883,347 C308.482883,347 318.19635,330.37236 326.102253,330.137468 C334.008156,329.902576 328.809213,320.000977 320.113597,310 Z" id="Shape" fill="#70BF8E" fill-rule="nonzero"></path>
                    <path d="M320.020655,310 C320.408864,310.573598 320.715033,311.200534 320.929967,311.861976 C328.727868,321.198974 332.884087,329.9123 325.365633,330.129229 C318.383894,330.3326 310.004921,343.054599 308,346.267864 C308.066367,346.516273 308.146334,346.760701 308.239526,347 C308.239526,347 318.060091,330.364236 326.053161,330.129229 C334.046232,329.894223 328.812146,320.005863 320.020655,310 Z" id="Shape" fill="#000000" fill-rule="nonzero" opacity="0.1"></path>
                    <path d="M329,317.305981 C329,319.344973 328.775862,321 328.5,321 C328.224138,321 328,319.344973 328,317.305981 C328,315.266988 328.280172,316.224697 328.556034,316.224697 C328.831897,316.224697 329,315.266988 329,317.305981 Z" id="Shape" fill="#FFD037" fill-rule="nonzero"></path>
                    <path d="M332.81505,319.499393 C330.859788,320.561172 329.159769,321.204965 329.010475,320.940722 C328.861182,320.676478 330.325221,319.590677 332.280483,318.538508 C334.235746,317.486338 333.465199,318.250242 333.609677,318.538508 C333.754154,318.826773 334.765497,318.43281 332.81505,319.499393 Z" id="Shape" fill="#FFD037" fill-rule="nonzero"></path>
                    <path d="M295.886968,310 C295.886968,310 291.49988,315.931022 297.91819,324.906605 C304.336501,333.882188 309.662426,341.421316 307.51714,347 C307.51714,347 297.804126,330.37236 289.898593,330.137468 C281.993059,329.902576 287.187372,320.000977 295.886968,310 Z" id="Shape" fill="#70BF8E" fill-rule="nonzero"></path>
                    <path d="M295.979914,310 C295.591723,310.573598 295.285569,311.200534 295.070645,311.861976 C287.273113,321.198974 283.117091,329.9123 290.635189,330.129229 C297.616597,330.3326 305.995174,343.054599 308,346.267864 C307.933636,346.516273 307.853673,346.760701 307.760485,347 C307.760485,347 297.940385,330.364236 289.947693,330.129229 C281.955001,329.894223 287.184404,320.005863 295.979914,310 Z" id="Shape" fill="#000000" fill-rule="nonzero" opacity="0.1"></path>
                    <path d="M288,317.305981 C288,319.344973 288.224138,321 288.5,321 C288.775862,321 289,319.344973 289,317.305981 C289,315.266988 288.719828,316.224697 288.443966,316.224697 C288.168103,316.224697 288,315.266988 288,317.305981 Z" id="Shape" fill="#FFD037" fill-rule="nonzero"></path>
                    <path d="M285.186392,319.499393 C287.140916,320.561172 288.840292,321.204965 288.989529,320.940722 C289.138766,320.676478 287.67528,319.590677 285.720757,318.538508 C283.766234,317.486338 284.536489,318.250242 284.392066,318.538508 C284.247643,318.826773 283.231869,318.43281 285.186392,319.499393 Z" id="Shape" fill="#FFD037" fill-rule="nonzero"></path>
                    <path d="M290,345.865359 C290,345.865359 302.630455,345.476237 306.437141,342.74786 C310.243826,340.019483 325.866534,336.766245 326.811456,341.137077 C327.756378,345.50791 345.795386,362.878123 331.531565,362.995764 C317.267745,363.113406 298.396306,360.760577 294.59862,358.434895 C290.800934,356.109214 290,345.865359 290,345.865359 Z" id="Shape" fill="#A8A8A8" fill-rule="nonzero"></path>
                    <path d="M331.794389,361.480869 C317.532903,361.597401 298.654098,359.266755 294.855836,356.963001 C291.962136,355.206052 290.805556,348.89538 290.423029,346 L290,346 C290,346 290.796555,356.165203 294.599318,358.477921 C298.402081,360.790639 317.276386,363.112321 331.537871,362.995789 C335.655656,362.964415 337.077754,361.503279 336.996749,359.342949 C336.42971,360.642733 334.859101,361.458459 331.794389,361.480869 Z" id="Shape" fill="#000000" fill-rule="nonzero" opacity="0.2"></path>
                    <rect id="Rectangle-path" fill="url(#linearGradient-1)" fill-rule="nonzero" transform="translate(244.500000, 142.000000) rotate(-70.520000) translate(-244.500000, -142.000000) " x="224" y="108" width="41" height="68"></rect>
                    <rect id="Rectangle-path" fill="#F4F6F7" fill-rule="nonzero" transform="translate(244.500000, 141.500000) rotate(-70.520000) translate(-244.500000, -141.500000) " x="225" y="109" width="39" height="65"></rect>
                    <g id="Group" opacity="0.6" transform="translate(219.000000, 116.000000)" fill="#70BF8E" fill-rule="nonzero">
                        <rect id="Rectangle-path" transform="translate(5.226402, 4.654071) rotate(-160.520000) translate(-5.226402, -4.654071) " x="1.04666871" y="1.58507055" width="8.35946667" height="6.138"></rect>
                        <rect id="Rectangle-path" transform="translate(18.163614, 24.068963) rotate(-160.520000) translate(-18.163614, -24.068963) " x="2.11788115" y="23.074463" width="32.0914667" height="1.989"></rect>
                        <rect id="Rectangle-path" transform="translate(20.966372, 31.370265) rotate(-160.655671) translate(-20.966372, -31.370265) " x="9.30979825" y="30.7090087" width="23.3131475" height="1.32251251"></rect>
                    </g>
                    <rect id="Rectangle-path" fill="url(#linearGradient-2)" fill-rule="nonzero" transform="translate(291.000000, 126.500000) rotate(-21.130000) translate(-291.000000, -126.500000) " x="257" y="106" width="68" height="41"></rect>
                    <rect id="Rectangle-path" fill="#FFFFFF" fill-rule="nonzero" transform="translate(289.500000, 126.500000) rotate(-21.130000) translate(-289.500000, -126.500000) " x="257" y="107" width="65" height="39"></rect>
                    <g id="Group" opacity="0.6" transform="translate(256.000000, 119.000000)" fill="#70BF8E" fill-rule="nonzero">
                        <rect id="Rectangle-path" transform="translate(5.305165, 4.759073) rotate(158.870000) translate(-5.305165, -4.759073) " x="1.1142564" y="1.6738348" width="8.38181818" height="6.17047619"></rect>
                        <rect id="Rectangle-path" transform="translate(27.924044, 11.171600) rotate(158.870000) translate(-27.924044, -11.171600) " x="11.8354079" y="10.1718382" width="32.1772727" height="1.99952381"></rect>
                        <rect id="Rectangle-path" transform="translate(33.678833, 13.960855) rotate(158.870000) translate(-33.678833, -13.960855) " x="21.9470152" y="13.2935935" width="23.4636364" height="1.33452381"></rect>
                    </g>
                    <rect id="Rectangle-path" fill="url(#linearGradient-3)" fill-rule="nonzero" transform="translate(248.500000, 96.000000) rotate(-82.240000) translate(-248.500000, -96.000000) " x="228" y="62" width="41" height="68"></rect>
                    <rect id="Rectangle-path" fill="#FFFFFF" fill-rule="nonzero" transform="translate(250.500000, 95.500000) rotate(-81.950938) translate(-250.500000, -95.500000) " x="231" y="63" width="39" height="65"></rect>
                    <g id="Group" opacity="0.6" transform="translate(221.000000, 74.000000)" fill="#70BF8E" fill-rule="nonzero">
                        <rect id="Rectangle-path" transform="translate(4.980848, 3.850703) rotate(-172.240000) translate(-4.980848, -3.850703) " x="0.759642958" y="0.770702913" width="8.44240964" height="6.16"></rect>
                        <rect id="Rectangle-path" transform="translate(21.789096, 20.310975) rotate(-172.240000) translate(-21.789096, -20.310975) " x="5.58415575" y="19.3129105" width="32.4098795" height="1.99612903"></rect>
                        <rect id="Rectangle-path" transform="translate(25.499989, 25.516344) rotate(-172.240000) translate(-25.499989, -25.516344) " x="13.6833626" y="24.8502147" width="23.633253" height="1.33225806"></rect>
                    </g>
                    <rect id="Rectangle-path" fill="url(#linearGradient-4)" fill-rule="nonzero" transform="translate(142.500000, 164.000000) rotate(-82.240000) translate(-142.500000, -164.000000) " x="122" y="130" width="41" height="68"></rect>
                    <rect id="Rectangle-path" fill="#FFFFFF" fill-rule="nonzero" transform="translate(142.500000, 163.500000) rotate(-82.240000) translate(-142.500000, -163.500000) " x="123" y="131" width="39" height="65"></rect>
                    <g id="Group" opacity="0.6" transform="translate(114.000000, 143.000000)" fill="#70BF8E" fill-rule="nonzero">
                        <rect id="Rectangle-path" transform="translate(4.615053, 3.945485) rotate(-172.240000) translate(-4.615053, -3.945485) " x="0.493170468" y="0.865485349" width="8.24376471" height="6.16"></rect>
                        <rect id="Rectangle-path" transform="translate(22.069081, 19.592865) rotate(-171.950938) translate(-22.069081, -19.592865) " x="6.24780784" y="18.5949497" width="31.6425467" height="1.99582959"></rect>
                        <rect id="Rectangle-path" transform="translate(24.646920, 25.611126) rotate(-172.240000) translate(-24.646920, -25.611126) " x="13.108332" y="24.9449971" width="23.0771765" height="1.33225806"></rect>
                    </g>
                    <rect id="Rectangle-path" fill="url(#linearGradient-1)" fill-rule="nonzero" transform="translate(128.500000, 120.000000) rotate(-82.240000) translate(-128.500000, -120.000000) " x="108" y="86" width="41" height="68"></rect>
                    <rect id="Rectangle-path" fill="#FFFFFF" fill-rule="nonzero" transform="translate(128.500000, 119.500000) rotate(-82.240000) translate(-128.500000, -119.500000) " x="109" y="87" width="39" height="65"></rect>
                    <g id="Group" opacity="0.6" transform="translate(100.000000, 99.000000)" fill="#70BF8E" fill-rule="nonzero">
                        <rect id="Rectangle-path" transform="translate(4.834401, 3.690085) rotate(-172.240000) translate(-4.834401, -3.690085) " x="0.613195705" y="0.559593288" width="8.44240964" height="6.26098361"></rect>
                        <rect id="Rectangle-path" transform="translate(21.637452, 20.424746) rotate(-172.240000) translate(-21.637452, -20.424746) " x="5.432512" y="19.4103197" width="32.4098795" height="2.02885246"></rect>
                        <rect id="Rectangle-path" transform="translate(25.348964, 25.710900) rotate(-172.240000) translate(-25.348964, -25.710900) " x="13.532337" y="25.0338512" width="23.633253" height="1.35409836"></rect>
                    </g>
                    <rect id="Rectangle-path" fill="url(#linearGradient-2)" fill-rule="nonzero" transform="translate(191.000000, 136.500000) rotate(-16.600000) translate(-191.000000, -136.500000) " x="157" y="116" width="68" height="41"></rect>
                    <rect id="Rectangle-path" fill="#F4F6F7" fill-rule="nonzero" transform="translate(189.500000, 135.500000) rotate(-16.600000) translate(-189.500000, -135.500000) " x="157" y="116" width="65" height="39"></rect>
                    <g id="Group" opacity="0.6" transform="translate(157.000000, 126.000000)" fill="#70BF8E" fill-rule="nonzero">
                        <rect id="Rectangle-path" transform="translate(5.232647, 4.511889) rotate(163.400000) translate(-5.232647, -4.511889) " x="1.09305563" y="1.48077784" width="8.27918367" height="6.06222222"></rect>
                        <rect id="Rectangle-path" transform="translate(27.002869, 12.537740) rotate(163.400000) translate(-27.002869, -12.537740) " x="11.1112367" y="11.5555175" width="31.7832653" height="1.96444444"></rect>
                        <rect id="Rectangle-path" transform="translate(32.452167, 15.716801) rotate(163.400000) translate(-32.452167, -15.716801) " x="20.8640037" y="15.0612452" width="23.1763265" height="1.31111111"></rect>
                    </g>
                    <rect id="Rectangle-path" fill="url(#linearGradient-5)" fill-rule="nonzero" transform="translate(94.000000, 148.500000) rotate(-16.600000) translate(-94.000000, -148.500000) " x="60" y="128" width="68" height="41"></rect>
                    <rect id="Rectangle-path" fill="#F4F6F7" fill-rule="nonzero" transform="translate(93.500000, 149.500000) rotate(-16.600000) translate(-93.500000, -149.500000) " x="61" y="130" width="65" height="39"></rect>
                    <g id="Group" opacity="0.6" transform="translate(59.000000, 139.000000)" fill="#70BF8E" fill-rule="nonzero">
                        <rect id="Rectangle-path" transform="translate(5.063154, 4.125670) rotate(163.400000) translate(-5.063154, -4.125670) " x="0.889890985" y="1.0945584" width="8.34652632" height="6.06222222"></rect>
                        <rect id="Rectangle-path" transform="translate(27.009350, 12.144086) rotate(163.400000) translate(-27.009350, -12.144086) " x="10.9884551" y="11.1618641" width="32.0417895" height="1.96444444"></rect>
                        <rect id="Rectangle-path" transform="translate(31.514134, 15.681867) rotate(163.191308) translate(-31.514134, -15.681867) " x="19.7984656" y="15.0244454" width="23.4313373" height="1.31484247"></rect>
                    </g>
                    <rect id="Rectangle-path" fill="url(#linearGradient-2)" fill-rule="nonzero" transform="translate(360.000000, 31.500000) rotate(-21.130000) translate(-360.000000, -31.500000) " x="326" y="11" width="68" height="41"></rect>
                    <rect id="Rectangle-path" fill="#FFFFFF" fill-rule="nonzero" transform="translate(359.500000, 31.500000) rotate(-21.130000) translate(-359.500000, -31.500000) " x="327" y="12" width="65" height="39"></rect>
                    <g id="Group" opacity="0.6" transform="translate(325.000000, 24.000000)" fill="#70BF8E" fill-rule="nonzero">
                        <rect id="Rectangle-path" transform="translate(5.256672, 4.702457) rotate(158.870000) translate(-5.256672, -4.702457) " x="1.06576249" y="1.61721873" width="8.38181818" height="6.17047619"></rect>
                        <rect id="Rectangle-path" transform="translate(27.875550, 11.110460) rotate(158.870000) translate(-27.875550, -11.110460) " x="11.786914" y="10.1106983" width="32.1772727" height="1.99952381"></rect>
                        <rect id="Rectangle-path" transform="translate(33.630339, 13.904239) rotate(158.870000) translate(-33.630339, -13.904239) " x="21.8985213" y="13.2369774" width="23.4636364" height="1.33452381"></rect>
                    </g>
                    <rect id="Rectangle-path" fill="url(#linearGradient-6)" fill-rule="nonzero" transform="translate(221.500000, 65.500000) rotate(-21.130000) translate(-221.500000, -65.500000) " x="198" y="51" width="47" height="29"></rect>
                    <rect id="Rectangle-path" fill="#FFFFFF" fill-rule="nonzero" transform="translate(220.500000, 64.500000) rotate(-21.130000) translate(-220.500000, -64.500000) " x="198" y="51" width="45" height="27"></rect>
                    <g id="Group" opacity="0.6" transform="translate(197.000000, 59.000000)" fill="#70BF8E" fill-rule="nonzero">
                        <rect id="Rectangle-path" transform="translate(3.864552, 3.131450) rotate(158.870000) translate(-3.864552, -3.131450) " x="0.931980813" y="1.00438137" width="5.86514286" height="4.25413793"></rect>
                        <rect id="Rectangle-path" transform="translate(19.693652, 7.549868) rotate(158.870000) translate(-19.693652, -7.549868) " x="8.43422334" y="6.8595236" width="22.5188571" height="1.38068966"></rect>
                        <rect id="Rectangle-path" transform="translate(23.703493, 9.436864) rotate(158.870000) translate(-23.703493, -9.436864) " x="15.4925921" y="8.93686858" width="16.4205714" height="1"></rect>
                    </g>
                    <rect id="Rectangle-path" fill="url(#linearGradient-7)" fill-rule="nonzero" transform="translate(27.500000, 109.500000) rotate(-21.130000) translate(-27.500000, -109.500000) " x="4" y="95" width="47" height="29"></rect>
                    <rect id="Rectangle-path" fill="#FFFFFF" fill-rule="nonzero" transform="translate(27.500000, 110.500000) rotate(-21.130000) translate(-27.500000, -110.500000) " x="5" y="97" width="45" height="27"></rect>
                    <g id="Group" opacity="0.6" transform="translate(3.000000, 105.000000)" fill="#70BF8E" fill-rule="nonzero">
                        <rect id="Rectangle-path" transform="translate(3.682423, 3.315137) rotate(158.870000) translate(-3.682423, -3.315137) " x="0.800321268" y="1.18806775" width="5.7642029" height="4.25413793"></rect>
                        <rect id="Rectangle-path" transform="translate(19.234911, 7.730688) rotate(158.870000) translate(-19.234911, -7.730688) " x="8.16925843" y="7.04034319" width="22.1313043" height="1.38068966"></rect>
                        <rect id="Rectangle-path" transform="translate(23.179671, 9.620550) rotate(158.870000) translate(-23.179671, -9.620550) " x="15.1100705" y="9.12055496" width="16.137971" height="1"></rect>
                    </g>
                    <rect id="Rectangle-path" fill="url(#linearGradient-8)" fill-rule="nonzero" transform="translate(323.500000, 97.500000) rotate(-21.130000) translate(-323.500000, -97.500000) " x="300" y="83" width="47" height="29"></rect>
                    <rect id="Rectangle-path" fill="#F4F6F7" fill-rule="nonzero" transform="translate(322.500000, 97.500000) rotate(-21.130000) translate(-322.500000, -97.500000) " x="300" y="84" width="45" height="27"></rect>
                    <g id="Group" opacity="0.6" transform="translate(299.000000, 91.000000)" fill="#70BF8E" fill-rule="nonzero">
                        <rect id="Rectangle-path" transform="translate(3.949107, 3.245148) rotate(158.870000) translate(-3.949107, -3.245148) " x="1.01653523" y="1.11807939" width="5.86514286" height="4.25413793"></rect>
                        <rect id="Rectangle-path" transform="translate(19.773942, 7.665182) rotate(158.870000) translate(-19.773942, -7.665182) " x="8.51451369" y="6.97483759" width="22.5188571" height="1.38068966"></rect>
                        <rect id="Rectangle-path" transform="translate(23.788047, 9.555045) rotate(158.870000) translate(-23.788047, -9.555045) " x="15.5771465" y="9.05504937" width="16.4205714" height="1"></rect>
                    </g>
                    <rect id="Rectangle-path" fill="url(#linearGradient-9)" fill-rule="nonzero" transform="translate(244.500000, 31.500000) rotate(-21.130000) translate(-244.500000, -31.500000) " x="221" y="17" width="47" height="29"></rect>
                    <rect id="Rectangle-path" fill="#F4F6F7" fill-rule="nonzero" transform="translate(243.500000, 31.500000) rotate(-21.130000) translate(-243.500000, -31.500000) " x="221" y="18" width="45" height="27"></rect>
                    <g id="Group" opacity="0.6" transform="translate(221.000000, 26.000000)" fill="#70BF8E" fill-rule="nonzero">
                        <rect id="Rectangle-path" transform="translate(3.949120, 3.305451) rotate(158.870000) translate(-3.949120, -3.305451) " x="1.0165481" y="1.17838207" width="5.86514286" height="4.25413793"></rect>
                        <rect id="Rectangle-path" transform="translate(19.778219, 7.723869) rotate(158.870000) translate(-19.778219, -7.723869) " x="8.51879063" y="7.0335243" width="22.5188571" height="1.38068966"></rect>
                        <rect id="Rectangle-path" transform="translate(23.792324, 9.613731) rotate(158.870000) translate(-23.792324, -9.613731) " x="15.5814234" y="9.11373608" width="16.4205714" height="1"></rect>
                    </g>
                    <rect id="Rectangle-path" fill="url(#linearGradient-10)" fill-rule="nonzero" transform="translate(396.500000, 39.500000) rotate(-21.130000) translate(-396.500000, -39.500000) " x="373" y="25" width="47" height="29"></rect>
                    <rect id="Rectangle-path" fill="#F4F6F7" fill-rule="nonzero" transform="translate(395.500000, 39.500000) rotate(-21.130000) translate(-395.500000, -39.500000) " x="373" y="26" width="45" height="27"></rect>
                    <g id="Group" opacity="0.6" transform="translate(372.000000, 33.000000)" fill="#70BF8E" fill-rule="nonzero">
                        <rect id="Rectangle-path" transform="translate(3.918567, 4.024874) rotate(158.870000) translate(-3.918567, -4.024874) " x="0.985995882" y="1.89780459" width="5.86514286" height="4.25413793"></rect>
                        <rect id="Rectangle-path" transform="translate(19.743403, 8.444908) rotate(158.870000) translate(-19.743403, -8.444908) " x="8.48397434" y="7.75456279" width="22.5188571" height="1.38068966"></rect>
                        <rect id="Rectangle-path" transform="translate(23.759156, 10.338951) rotate(158.870000) translate(-23.759156, -10.338951) " x="15.5482551" y="9.83895592" width="16.4205714" height="1"></rect>
                    </g>
                    <rect id="Rectangle-path" fill="url(#linearGradient-11)" fill-rule="nonzero" transform="translate(32.500000, 51.500000) rotate(-21.130000) translate(-32.500000, -51.500000) " x="9" y="37" width="47" height="29"></rect>
                    <rect id="Rectangle-path" fill="#F4F6F7" fill-rule="nonzero" transform="translate(31.500000, 52.500000) rotate(-21.130000) translate(-31.500000, -52.500000) " x="9" y="39" width="45" height="27"></rect>
                    <g id="Group" opacity="0.6" transform="translate(9.000000, 47.000000)" fill="#70BF8E" fill-rule="nonzero">
                        <rect id="Rectangle-path" transform="translate(3.545498, 3.096572) rotate(158.870000) translate(-3.545498, -3.096572) " x="0.66339695" y="0.969503264" width="5.7642029" height="4.25413793"></rect>
                        <rect id="Rectangle-path" transform="translate(19.102177, 7.514990) rotate(158.870000) translate(-19.102177, -7.514990) " x="8.03652479" y="6.8246455" width="22.1313043" height="1.38068966"></rect>
                        <rect id="Rectangle-path" transform="translate(23.042747, 9.406469) rotate(158.870000) translate(-23.042747, -9.406469) " x="14.9731462" y="8.90647324" width="16.137971" height="1"></rect>
                    </g>
                    <rect id="Rectangle-path" fill="url(#linearGradient-3)" fill-rule="nonzero" transform="translate(158.500000, 95.000000) rotate(-82.240000) translate(-158.500000, -95.000000) " x="138" y="61" width="41" height="68"></rect>
                    <rect id="Rectangle-path" fill="#FFFFFF" fill-rule="nonzero" transform="translate(159.500000, 94.500000) rotate(-82.240000) translate(-159.500000, -94.500000) " x="140" y="62" width="39" height="65"></rect>
                    <g id="Group" opacity="0.6" transform="translate(130.000000, 74.000000)" fill="#70BF8E" fill-rule="nonzero">
                        <rect id="Rectangle-path" transform="translate(4.794441, 3.690014) rotate(-172.240000) translate(-4.794441, -3.690014) " x="0.573236353" y="0.610013754" width="8.44240964" height="6.16"></rect>
                        <rect id="Rectangle-path" transform="translate(21.602689, 20.154802) rotate(-172.240000) translate(-21.602689, -20.154802) " x="5.39774915" y="19.1567375" width="32.4098795" height="1.99612903"></rect>
                        <rect id="Rectangle-path" transform="translate(25.313582, 25.360171) rotate(-172.240000) translate(-25.313582, -25.360171) " x="13.496956" y="24.6940417" width="23.633253" height="1.33225806"></rect>
                    </g>
                    <path d="M188.809756,187.404779 C188.129606,180.573047 185.053129,174.204779 180.127818,169.433279 C174.219963,163.687626 163.77556,156.067313 146.407187,150.420801 C114.687314,140.096652 102.741219,131.016268 88.7359167,106.258137 L76.3761815,75.7047841 L76.3761815,89.7422023 L68.5484991,60 C68.5484991,60 65.0460497,91.5853176 75.7422337,116.780568 C75.7422337,116.780568 70.3873975,121.323013 75.7422337,129.168646 C75.7422337,129.168646 62.9733549,127.104717 73.6830272,148.163098 L82.7471327,161.375846 C82.7471327,161.375846 73.6830272,165.503703 86.456402,179.95571 L93.888429,186.963153 C93.888429,186.963153 76.1738577,192.744857 99.6569049,213.388649 C99.6569049,213.388649 129.726715,237.750216 154.032546,230.729254 C175.321504,224.564507 190.913923,209.242766 188.809756,187.404779 Z" id="Shape" fill="url(#linearGradient-12)" fill-rule="nonzero"></path>
                    <path d="M188.812621,187.445501 C188.1411,180.771724 185.112207,174.551657 180.265092,169.892487 C174.454947,164.280575 164.180689,156.837123 147.121887,151.319946 C115.92295,141.237451 104.175762,132.372976 90.3981954,108.165967 L78.2431187,78.3244895 L78.2431187,92.0384866 L70.5385586,63 C70.5385586,63 67.094167,93.8519823 77.6267539,118.451465 C77.6267539,118.451465 72.3604604,122.885958 77.6267539,130.550458 C77.6267539,130.550458 65.0683208,128.533959 75.6009078,149.100444 L84.5155371,162.006939 C84.5155371,162.006939 75.6009078,166.039937 88.1412125,180.155429 L95.4333521,187.012428 C95.4333521,187.012428 78.0119819,192.660429 101.107534,212.820907 C101.107534,212.820907 130.683981,236.612887 154.586246,229.7604 C175.547182,223.760526 190.883788,208.796932 188.812621,187.445501 Z" id="Shape" fill="#DFE5EE" fill-rule="nonzero"></path>
                    <path d="M97.5357056,139.609856 L74,82 C74,82 76.4330064,109.394424 82.5200616,121.079527 C82.5200616,121.079527 74.8034368,115.843086 85.7655832,138.00107 C85.7655832,138.00107 62.2298776,120.277387 85.7655832,156.130329 L95.09816,164.994424 C95.09816,164.994424 78.5164951,157.941903 87.0864878,172.204669 C90.3532335,177.596058 94.8458321,182.153434 100.20475,185.512077 L107.27227,189.977922 C107.27227,189.977922 83.7365648,182.727119 99.1561968,204.078457 C99.1561968,204.078457 115.792332,219.792284 126.345951,221 C126.345951,221 99.1561968,203.677387 105.651779,197.233231 C112.147362,190.789074 130,202.055082 130,202.055082 C130,202.055082 98.3482208,180.302675 99.9732512,174.660658 C101.598282,169.018642 117.017914,181.911461 117.017914,181.911461 C117.017914,181.911461 84.5536192,150.889382 86.1786496,146.058518 C87.80368,141.227654 88.611656,140.822078 99.1652752,151.294959 C99.1652752,151.294959 85.3661344,131.957983 87.3951528,129.136975 C89.4241712,126.315967 97.5357056,139.609856 97.5357056,139.609856 Z" id="Shape" fill="#EBF1F6" fill-rule="nonzero"></path>
                    <path d="M177.336558,210 C177.336558,210 200.008733,183.318259 155.852405,167.94234 C144.646504,164.103677 133.764341,159.382567 123.308764,153.823629 C104.273897,143.638016 90.1803448,126.205537 84.2355371,105.493499 C83.1427382,101.654042 82.6394159,98.7597513 83.2878402,98 C83.2878402,98 96.6644236,133.577162 124.637354,146.108536 L161.524983,159.856416 C161.524983,159.856416 203.68616,175.639344 177.336558,210 Z" id="Shape" fill="#EBF1F6" fill-rule="nonzero"></path>
                    <path d="M201.191019,187.402777 C201.871343,180.572119 204.948602,174.204852 209.875164,169.434101 C215.78452,163.689352 226.231578,156.070237 243.604365,150.424612 C275.332301,140.102086 287.281432,131.023128 301.290294,106.268889 L313.62169,75.7023157 L313.62169,89.7375276 L321.451361,60 C321.451361,60 324.954701,91.5803531 314.255799,116.771644 C314.255799,116.771644 319.611996,121.313375 314.255799,129.157774 C314.255799,129.157774 327.027923,127.09417 316.315528,148.149241 L307.249119,161.359912 C307.249119,161.359912 316.320026,165.491626 303.53441,179.950373 L296.118483,186.970231 C296.118483,186.970231 313.837556,192.751027 290.348541,213.391574 C290.348541,213.391574 260.271088,237.749313 235.95908,230.729454 C214.6827,224.556664 199.08182,209.237332 201.191019,187.402777 Z" id="Shape" fill="url(#linearGradient-13)" fill-rule="nonzero"></path>
                    <path d="M203.187395,187.445501 C203.856528,180.772929 206.882362,174.553021 211.726511,169.892487 C217.537098,164.280575 227.812138,156.837123 244.87224,151.319946 C276.073553,141.237451 287.821635,132.372976 301.600251,108.165967 L313.756253,78.3244895 L313.756253,92.0384866 L321.4614,63 C321.4614,63 324.906054,93.8519823 314.372665,118.451465 C314.372665,118.451465 319.63936,122.885958 314.372665,130.550458 C314.372665,130.550458 326.932055,128.533959 316.398666,149.100444 L307.483357,162.006939 C307.483357,162.006939 316.398666,166.039937 303.857406,180.155429 L296.564711,187.012428 C296.564711,187.012428 313.987408,192.660429 290.890097,212.820907 C290.890097,212.820907 261.311397,236.612887 237.407312,229.7604 C216.453845,223.760526 201.11607,208.796932 203.187395,187.445501 Z" id="Shape" fill="#DFE5EE" fill-rule="nonzero"></path>
                    <path d="M294.466202,139.613591 L318,82 C318,82 315.567191,109.3962 309.480629,121.082061 C309.480629,121.082061 317.196628,115.845281 306.23537,138.004701 C306.23537,138.004701 329.769168,120.279869 306.23537,156.135136 L296.899011,164.995299 C296.899011,164.995299 313.479332,157.942321 304.910034,172.206011 C301.643553,177.597751 297.151319,182.155421 291.792835,185.514282 L284.725888,189.980417 C284.725888,189.980417 308.246069,182.724638 292.841303,204.07736 C292.841303,204.07736 276.206516,219.792206 265.653753,221 C265.653753,221 292.841303,203.676264 286.346247,197.23169 C279.851191,190.787115 262,202.067373 262,202.067373 C262,202.067373 293.649214,180.313556 292.024315,174.671173 C290.399416,169.028791 274.981034,181.922446 274.981034,181.922446 C274.981034,181.922446 307.442697,150.898356 305.817799,146.067179 C304.1929,141.236002 303.384989,140.830399 292.832226,151.303959 C292.832226,151.303959 306.630248,131.96573 304.601394,129.144538 C302.57254,126.323347 294.466202,139.613591 294.466202,139.613591 Z" id="Shape" fill="#EBF1F6" fill-rule="nonzero"></path>
                    <path d="M214.664418,210 C214.664418,210 191.991387,183.318259 236.149381,167.94234 C247.355705,164.103677 258.238279,159.382567 268.69425,153.823629 C287.728114,143.637078 301.820456,126.204731 307.764416,105.493499 C308.857256,101.654042 309.360598,98.7597513 308.712149,98 C308.712149,98 295.335061,133.577162 267.361076,146.108536 L230.472055,159.856416 C230.472055,159.856416 188.313821,175.639344 214.664418,210 Z" id="Shape" fill="#EBF1F6" fill-rule="nonzero"></path>
                    <path d="M185,234 C185.268338,234.282381 185.674903,234.3393 186,234.14 C185.662146,234.147554 185.325136,234.100373 185,234 Z" id="Shape" fill="url(#linearGradient-14)" fill-rule="nonzero"></path>
                    <path d="M240.319609,144.06166 C239.347972,143.778311 237.956046,143.319554 236.283926,142.74386 C238.02287,140.517442 239.295291,137.966428 240.025858,135.241845 L239.881243,135.295816 C239.930954,135.129405 239.980666,134.962993 240.025858,134.796582 C236.817197,136.091894 233.246996,133.897059 230.987375,131.07256 C228.727754,128.24806 227.191212,124.748919 224.714668,122.149299 C223.680615,121.117176 222.568642,120.165396 221.388506,119.302312 C220.656389,118.74011 219.870041,118.155421 218.97975,118.128435 C217.533593,118.087957 216.403783,119.477718 215.007337,119.92748 C214.090495,120.132443 213.135873,120.096797 212.237042,119.824034 C208.648764,119.005469 205.182506,117.489774 201.535478,117.093985 C199.575142,116.853202 197.585379,117.076653 195.728252,117.746138 C193.888921,118.443268 193.048342,119.824034 191.556992,120.934944 C189.952662,122.126811 186.757558,122.099826 184.868515,122.311213 C182.575076,122.571222 180.265753,122.665918 177.958595,122.594563 C176.631866,122.480921 175.296113,122.530772 173.981662,122.742984 C171.238482,123.341166 169.010496,125.513512 166.972318,127.600404 C166.412592,128.069718 166.00917,128.697048 165.815392,129.399448 C165.788999,129.597977 165.788999,129.799102 165.815392,129.997631 C165.794689,130.540214 165.888604,131.081084 166.091066,131.585287 C166.724914,133.456759 167.621032,135.229818 168.752899,136.85199 C169.593478,138.048354 170.560596,139.177255 171.048674,140.594002 C171.274607,141.290335 171.39345,142.016662 171.401175,142.748358 C171.377658,143.525402 171.296086,144.299629 171.157136,145.064628 C170.793614,147.179028 170.196465,149.246982 169.376555,151.230852 C168.924631,152.283293 168.436553,153.335734 168.337129,154.487123 C168.321713,154.716244 168.321713,154.946136 168.337129,155.175257 C168.201552,158.732867 171.807907,161.292008 172.50387,164.82713 C172.560639,165.123916 172.593883,165.424683 172.603293,165.726653 C172.526466,167.930482 171.247521,170.089335 169.40367,170.939384 C169.566363,171.00235 169.733575,171.056322 169.900787,171.114791 C169.740912,171.214996 169.574881,171.305125 169.40367,171.384647 C169.742613,171.515078 170.090595,171.623021 170.443096,171.721968 C168.32555,173.544145 166.542513,175.718901 165.17366,178.149054 C158.946145,189.7349 116.546621,212.465826 116.546621,212.465826 C116.546621,212.465826 116.786141,212.596257 117.174795,212.821138 L116.664121,213.149463 C112.994497,215.578173 104.376303,222.666408 112.144879,231.625649 C112.144879,231.625649 118.227779,222.077221 122.484904,218.006883 C122.674712,217.826979 122.860001,217.65607 123.04529,217.498653 C123.234866,217.788472 123.293866,218.144042 123.207983,218.479132 L151.100742,202.881417 C151.100742,202.881417 161.011439,195.973087 163.777214,194.412416 C164.730774,193.8772 167.157607,192.388491 170.063479,191.713849 L169.738094,191.848778 C170.78111,191.564209 171.85631,191.413071 172.937717,191.399016 C177.877248,191.475476 183.223511,195.073565 184.986015,209.326494 C187.349578,228.414355 186.251403,231.855028 185.496689,232.327277 C185.410168,232.326269 185.323929,232.317235 185.239093,232.300291 C185.261323,232.320641 185.285546,232.338722 185.311401,232.354262 C185.208834,232.347002 185.107334,232.32891 185.008611,232.300291 C185.120758,232.399043 185.274773,232.4361 185.419862,232.399239 C185.52421,232.431989 185.63764,232.418901 185.73169,232.363258 C185.855113,232.370373 185.978845,232.370373 186.102268,232.363258 C186.102268,232.537165 186.090217,232.715571 186.066114,232.898473 C186.02996,232.898473 185.844671,232.997421 186.043518,233.010914 C185.984768,234.085843 185.989287,235.259719 186.043518,236.483069 C183.58957,236.617998 181.140141,236.761921 178.993501,236.892352 L179.183309,235.884887 L179.269175,235.435126 C181.153698,235.286705 182.938799,234.733499 183.151203,233.213306 C183.603127,229.871581 179.002539,228.090527 175.084357,227.865647 C171.166174,227.640766 147.652561,229.21493 147.652561,229.21493 C147.652561,229.21493 144.127552,233.757517 155.308156,235.165269 C155.639567,235.336179 155.984536,235.523579 156.343062,235.727471 C160.722207,238.21465 166.66501,242.784222 169.512132,245.042023 L169.909825,245.356856 L168.63088,246.368818 C175.54532,247.929489 182.229278,274.222524 185.921498,286.253633 C189.613719,298.284743 197.671526,297.839479 204.364523,296.058425 C210.628192,294.385314 211.428098,276.268937 211.504925,274.020131 L211.504925,273.786255 L222.644855,287.454495 L223.489953,288.493443 C223.815339,288.661354 224.136205,288.82027 224.452552,288.97019 C232.889976,292.964069 242.208652,285.304637 239.555857,276.592765 C236.875947,267.79094 232.718245,254.783849 229.94343,249.278773 C227.62054,244.673219 224.619764,237.022783 222.798509,232.228329 C223.034487,232.134033 223.263959,232.024353 223.485434,231.900004 C223.485434,231.900004 223.444761,231.684118 223.372453,231.292826 L223.485434,231.22986 C223.485434,231.22986 220.805524,217.368222 220.656389,207.522952 C220.656389,207.349044 220.656389,207.176636 220.656389,207.005727 C220.656389,206.897784 220.656389,206.794339 220.656389,206.686396 C222.671971,206.236635 223.946397,206.052233 223.946397,206.052233 L223.982551,205.602472 L223.74755,205.651946 L224.868322,192.883228 C224.868322,192.883228 228.980832,184.171355 225.83092,180.541783 C224.872643,179.482277 224.232255,178.176467 223.982551,176.772785 C223.458319,173.435558 223.982551,167.872013 231.321799,163.248469 C242.619903,156.119755 246.999048,150.326832 246.999048,150.326832 C246.999048,150.326832 247.234049,146.067595 240.319609,144.06166 Z M217.890613,152.917456 L217.890613,147.016591 C219.987541,146.913146 222.125142,147.156017 224.217551,147.016591 C225.251494,146.945926 226.276124,146.775721 227.277078,146.508361 L227.783233,146.859174 C224.706616,149.215853 221.391091,151.246295 217.890613,152.917456 Z M185.862748,245.401832 C186.694288,245.973029 187.525829,246.566713 188.343812,247.160398 C188.849967,250.070352 189.301891,252.10777 189.333526,252.269684 C188.398925,249.875658 187.236723,247.575934 185.862748,245.401832 Z" id="Shape" fill="url(#linearGradient-15)" fill-rule="nonzero"></path>
                    <path d="M204,241 L203.508059,243.646058 L203.134548,245.668982 L202.446741,249.371657 L195.778206,254 C195.778206,254 195.176945,253.494269 194.183952,252.686002 C191.450946,250.455366 185.707078,245.912817 181.489138,243.47447 C180.404204,242.789094 179.230443,242.25288 178,241.880514 L204,241 Z" id="Shape" fill="#FFBDC6" fill-rule="nonzero"></path>
                    <path d="M204,241 L203.508231,243.964143 C202.038269,244.055412 200.563736,243.972324 199.109632,243.716288 L183.555166,243.964143 C182.817513,243.913561 182.129947,243.852862 181.487916,243.776988 C180.403362,243.009222 179.230012,242.408549 178,241.99142 L204,241 Z" id="Shape" fill="#000000" fill-rule="nonzero" opacity="0.1"></path>
                    <path d="M197.930306,242.757615 C197.930306,242.757615 205.538098,243.983758 205.970156,240.920492 C206.402215,237.857226 202.059359,236.225158 198.362365,236.020103 C194.66537,235.815049 172.496763,237.246247 172.496763,237.246247 C172.496763,237.246247 168.585966,242.146636 182.710268,242.96267 L197.930306,242.757615 Z" id="Shape" fill="#7679B4" fill-rule="nonzero"></path>
                    <path d="M204,241 L203.508059,243.646058 L203.134548,245.668982 L202.446741,249.371657 L195.778206,254 C195.778206,254 195.176945,253.494269 194.183952,252.686002 C191.450946,250.455366 185.707078,245.912817 181.489138,243.47447 C180.404204,242.789094 179.230443,242.25288 178,241.880514 L204,241 Z" id="Shape" fill="#000000" fill-rule="nonzero" opacity="0.1"></path>
                    <path d="M204,241 L203.508231,243.964143 C202.038269,244.055412 200.563736,243.972324 199.109632,243.716288 L183.555166,243.964143 C182.817513,243.913561 182.129947,243.852862 181.487916,243.776988 C180.403362,243.009222 179.230012,242.408549 178,241.99142 L204,241 Z" id="Shape" fill="#000000" fill-rule="nonzero" opacity="0.1"></path>
                    <path d="M197.930306,242.757615 C197.930306,242.757615 205.538098,243.983758 205.970156,240.920492 C206.402215,237.857226 202.059359,236.225158 198.362365,236.020103 C194.66537,235.815049 172.496763,237.246247 172.496763,237.246247 C172.496763,237.246247 168.585966,242.146636 182.710268,242.96267 L197.930306,242.757615 Z" id="Shape" fill="#000000" fill-rule="nonzero" opacity="0.1"></path>
                    <rect id="Rectangle-path" fill="#A66477" fill-rule="nonzero" x="175" y="134" width="40" height="48"></rect>
                    <rect id="Rectangle-path" fill="#000000" fill-rule="nonzero" opacity="0.1" x="175" y="134" width="40" height="48"></rect>
                    <path d="M128,215.936897 C127.351847,216.102425 126.522916,216.737697 125.601391,217.659289 C121.633105,221.645397 115.949637,231 115.949637,231 C108.683264,222.218036 116.703611,215.28373 120.151611,212.894749 C120.984952,212.317636 121.544921,212 121.544921,212 L128,215.936897 Z" id="Shape" fill="#FFBDC6" fill-rule="nonzero"></path>
                    <path d="M203.430215,149 C203.430215,149 205.417932,162.532679 212.268537,165.755164 C219.119143,168.97765 203.430215,175 203.430215,175 L182,167.265154 C182,167.265154 194.152693,163.399932 191.721249,152.011175 L203.430215,149 Z" id="Shape" fill="#FFBDC6" fill-rule="nonzero"></path>
                    <path d="M180,233 L179.508059,235.646058 L179.134548,237.668982 L178.446741,241.371657 L171.778206,246 C171.778206,246 171.176945,245.494269 170.183952,244.686002 C167.450946,242.455366 161.707078,237.912817 157.489138,235.47447 C156.404204,234.789094 155.230443,234.25288 154,233.880514 L180,233 Z" id="Shape" fill="#FFBDC6" fill-rule="nonzero"></path>
                    <path d="M180,233 L179.508231,235.964143 C178.038269,236.055412 176.563736,235.972324 175.109632,235.716288 L159.555166,235.964143 C158.817513,235.913561 158.129947,235.852862 157.487916,235.776988 C156.403362,235.009222 155.230012,234.408549 154,233.99142 L180,233 Z" id="Shape" fill="#000000" fill-rule="nonzero" opacity="0.1"></path>
                    <path d="M174.930306,234.757615 C174.930306,234.757615 182.538098,235.983758 182.970156,232.920492 C183.402215,229.857226 179.059359,228.225158 175.362365,228.020103 C171.66537,227.815049 149.496763,229.246247 149.496763,229.246247 C149.496763,229.246247 145.585966,234.146636 159.710268,234.96267 L174.930306,234.757615 Z" id="Shape" fill="#7679B4" fill-rule="nonzero"></path>
                    <path d="M180,237.162853 L179.308397,241.090474 L172.603053,246 C172.603053,246 171.998473,245.463544 171,244.606173 L179.867176,237 L180,237.162853 Z" id="Shape" fill="#000000" fill-rule="nonzero" opacity="0.1"></path>
                    <path d="M222.163084,288.092472 C221.863007,287.945726 221.562931,287.795985 221.262854,287.643249 L220.457148,286.623515 L209.829933,273.155829 L209.829933,273.384932 C209.757914,275.631044 208.99722,293.429233 203.028695,295.073387 C196.659567,296.825354 188.971603,297.265592 185.474209,285.428583 C181.976816,273.591575 175.571679,247.725353 169,246.193505 L178.771997,238.192855 C178.771997,238.192855 185.244651,245.748774 187.886826,252.981254 C187.787801,252.532032 183.318158,231.683623 187.009102,228 L219.05729,228 C219.05729,228 224.008555,242.069643 227.402423,249.041574 C230.044598,254.454703 234.010111,267.253048 236.562263,275.914054 C239.087408,284.485216 230.21114,292.023167 222.163084,288.092472 Z" id="Shape" fill="#7679B4" fill-rule="nonzero"></path>
                    <path d="M222,232.07208 C217.016219,235.032842 195.137422,233.827616 188.019678,233.345526 L186.085065,233.204537 C185.876652,233.204537 186.11678,233.086289 186.11678,233.086289 L186.316131,231.071516 L191.621592,217.532057 L220.029141,201 C219.453741,202.741892 219.258921,205.407032 219.304228,208.458755 C219.417495,218.268836 222,232.07208 222,232.07208 Z" id="Shape" fill="#000000" fill-rule="nonzero" opacity="0.1"></path>
                    <path d="M222,231.071283 C217.048762,234.033269 195.312828,232.827545 188.24156,232.345255 L186.31958,232.204208 L186,232.181459 L186.351088,232.090461 L188.084021,231.635471 L191.819955,216.538895 L220.042011,200 C219.470368,201.742613 219.276819,204.408855 219.32183,207.46184 C219.434359,217.262329 222,231.071283 222,231.071283 Z" id="Shape" fill="#F2F1F2" fill-rule="nonzero"></path>
                    <path d="M219.273892,207.372152 C213.48772,208.695359 200.753604,212.579466 195.861452,221.95443 C192.598505,228.201406 189.85291,230.879325 187.9378,232 L186,231.860478 L186.031767,231.74346 L187.778964,231.29339 L191.545649,216.360056 L220,200 C219.414576,201.710267 219.223972,204.347679 219.273892,207.372152 Z" id="Shape" fill="#000000" fill-rule="nonzero" opacity="0.1"></path>
                    <path d="M121.420225,212 L128,216.171021 C127.339326,216.346793 126.494382,217.021378 125.555056,218 C125.006742,216.308789 121.559551,213.947743 120,212.945368 C120.840449,212.332542 121.420225,212 121.420225,212 Z" id="Shape" fill="#000000" fill-rule="nonzero" opacity="0.1"></path>
                    <path d="M185,232.14 C184.670914,232.311335 184.269382,232.25512 184,232 C184.324873,232.094483 184.661671,232.141635 185,232.14 Z" id="Shape" fill="#000000" fill-rule="nonzero" opacity="0.1"></path>
                    <path d="M199.765682,165.65731 C199.765682,165.65731 193.852623,166.315665 189.686095,161.914602 C189.686095,161.914602 172.175897,166.974021 166.244879,178.418588 C160.313861,189.863156 120,212.305872 120,212.305872 C120,212.305872 127.008569,216.265025 126.353059,218.244601 L152.842844,202.840881 C152.842844,202.840881 162.271412,196.018331 164.893451,194.480665 C167.515491,192.942998 181.981608,183.478007 185.048137,209.22152 C188.114667,234.965033 185.048137,231.885191 185.048137,231.885191 C185.048137,231.885191 189.430176,233.427366 195.783235,221.103488 C202.136294,208.77961 221.891388,205.916214 221.891388,205.916214 L222.986898,192.93398 C222.986898,192.93398 226.897508,184.330262 223.884856,180.758908 C222.970017,179.702957 222.362612,178.414223 222.129347,177.034238 C221.63098,173.73795 222.129347,168.24564 229.101997,163.682242 C239.837095,156.643247 243.999134,150.920963 243.999134,150.920963 C243.999134,150.920963 244.219134,146.740855 237.646075,144.761279 C231.073017,142.781702 204.345272,132 204.345272,132 L203.447314,135.742707 L224.477509,150.704518 C224.477509,150.704518 213.962411,159.272161 205.620374,159.064734 C205.683231,159.055715 207.214251,165.436355 199.765682,165.65731 Z" id="Shape" fill="#565388" fill-rule="nonzero"></path>
                    <path d="M204,155.778277 C203.486006,153.881973 203.083817,151.951962 202.795883,150 L191.263122,153.310875 C191.768095,155.70432 191.677273,158.20079 191,160.543417 C195.820651,161.941957 200.942953,160.064382 204,155.778277 Z" id="Shape" fill="#000000" fill-rule="nonzero" opacity="0.1"></path>
                    <circle id="Oval" fill="#FFBDC6" fill-rule="nonzero" cx="194.5" cy="146.5" r="12.5"></circle>
                    <path d="M201.198284,118.093442 C204.68814,118.485868 208.006217,119.983401 211.437307,120.799827 C212.295778,121.067287 213.21019,121.101541 214.086343,120.899062 C215.442505,120.488593 216.504832,119.094804 217.888117,119.1354 C218.742499,119.162464 219.492909,119.739826 220.193593,120.294635 C221.318932,121.15077 222.376825,122.091741 223.357971,123.109276 C225.726734,125.675832 227.195909,129.130984 229.361248,131.923072 C231.526587,134.71516 234.930553,136.884779 238,135.603757 C235.911511,143.722914 229.071933,149.907005 221.671809,150.412197 C218.719897,150.615176 215.695655,149.997218 212.838674,150.863261 C212.126888,151.153203 211.375755,151.335634 210.610048,151.404538 C208.964571,151.404538 207.640053,149.897984 206.613891,148.432025 C204.208963,144.985894 202.305816,141.075166 199.598012,137.931248 C198.693904,136.893801 197.64966,135.90597 196.383908,135.716523 C195.118157,135.527076 193.956378,136.126991 192.830764,136.708864 C190.972822,137.669631 189.069675,138.661973 187.632143,140.317378 C186.194611,141.972784 185.285983,144.422063 185.878173,146.632278 C186.199132,147.832109 186.931459,148.914663 186.945021,150.168622 C186.967624,152.166837 185.200092,153.632796 184.84749,155.581393 C184.770239,156.399924 184.741559,157.222296 184.7616,158.044204 C184.607902,160.714505 182.858453,162.902166 181.032154,164.580126 C180.32243,165.234169 179.535856,165.933318 179.327911,166.939192 C179.187774,167.62932 179.327911,168.355534 179.2375,169.054683 C178.970788,170.78677 177.239421,171.666345 175.706958,171.891877 C173.91644,172.15394 172.088297,171.937596 170.408885,171.264898 C172.551621,170.250003 173.867099,167.376724 173.37436,164.796636 C172.691758,161.224207 169.093408,158.662162 169.396284,155.022074 C169.565153,153.906545 169.900371,152.822511 170.390803,151.805985 C171.176739,149.841716 171.748123,147.798615 172.095047,145.712107 C172.361759,144.101808 172.492854,142.392274 171.991074,140.854145 C171.53902,139.455846 170.594228,138.341717 169.794092,137.159929 C168.714491,135.554031 167.862591,133.806906 167.26259,131.968179 C167.042977,131.421917 166.95922,130.83071 167.01848,130.245113 C167.200243,129.553829 167.586126,128.933052 168.126013,128.463409 C170.096968,126.402046 172.194499,124.25498 174.829974,123.668596 C176.087475,123.459666 177.366501,123.411164 178.636268,123.524256 C180.844685,123.594845 183.055305,123.501367 185.249818,123.244596 C187.058034,123.032596 190.113919,123.06417 191.650903,121.891403 C193.079394,120.795317 193.879529,119.428592 195.64254,118.733953 C197.415154,118.074711 199.321711,117.854907 201.198284,118.093442 Z" id="Shape" fill="#000000" fill-rule="nonzero" opacity="0.1"></path>
                    <path d="M208,248 C208,248 214.630369,261.764706 212.620667,266" id="Shape" fill="#000000" fill-rule="nonzero" opacity="0.1"></path>
                    <path d="M220.564541,286 L210.085977,272.886167 L210.085977,273.109624 C210.085977,273.109624 209.481871,268.868331 211.476307,270.292319 C215.847188,273.411947 222.83882,278.525159 222.989847,279.405841 C223.140873,280.286523 221.572864,283.822394 220.564541,286 Z" id="Shape" fill="#000000" fill-rule="nonzero" opacity="0.1"></path>
                    <g id="Group" opacity="0.1" transform="translate(120.000000, 132.000000)" fill="#000000" fill-rule="nonzero">
                        <path d="M86.4361506,27.0344255 C86.4361506,27.0344255 87.3399163,30.7422095 84.425272,32.5961016 C88.8989121,31.8311461 89.0977406,28.3663479 88.9441004,26.8589357 C88.1150252,26.9916149 87.2757122,27.0503445 86.4361506,27.0344255 Z" id="Shape"></path>
                        <path d="M2.64803347,79.2898821 C2.64803347,79.2898821 43.2180753,56.8946864 49.1919665,45.4743515 C53.4622594,37.2803288 63.7561506,32.3666149 69.2284519,30.2427386 C65.2383264,31.59266 51.812887,36.6773639 46.7698745,46.3518004 C40.8185774,57.7676355 0.225941423,80.167331 0.225941423,80.167331 L2.64803347,79.2898821 Z" id="Shape"></path>
                        <path d="M94.3215063,25.2885272 C101.226276,23.1511517 107.823766,17.8099627 107.823766,17.8099627 L86.6575732,2.87983228 L87.1410879,0.832451517 L85.1121339,0.0269984276 L84.2083682,3.76178091 L105.374561,18.6919114 C101.984742,21.3467472 98.2708245,23.5632646 94.3215063,25.2885272 Z" id="Shape"></path>
                        <path d="M94.4570711,75.8880802 C97.1680839,74.9655452 99.9504461,74.2657448 102.776234,73.7957021 L102.812385,73.3727267 C99.9659773,73.994108 97.1724411,74.8350975 94.4570711,75.8880802 Z" id="Shape"></path>
                        <path d="M68.7991632,98.8907405 L68.6048536,98.8907405 C68.4559076,98.9664442 68.2753125,98.9412677 68.1529707,98.8277442 C68.2999277,98.8695461 68.4520183,98.8907489 68.6048536,98.8907405 C69.3278661,98.4722649 70.4123849,95.1919559 68.1529707,76.2120613 C65.7173222,55.9632406 56.1554812,57.5426487 50.9226778,59.8735129 C56.2729707,58.4065983 63.6341423,59.6755244 65.7263598,77.0895102 C67.9857741,96.0694048 66.9193305,99.345214 66.1782427,99.7681894 C67.1184694,99.732914 68.0285061,99.428246 68.7991632,98.8907405 Z" id="Shape"></path>
                        <path d="M66.1737238,99.7726891 C66.0208886,99.7726975 65.868798,99.7514948 65.721841,99.7096928 C65.8441828,99.8232163 66.0247779,99.8483928 66.1737238,99.7726891 Z" id="Shape"></path>
                    </g>
                    <path d="M201.198284,118.095751 C204.68814,118.48816 208.006217,119.985629 211.437307,120.80202 C212.295778,121.069469 213.21019,121.103721 214.086343,120.90125 C215.442505,120.490799 216.504832,119.09707 217.888117,119.137664 C218.742499,119.164727 219.492909,119.742065 220.193593,120.29685 C221.318932,121.152948 222.376825,122.093879 223.357971,123.11137 C225.726734,125.677816 227.195909,129.132821 229.361248,131.924789 C231.526587,134.716757 234.930553,136.886283 238,135.605316 C235.911511,143.724125 229.071933,149.907951 221.671809,150.413121 C218.719897,150.616092 215.695655,149.99816 212.838674,150.864166 C212.126888,151.154096 211.375755,151.336519 210.610048,151.40542 C208.964571,151.40542 207.640053,149.89893 206.613891,148.433034 C204.208963,144.987051 202.305816,141.076491 199.598012,137.932708 C198.693904,136.895304 197.64966,135.907516 196.383908,135.718077 C195.118157,135.528638 193.956378,136.128528 192.830764,136.710376 C190.972822,137.671102 189.069675,138.6634 187.632143,140.318735 C186.194611,141.97407 185.285983,144.423244 185.878173,146.633365 C186.199132,147.833144 186.931459,148.915652 186.945021,150.169557 C186.967624,152.167686 185.200092,153.633582 184.84749,155.582097 C184.770239,156.400592 184.741559,157.222929 184.7616,158.044802 C184.607902,160.714988 182.858453,162.902556 181.032154,164.580443 C180.32243,165.234459 179.535856,165.933578 179.327911,166.939408 C179.187774,167.629507 179.327911,168.35569 179.2375,169.054809 C178.970788,170.786822 177.239421,171.66636 175.706958,171.891882 C173.91644,172.153934 172.088297,171.937599 170.408885,171.26493 C172.551621,170.250078 173.867099,167.376922 173.37436,164.796945 C172.691758,161.224669 169.093408,158.662734 169.396284,155.022801 C169.565153,153.90732 169.900371,152.823333 170.390803,151.80685 C171.176739,149.842665 171.748123,147.799652 172.095047,145.713233 C172.361759,144.103003 172.492854,142.393542 171.991074,140.855479 C171.53902,139.45724 170.594228,138.343158 169.794092,137.161421 C168.713745,135.552788 167.861822,133.802656 167.26259,131.960872 C167.042977,131.414634 166.95922,130.823453 167.01848,130.237881 C167.200243,129.546626 167.586126,128.925876 168.126013,128.456253 C170.096968,126.394978 172.194499,124.248004 174.829974,123.661645 C176.087475,123.452724 177.366501,123.404224 178.636268,123.517311 C180.844685,123.587898 183.055305,123.494424 185.249818,123.237663 C187.058034,123.025672 190.113919,123.057245 191.650903,121.884528 C193.079394,120.788489 193.879529,119.421823 195.64254,118.727214 C197.415907,118.071046 199.322443,117.85435 201.198284,118.095751 Z" id="Shape" fill="#A66477" fill-rule="nonzero"></path>
                </g>
            </g>
        </g>
    </g>
</svg>