<?xml version="1.0" encoding="UTF-8"?>
<svg width="509px" height="390px" viewBox="0 0 509 390" version="1.1" xmlns="http://www.w3.org/2000/svg" xmlns:xlink="http://www.w3.org/1999/xlink">
    <!-- Generator: Sketch 51 (57462) - http://www.bohemiancoding.com/sketch -->
    <title>teach-welcome</title>
    <desc>Created with Sketch.</desc>
    <defs>
        <linearGradient x1="50%" y1="100%" x2="50%" y2="-0.0029073148%" id="linearGradient-1">
            <stop stop-color="#808080" stop-opacity="0.25" offset="0%"></stop>
            <stop stop-color="#808080" stop-opacity="0.12" offset="54%"></stop>
            <stop stop-color="#808080" stop-opacity="0.1" offset="100%"></stop>
        </linearGradient>
        <linearGradient x1="50.3333703%" y1="99.9743653%" x2="50.3333703%" y2="-0.248692367%" id="linearGradient-2">
            <stop stop-color="#808080" stop-opacity="0.25" offset="0%"></stop>
            <stop stop-color="#808080" stop-opacity="0.12" offset="54%"></stop>
            <stop stop-color="#808080" stop-opacity="0.1" offset="100%"></stop>
        </linearGradient>
        <linearGradient x1="49.9955626%" y1="100.000496%" x2="49.9955626%" y2="-0.020624546%" id="linearGradient-3">
            <stop stop-color="#808080" stop-opacity="0.25" offset="0%"></stop>
            <stop stop-color="#808080" stop-opacity="0.12" offset="54%"></stop>
            <stop stop-color="#808080" stop-opacity="0.1" offset="100%"></stop>
        </linearGradient>
        <linearGradient x1="50%" y1="99.9955986%" x2="50%" y2="0%" id="linearGradient-4">
            <stop stop-color="#808080" stop-opacity="0.25" offset="0%"></stop>
            <stop stop-color="#808080" stop-opacity="0.12" offset="54%"></stop>
            <stop stop-color="#808080" stop-opacity="0.1" offset="100%"></stop>
        </linearGradient>
        <linearGradient x1="50.0017132%" y1="100%" x2="50.0017132%" y2="0%" id="linearGradient-5">
            <stop stop-color="#808080" stop-opacity="0.25" offset="0%"></stop>
            <stop stop-color="#808080" stop-opacity="0.12" offset="54%"></stop>
            <stop stop-color="#808080" stop-opacity="0.1" offset="100%"></stop>
        </linearGradient>
    </defs>
    <g id="Landing/Homeroom-Page-Redesign" stroke="none" stroke-width="1" fill="none" fill-rule="evenodd">
        <g id="Desktop-Copy-5" transform="translate(-445.000000, -79.000000)">
            <rect fill="#FFFFFF" x="0" y="0" width="1024" height="3287"></rect>
            <g id="teach-welcome" transform="translate(445.000000, 79.000000)">
                <path d="M29.3067103,200.574069 C46.5886441,222.533244 39.8746249,254.607302 28.8946586,280.301426 C25.2152792,288.904889 21.0608283,298.002469 22.5926912,307.226001 C24.4881291,318.503513 34.5615816,326.753342 45.1391916,331.122894 C64.4183643,339.091754 87.4932604,337.192791 105.211484,326.176871 C120.520417,316.657838 131.485841,301.180325 147.056548,292.097277 C173.117607,276.895889 206.285347,282.636375 234.58118,293.109734 C254.602046,300.516657 276.489264,310.151954 296.379243,302.410775 C310.374458,296.960946 320.050402,283.702119 325.324664,269.643984 C327.869689,262.861975 329.71665,255.513184 334.57886,250.131176 C337.487461,246.933943 341.239555,244.66197 345.103146,242.748475 C380.379621,225.270269 424.929683,234.629441 459.192995,215.247429 C482.330911,202.167841 497.145382,177.461952 503.704276,151.709696 C510.26317,125.957439 509.521476,98.9553558 507.834488,72.4377015 C506.651657,53.5885614 504.528379,33.4702168 492.477078,18.9228079 C479.727713,3.5373366 457.850191,-2.18861652 438.076556,0.737335836 C418.302922,3.66328819 400.376248,14.0882045 384.606787,26.3636404 C364.901019,41.7103574 346.620466,60.816245 322.425759,67.0556931 C305.94369,71.2896043 288.61328,68.9934099 271.617358,68.1698803 C243.20518,66.8280114 214.783307,69.8120953 186.526255,73.0723038 C159.476272,76.1968721 132.232382,79.6363194 106.462182,88.4287093 C88.2301058,94.6294031 73.6192367,105.926292 56.4003226,113.798266 C45.1779729,118.942905 32.9376131,120.362282 22.3066788,126.916609 C9.21797721,134.9872 -2.78484692,149.025958 0.569738827,165.452952 C3.75950388,181.085482 20.1349239,188.918702 29.3067103,200.574069 Z" id="Shape" fill="#70BF8E" fill-rule="nonzero" opacity="0.1"></path>
                <path d="M93,296 C93,296 91.3932842,248.682848 65.6420118,221.945946 C54.8331964,210.726515 47.7344338,196.47716 45.8550632,181.056492 C44.9765196,173.738095 44.7744295,166.355062 45.2513276,159" id="Shape" stroke="#535461" stroke-width="2"></path>
                <path d="M28.5137292,142.395884 C30.2611288,147.735799 44.8678444,160 44.8678444,160 C44.8678444,160 49.3425388,141.315187 47.5951393,135.980162 C45.8476302,130.642248 40.1594753,127.750128 34.8902896,129.52043 C29.6211038,131.290732 26.7662205,137.05308 28.5137292,142.390994 L28.5137292,142.395884 Z" id="Shape" fill="#70BF8E" fill-rule="nonzero"></path>
                <path d="M22.500988,176.376697 C26.9070527,179.802059 46,182 46,182 C46,182 39.6356842,164.345112 35.2296195,160.924507 C30.8253723,157.778584 24.6515576,158.568741 21.2356746,162.715524 C17.8197916,166.862307 18.3780195,172.88931 22.500988,176.376697 Z" id="Shape" fill="#70BF8E" fill-rule="nonzero"></path>
                <path d="M39.7282942,226.939313 C45.3142889,227.748706 63,220.194369 63,220.194369 C63,220.194369 48.3036306,207.918571 42.7176358,207.109177 C37.1330814,206.298962 31.9367187,210.085593 31.1112348,215.566856 C30.2857509,221.048118 34.1437398,226.148368 39.7282942,226.958584 L39.7282942,226.939313 Z" id="Shape" fill="#70BF8E" fill-rule="nonzero"></path>
                <path d="M62.0189729,261.607425 C67.3573156,263.335674 86,258.797813 86,258.797813 C86,258.797813 73.6871345,244.233212 68.3487918,242.504963 C63.011937,240.771958 57.26421,243.643312 55.5108839,248.918311 C53.7575579,254.19331 56.6625817,259.87442 61.9994364,261.607425 L62.0189729,261.607425 Z" id="Shape" fill="#70BF8E" fill-rule="nonzero"></path>
                <path d="M66.8360716,176.559943 C64.2066689,181.440281 47.4398938,191 47.4398938,191 C47.4398938,191 45.9147412,172.248979 48.5441439,167.363857 C50.2442545,164.206616 53.5584323,162.165587 57.2382586,162.009606 C60.918085,161.853624 64.4045067,163.606389 66.3842225,166.607649 C68.3639383,169.608909 68.5361822,173.402702 66.8360716,176.559943 Z" id="Shape" fill="#70BF8E" fill-rule="nonzero"></path>
                <path d="M91.1073371,217.886307 C87.2385531,221.760156 69,226 69,226 C69,226 73.1880063,207.785781 77.0520258,203.911933 C79.5534033,201.40716 83.204235,200.423953 86.6292879,201.332674 C90.0543409,202.241396 92.7332681,204.903991 93.6569436,208.317485 C94.5806191,211.730979 93.6087146,215.376782 91.1073371,217.881554 L91.1073371,217.886307 Z" id="Shape" fill="#70BF8E" fill-rule="nonzero"></path>
                <path d="M109.957323,261.098905 C106.719576,265.633574 89,273 89,273 C89,273 90.0662069,254.065344 93.3088453,249.52585 C95.3515929,246.461507 98.9252596,244.738976 102.6315,245.032269 C106.337741,245.325561 109.587268,247.588044 111.10857,250.934427 C112.629872,254.28081 112.181064,258.179024 109.93776,261.103729 L109.957323,261.098905 Z" id="Shape" fill="#70BF8E" fill-rule="nonzero"></path>
                <path d="M317.791222,263.890601 C317.791222,263.890601 310.127387,261.242527 306.440253,268.128504 C304.463193,271.922957 304.52509,276.484828 306.60434,280.222033 C309.017386,284.686351 314.017218,290.484551 323.495664,289.967733 C331.51663,289.529669 334.161328,283.288483 334.894894,277.480439 C335.459261,273.052228 333.724933,268.643359 330.316195,265.840841 C326.907457,263.038323 322.314952,262.24554 318.191788,263.747861 L317.791222,263.890601 Z" id="Shape" fill="#70BF8E" fill-rule="nonzero"></path>
                <path d="M308.243345,280.635693 C306.146582,276.985867 306.084164,272.530656 308.077875,268.824921 C311.796066,262.095137 319.524453,264.686104 319.524453,264.686104 L319.918659,264.546701 C322.865435,263.493619 326.104179,263.565622 329,264.748595 C325.764126,262.84558 321.835104,262.475142 318.293167,263.739127 L317.898961,263.87853 C317.898961,263.87853 310.170575,261.292369 306.452384,268.017347 C304.458672,271.723082 304.52109,276.178293 306.617853,279.828119 C308.228744,282.712312 310.958987,286.130081 315.377989,288 C312.36235,286.236295 309.894532,283.689038 308.243345,280.635693 Z" id="Shape" fill="#FFFFFF" fill-rule="nonzero" opacity="0.1"></path>
                <path d="M314,267 C314,267 316.918731,269.25 324,267" id="Shape" fill="#000000" fill-rule="nonzero" opacity="0.2"></path>
                <path d="M313,251 C313,251 317.67942,264.474768 317.289855,268 L321,267.585847 C321,267.585847 314.757681,255.7529 316.32058,251 L313,251 Z" id="Shape" fill="#70BF8E" fill-rule="nonzero"></path>
                <path d="M313,251 C313,251 317.67942,264.474768 317.289855,268 L321,267.585847 C321,267.585847 314.757681,255.7529 316.32058,251 L313,251 Z" id="Shape" fill="#000000" fill-rule="nonzero" opacity="0.2"></path>
                <path d="M333,251.981135 C333,251.981135 325.365385,248.02467 321.942308,251.294113 C318.519231,254.563557 318,262.919884 318,262.919884 C318,262.919884 330.456731,264.654492 333,251.981135 Z" id="Shape" fill="#70BF8E" fill-rule="nonzero"></path>
                <path d="M333,251.981135 C333,251.981135 325.365385,248.02467 321.942308,251.294113 C318.519231,254.563557 318,262.919884 318,262.919884 C318,262.919884 330.456731,264.654492 333,251.981135 Z" id="Shape" fill="#FFFFFF" fill-rule="nonzero" opacity="0.1"></path>
                <path d="M318,263 C318,263 320.00545,253.244543 333,252" id="Shape" stroke="#70BF8E"></path>
                <path d="M95.9377416,205 C95.9377416,205 97.4702756,179.50752 85.3282545,163.843581 C80.193703,157.306993 77.2775128,149.24851 77.0175685,140.878165 C76.9260773,136.902341 77.1920717,132.926333 77.8122157,129" id="Shape" stroke="#535461" stroke-width="2"></path>
                <path d="M70.1472235,119.715606 C70.8275824,122.667203 78.1793739,130 78.1793739,130 C78.1793739,130 81.6056417,120.216454 80.9057041,117.269719 C80.46853,115.358757 79.0383541,113.824656 77.1539099,113.245298 C75.2694657,112.66594 73.217045,113.129343 71.7697749,114.460947 C70.3225048,115.792552 69.70026,117.790056 70.1374341,119.701018 L70.1472235,119.715606 Z" id="Shape" fill="#70BF8E" fill-rule="nonzero"></path>
                <path d="M65.6678941,137.609433 C67.8493153,139.764983 78,142 78,142 C78,142 75.5160103,131.733821 73.3345891,129.583238 C71.9249654,128.189421 69.8917873,127.666846 68.0009335,128.212362 C66.1100797,128.757879 64.6488158,130.28861 64.1675859,132.227944 C63.6863559,134.167277 64.2582702,136.220583 65.6678941,137.6144 L65.6678941,137.609433 Z" id="Shape" fill="#70BF8E" fill-rule="nonzero"></path>
                <path d="M72.1838031,164.89291 C75.1109893,165.623328 85,162.378115 85,162.378115 C85,162.378115 77.7649714,154.892556 74.8182706,154.162138 C71.8692493,153.431147 68.8888495,155.240727 68.1613613,158.203948 C67.4338732,161.167169 69.2347817,164.161919 72.1838031,164.89291 Z" id="Shape" fill="#70BF8E" fill-rule="nonzero"></path>
                <path d="M82.3037063,185.530212 C85.0128183,186.741148 95,185.228694 95,185.228694 C95,185.228694 89.3065948,176.688925 86.5832492,175.502305 C84.8241188,174.672169 82.7645758,174.881886 81.1991627,176.050549 C79.6337497,177.219211 78.8071708,179.164136 79.0383087,181.134999 C79.2694465,183.105862 80.5221697,184.794578 82.3131953,185.549665 L82.3037063,185.530212 Z" id="Shape" fill="#70BF8E" fill-rule="nonzero"></path>
                <path d="M89.1106567,139.247256 C87.4533743,141.725632 78,146 78,146 C78,146 78.1716121,135.915903 79.8337977,133.437528 C81.4937796,130.961705 84.9161564,130.255206 87.4778902,131.859518 C90.039624,133.46383 90.7706385,136.771433 89.1106567,139.247256 Z" id="Shape" fill="#70BF8E" fill-rule="nonzero"></path>
                <path d="M99.9581205,162.688656 C97.560693,164.630793 87,166 87,166 C87,166 90.3533954,156.192206 92.7558279,154.259779 C95.1551732,152.330417 98.7125147,152.653228 100.701373,154.980798 C102.690231,157.308368 102.357465,160.759293 99.9581205,162.688656 Z" id="Shape" fill="#70BF8E" fill-rule="nonzero"></path>
                <path d="M107.691553,186.768787 C105.74776,188.997943 96,192 96,192 C96,192 97.5310367,182.10311 99.4796289,179.855102 C100.738213,178.413835 102.684242,177.741369 104.584665,178.091015 C106.485089,178.440662 108.051187,179.759301 108.693027,181.550214 C109.334867,183.341127 108.954936,185.332233 107.696353,186.773499 L107.691553,186.768787 Z" id="Shape" fill="#70BF8E" fill-rule="nonzero"></path>
                <path d="M70.1472235,119.715606 C70.8275824,122.667203 78.1793739,130 78.1793739,130 C78.1793739,130 81.6056417,120.216454 80.9057041,117.269719 C80.46853,115.358757 79.0383541,113.824656 77.1539099,113.245298 C75.2694657,112.66594 73.217045,113.129343 71.7697749,114.460947 C70.3225048,115.792552 69.70026,117.790056 70.1374341,119.701018 L70.1472235,119.715606 Z" id="Shape" fill="#FFFFFF" fill-rule="nonzero" opacity="0.5"></path>
                <path d="M65.6678941,137.609433 C67.8493153,139.764983 78,142 78,142 C78,142 75.5160103,131.733821 73.3345891,129.583238 C71.9249654,128.189421 69.8917873,127.666846 68.0009335,128.212362 C66.1100797,128.757879 64.6488158,130.28861 64.1675859,132.227944 C63.6863559,134.167277 64.2582702,136.220583 65.6678941,137.6144 L65.6678941,137.609433 Z" id="Shape" fill="#FFFFFF" fill-rule="nonzero" opacity="0.5"></path>
                <path d="M72.1838031,164.89291 C75.1109893,165.623328 85,162.378115 85,162.378115 C85,162.378115 77.7649714,154.892556 74.8182706,154.162138 C71.8692493,153.431147 68.8888495,155.240727 68.1613613,158.203948 C67.4338732,161.167169 69.2347817,164.161919 72.1838031,164.89291 Z" id="Shape" fill="#FFFFFF" fill-rule="nonzero" opacity="0.5"></path>
                <path d="M82.3037063,185.530212 C85.0128183,186.741148 95,185.228694 95,185.228694 C95,185.228694 89.3065948,176.688925 86.5832492,175.502305 C84.8241188,174.672169 82.7645758,174.881886 81.1991627,176.050549 C79.6337497,177.219211 78.8071708,179.164136 79.0383087,181.134999 C79.2694465,183.105862 80.5221697,184.794578 82.3131953,185.549665 L82.3037063,185.530212 Z" id="Shape" fill="#FFFFFF" fill-rule="nonzero" opacity="0.5"></path>
                <path d="M89.1106567,139.247256 C87.4533743,141.725632 78,146 78,146 C78,146 78.1716121,135.915903 79.8337977,133.437528 C81.4937796,130.961705 84.9161564,130.255206 87.4778902,131.859518 C90.039624,133.46383 90.7706385,136.771433 89.1106567,139.247256 Z" id="Shape" fill="#FFFFFF" fill-rule="nonzero" opacity="0.5"></path>
                <path d="M99.9581205,162.688656 C97.560693,164.630793 87,166 87,166 C87,166 90.3533954,156.192206 92.7558279,154.259779 C95.1551732,152.330417 98.7125147,152.653228 100.701373,154.980798 C102.690231,157.308368 102.357465,160.759293 99.9581205,162.688656 Z" id="Shape" fill="#FFFFFF" fill-rule="nonzero" opacity="0.5"></path>
                <path d="M107.691553,186.768787 C105.74776,188.997943 96,192 96,192 C96,192 97.5310367,182.10311 99.4796289,179.855102 C100.738213,178.413835 102.684242,177.741369 104.584665,178.091015 C106.485089,178.440662 108.051187,179.759301 108.693027,181.550214 C109.334867,183.341127 108.954936,185.332233 107.696353,186.773499 L107.691553,186.768787 Z" id="Shape" fill="#FFFFFF" fill-rule="nonzero" opacity="0.5"></path>
                <polygon id="Shape" fill="url(#linearGradient-1)" fill-rule="nonzero" points="245 10 245 18.3733574 245 176 490 176 490 18.3733574 490 10"></polygon>
                <rect id="Rectangle-path" fill="#FFFFFF" fill-rule="nonzero" x="248" y="17" width="238" height="156"></rect>
                <rect id="Rectangle-path" fill="#EEEEEE" fill-rule="nonzero" x="248" y="10" width="238" height="11"></rect>
                <circle id="Oval" fill="#FF5252" fill-rule="nonzero" cx="258" cy="16" r="3"></circle>
                <circle id="Oval" fill="#FFFF00" fill-rule="nonzero" cx="265" cy="16" r="3"></circle>
                <circle id="Oval" fill="#69F0AE" fill-rule="nonzero" cx="273" cy="16" r="3"></circle>
                <rect id="Rectangle-path" fill="#70BF8E" fill-rule="nonzero" opacity="0.5" x="258" y="40" width="89" height="4"></rect>
                <rect id="Rectangle-path" fill="#70BF8E" fill-rule="nonzero" opacity="0.5" x="258" y="47" width="89" height="4"></rect>
                <rect id="Rectangle-path" fill="#70BF8E" fill-rule="nonzero" opacity="0.5" x="258" y="55" width="89" height="4"></rect>
                <rect id="Rectangle-path" fill="#70BF8E" fill-rule="nonzero" opacity="0.5" x="288" y="62" width="58" height="4"></rect>
                <rect id="Rectangle-path" fill="#70BF8E" fill-rule="nonzero" opacity="0.5" x="258" y="69" width="47" height="4"></rect>
                <rect id="Rectangle-path" fill="#70BF8E" fill-rule="nonzero" opacity="0.5" x="283" y="77" width="36" height="4"></rect>
                <rect id="Rectangle-path" fill="#70BF8E" fill-rule="nonzero" opacity="0.5" x="358" y="66" width="105" height="60"></rect>
                <rect id="Rectangle-path" fill="#EEEEEE" fill-rule="nonzero" x="371" y="71" width="105" height="60"></rect>
                <path d="M430,131 L371,131 L371,120.148754 C385.415605,113.563566 407.593083,109.865362 430,131 Z" id="Shape" fill="#70BF8E" fill-rule="nonzero"></path>
                <g id="Group" opacity="0.1" transform="translate(401.000000, 115.000000)" fill="#000000" fill-rule="nonzero">
                    <path d="M72.9323179,14.4470588 L72.9323179,15.9623529 L0.0628476821,15.9623529 L0.0628476821,15.6376471 C0.0628476821,15.6376471 35.9198675,-18.3294118 72.9323179,14.4470588 Z" id="Shape"></path>
                </g>
                <path d="M475,129.463602 L475,131 L402,131 L402,130.670772 C402,130.670772 437.92125,96.2306424 475,129.463602 Z" id="Shape" fill="#70BF8E" fill-rule="nonzero"></path>
                <circle id="Oval" fill="#70BF8E" fill-rule="nonzero" cx="382.5" cy="82.5" r="5.5"></circle>
                <path d="M428.571386,78.2127825 C427.953964,78.2127825 427.263617,78.2127825 426.796904,78.2643398 C426.586021,78.2798503 426.377997,78.3363057 426.179482,78.4319013 L423,79.9463991 C425.566921,80.0301798 428.245659,80.0044011 430.87092,79.9463991 L445.620994,79.7981716 C447.123227,79.7981716 448.708106,79.7659483 449.962397,79.6434995 C450.803453,79.5661634 451.420875,79.4437147 452.193868,79.3534893 C454.984423,79.0248111 459.058438,79.0892578 462.69491,79.1021471 C466.331382,79.1150365 470.721401,78.9925877 472,78.5092373 L464.197143,78.5092373 C463.356087,78.5092373 462.471277,78.5092373 461.727453,78.4512353 C460.857228,78.3867886 460.327314,78.2578952 459.564044,78.1676698 C458.30003,78.025887 456.559579,78.006553 454.935807,78.0001083 C446.048814,77.9936636 437.263915,78.2772292 428.571386,78.2127825 Z" id="Shape" fill="#F4F4F4" fill-rule="nonzero"></path>
                <path d="M437.249084,85.0316049 C437.108059,85.0316049 436.95696,85.0316049 436.85119,85.0316049 C436.80468,85.0353034 436.758913,85.0454 436.715201,85.0616049 L436,85.3166049 C436.574176,85.3166049 437.178571,85.3166049 437.767857,85.3166049 L441.076923,85.2916049 C441.414377,85.2916049 441.766941,85.2916049 442.048993,85.2666049 L442.552656,85.2166049 C443.177198,85.1616049 444.093864,85.1716049 444.909799,85.1766049 C445.608112,85.1997689 446.307166,85.1663246 447,85.0766049 L445.247253,85.0766049 C445.055861,85.0766049 444.859432,85.0766049 444.693223,85.0766049 C444.527015,85.0766049 444.380952,85.0416049 444.18956,85.0316049 C443.907509,85.0316049 443.514652,85.0066049 443.152015,85.0016049 C441.167582,84.9916049 439.19826,85.0316049 437.249084,85.0316049 Z" id="Shape" fill="#F4F4F4" fill-rule="nonzero"></path>
                <path d="M415.249084,94.0303893 C415.108059,94.0303893 414.95696,94.0303893 414.85119,94.0303893 C414.80468,94.0340878 414.758913,94.0441843 414.715201,94.0603893 L414,94.3153893 C414.574176,94.3153893 415.178571,94.3153893 415.767857,94.3153893 L419.076923,94.2903893 C419.414377,94.2903893 419.766941,94.2903893 420.048993,94.2653893 L420.552656,94.2153893 C421.177198,94.1603893 422.093864,94.1703893 422.909799,94.1753893 C423.608112,94.1985532 424.307166,94.1651089 425,94.0753893 L423.247253,94.0753893 C423.055861,94.0753893 422.859432,94.0753893 422.693223,94.0753893 C422.527015,94.0753893 422.380952,94.0403893 422.18956,94.0303893 C421.907509,94.0303893 421.514652,94.0053893 421.152015,94.0003893 C419.172619,93.9953893 417.19826,94.0403893 415.249084,94.0303893 Z" id="Shape" fill="#F4F4F4" fill-rule="nonzero"></path>
                <path d="M401.395476,128 L399.075893,128 C399.075893,128 398.345985,100.490702 401.413387,92 L402,92 C402,92 399.935661,123.13097 401.395476,128 Z" id="Shape" fill="#70BF8E" fill-rule="nonzero"></path>
                <path d="M400.398019,90.8144014 C400.398019,90.8144014 398.298515,96.4720946 399.26904,99 C399.26904,99 400.724829,93.8141825 402.423249,93.0293281 C404.121669,92.2444736 405.889413,99 405.889413,99 C405.889413,99 406.879745,94.7579339 405.082292,91.2959072 C407.356244,92.6048157 409.204603,94.5106591 410.415232,96.7947034 C410.415232,96.7947034 410.73709,94.435325 406.538081,89.5721164 C406.538081,89.5721164 410.256779,90.535128 412.678142,92.7163493 C412.678142,92.7163493 413.485263,90.9877435 408.474181,88.1564894 C408.474181,88.1564894 409.122848,86.1149048 413,87.0586562 C413,87.0586562 413,84.386299 406.859939,84.8581747 C406.859939,84.8581747 406.859939,83.1295688 410.900495,83.4425476 C410.900495,83.4425476 410.900495,81.2420661 406.211271,82.0269206 C406.211271,82.0269206 407.201603,80.6112935 407.825513,80.2983147 C407.016637,80.2260453 406.20927,80.4510942 405.562603,80.9290873 C405.562603,80.9290873 405.726008,78.0978332 403.299693,77 L402.977835,80.9290873 C402.977835,80.9290873 400.259373,77.8137448 400.878331,78.4156271 C401.268514,79.3628524 401.437636,80.3824814 401.373497,81.400963 C401.373497,81.400963 398.625324,79.2004815 395.233436,81.5598599 C395.233436,81.5598599 399.437397,81.8728387 400.081113,83.2884657 C400.081113,83.2884657 396.525819,82.6576931 395.718698,83.1295688 C395.718698,83.1295688 398.466871,84.0925804 398.303466,84.6992777 C398.303466,84.6992777 393.455789,84.6992777 392.807121,86.4278836 C392.807121,86.4278836 397.818203,87.0586562 398.140061,87.5257168 C398.140061,87.5257168 392.321858,91.613701 392,92.7115343 C392,92.7115343 397.981608,89.2543226 398.932327,89.2543226 C399.883046,89.2543226 394.569913,94.2860582 394.891771,95.5427884 C394.906626,95.5379733 399.26904,90.4966076 400.398019,90.8144014 Z" id="Shape" fill="#70BF8E" fill-rule="nonzero"></path>
                <path d="M433.389858,128 L434.94929,128 C434.94929,128 435.436613,106.604097 433.389858,100 L433,100 C433,100 434.360604,124.205218 433.389858,128 Z" id="Shape" fill="#70BF8E" fill-rule="nonzero"></path>
                <path d="M434.599013,98.6639908 C434.599013,98.6639908 436.198026,103.050459 435.462677,105 C435.462677,105 434.357187,100.988819 433.064158,100.379587 C431.771129,99.7703555 430.418877,105 430.418877,105 C430.418877,105 429.678593,101.719897 431.03578,99.0441514 C429.303545,100.056872 427.895734,101.531641 426.97409,103.299025 C426.97409,103.299025 426.727329,101.476204 429.935225,97.7087156 C429.935225,97.7087156 427.102406,98.4397936 425.256632,100.145642 C425.256632,100.145642 424.639729,98.8102064 428.454658,96.6218463 C428.454658,96.6218463 427.961135,95.0427179 425,95.768922 C425,95.768922 425,93.7024083 429.678593,94.0679472 C429.678593,94.0679472 429.678593,92.7325115 426.603948,92.9762041 C426.603948,92.9762041 426.603948,91.2752294 430.172116,91.884461 C429.841836,91.3739455 429.426328,90.9224057 428.943245,90.5490252 C429.558931,90.492636 430.173618,90.6665737 430.665638,91.0364106 C430.665638,91.0364106 430.542258,88.8480505 432.388032,88 L432.634793,91.0364106 C432.634793,91.0364106 434.702653,88.6287271 434.233806,89.0868693 C433.938811,89.820393 433.81239,90.6094438 433.863664,91.3970757 C433.863664,91.3970757 435.9562,89.6961009 438.542258,91.518922 C438.542258,91.518922 435.344232,91.7626147 434.850709,92.8543578 C434.850709,92.8543578 437.560148,92.3669725 438.172116,92.7325115 C438.172116,92.7325115 436.079581,93.4635894 436.198026,93.9461009 C436.198026,93.9461009 439.889574,93.9461009 440.383097,95.2815367 C440.383097,95.2815367 436.568168,95.768922 436.321407,96.134461 C436.321407,96.134461 440.763109,99.2927179 441,100.145642 C441,100.145642 436.444787,97.4698968 435.709439,97.4698968 C434.97409,97.4698968 439.030845,101.368979 438.784084,102.34375 C438.784084,102.309633 435.462677,98.4202982 434.599013,98.6639908 Z" id="Shape" fill="#70BF8E" fill-rule="nonzero"></path>
                <path d="M456.391177,123 L457.949574,123 C457.949574,123 458.43539,110.022901 456.391177,106 L456,106 C456,106 457.362809,120.697766 456.391177,123 Z" id="Shape" fill="#70BF8E" fill-rule="nonzero"></path>
                <path d="M457.000996,105.29801 C457.000996,105.29801 457.997012,107.870893 457.538845,109 C457.538845,109 456.846614,106.639981 456.044821,106.283665 C455.243028,105.927348 454.391434,109 454.391434,109 C454.137305,107.823064 454.270942,106.602276 454.7749,105.496992 C453.691613,106.092762 452.811261,106.960508 452.23506,108.000463 C452.23506,108.000463 452.080677,106.926886 454.082669,104.714947 C453.009582,104.992268 452.012814,105.479822 451.159363,106.14484 C451.159363,106.14484 450.775896,105.358168 453.151394,104.071726 C453.151394,104.071726 452.842629,103.146229 451,103.571957 C451,103.571957 451,102.354928 453.923307,102.57242 C453.923307,102.57242 453.923307,101.785747 452.000996,101.929199 C452.000996,101.929199 452.000996,100.929662 454.232072,101.285979 C454.02629,100.985238 453.766946,100.719218 453.465139,100.499306 C453.849656,100.467016 454.233288,100.569337 454.540837,100.78621 C454.503223,100.048858 454.920538,99.3559004 455.616534,99 L455.770916,100.78621 C455.770916,100.78621 457.065737,99.370199 456.766932,99.6432207 C456.583659,100.073883 456.50542,100.536945 456.537849,100.999075 C457.416205,100.402743 458.616723,100.431249 459.461155,101.068487 C459.461155,101.068487 457.469124,101.211939 457.155378,101.85516 C457.155378,101.85516 458.848606,101.568255 459.232072,101.785747 C459.232072,101.785747 457.922311,102.216104 458.001992,102.49838 C458.001992,102.49838 460.307769,102.49838 460.616534,103.285053 C460.616534,103.285053 458.231076,103.571957 458.076693,103.784822 C458.076693,103.784822 460.845618,105.635817 461,106.14484 C461,106.14484 458.156375,104.571495 457.693227,104.571495 C457.23008,104.571495 459.76992,106.857473 459.615538,107.431282 C459.640438,107.440537 457.563745,105.154558 457.000996,105.29801 Z" id="Shape" fill="#70BF8E" fill-rule="nonzero"></path>
                <path d="M413,108.67438 L412.740994,107.297225 C412.740345,107.093 412.655767,106.897919 412.506891,106.757262 L411.306496,106.172714 C411.217059,106.065504 411.144814,105.945193 411.092318,105.816041 L411.092318,105.786318 C411.159214,105.703602 411.206844,105.607167 411.231783,105.503952 C411.233911,105.477574 411.233911,105.451069 411.231783,105.424691 C411.467103,105.457816 411.686821,105.30048 411.729872,105.068018 L411.729872,105.038295 C411.682462,105.224538 411.51925,105.358807 411.32642,105.3702 C411.65948,105.148183 411.862253,104.778147 411.869337,104.379441 C411.869337,104.379441 411.869337,104.344764 411.869337,104.329903 C411.976831,104.264239 412.051105,104.156137 412.073554,104.032675 L412.073554,104.002953 C412.043671,104.120837 411.966172,104.221218 411.859375,104.280365 C411.850258,104.166791 411.825107,104.055059 411.784662,103.948461 L411.814547,103.948461 C412.059375,103.948461 412.257847,103.751069 412.257847,103.507573 C412.257847,103.507573 412.257847,103.507573 412.257847,103.477851 C412.242098,103.709668 412.048163,103.889544 411.814547,103.889015 L411.759757,103.889015 C412.025904,103.804051 412.219529,103.57489 412.257847,103.299514 C412.257847,103.299514 412.257847,103.299514 412.257847,103.269791 C412.252057,103.356082 412.220878,103.438773 412.168191,103.507573 C412.203952,103.265446 412.035585,103.04033 411.792133,103.004763 C411.548681,102.969197 411.322334,103.136647 411.286572,103.378775 L411.206878,103.334191 C411.257927,103.151856 411.420294,103.02227 411.610331,103.012194 L411.580445,103.012194 C411.387902,103.008211 411.214799,103.128323 411.152088,103.309422 C410.598814,103.053512 409.940529,103.241475 409.608011,103.750309 C409.513374,103.819662 409.393833,103.918738 409.398814,104.002953 C409.359778,104.042364 409.324743,104.085506 409.294215,104.131751 C409.162719,104.418327 409.114412,104.735762 409.15475,105.048203 C409.190187,105.363487 409.071671,105.676583 408.835973,105.890348 C408.941079,105.934386 409.059605,105.934386 409.164712,105.890348 C409.268167,105.847343 409.365336,105.790692 409.453603,105.721919 C409.535213,105.673345 409.604964,105.607358 409.65782,105.528721 C409.715795,105.56638 409.77756,105.597925 409.842113,105.622843 C409.867018,105.830902 409.871999,106.068684 409.782342,106.142991 L409.782342,106.103361 C409.558729,106.27202 409.279835,106.351522 409.000342,106.326282 C408.664533,106.345336 408.361069,106.531641 408.193437,106.821661 L407.81987,108.411829 L407.81987,108.436597 L407.81987,108.461366 C407.830139,108.505702 407.864948,108.540322 407.909526,108.550535 L408.024087,108.580257 C408.062868,108.833224 408.061187,109.090698 408.019106,109.343142 C407.940329,109.728233 407.895332,110.119401 407.884622,110.512237 C407.914507,110.710389 407.964316,111.73087 407.98424,112.216342 C407.942741,112.379711 407.909494,112.545044 407.884622,112.711721 L407.326762,116.035716 C407.326762,116.035716 406.913347,118.695903 406.933271,119.503371 L406.858558,119.969028 C406.858558,119.969028 405.727895,121.380859 406.061615,121.579011 C406.395334,121.777163 406.903386,121.866331 407.391513,121.113354 C407.456704,120.936394 407.562434,120.776965 407.700329,120.647698 C407.811316,120.551114 407.868782,120.407308 407.854736,120.261302 L407.81987,119.934351 L407.879641,119.934351 L407.914507,119.934351 C408.221648,118.931409 408.389235,117.891357 408.412597,116.843185 C408.412597,116.843185 409.443642,113.187285 410.230623,112.612645 L410.305336,112.577969 L410.474687,116.114977 L410.305336,120.018566 L410.27047,120.251394 C410.27047,120.251394 409.139807,121.663225 409.473527,121.861377 C409.807247,122.059529 410.315298,122.148697 410.803426,121.39572 C410.868616,121.21876 410.974347,121.059331 411.112241,120.930064 C411.223228,120.83348 411.280695,120.689674 411.266649,120.543668 L411.21684,120.048289 C411.411095,119.394388 411.914165,117.497085 411.714929,116.402297 L412.058611,114.06906 C412.407274,113.682664 412.357465,112.69686 412.357465,112.69686 C412.631414,112.132127 412.691185,109.90292 412.691185,109.90292 L412.760917,108.803178 L412.915325,108.803178 L412.970115,108.803178 L412.995019,108.773455 L412.995019,108.748686 L413,108.67438 Z M412.033707,110.90854 C412.003821,110.834233 411.968955,110.754973 411.929108,110.680666 L411.899222,110.680666 L411.899222,110.650943 L411.899222,110.626174 L411.899222,110.596451 C411.914915,110.559349 411.928225,110.521293 411.93907,110.482514 C411.983456,110.411207 412.005959,110.32857 412.003821,110.244732 C412.053439,110.462319 412.070226,110.686039 412.05363,110.90854 L412.033707,110.90854 Z M411.929108,109.96732 L411.859375,109.229204 L411.859375,109.169759 L411.954012,110.106026 L411.929108,109.96732 Z M408.646699,110.066395 C408.599811,110.121238 408.578137,110.193092 408.586928,110.264547 C408.586928,110.264547 408.586928,110.264547 408.586928,110.264547 C408.586764,110.339853 408.596816,110.414836 408.616813,110.487468 L408.507234,110.948171 L408.507234,110.066395 C408.577493,109.97301 408.639172,109.873534 408.691527,109.769168 C408.715704,109.86793 408.708748,109.971699 408.671603,110.066395 L408.646699,110.066395 Z" id="Shape" fill="url(#linearGradient-2)" fill-rule="nonzero"></path>
                <path d="M409.461671,104.300617 C409.329777,104.572161 409.281263,104.872994 409.321614,105.169114 C409.36038,105.469309 409.240206,105.768307 409,105.969302 C409.104588,106.010233 409.222213,106.010233 409.326801,105.969302 C409.430888,105.928162 409.5286,105.874002 409.617291,105.808288 C409.698498,105.761347 409.767599,105.698017 409.819597,105.622879 C409.869454,105.50526 409.885554,105.377378 409.866282,105.25206 C409.867185,105.031235 409.888009,104.810881 409.92853,104.593369 C409.92853,104.456751 410.089337,104.105449 409.92853,104.017624 C409.767723,103.929798 409.534294,104.193275 409.461671,104.300617 Z" id="Shape" fill="#72351C" fill-rule="nonzero"></path>
                <path d="M407.040876,119.068855 L406.924021,119.623741 C406.924021,119.623741 405.705397,120.737565 406.067089,120.891475 C406.428781,121.045385 406.974102,121.11829 407.497164,120.526951 C407.568182,120.388268 407.682473,120.263482 407.831034,120.162427 C407.95024,120.08644 408.012294,119.973521 407.997969,119.858657 L407.881115,119 L407.040876,119.068855 Z" id="Shape" fill="#333333" fill-rule="nonzero"></path>
                <path d="M410.040876,119.068855 L409.924021,119.623741 C409.924021,119.623741 408.705397,120.737565 409.067089,120.891475 C409.428781,121.045385 409.974102,121.11829 410.497164,120.526951 C410.568182,120.388268 410.682473,120.263482 410.831034,120.162427 C410.95024,120.08644 411.012294,119.973521 410.997969,119.858657 L410.881115,119 L410.040876,119.068855 Z" id="Shape" fill="#333333" fill-rule="nonzero"></path>
                <path d="M408.569876,111.290011 C408.569876,111.290011 408.083846,111.647691 407.884574,112.89957 L407.359662,116.022019 C407.169798,117.141393 407.049682,118.271367 407,119.405478 L407.884574,119.705156 C408.178841,118.765026 408.342368,117.789273 408.370604,116.805048 C408.370604,116.805048 409.435009,113.039742 410.178634,112.773899 L410.334164,116.099356 L410.168914,119.850161 L410.92712,120 C410.92712,120 411.695047,117.617078 411.452032,116.355532 L411.845716,113.672932 C412.100256,112.788673 412.038416,111.843977 411.670745,111 L408.569876,111.290011 Z" id="Shape" fill="#4D8AF0" fill-rule="nonzero"></path>
                <g id="Group" opacity="0.1" transform="translate(407.000000, 110.000000)" fill="#000000" fill-rule="nonzero">
                    <path d="M2.715,2.27 L2.715,2.21 C1.95,2.485 0.855,6.38 0.855,6.38 C0.835783949,7.38691409 0.677623672,8.38635244 0.385,9.35 L0.485,9.385 C0.787725632,8.41248777 0.955952711,7.40312529 0.985,6.385 C0.985,6.385 1.955,2.83 2.715,2.27 Z" id="Shape"></path>
                    <path d="M4.355,0.375 L4.25,0.375 C4.62381453,1.24578859 4.68562812,2.21891106 4.425,3.13 L4.02,5.905 C4.26,7.14 3.56,9.405 3.49,9.655 L3.59,9.655 C3.59,9.655 4.38,7.19 4.13,5.885 L4.535,3.11 C4.78971306,2.2045933 4.72617808,1.2392146 4.355,0.375 Z" id="Shape"></path>
                </g>
                <path d="M408.000037,108.234414 C407.998558,108.317451 408.041117,108.3903 408.101641,108.408333 C408.384986,108.498015 408.650637,108.668215 408.880605,108.907407 C409.315244,109.361111 408.423387,108 408.423387,108 L408.12422,108.090741 L408.000037,108.234414 Z" id="Shape" fill="#F55F44" fill-rule="nonzero"></path>
                <path d="M408.000037,108.234414 C407.998558,108.317451 408.041117,108.3903 408.101641,108.408333 C408.384986,108.498015 408.650637,108.668215 408.880605,108.907407 C409.315244,109.361111 408.423387,108 408.423387,108 L408.12422,108.090741 L408.000037,108.234414 Z" id="Shape" fill="#000000" fill-rule="nonzero" opacity="0.1"></path>
                <path d="M411,110 C411.270947,109.621926 411.585331,109.379104 411.915612,109.292807 C411.962218,109.292807 412,109.219175 412,109.128344 C411.809276,108.958757 411.590345,108.957164 411.398977,109.123972 C411.207608,109.290779 411.062276,109.609884 411,110 Z" id="Shape" fill="#F55F44" fill-rule="nonzero"></path>
                <path d="M412,109.128344 C411.809276,108.958757 411.590345,108.957164 411.398977,109.123972 C411.207608,109.290779 411.062276,109.609884 411,110 C411,110 411.565401,109.177683 411.957806,109.292807" id="Shape" fill="#000000" fill-rule="nonzero" opacity="0.1"></path>
                <circle id="Oval" fill="#72351C" fill-rule="nonzero" cx="410" cy="105" r="1"></circle>
                <path d="M409.320047,105.502326 C409.320047,105.502326 409.479888,106.05648 409.320047,106.172094 C409.160205,106.287709 408.849925,106.495018 409.084986,106.658474 C409.320047,106.821929 410.175669,107.097012 410.457742,106.965451 C410.739815,106.833889 411.0642,106.86977 410.98898,106.594686 C410.913761,106.319603 410.2932,106.375417 410.279096,105 L409.320047,105.502326 Z" id="Shape" fill="#FDB797" fill-rule="nonzero"></path>
                <path d="M408.205729,108 C408.232193,108.342919 408.207987,108.687431 408.133724,109.0248 C408.055488,109.365366 408.010746,109.711299 408,110.05871 C408.036003,110.286444 408.113151,111.794039 408.113151,111.794039 C408.113151,111.794039 407.979427,113.114893 408.704621,112.991917 C409.429814,112.86894 408.59147,111.488876 408.59147,111.488876 L408.627473,109.667009 C408.828701,109.431739 408.956421,109.15369 408.997784,108.860832 C409.028644,108.455467 408.205729,108 408.205729,108 Z" id="Shape" fill="#000000" fill-rule="nonzero" opacity="0.1"></path>
                <path d="M408.205729,108 C408.232193,108.342919 408.207987,108.687431 408.133724,109.0248 C408.055488,109.365366 408.010746,109.711299 408,110.05871 C408.036003,110.286444 408.113151,111.794039 408.113151,111.794039 C408.113151,111.794039 407.979427,113.114893 408.704621,112.991917 C409.429814,112.86894 408.59147,111.488876 408.59147,111.488876 L408.627473,109.667009 C408.828701,109.431739 408.956421,109.15369 408.997784,108.860832 C409.033787,108.455467 408.205729,108 408.205729,108 Z" id="Shape" fill="#FDB797" fill-rule="nonzero"></path>
                <path d="M412,108 L411.929104,109.609375 C411.929104,109.609375 411.884327,111.864583 411.686564,112.4375 C411.686564,112.4375 411.738803,114 411.212678,114 C410.686553,114 411.302232,112.265625 411.302232,112.265625 C411.302232,112.265625 411.585817,110.505208 411.440293,109.942708 L411.302232,108.010417 L412,108 Z" id="Shape" fill="#000000" fill-rule="nonzero" opacity="0.1"></path>
                <path d="M412,108 L411.929104,109.609375 C411.929104,109.609375 411.884327,111.864583 411.686564,112.4375 C411.686564,112.4375 411.738803,114 411.212678,114 C410.686553,114 411.302232,112.265625 411.302232,112.265625 C411.302232,112.265625 411.585817,110.505208 411.440293,109.942708 L411.302232,108.010417 L412,108 Z" id="Shape" fill="#FDB797" fill-rule="nonzero"></path>
                <path d="M410.464859,106.591763 C410.464859,106.591763 411.037149,106.853125 411.353414,106.098627 L412.523092,106.660802 C412.66735,106.795762 412.748996,106.982903 412.748996,107.178595 L413,108.500199 C412.785157,108.417245 412.545356,108.422786 412.334721,108.515571 C412.124085,108.608357 411.960369,108.780568 411.880522,108.993335 L411.950803,109.737971 C412.007696,109.921825 411.99522,110.119663 411.915663,110.295214 C411.901693,110.326658 411.901693,110.362398 411.915663,110.393841 C411.957838,110.504071 411.943272,110.627519 411.876546,110.725349 C411.809821,110.823179 411.699138,110.883367 411.579317,110.886977 C411.265187,110.889531 410.951578,110.912595 410.640562,110.956016 C410.389558,111.025055 409.636546,110.813007 409.380522,110.956016 C409.124498,111.099026 408.59739,110.847526 408.59739,110.847526 L408.742972,110.245901 C408.742972,110.245901 408.64759,109.950019 408.742972,109.84646 C408.834507,109.41937 408.813775,108.976413 408.682731,108.559376 C408.682731,108.559376 408.251004,108.159935 408,108.228975 L408.361446,106.705184 C408.516169,106.417071 408.813469,106.229863 409.144578,106.212048 C409.415296,106.236302 409.685513,106.160713 409.90261,106 C409.90261,106 409.621486,106.498067 410.464859,106.591763 Z" id="Shape" fill="#000000" fill-rule="nonzero" opacity="0.1"></path>
                <path d="M410.515121,106.626283 C410.671371,106.665734 411.094758,106.715047 411.346774,106.093696 L412.521169,106.655871 C412.666008,106.790831 412.747984,106.977972 412.747984,107.173664 L413,108.495268 C412.78429,108.412313 412.543523,108.417854 412.332038,108.51064 C412.120553,108.603426 411.956177,108.775637 411.876008,108.988404 L411.946573,109.733039 L411.991935,109.88098 C412.034028,110.008195 412.011558,110.147425 411.931452,110.255763 C411.905153,110.298193 411.905153,110.351411 411.931452,110.393841 C411.973797,110.504071 411.959172,110.627519 411.892177,110.725349 C411.825183,110.823179 411.714054,110.883367 411.59375,110.886977 C411.278353,110.889531 410.963479,110.912595 410.65121,110.956016 C410.399194,111.025055 409.643145,110.813007 409.386089,110.956016 C409.129032,111.099026 408.599798,110.847526 408.599798,110.847526 L408.745968,110.245901 C408.745968,110.245901 408.650202,109.950019 408.745968,109.84646 C408.837872,109.41937 408.817056,108.976413 408.685484,108.559376 C408.685484,108.559376 408.252016,108.159935 408,108.228975 L408.362903,106.705184 C408.518251,106.417071 408.816749,106.229863 409.149194,106.212048 C409.421003,106.236302 409.692309,106.160713 409.910282,106 C409.910282,106 409.628024,106.493136 410.373992,106.61642 L410.515121,106.626283 Z" id="Shape" fill="#000000" fill-rule="nonzero" opacity="0.1"></path>
                <path d="M410.5251,106.631214 C410.680723,106.670665 411.10241,106.719978 411.353414,106.098627 L412.523092,106.660802 C412.66735,106.795762 412.748996,106.982903 412.748996,107.178595 L413,108.500199 C412.785157,108.417245 412.545356,108.422786 412.334721,108.515571 C412.124085,108.608357 411.960369,108.780568 411.880522,108.993335 L411.950803,109.737971 C412.007696,109.921825 411.99522,110.119663 411.915663,110.295214 C411.901693,110.326658 411.901693,110.362398 411.915663,110.393841 C411.957838,110.504071 411.943272,110.627519 411.876546,110.725349 C411.809821,110.823179 411.699138,110.883367 411.579317,110.886977 C411.265187,110.889531 410.951578,110.912595 410.640562,110.956016 C410.389558,111.025055 409.636546,110.813007 409.380522,110.956016 C409.124498,111.099026 408.59739,110.847526 408.59739,110.847526 L408.742972,110.245901 C408.742972,110.245901 408.64759,109.950019 408.742972,109.84646 C408.834507,109.41937 408.813775,108.976413 408.682731,108.559376 C408.682731,108.559376 408.251004,108.159935 408,108.228975 L408.361446,106.705184 C408.516169,106.417071 408.813469,106.229863 409.144578,106.212048 C409.415296,106.236302 409.685513,106.160713 409.90261,106 C409.90261,106 409.621486,106.493136 410.364458,106.61642 L410.5251,106.631214 Z" id="Shape" fill="#F55F44" fill-rule="nonzero"></path>
                <path d="M410.921659,105 L410,105.613527 C410.023569,105.718757 410.042026,105.825174 410.0553,105.932367 C410.162418,105.97675 410.276524,105.99969 410.391705,106 C410.621383,105.98429 410.837688,105.881219 411,105.710145 C410.952775,105.476516 410.926547,105.238761 410.921659,105 Z" id="Shape" fill="#000000" fill-rule="nonzero" opacity="0.1"></path>
                <circle id="Oval" fill="#FDB797" fill-rule="nonzero" cx="410" cy="105" r="1"></circle>
                <circle id="Oval" fill="#72351C" fill-rule="nonzero" cx="411.5" cy="103.5" r="1"></circle>
                <path d="M411.5,104.4 C411.236926,104.400551 411.018353,104.225693 411,104 C411,104 411,104 411,104.03 C411,104.267482 411.223858,104.46 411.5,104.46 C411.776142,104.46 412,104.267482 412,104.03 C412,104.03 412,104.03 412,104 C411.981647,104.225693 411.763074,104.400551 411.5,104.4 Z" id="Shape" fill="#72351C" fill-rule="nonzero"></path>
                <path d="M411.416626,104.871042 C411.157743,104.795774 410.979481,104.415539 411.008265,104 L411.008265,104.055598 C410.958326,104.490603 411.139849,104.907548 411.413709,104.986872 C411.68757,105.066196 411.950061,104.777861 412,104.342857 L412,104.287259 C411.933862,104.696898 411.677798,104.953142 411.416626,104.871042 Z" id="Shape" fill="#72351C" fill-rule="nonzero"></path>
                <path d="M411.416626,105.871042 C411.157743,105.795774 410.979481,105.415539 411.008265,105 L411.008265,105.055598 C410.958326,105.490602 411.139849,105.907548 411.413709,105.986872 C411.68757,106.066196 411.950061,105.777861 412,105.342857 L412,105.287259 C411.933862,105.696898 411.677798,105.953142 411.416626,105.871042 Z" id="Shape" fill="#72351C" fill-rule="nonzero"></path>
                <path d="M411.5,104.4 C411.236926,104.400551 411.018353,104.225693 411,104 C411,104 411,104 411,104.03 C411,104.267482 411.223858,104.46 411.5,104.46 C411.776142,104.46 412,104.267482 412,104.03 C412,104.03 412,104.03 412,104 C411.981647,104.225693 411.763074,104.400551 411.5,104.4 Z" id="Shape" fill="#72351C" fill-rule="nonzero"></path>
                <path d="M411.055,103.494186 C411.057248,103.231255 411.23425,103.015274 411.46,103 L411.43,103 C411.192518,103 411,103.223858 411,103.5 C411,103.776142 411.192518,104 411.43,104 L411.46,104 C411.230389,103.984475 411.051938,103.761603 411.055,103.494186 Z" id="Shape" fill="#72351C" fill-rule="nonzero"></path>
                <path d="M411.018691,108 C411.06392,108.162928 411.06392,108.331325 411.018691,108.494253 C411.018691,108.494253 410.958691,108.927203 411.053691,109" id="Shape" fill="#000000" fill-rule="nonzero" opacity="0.1"></path>
                <path d="M408.018691,108 C408.06392,108.162928 408.06392,108.331325 408.018691,108.494253 C408.018691,108.494253 407.958691,108.927203 408.053691,109" id="Shape" fill="#000000" fill-rule="nonzero" opacity="0.1"></path>
                <path d="M408,110.025332 C408.146409,110.05773 408.305972,110.05773 408.452381,110.025332 C408.630984,109.991556 408.821397,109.991556 409,110.025332" id="Shape" fill="#000000" fill-rule="nonzero" opacity="0.1"></path>
                <path d="M409,109.155 C409.264914,109.172042 409.529742,109.119295 409.77821,109 C409.77821,109 410.727626,109.3 411,109.085" id="Shape" fill="#000000" fill-rule="nonzero" opacity="0.1"></path>
                <rect id="Rectangle-path" fill="#FDB797" fill-rule="nonzero" x="408" y="114" width="1" height="1" rx="0.42"></rect>
                <polygon id="Shape" fill="#F0E4E4" fill-rule="nonzero" points="408 114 408.536424 114 409 114.055 408.834437 114.055"></polygon>
                <polygon id="Shape" fill="#F0E4E4" fill-rule="nonzero" points="410 113 410.536424 113 411 113.035 410.834437 113.035"></polygon>
                <polygon id="Shape" fill="#F0E4E4" fill-rule="nonzero" points="410 113 410.536424 113 411 113.035 410.834437 113.035"></polygon>
                <polygon id="Shape" fill="#F0E4E4" fill-rule="nonzero" points="410 113 410.536424 113 411 113.035 410.834437 113.035"></polygon>
                <polygon id="Shape" fill="#F0E4E4" fill-rule="nonzero" points="410 113 410.536424 113 411 113.035 410.834437 113.035"></polygon>
                <polygon id="Shape" fill="#F0E4E4" fill-rule="nonzero" points="408 115 408.536424 115 409 115.04 408.834437 115.04"></polygon>
                <polygon id="Shape" fill="#F0E4E4" fill-rule="nonzero" points="408 115 408.536424 115 409 115.04 408.834437 115.04"></polygon>
                <polygon id="Shape" fill="#F0E4E4" fill-rule="nonzero" points="408 115 408.536424 115 409 115.04 408.834437 115.04"></polygon>
                <polygon id="Shape" fill="#F0E4E4" fill-rule="nonzero" points="408 115 408.536424 115 409 115.04 408.834437 115.04"></polygon>
                <polygon id="Shape" fill="#F0E4E4" fill-rule="nonzero" points="408 114 408.536424 114 409 114.055 408.834437 114.055"></polygon>
                <polygon id="Shape" fill="#F0E4E4" fill-rule="nonzero" points="408 114 408.536424 114 409 114.055 408.834437 114.055"></polygon>
                <path d="M410.018039,104.352749 C409.965809,104.636863 410.027371,104.924173 410.197875,105.192045 C410.363255,105.453728 410.334293,105.743774 410.117948,105.992485 C410.261569,106.012901 410.413231,105.991145 410.524244,105.934201 C410.638101,105.875434 410.736809,105.80738 410.81731,105.732148 C410.902883,105.670738 410.964276,105.599107 410.997146,105.522324 C411.010196,105.401914 410.978384,105.281285 410.903898,105.168731 C410.814415,104.961794 410.749871,104.751455 410.710741,104.539259 C410.710741,104.411033 410.710741,104.038012 410.464299,104.003042 C410.217857,103.968071 410.064663,104.243951 410.018039,104.352749 Z" id="Shape" fill="#000000" fill-rule="nonzero" opacity="0.1"></path>
                <path d="M410.01792,104.345043 C409.966035,104.629147 410.02719,104.916445 410.196566,105.184306 C410.366791,105.447735 410.340375,105.74107 410.123784,105.992486 C410.266455,106.0129 410.417114,105.991145 410.527392,105.934204 C410.640496,105.875439 410.73855,105.807388 410.818519,105.732159 C410.903526,105.670751 410.964513,105.599123 410.997165,105.522343 C411.010128,105.401938 410.978527,105.281313 410.904534,105.168765 C410.815643,104.961835 410.751526,104.751505 410.712655,104.539317 C410.712655,104.411097 410.712655,104.038091 410.467843,104.003121 C410.223032,103.968152 410.084085,104.23625 410.01792,104.345043 Z" id="Shape" fill="#72351C" fill-rule="nonzero"></path>
                <path d="M409.565467,105.01627 C409.64292,105.112748 409.662283,105.260302 409.730055,105.373806 C409.853997,105.530586 410.03238,105.612146 410.214135,105.595137 C410.261088,105.592258 410.307854,105.604006 410.349678,105.629188 C410.42229,105.68594 410.427131,105.810793 410.475539,105.895921 C410.526049,105.962145 410.598235,106 410.674012,106 C410.749789,106 410.821976,105.962145 410.872485,105.895921 C410.953488,105.759817 410.994289,105.596385 410.988665,105.430557 C411.003778,105.2418 411.003778,105.051798 410.988665,104.863041 C410.984026,104.638423 410.908075,104.423915 410.775669,104.261474 C410.665358,104.166277 410.537805,104.102189 410.402927,104.074193 C410.218182,103.99751 410.019352,103.97988 409.826871,104.023117 C409.733998,104.059454 409.645987,104.111044 409.565467,104.176346 L409.22661,104.443079 C409.100749,104.545232 408.868391,104.749538 409.095909,104.863041 C409.260496,104.902767 409.444447,104.863041 409.565467,105.01627 Z" id="Shape" fill="#000000" fill-rule="nonzero" opacity="0.1"></path>
                <path d="M409.531581,105.027311 C409.609034,105.122706 409.628398,105.268604 409.696169,105.380834 C409.820111,105.535854 409.998495,105.616499 410.18025,105.599681 C410.227203,105.596834 410.273969,105.60845 410.315792,105.63335 C410.388405,105.689465 410.393245,105.812917 410.441654,105.897089 C410.492163,105.96257 410.56435,106 410.640127,106 C410.715904,106 410.78809,105.96257 410.8386,105.897089 C410.935874,105.76159 410.988988,105.590782 410.988665,105.414502 C411.003778,105.227864 411.003778,105.039994 410.988665,104.853355 C410.984026,104.631258 410.908075,104.419157 410.775669,104.258539 C410.665358,104.164411 410.537805,104.101042 410.402927,104.07336 C410.218182,103.997538 410.019352,103.980106 409.826871,104.022857 C409.733998,104.058787 409.645987,104.109798 409.565467,104.174367 L409.22661,104.438106 C409.100749,104.539113 408.868391,104.741126 409.095909,104.853355 C409.22661,104.887024 409.40572,104.887024 409.531581,105.027311 Z" id="Shape" fill="#72351C" fill-rule="nonzero"></path>
                <polygon id="Shape" fill="#F0E4E4" fill-rule="nonzero" points="410 113 410.536424 113 411 113.035 410.834437 113.035"></polygon>
                <polygon id="Shape" fill="#F0E4E4" fill-rule="nonzero" points="410 113 410.536424 113 411 113.035 410.834437 113.035"></polygon>
                <polygon id="Shape" fill="#F0E4E4" fill-rule="nonzero" points="410 113 410.536424 113 411 113.035 410.834437 113.035"></polygon>
                <polygon id="Shape" fill="#F0E4E4" fill-rule="nonzero" points="410 113 410.536424 113 411 113.035 410.834437 113.035"></polygon>
                <polygon id="Shape" fill="#F0E4E4" fill-rule="nonzero" points="410 117 410.536424 117 411 117.035 410.834437 117.035"></polygon>
                <polygon id="Shape" fill="#F0E4E4" fill-rule="nonzero" points="410 117 410.536424 117 411 117.035 410.834437 117.035"></polygon>
                <polygon id="Shape" fill="#F0E4E4" fill-rule="nonzero" points="410 117 410.536424 117 411 117.035 410.834437 117.035"></polygon>
                <polygon id="Shape" fill="#F0E4E4" fill-rule="nonzero" points="410 117 410.536424 117 411 117.035 410.834437 117.035"></polygon>
                <path d="M191,336 L152,336 L152,314 L191,314 L191,336 Z M153.647473,334.350368 L189.342721,334.350368 L189.342721,315.649632 L153.647473,315.649632 L153.647473,334.350368 Z" id="Shape" fill="#70BF8E" fill-rule="nonzero" opacity="0.2"></path>
                <path d="M126.599997,303.473102 C129.02329,304.885047 131.57744,305.460462 134.21883,304.58525 C134.905064,304.354726 135.568607,304.061756 136.201083,303.710038 C160.918671,304.232264 183.809097,303.990493 184.696022,301.335844 C186.149998,296.935606 176.941484,275.263225 172.293609,264.789692 C173.660794,263.86231 174.816776,262.657915 175.686219,261.254995 C182.141871,268.619349 194.151711,278.120962 201.290732,278.594834 C201.290732,278.594834 211.710892,303.289356 223.434783,299.387167 C235.158674,295.484978 236.462406,274.692645 230.598037,272.096021 L191.520015,247.401499 L191.520015,206.426097 C192.707645,204.077058 193.270077,201.462859 193.153314,198.834477 C193.153314,198.350935 193.177547,197.867392 193.153314,197.383849 L191.849583,185.686953 C191.849583,185.686953 191.78173,185.300119 191.602407,184.598982 C188.694455,173.327604 182.21457,165.74082 173.078755,164.614166 C173.523468,163.803471 173.794156,162.909291 173.873596,161.988529 C174.062612,159.802916 173.151454,157.573785 173.665192,155.441362 C174.266169,152.955953 176.573144,151.350591 178.468159,149.63885 C182.515058,145.944585 185.064362,140.935083 187.526428,136.046467 C189.872176,131.389952 192.251849,126.61255 192.857673,121.438644 C193.463496,116.264738 191.888355,110.520252 187.647593,107.473933 C184.351914,105.099739 179.713732,104.475969 177.343751,101.187879 C176.282349,99.7082386 175.841309,97.8852829 175.109475,96.2218962 C173.00121,91.4299888 168.455113,88.0306841 163.521288,86.2560827 C146.209283,80.0377245 124.971544,87.1748137 113.926175,101.516688 C110.320315,106.197381 107.717698,111.555033 105.144161,116.869166 L95.8387161,136.060973 C94.2344961,139.36357 92.6835886,143.488188 94.8257796,146.471646 C95.8726422,147.922274 97.6658789,148.821663 98.3928668,150.460873 C99.362184,152.636815 98.1505375,155.484881 99.5754338,157.39971 C100.360581,158.458668 101.722471,158.87935 102.890499,159.498285 C104.458997,160.388874 105.824099,161.596027 106.898625,163.042652 L86.4654189,178.83999 C83.4815568,181.146628 81.5785448,184.575002 81.2020266,188.322261 L79.1810003,208.418292 C78.5379155,210.70058 78.2309831,213.064055 78.2698422,215.434496 C78.1971434,217.552413 78.4443193,219.887923 79.5057216,221.72055 L79.9516075,221.614171 C80.4362661,235.709438 81.279572,255.989216 82.1131848,259.736671 C82.5978434,261.960967 85.6560391,265.882498 89.7756371,269.924915 L88.3216613,274.035027 L88.8063199,274.035027 L88.3216613,275.326086 L89.2909785,275.326086 C85.1810737,290.141832 74,301.306831 74,301.306831 C74,301.306831 99.8565358,302.709105 126.599997,303.473102 Z M102.299215,235.013137 L102.299215,219.215799 C104.683735,219.583292 106.443046,220.405314 107.00525,221.904296 L102.299215,235.013137 Z M109.200753,166.263046 L109.278299,166.379096 L109.249219,166.379096 L109.200753,166.263046 Z" id="Shape" fill="url(#linearGradient-3)" fill-rule="nonzero"></path>
                <path d="M168,202.31315 C168,202.31315 169.235961,246.279144 170.476769,251.853733 C171.717577,257.428322 189.660822,274.166645 198.932953,274.787661 C198.932953,274.787661 208.830335,298.318346 219.968525,294.601953 C231.106715,290.88556 232.342676,271.071268 226.754193,268.592056 L189.660822,245.06137 L189.660822,198 L168,202.31315 Z" id="Shape" fill="#FDB797" fill-rule="nonzero"></path>
                <path d="M168.66499,256 C168.66499,256 184.701928,290.880163 182.851326,296.501589 C181.000724,302.123014 78,296.501589 78,296.501589 C78,296.501589 97.1196635,277.192578 93.41846,256 L168.66499,256 Z" id="Shape" fill="#565171" fill-rule="nonzero"></path>
                <path d="M156.566245,153.702466 C156.566245,153.702466 154.083804,177.795114 158.426862,183.356073 C162.76992,188.917032 141.064345,192 139.22316,192 C137.381976,192 117.522443,185.224245 113.80121,183.351233 C110.079976,181.478221 107,167.907352 107,167.907352 C107,167.907352 125.601309,171.614658 131.183159,150 L156.566245,153.702466 Z" id="Shape" fill="#FDB797" fill-rule="nonzero"></path>
                <path d="M163.087034,92.145658 C167.763167,93.8295029 172.071785,97.0617108 174.068933,101.614866 C174.765276,103.197099 175.181147,104.929331 176.186975,106.337373 C178.430744,109.472808 182.826406,110.063122 185.950275,112.322764 C189.959079,115.225945 191.443642,120.679086 190.887535,125.595139 C190.331429,130.511192 188.073152,135.05467 185.85356,139.477182 C183.517912,144.127109 181.104892,148.883487 177.270174,152.396336 C175.480961,154.036633 173.285548,155.560803 172.714934,157.922057 C172.231363,159.949444 173.09212,162.063928 172.908363,164.144541 C172.463477,169.278332 166.331796,171.668617 161.210779,172.239576 C158.986352,172.486347 156.437932,172.500863 154.871162,170.899275 C154.068434,170.076707 153.66707,168.963821 153.154484,167.928353 C150.778648,163.119827 145.903888,160.055167 140.543334,159.999986 C135.182779,159.944805 130.246039,162.908466 127.771839,167.667067 C126.572582,169.979934 125.871404,172.781503 123.685663,174.194385 C120.339351,176.357254 115.866319,173.816971 113.404942,170.691213 C110.943565,167.565455 109.149517,163.636484 105.633955,161.763932 C104.526577,161.173619 103.2161,160.796206 102.495579,159.770415 C101.146415,157.951088 102.292479,155.246292 101.378529,153.175356 C100.687023,151.617316 98.9896884,150.756039 97.993532,149.381867 C95.9625335,146.546427 97.4325895,142.607778 98.9606741,139.486859 L107.781011,121.245206 C110.198866,116.193672 112.689257,111.084074 116.103269,106.651885 C126.55324,93.0166123 146.679468,86.2328466 163.087034,92.145658 Z" id="Shape" fill="#8F5A6A" fill-rule="nonzero"></path>
                <path d="M140.348114,187.180737 C140.348114,187.180737 116.255762,187.180737 110.080221,165 L89.8016037,180.673744 C86.9734406,182.863093 85.1697252,186.113879 84.8118056,189.666717 L82.8758994,208.748426 C82.8758994,208.748426 80.7125242,215.834677 83.1856444,220.145319 C83.1856444,220.145319 108.836401,213.676943 109.441372,221.067304 L91.5439193,270.975169 C91.5439193,270.975169 119.343532,271.593043 126.753213,266.664527 C126.753213,266.664527 157.021106,272.823966 164.435626,266.046652 C171.850147,259.269339 179.259828,259.887214 173.084287,244.48379 C173.084287,244.48379 185.440208,232.160086 179.859959,214.907865 C174.279709,197.655644 179.550214,215.216802 179.550214,215.216802 C179.550214,215.216802 191.59639,209.361474 190.9769,198.273519 L189.74276,187.171083 C189.74276,187.171083 189.675003,186.80422 189.505611,186.142901 C185.740274,171.526302 175.620324,163.455313 161.396254,168.601051 C157.238895,170.102294 152.989581,168.38383 152.989581,168.38383 C152.989581,168.38383 157.640596,188.430968 140.348114,187.180737 Z" id="Shape" fill="#000000" fill-rule="nonzero" opacity="0.1"></path>
                <path d="M140.353296,186.181747 C140.353296,186.181747 116.258804,186.181747 110.082715,164 L89.8022966,179.674458 C86.9750345,181.862783 85.1712845,185.111746 84.8120553,188.663013 L82.8759772,207.745591 C82.8759772,207.745591 80.7124099,214.832165 83.1857497,219.143003 C83.1857497,219.143003 108.838785,212.674332 109.443809,220.06503 L91.5350865,269.975168 C91.5350865,269.975168 119.337168,270.59307 126.747507,265.66433 C126.747507,265.66433 157.018088,271.824049 164.433267,265.046427 C171.848446,258.268805 179.258785,258.886708 173.082696,243.482583 C173.082696,243.482583 185.439715,231.158317 179.85897,213.905311 C174.278224,196.652304 179.549197,214.214262 179.549197,214.214262 C179.549197,214.214262 191.596443,208.358667 190.976898,197.270207 L189.742648,186.167265 C189.742648,186.167265 189.674886,185.800385 189.505479,185.139036 C185.739807,170.521772 175.618958,162.450415 161.393625,167.596388 C157.235897,169.097699 152.986205,167.379156 152.986205,167.379156 C152.986205,167.379156 157.647313,187.412726 140.353296,186.181747 Z" id="Shape" fill="#B45181" fill-rule="nonzero"></path>
                <path d="M83,207.332557 C83,207.332557 84.235961,251.298551 85.4767689,256.87314 C86.7175768,262.447729 104.655976,279.166645 113.932953,279.787661 C113.932953,279.787661 123.830335,303.318346 134.968525,299.601953 C146.106715,295.88556 147.342676,276.071268 141.754193,273.592056 L104.636588,250.06137 L104.636588,203 L83,207.332557 Z" id="Shape" fill="#FDB797" fill-rule="nonzero"></path>
                <path d="M110,209.022879 C110,209.022879 95.6764731,218.763679 83.1989377,217.951945 C83.1989377,217.951945 81.9536259,201.223393 85.6944448,200.28941 C89.4352636,199.355428 105.638967,200.28941 110,209.022879 Z" id="Shape" fill="#000000" fill-rule="nonzero" opacity="0.1"></path>
                <path d="M110,208.027468 C110,208.027468 95.6764731,217.767981 83.1989377,216.951382 C83.1989377,216.951382 81.9536259,200.223322 85.6944448,199.289367 C89.4352636,198.355412 105.638967,199.289367 110,208.027468 Z" id="Shape" fill="#B45181" fill-rule="nonzero"></path>
                <path d="M130.250317,151 L156,154.72404 C156,154.72404 155.419365,160.324685 155.30619,166.756676 C145.096042,171.009465 133.323806,169.120982 125,161.895005 C127.155238,159.269703 129.015238,155.740129 130.250317,151 Z" id="Shape" fill="#000000" fill-rule="nonzero" opacity="0.1"></path>
                <circle id="Oval" fill="#FDB797" fill-rule="nonzero" cx="144.5" cy="139.5" r="28.5"></circle>
                <path d="M137.467621,133.480404 C138.645987,134.021986 139.989909,134.031657 141.290007,134.021986 C146.347569,133.989749 151.40026,133.804386 156.448083,133.465898 C160.275339,133.209613 164.355797,132.764743 167.306582,130.33246 C171.279917,127.058791 171.908054,120.922475 169.858086,116.217482 C167.808118,111.51249 163.625405,108.045399 159.208966,105.395516 C156.710368,103.822437 154.002895,102.603399 151.164912,101.773687 C142.96991,99.5638396 133.908176,102.257242 127.397945,107.697239 C120.887715,113.137235 116.739087,120.936981 114.54304,129.084887 C113.783432,131.904014 112.809576,135.259888 110,136.11578 C111.869804,139.205698 116.432322,139.694089 119.714218,138.146713 C124.544546,135.864332 127.018141,127.131324 131.356672,125.758027 C136.18213,124.244499 133.367685,131.613881 137.467621,133.480404 Z" id="Shape" fill="#000000" fill-rule="nonzero" opacity="0.1"></path>
                <path d="M137.459589,133.456227 C138.638237,133.997809 139.982481,134.00748 141.282891,133.997809 C146.341664,133.965572 151.395566,133.780209 156.444597,133.44172 C160.27277,133.185436 164.354206,132.740565 167.305698,130.308282 C171.279984,127.034613 171.908272,120.898297 169.857813,116.193304 C167.807354,111.488312 163.623639,108.021221 159.206142,105.371338 C156.71014,103.807913 154.007075,102.597075 151.174772,101.773687 C142.977807,99.5638396 133.913902,102.257242 127.402113,107.697239 C120.890323,113.137235 116.740701,120.936981 114.544128,129.084887 C113.784339,131.904014 112.810249,135.259888 110,136.11578 C111.870252,139.205698 116.433863,139.694089 119.716545,138.146713 C124.54803,135.864332 127.022218,127.131324 131.361787,125.758027 C136.173791,124.225157 133.358671,131.589703 137.459589,133.456227 Z" id="Shape" fill="#8F5A6A" fill-rule="nonzero"></path>
                <path d="M173,244 C163.867134,241.328763 154.453113,239.983951 145,240.000145" id="Shape" fill="#000000" fill-rule="nonzero" opacity="0.1"></path>
                <path d="M110,210 C110,210 119.009072,217.096774 116.586267,221" id="Shape" fill="#000000" fill-rule="nonzero" opacity="0.1"></path>
                <g id="Group" opacity="0.7" transform="translate(62.000000, 280.000000)" fill="url(#linearGradient-4)" fill-rule="nonzero">
                    <polygon id="Shape" points="303.796688 0.30877193 0.425987261 0.30877193 0.425987261 26.7425439 18.0850955 26.7425439 18.0850955 31.9048246 18.0850955 109.922807 286.766879 109.922807 286.766879 31.9048246 286.766879 26.7425439 303.796688 26.7425439"></polygon>
                </g>
                <rect id="Rectangle-path" fill="#E0E0E0" fill-rule="nonzero" x="83" y="295" width="263" height="94"></rect>
                <rect id="Rectangle-path" fill="#000000" fill-rule="nonzero" opacity="0.1" x="83" y="300" width="263" height="15"></rect>
                <rect id="Rectangle-path" fill="#E0E0E0" fill-rule="nonzero" x="66" y="285" width="297" height="25"></rect>
                <rect id="Rectangle-path" fill="#535461" fill-rule="nonzero" x="122" y="279" width="57" height="8" rx="4"></rect>
                <g id="Group" opacity="0.7" transform="translate(156.000000, 189.000000)" fill="url(#linearGradient-5)" fill-rule="nonzero">
                    <rect id="Rectangle-path" x="0.353788396" y="0.468275862" width="141.442662" height="97.4206897" rx="28.22"></rect>
                </g>
                <rect id="Rectangle-path" fill="#3E3F49" fill-rule="nonzero" x="159" y="191" width="134" height="96" rx="26.84"></rect>
                <rect id="Rectangle-path" fill="#535461" fill-rule="nonzero" x="161" y="191" width="134" height="96" rx="26.84"></rect>
                <circle id="Oval" fill="#E0E0E0" fill-rule="nonzero" cx="234.5" cy="238.5" r="4.5"></circle>
            </g>
        </g>
    </g>
</svg>