<?xml version="1.0" encoding="UTF-8"?>
<svg width="20px" height="20px" viewBox="0 0 20 20" version="1.1" xmlns="http://www.w3.org/2000/svg" xmlns:xlink="http://www.w3.org/1999/xlink">
    <!-- Generator: Sketch 48.2 (47327) - http://www.bohemiancoding.com/sketch -->
    <title>icons/ui/archive</title>
    <desc>Created with Sketch.</desc>
    <defs></defs>
    <g id="UI-Components-(Symbols)" stroke="none" stroke-width="1" fill="none" fill-rule="evenodd">
        <g id="icons/ui/archive" fill="#424B54" fill-rule="nonzero">
            <g id="icon-archive" transform="translate(0.000000, 1.000000)">
                <path d="M18,6 L18,16 C18,17.1045695 17.1045695,18 16,18 L4,18 C2.8954305,18 2,17.1045695 2,16 L2,6 C0.8954305,6 0,5.1045695 0,4 L0,2 C0,0.9 0.9,0 2,0 L18,0 C19.1045695,0 20,0.8954305 20,2 L20,4 C20,5.1045695 19.1045695,6 18,6 Z M18,4 L18,2 L2,2 L2,4 L18,4 Z M4,6 L4,16 L16,16 L16,6 L4,6 Z M8,8 L12,8 C12.5522847,8 13,8.44771525 13,9 C13,9.55228475 12.5522847,10 12,10 L8,10 C7.44771525,10 7,9.55228475 7,9 C7,8.44771525 7.44771525,8 8,8 Z" id="Shape"></path>
            </g>
        </g>
    </g>
</svg>