<?xml version="1.0" encoding="UTF-8"?>
<svg width="20px" height="20px" viewBox="0 0 20 20" version="1.1" xmlns="http://www.w3.org/2000/svg" xmlns:xlink="http://www.w3.org/1999/xlink">
    <!-- Generator: Sketch 50.2 (55047) - http://www.bohemiancoding.com/sketch -->
    <title>icons/ui/building-white</title>
    <desc>Created with Sketch.</desc>
    <defs></defs>
    <g id="icons/ui/building-white" stroke="none" stroke-width="1" fill="none" fill-rule="evenodd">
        <g id="icon-building" transform="translate(1.000000, 0.000000)" fill="#FFFFFF" fill-rule="nonzero">
            <path d="M15.9999811,8.00418141 L15.9999811,14.0020907 C17.1045476,14.0020907 17.9999757,14.8972092 17.9999757,16.0013938 L17.9999757,18.0006969 C17.9999757,19.1048815 17.1045476,20 15.9999811,20 L2.00001894,20 C0.895452426,20 2.43485307e-05,19.1048815 2.43485307e-05,18.0006969 L2.43485307e-05,16.0013938 C2.43485307e-05,14.9017771 0.900021914,14.0020907 2.00001894,14.0020907 L2.00001894,8.00418141 C0.895452426,8.00418141 2.43485307e-05,7.10906292 2.43485307e-05,6.00487831 L2.43485307e-05,5.00522676 C-0.00262131239,4.62520236 0.210519982,4.27654629 0.550022861,4.10554037 L8.55000122,0.106934171 C8.83304802,-0.0356447236 9.16695198,-0.0356447236 9.44999878,0.106934171 L17.4499771,4.10554037 C17.78948,4.27654629 18.0026213,4.62520236 17.9999757,5.00522676 L17.9999757,6.00487831 C17.9999757,7.10906292 17.1045476,8.00418141 15.9999811,8.00418141 Z M9.99999729,8.00418141 L8.00000271,8.00418141 L8.00000271,14.0020907 L9.99999729,14.0020907 L9.99999729,8.00418141 Z M13.9999865,8.00418141 L11.9999919,8.00418141 L11.9999919,14.0020907 L13.9999865,14.0020907 L13.9999865,8.00418141 Z M6.00000812,8.00418141 L4.00001353,8.00418141 L4.00001353,14.0020907 L6.00000812,14.0020907 L6.00000812,8.00418141 Z M2.00001894,5.62501072 L2.00001894,6.00487831 L15.9999811,6.00487831 L15.9999811,5.62501072 L9,2.1262303 L2.00001894,5.62501072 Z M2.00001894,16.0013938 L2.00001894,18.0006969 L15.9999811,18.0006969 L15.9999811,16.0013938 L2.00001894,16.0013938 Z" id="Shape"></path>
        </g>
    </g>
</svg>