<?xml version="1.0" encoding="UTF-8"?>
<svg width="20px" height="20px" viewBox="0 0 20 20" version="1.1" xmlns="http://www.w3.org/2000/svg" xmlns:xlink="http://www.w3.org/1999/xlink">
    <!-- Generator: Sketch 48.2 (47327) - http://www.bohemiancoding.com/sketch -->
    <title>icons/ui/calendar-green</title>
    <desc>Created with Sketch.</desc>
    <defs></defs>
    <g id="UI-Components-(Symbols)" stroke="none" stroke-width="1" fill="none" fill-rule="evenodd">
        <g id="icons/ui/calendar-green" fill="#70BF8E" fill-rule="nonzero">
            <g id="icon-calender" transform="translate(1.000000, 0.000000)">
                <path d="M14,2 L16,2 C17.1045695,2 18,2.8954305 18,4 L18,18 C18,19.1045695 17.1045695,20 16,20 L2,20 C0.8954305,20 0,19.1045695 0,18 L0,4 C0,2.9 0.9,2 2,2 L4,2 L4,1 C4,0.44771525 4.44771525,0 5,0 C5.55228475,0 6,0.44771525 6,1 L6,2 L12,2 L12,1 C12,0.44771525 12.4477153,0 13,0 C13.5522847,0 14,0.44771525 14,1 L14,2 Z M12,4 L6,4 L6,5 C6,5.55228475 5.55228475,6 5,6 C4.44771525,6 4,5.55228475 4,5 L4,4 L2,4 L2,8 L16,8 L16,4 L14,4 L14,5 C14,5.55228475 13.5522847,6 13,6 C12.4477153,6 12,5.55228475 12,5 L12,4 Z M16,10 L2,10 L2,18 L16,18 L16,10 Z" id="Shape"></path>
            </g>
        </g>
    </g>
</svg>