<?xml version="1.0" encoding="UTF-8"?>
<svg width="20px" height="20px" viewBox="0 0 20 20" version="1.1" xmlns="http://www.w3.org/2000/svg" xmlns:xlink="http://www.w3.org/1999/xlink">
    <!-- Generator: Sketch 48.2 (47327) - http://www.bohemiancoding.com/sketch -->
    <title>icons/ui/camera-gray</title>
    <desc>Created with Sketch.</desc>
    <defs></defs>
    <g id="UI-Components-(Symbols)" stroke="none" stroke-width="1" fill="none" fill-rule="evenodd">
        <g id="icons/ui/camera-gray" fill="#A0A5A9" fill-rule="nonzero">
            <g id="icon-camera" transform="translate(0.000000, 1.000000)">
                <path d="M18,4 C19.1045695,4 20,4.8954305 20,6 L20,16 C20,17.1045695 19.1045695,18 18,18 L2,18 C0.8954305,18 0,17.1045695 0,16 L0,6 C0,4.9 0.9,4 2,4 L4.38,4 L6.11,0.55 C6.27945024,0.213720349 6.62344179,0.00114130401 7,3.36509249e-17 L13,3.36509249e-17 C13.3801569,-0.00264566808 13.7289345,0.210496203 13.9,0.55 L15.61,4 L18,4 Z M7.62,2 L5.89,5.45 C5.72054976,5.78627965 5.37655821,5.9988587 5,6 L2,6 L2,16 L18,16 L18,6 L15,6 C14.6198431,6.00264567 14.2710655,5.7895038 14.1,5.45 L12.39,2 L7.62,2 Z M10,14 C7.790861,14 6,12.209139 6,10 C6,7.790861 7.790861,6 10,6 C12.209139,6 14,7.790861 14,10 C14,12.209139 12.209139,14 10,14 Z M10,12 C11.1045695,12 12,11.1045695 12,10 C12,8.8954305 11.1045695,8 10,8 C8.8954305,8 8,8.8954305 8,10 C8,11.1045695 8.8954305,12 10,12 Z" id="Shape"></path>
            </g>
        </g>
    </g>
</svg>