<?xml version="1.0" encoding="UTF-8"?>
<svg width="20px" height="20px" viewBox="0 0 20 20" version="1.1" xmlns="http://www.w3.org/2000/svg" xmlns:xlink="http://www.w3.org/1999/xlink">
    <!-- Generator: Sketch 50.2 (55047) - http://www.bohemiancoding.com/sketch -->
    <title>icons/ui/check</title>
    <desc>Created with Sketch.</desc>
    <defs></defs>
    <g id="icons/ui/check" stroke="none" stroke-width="1" fill="none" fill-rule="evenodd">
        <g id="icon-check-circle" fill="#424B54" fill-rule="nonzero">
            <path d="M10,20 C4.4771525,20 2.22044605e-15,15.5228475 1.77635684e-15,10 C1.33226763e-15,4.4771525 4.4771525,2.66453526e-15 10,1.77635684e-15 C15.5228475,2.22044605e-15 20,4.4771525 20,10 C20,15.5228475 15.5228475,20 10,20 Z M10,18 C14.418278,18 18,14.418278 18,10 C18,5.581722 14.418278,2 10,2 C5.581722,2 2,5.581722 2,10 C2,14.418278 5.581722,18 10,18 Z M7.7,9.3 L9,10.59 L12.3,7.29 C12.6991459,6.95283474 13.290578,6.97978463 13.6574061,7.35185316 C14.0242342,7.72392169 14.0427927,8.31567649 13.7,8.71 L9.7,12.71 C9.31115649,13.0911429 8.68884351,13.0911429 8.3,12.71 L6.3,10.71 C5.9572073,10.3156765 5.97576579,9.72392169 6.34259392,9.35185316 C6.70942204,8.97978463 7.3008541,8.95283474 7.7,9.29 L7.7,9.3 Z" id="Shape"></path>
        </g>
    </g>
</svg>