<?xml version="1.0" encoding="UTF-8"?>
<svg width="20px" height="20px" viewBox="0 0 20 20" version="1.1" xmlns="http://www.w3.org/2000/svg" xmlns:xlink="http://www.w3.org/1999/xlink">
    <!-- Generator: Sketch 48.2 (47327) - http://www.bohemiancoding.com/sketch -->
    <title>icons/ui/clock</title>
    <desc>Created with Sketch.</desc>
    <defs></defs>
    <g id="UI-Components-(Symbols)" stroke="none" stroke-width="1" fill="none" fill-rule="evenodd">
        <g id="icons/ui/clock" fill="#424B54" fill-rule="nonzero">
            <g id="icon-clock">
                <path d="M10,20 C4.4771525,20 2.22044605e-15,15.5228475 1.77635684e-15,10 C1.33226763e-15,4.4771525 4.4771525,2.66453526e-15 10,1.77635684e-15 C15.5228475,2.22044605e-15 20,4.4771525 20,10 C20,15.5228475 15.5228475,20 10,20 Z M10,18 C14.418278,18 18,14.418278 18,10 C18,5.581722 14.418278,2 10,2 C5.581722,2 2,5.581722 2,10 C2,14.418278 5.581722,18 10,18 Z M11,9.59 L13.54,12.12 C13.9321222,12.5121222 13.9321222,13.1478778 13.54,13.54 C13.1478778,13.9321222 12.5121222,13.9321222 12.12,13.54 L9.3,10.7 C9.11158574,10.5153695 9.00375705,10.2637693 9,10 L9,6 C9,5.44771525 9.44771525,5 10,5 C10.5522847,5 11,5.44771525 11,6 L11,9.59 Z" id="Shape"></path>
            </g>
        </g>
    </g>
</svg>