<?xml version="1.0" encoding="UTF-8" standalone="no"?>
<svg width="20px" height="20px" viewBox="0 0 20 20" version="1.1" xmlns="http://www.w3.org/2000/svg" xmlns:xlink="http://www.w3.org/1999/xlink">
    <!-- Generator: Sketch 48.2 (47327) - http://www.bohemiancoding.com/sketch -->
    <title>icons/ui/edit</title>
    <desc>Created with Sketch.</desc>
    <defs></defs>
    <g id="UI-Components-(Symbols)" stroke="none" stroke-width="1" fill="none" fill-rule="evenodd">
        <g id="icons/ui/edit" fill="#424B54" fill-rule="nonzero">
            <g id="icon-edit">
                <path d="M4.3,10.3 L14.3,0.3 C14.6888435,-0.0811428762 15.3111565,-0.0811428762 15.7,0.3 L19.7,4.3 C20.0811429,4.68884351 20.0811429,5.31115649 19.7,5.7 L9.7,15.7 C9.51536954,15.8884143 9.26376927,15.996243 9,16 L5,16 C4.44771525,16 4,15.5522847 4,15 L4,11 C4.00375705,10.7362307 4.11158574,10.4846305 4.3,10.3 Z M6,14 L8.59,14 L17.59,5 L15,2.41 L6,11.41 L6,14 Z M16,12 C16,11.4477153 16.4477153,11 17,11 C17.5522847,11 18,11.4477153 18,12 L18,18 C18,19.1045695 17.1045695,20 16,20 L2,20 C0.8954305,20 0,19.1045695 0,18 L0,4 C0,2.9 0.9,2 2,2 L8,2 C8.55228475,2 9,2.44771525 9,3 C9,3.55228475 8.55228475,4 8,4 L2,4 L2,18 L16,18 L16,12 Z" id="Shape"></path>
            </g>
        </g>
    </g>
</svg>