<?xml version="1.0" encoding="UTF-8"?>
<svg width="20px" height="20px" viewBox="0 0 20 20" version="1.1" xmlns="http://www.w3.org/2000/svg" xmlns:xlink="http://www.w3.org/1999/xlink">
    <!-- Generator: Sketch 51.1 (57501) - http://www.bohemiancoding.com/sketch -->
    <title>icons/ui/expand-white</title>
    <desc>Created with Sketch.</desc>
    <defs></defs>
    <g id="icons/ui/expand-white" stroke="none" stroke-width="1" fill="none" fill-rule="evenodd">
        <path d="M4,16 L8,16 L8,19 L4,19 L2,19 C1.44771525,19 1,18.5522847 1,18 L1,12 L4,12 L4,16 Z M4,1 L8,1 L8,4 L4,4 L4,8 L1,8 L1,2 C1,1.44771525 1.44771525,1 2,1 L4,1 Z M16,1 L18,1 C18.5522847,1 19,1.44771525 19,2 L19,8 L16,8 L16,4 L12,4 L12,1 L16,1 Z M16,19 L12,19 L12,16 L16,16 L16,12 L19,12 L19,18 C19,18.5522847 18.5522847,19 18,19 L16,19 Z" id="Combined-Shape" fill="#FFFFFF"></path>
    </g>
</svg>