<?xml version="1.0" encoding="UTF-8"?>
<svg width="20px" height="20px" viewBox="0 0 20 20" version="1.1" xmlns="http://www.w3.org/2000/svg" xmlns:xlink="http://www.w3.org/1999/xlink">
    <!-- Generator: Sketch 51.1 (57501) - http://www.bohemiancoding.com/sketch -->
    <title>icons/ui/facebook-color</title>
    <desc>Created with Sketch.</desc>
    <defs></defs>
    <g id="icons/ui/facebook-color" stroke="none" stroke-width="1" fill="none" fill-rule="evenodd">
        <g id="f-ogo_RGB_HEX-58" fill-rule="nonzero">
            <path d="M18.8965517,0 L1.10344828,0 C0.494030621,-3.7316069e-17 7.46321381e-17,0.494030621 0,1.10344828 L0,18.8965517 C7.46321381e-17,19.5059694 0.494030621,20 1.10344828,20 L10.6896552,20 L10.6896552,12.2655172 L8.0862069,12.2655172 L8.0862069,9.23793103 L10.6896552,9.23793103 L10.6896552,7.01034483 C10.6896552,4.42758621 12.2689655,3.02068966 14.5724138,3.02068966 C15.3486461,3.01899684 16.1244303,3.05813135 16.8965517,3.13793103 L16.8965517,5.83793103 L15.3103448,5.83793103 C14.0551724,5.83793103 13.8103448,6.43103448 13.8103448,7.30689655 L13.8103448,9.23448276 L16.8103448,9.23448276 L16.4206897,12.262069 L13.7931034,12.262069 L13.7931034,20 L18.8965517,20 C19.5059694,20 20,19.5059694 20,18.8965517 L20,1.10344828 C20,0.494030621 19.5059694,3.7316069e-17 18.8965517,0 Z" id="Shape" fill="#4267B2"></path>
            <path d="M13.7931034,20 L13.7931034,12.2655172 L16.4034483,12.2655172 L16.7931034,9.23793103 L13.7931034,9.23793103 L13.7931034,7.31034483 C13.7931034,6.43448276 14.037931,5.84137931 15.2931034,5.84137931 L16.8965517,5.84137931 L16.8965517,3.13793103 C16.1232863,3.0580105 15.3463479,3.01887583 14.5689655,3.02068966 C12.262069,3.02068966 10.6896552,4.42758621 10.6896552,7.01034483 L10.6896552,9.23793103 L8.0862069,9.23793103 L8.0862069,12.2655172 L10.6896552,12.2655172 L10.6896552,20 L13.7931034,20 Z" id="f" fill="#FFFFFF"></path>
        </g>
    </g>
</svg>