<?xml version="1.0" encoding="UTF-8"?>
<svg width="20px" height="20px" viewBox="0 0 20 20" version="1.1" xmlns="http://www.w3.org/2000/svg" xmlns:xlink="http://www.w3.org/1999/xlink">
    <!-- Generator: Sketch 50.2 (55047) - http://www.bohemiancoding.com/sketch -->
    <title>icons/ui/file-gray</title>
    <desc>Created with Sketch.</desc>
    <defs></defs>
    <g id="icons/ui/file-gray" stroke="none" stroke-width="1" fill="none" fill-rule="evenodd">
        <g id="icon-file" transform="translate(2.000000, 0.000000)" fill="#A0A5A9" fill-rule="nonzero">
            <path d="M2,0 L11,0 C11.2637693,0.00375704786 11.5153695,0.111585736 11.7,0.3 L15.7,4.3 C15.8884143,4.48463046 15.996243,4.73623073 16,5 L16,18 C16,19.1045695 15.1045695,20 14,20 L2,20 C0.8954305,20 0,19.1045695 0,18 L0,2 C0,0.9 0.9,0 2,0 Z M11,2.41 L11,5 L13.59,5 L11,2.41 Z M14,7 L11,7 C9.8954305,7 9,6.1045695 9,5 L9,2 L2,2 L2,18 L14,18 L14,7 Z M12,14 C12,14.5522847 11.5522847,15 11,15 L5,15 C4.44771525,15 4,14.5522847 4,14 C4,13.4477153 4.44771525,13 5,13 L11,13 C11.5522847,13 12,13.4477153 12,14 Z M12,10 C12,10.5522847 11.5522847,11 11,11 L5,11 C4.44771525,11 4,10.5522847 4,10 C4,9.44771525 4.44771525,9 5,9 L11,9 C11.5522847,9 12,9.44771525 12,10 Z M7,6 C7,6.55228475 6.55228475,7 6,7 L5,7 C4.44771525,7 4,6.55228475 4,6 C4,5.44771525 4.44771525,5 5,5 L6,5 C6.55228475,5 7,5.44771525 7,6 Z" id="Shape"></path>
        </g>
    </g>
</svg>