<?xml version="1.0" encoding="UTF-8"?>
<svg width="20px" height="20px" viewBox="0 0 20 20" version="1.1" xmlns="http://www.w3.org/2000/svg" xmlns:xlink="http://www.w3.org/1999/xlink">
    <!-- Generator: Sketch 51.1 (57501) - http://www.bohemiancoding.com/sketch -->
    <title>icons/ui/google-color</title>
    <desc>Created with Sketch.</desc>
    <defs></defs>
    <g id="icons/ui/google-color" stroke="none" stroke-width="1" fill="none" fill-rule="evenodd">
        <g id="super-g" fill="#000000">
            <path d="M10,3.86666667 C11.8777778,3.86666667 13.1444444,4.67777778 13.8666667,5.35555556 L16.6888889,2.6 C14.9555556,0.988888889 12.7,0 10,0 C6.08888889,0 2.71111111,2.24444444 1.06666667,5.51111111 L4.3,8.02222222 C5.11111111,5.61111111 7.35555556,3.86666667 10,3.86666667 L10,3.86666667 Z" id="Shape" fill="#EA4335"></path>
            <path d="M19.6,10.2222222 C19.6,9.4 19.5333333,8.8 19.3888889,8.17777778 L10,8.17777778 L10,11.8888889 L15.5111111,11.8888889 C15.4,12.8111111 14.8,14.2 13.4666667,15.1333333 L16.6222222,17.5777778 C18.5111111,15.8333333 19.6,13.2666667 19.6,10.2222222 L19.6,10.2222222 Z" id="Shape" fill="#4285F4"></path>
            <path d="M4.31111111,11.9777778 C4.1,11.3555556 3.97777778,10.6888889 3.97777778,10 C3.97777778,9.31111111 4.1,8.64444444 4.3,8.02222222 L1.06666667,5.51111111 C0.388888889,6.86666667 0,8.38888889 0,10 C0,11.6111111 0.388888889,13.1333333 1.06666667,14.4888889 L4.31111111,11.9777778 L4.31111111,11.9777778 Z" id="Shape" fill="#FBBC05"></path>
            <path d="M10,20 C12.7,20 14.9666667,19.1111111 16.6222222,17.5777778 L13.4666667,15.1333333 C12.6222222,15.7222222 11.4888889,16.1333333 10,16.1333333 C7.35555556,16.1333333 5.11111111,14.3888889 4.31111111,11.9777778 L1.07777778,14.4888889 C2.72222222,17.7555556 6.08888889,20 10,20 L10,20 Z" id="Shape" fill="#34A853"></path>
            <polygon id="Shape" fill="none" points="0 0 20 0 20 20 0 20"></polygon>
        </g>
    </g>
</svg>