<?xml version="1.0" encoding="UTF-8" standalone="no"?>
<svg width="20px" height="20px" viewBox="0 0 20 20" version="1.1" xmlns="http://www.w3.org/2000/svg" xmlns:xlink="http://www.w3.org/1999/xlink">
    <!-- Generator: Sketch 48.2 (47327) - http://www.bohemiancoding.com/sketch -->
    <title>icons/ui/graph-bar</title>
    <desc>Created with Sketch.</desc>
    <defs></defs>
    <g id="UI-Components-(Symbols)" stroke="none" stroke-width="1" fill="none" fill-rule="evenodd">
        <g id="icons/ui/graph-bar" fill="#424B54" fill-rule="nonzero">
            <g id="icon-graph-bar">
                <path d="M18,20 L2,20 C0.8954305,20 0,19.1045695 0,18 L0,10 C0,8.9 0.9,8 2,8 L6,8 L6,6 C6,4.9 6.9,4 8,4 L12,4 L12,2 C12,0.9 12.9,0 14,0 L18,0 C19.1045695,0 20,0.8954305 20,2 L20,18 C20,19.1045695 19.1045695,20 18,20 Z M12,6 L8,6 L8,18 L12,18 L12,6 Z M6,10 L2,10 L2,18 L6,18 L6,10 Z M14,2 L14,18 L18,18 L18,2 L14,2 Z" id="Shape"></path>
            </g>
        </g>
    </g>
</svg>