<?xml version="1.0" encoding="UTF-8"?>
<svg width="20px" height="20px" viewBox="0 0 20 20" version="1.1" xmlns="http://www.w3.org/2000/svg" xmlns:xlink="http://www.w3.org/1999/xlink">
    <!-- Generator: Sketch 48.2 (47327) - http://www.bohemiancoding.com/sketch -->
    <title>icons/ui/heart</title>
    <desc>Created with Sketch.</desc>
    <defs></defs>
    <g id="UI-Components-(Symbols)" stroke="none" stroke-width="1" fill="none" fill-rule="evenodd">
        <g id="icons/ui/heart" fill="#424B54" fill-rule="nonzero">
            <g id="icon-heart" transform="translate(0.000000, 1.000000)">
                <path d="M10.6909091,1.584 C12.8400709,-0.398583795 16.1891616,-0.340083907 18.2663404,1.71632305 C20.3435191,3.77273 20.4026099,7.08832977 18.4,9.216 L10.6454545,16.902 C10.4747576,17.0723814 10.2423978,17.1682185 10,17.1682185 C9.75760224,17.1682185 9.52524236,17.0723814 9.35454545,16.902 L1.6,9.216 C-0.402609894,7.08832977 -0.343519098,3.77273 1.73365964,1.71632305 C3.81083839,-0.340083907 7.15992906,-0.398583795 9.30909091,1.584 L10,2.259 L10.6909091,1.584 Z M17.1181818,7.947 C18.0373287,7.03704454 18.3962965,5.71075557 18.0598654,4.4677333 C17.7234342,3.22471103 16.7427161,2.25380011 15.4871381,1.9207333 C14.23156,1.58766648 12.8918742,1.94304454 11.9727273,2.853 L10.6454545,4.176 C10.4747576,4.34638139 10.2423978,4.44221849 10,4.44221849 C9.75760224,4.44221849 9.52524236,4.34638139 9.35454545,4.176 L8.02727273,2.853 C6.60639469,1.44633074 4.30269622,1.44633074 2.88181818,2.853 C1.46094014,4.25966926 1.46094014,6.54033074 2.88181818,7.947 L10,14.994 L17.1181818,7.947 Z" id="Shape"></path>
            </g>
        </g>
    </g>
</svg>