<?xml version="1.0" encoding="UTF-8"?>
<svg width="20px" height="20px" viewBox="0 0 20 20" version="1.1" xmlns="http://www.w3.org/2000/svg" xmlns:xlink="http://www.w3.org/1999/xlink">
    <!-- Generator: Sketch 50.2 (55047) - http://www.bohemiancoding.com/sketch -->
    <title>icons/ui/help</title>
    <desc>Created with Sketch.</desc>
    <defs></defs>
    <g id="icons/ui/help" stroke="none" stroke-width="1" fill="none" fill-rule="evenodd">
        <g id="icon-help" fill="#424B54" fill-rule="nonzero">
            <path d="M10,20 C4.4771525,20 2.22044605e-15,15.5228475 1.77635684e-15,10 C1.33226763e-15,4.4771525 4.4771525,2.66453526e-15 10,1.77635684e-15 C15.5228475,2.22044605e-15 20,4.4771525 20,10 C20,15.5228475 15.5228475,20 10,20 Z M10,18 C14.418278,18 18,14.418278 18,10 C18,5.581722 14.418278,2 10,2 C5.581722,2 2,5.581722 2,10 C2,14.418278 5.581722,18 10,18 Z M8.59,6.59 C8.33634143,6.84365859 7.96662601,6.94272355 7.62012195,6.84987807 C7.27361789,6.75703259 7.00296741,6.48638211 6.91012193,6.13987805 C6.81727645,5.79337399 6.91634141,5.42365857 7.17,5.17 C8.73296584,3.60703416 11.2670342,3.60703416 12.83,5.17 C14.3929658,6.73296584 14.3929658,9.26703416 12.83,10.83 L10.71,12.95 C10.4563414,13.2036586 10.086626,13.3027235 9.74012196,13.209878 C9.3936179,13.1170326 9.12296743,12.8463821 9.03012195,12.499878 C8.93727647,12.153374 9.03634142,11.7836586 9.29,11.53 L11.41,9.41 C12.0421058,8.61408593 11.9767382,7.47064626 11.2580459,6.75195405 C10.5393537,6.03326184 9.39591407,5.96789416 8.6,6.6 L8.59,6.59 Z M10,16 C9.44771525,16 9,15.5522847 9,15 C9,14.4477153 9.44771525,14 10,14 C10.5522847,14 11,14.4477153 11,15 C11,15.5522847 10.5522847,16 10,16 Z" id="Shape"></path>
        </g>
    </g>
</svg>