<?xml version="1.0" encoding="UTF-8"?>
<svg width="20px" height="20px" viewBox="0 0 20 20" version="1.1" xmlns="http://www.w3.org/2000/svg" xmlns:xlink="http://www.w3.org/1999/xlink">
    <!-- Generator: Sketch 50.2 (55047) - http://www.bohemiancoding.com/sketch -->
    <title>icons/ui/home-white</title>
    <desc>Created with Sketch.</desc>
    <defs></defs>
    <g id="icons/ui/home-white" stroke="none" stroke-width="1" fill="none" fill-rule="evenodd">
        <g id="icon-home" fill="#FFFFFF" fill-rule="nonzero">
            <path d="M11.0547295,17.9958572 L11.0547295,12.9958572 L9.05472949,12.9958572 L9.05472949,17.9958572 C9.05472949,19.1004267 8.15929899,19.9958572 7.05472949,19.9958572 L4.05472949,19.9958572 C2.95015999,19.9958572 2.05472949,19.1004267 2.05472949,17.9958572 L2.05472949,10.4058572 L1.75472949,10.7058572 C1.50828075,10.9893537 1.12374405,11.1108229 0.75916151,11.0203418 C0.394578968,10.9298607 0.111456511,10.6426937 0.026155642,10.2768644 C-0.0591452271,9.91103522 0.0677659487,9.52826009 0.354729495,9.28585716 L9.35472949,0.285857157 C9.743573,-0.095285719 10.365886,-0.095285719 10.7547295,0.285857157 L19.7547295,9.28585716 C20.0975222,9.68018066 20.0789637,10.2719355 19.7121356,10.644004 C19.3453075,11.0160725 18.7538754,11.0430224 18.3547295,10.7058572 L18.0547295,10.4058572 L18.0547295,17.9958572 C18.0547295,19.1004267 17.159299,19.9958572 16.0547295,19.9958572 L13.0547295,19.9958572 C11.95016,19.9958572 11.0547295,19.1004267 11.0547295,17.9958572 Z M16.0547295,17.9958572 L16.0547295,8.40585716 L10.0547295,2.40585716 L4.05472949,8.40585716 L4.05472949,17.9958572 L7.05472949,17.9958572 L7.05472949,12.9958572 C7.05472949,11.8958572 7.95472949,10.9958572 9.05472949,10.9958572 L11.0547295,10.9958572 C12.159299,10.9958572 13.0547295,11.8912877 13.0547295,12.9958572 L13.0547295,17.9958572 L16.0547295,17.9958572 Z" id="Shape"></path>
        </g>
    </g>
</svg>