<?xml version="1.0" encoding="UTF-8"?>
<svg width="20px" height="20px" viewBox="0 0 20 20" version="1.1" xmlns="http://www.w3.org/2000/svg" xmlns:xlink="http://www.w3.org/1999/xlink">
    <!-- Generator: Sketch 50.2 (55047) - http://www.bohemiancoding.com/sketch -->
    <title>icons/ui/information</title>
    <desc>Created with Sketch.</desc>
    <defs></defs>
    <g id="icons/ui/information" stroke="none" stroke-width="1" fill="none" fill-rule="evenodd">
        <g id="icon-information" fill="#424B54" fill-rule="nonzero">
            <path d="M10,20 C4.4771525,20 2.22044605e-15,15.5228475 1.77635684e-15,10 C1.33226763e-15,4.4771525 4.4771525,2.66453526e-15 10,1.77635684e-15 C15.5228475,2.22044605e-15 20,4.4771525 20,10 C20,15.5228475 15.5228475,20 10,20 Z M10,18 C14.418278,18 18,14.418278 18,10 C18,5.581722 14.418278,2 10,2 C5.581722,2 2,5.581722 2,10 C2,14.418278 5.581722,18 10,18 Z M10,9 C10.5522847,9 11,9.44771525 11,10 L11,14 C11,14.5522847 10.5522847,15 10,15 C9.44771525,15 9,14.5522847 9,14 L9,10 C9,9.44771525 9.44771525,9 10,9 Z M10,5 C10.5522847,5 11,5.44771525 11,6 C11,6.55228475 10.5522847,7 10,7 C9.44771525,7 9,6.55228475 9,6 C9,5.44771525 9.44771525,5 10,5 Z" id="Shape"></path>
        </g>
    </g>
</svg>