<?xml version="1.0" encoding="UTF-8"?>
<svg width="20px" height="20px" viewBox="0 0 20 20" version="1.1" xmlns="http://www.w3.org/2000/svg" xmlns:xlink="http://www.w3.org/1999/xlink">
    <!-- Generator: Sketch 50.2 (55047) - http://www.bohemiancoding.com/sketch -->
    <title>icons/ui/instagram</title>
    <desc>Created with Sketch.</desc>
    <defs></defs>
    <g id="icons/ui/instagram" stroke="none" stroke-width="1" fill="none" fill-rule="evenodd">
        <g id="Instagram_logo_2016" fill="#424B54" fill-rule="nonzero">
            <path d="M10.0009375,0 C7.28507589,0 6.944239,0.011875 5.87756122,0.0604166667 C4.8129668,0.109166667 4.08629257,0.277708333 3.45045261,0.525 C2.79273742,0.780416667 2.23481495,1.12208333 1.67897582,1.678125 C1.12272003,2.23395833 0.781049803,2.791875 0.524797133,3.449375 C0.276877884,4.08541667 0.108126126,4.81229167 0.0602089605,5.87645833 C0.0125001302,6.943125 0,7.28416667 0,10 C0,12.7158333 0.0120834592,13.055625 0.060417296,14.1222917 C0.109376139,15.186875 0.277919562,15.9135417 0.525005469,16.549375 C0.780633132,17.2070833 1.12230336,17.765 1.67835082,18.3208333 C2.2339816,18.8770833 2.79190408,19.2195833 3.4492026,19.475 C4.08545922,19.7222917 4.8123418,19.8908333 5.87672788,19.9395833 C6.94340566,19.988125 7.28403421,20 9.9996875,20 C12.7157575,20 13.0555527,19.988125 14.1222304,19.9395833 C15.1868249,19.8908333 15.9143324,19.7222917 16.5505891,19.475 C17.2080959,19.2195833 17.7651851,18.8770833 18.3208158,18.3208333 C18.8770716,17.765 19.2187419,17.2070833 19.4749945,16.5495833 C19.7208304,15.9135417 19.8895822,15.1866667 19.9395827,14.1225 C19.9874999,13.0558333 20,12.7158333 20,10 C20,7.28416667 19.9874999,6.94333333 19.9395827,5.87666667 C19.8895822,4.81208333 19.7208304,4.08541667 19.4749945,3.44958333 C19.2187419,2.791875 18.8770716,2.23395833 18.3208158,1.678125 C17.76456,1.121875 17.2083043,0.780208333 16.5499641,0.525 C15.9124574,0.277708333 15.1853665,0.109166667 14.1207721,0.0604166667 C13.0540943,0.011875 12.7145074,2.96059473e-15 9.99781248,2.96059473e-15 L10.0009375,0 Z M9.10384483,1.80208333 C9.37009761,1.80166667 9.66718403,1.80208333 10.0009375,1.80208333 C12.6709653,1.80208333 12.987427,1.81166667 14.0418129,1.85958333 C15.0168231,1.90416667 15.5459953,2.06708333 15.8984989,2.20395833 C16.3651705,2.38520833 16.6978823,2.601875 17.0476776,2.951875 C17.3976812,3.301875 17.6143501,3.63520833 17.7960187,4.101875 C17.9328951,4.45395833 18.0960218,4.983125 18.1403973,5.958125 C18.1883145,7.01229167 18.1987312,7.32895833 18.1987312,9.99770833 C18.1987312,12.6664583 18.1883145,12.983125 18.1403973,14.0372917 C18.0958135,15.0122917 17.9328951,15.5414583 17.7960187,15.8935417 C17.6147668,16.3602083 17.3976812,16.6925 17.0476776,17.0422917 C16.6976739,17.3922917 16.3653788,17.6089583 15.8984989,17.7902083 C15.5464119,17.9277083 15.0168231,18.0902083 14.0418129,18.1347917 C12.9876353,18.1827083 12.6709653,18.193125 10.0009375,18.193125 C7.33070136,18.193125 7.01423973,18.1827083 5.96006208,18.1347917 C4.98505193,18.0897917 4.45587975,17.926875 4.10316774,17.79 C3.63649621,17.60875 3.30315941,17.3920833 2.95315576,17.0420833 C2.60315212,16.6920833 2.38648319,16.3595833 2.20481463,15.8927083 C2.06793821,15.540625 1.90481151,15.0114583 1.86043605,14.0364583 C1.81251888,12.9822917 1.80293545,12.665625 1.80293545,9.99520833 C1.80293545,7.32479167 1.81251888,7.00979167 1.86043605,5.955625 C1.90501984,4.980625 2.06793821,4.45145833 2.20481463,4.09895833 C2.38606652,3.63229167 2.60315212,3.29895833 2.95315576,2.94895833 C3.30315941,2.59895833 3.63649621,2.38229167 4.10316774,2.200625 C4.45567141,2.063125 4.98505193,1.900625 5.96006208,1.85583333 C6.88257169,1.81416667 7.24007542,1.80166667 9.10384483,1.79958333 L9.10384483,1.80208333 Z M15.3389098,3.4625 C14.6764029,3.4625 14.1388973,3.999375 14.1388973,4.66208333 C14.1388973,5.32458333 14.6764029,5.86208333 15.3389098,5.86208333 C16.0014167,5.86208333 16.5389223,5.32458333 16.5389223,4.66208333 C16.5389223,3.99958333 16.0014167,3.46208333 15.3389098,3.46208333 L15.3389098,3.4625 Z M10.0009375,4.86458333 C7.1648663,4.86458333 4.86546735,7.16395833 4.86546735,10 C4.86546735,12.8360417 7.1648663,15.134375 10.0009375,15.134375 C12.8370087,15.134375 15.1355743,12.8360417 15.1355743,10 C15.1355743,7.16395833 12.8368004,4.86458333 10.0007292,4.86458333 L10.0009375,4.86458333 Z M10.0009375,6.66666667 C11.84179,6.66666667 13.3343056,8.15895833 13.3343056,10 C13.3343056,11.8408333 11.84179,13.3333333 10.0009375,13.3333333 C8.15987667,13.3333333 6.66756945,11.8408333 6.66756945,10 C6.66756945,8.15895833 8.15987667,6.66666667 10.0009375,6.66666667 Z" id="Shape"></path>
        </g>
    </g>
</svg>