<?xml version="1.0" encoding="UTF-8"?>
<svg width="20px" height="20px" viewBox="0 0 20 20" version="1.1" xmlns="http://www.w3.org/2000/svg" xmlns:xlink="http://www.w3.org/1999/xlink">
    <!-- Generator: Sketch 48.2 (47327) - http://www.bohemiancoding.com/sketch -->
    <title>icons/ui/lock</title>
    <desc>Created with Sketch.</desc>
    <defs></defs>
    <g id="UI-Components-(Symbols)" stroke="none" stroke-width="1" fill="none" fill-rule="evenodd">
        <g id="icons/ui/lock" fill="#424B54" fill-rule="nonzero">
            <g id="icon-lock-closed" transform="translate(1.000000, 0.000000)">
                <path d="M4,8 L4,5 C4,2.23857625 6.23857625,1.33226763e-15 9,8.8817842e-16 C11.7614237,0 14,2.23857625 14,5 L14,8 L16,8 C17.1045695,8 18,8.8954305 18,10 L18,18 C18,19.1045695 17.1045695,20 16,20 L2,20 C0.8954305,20 0,19.1045695 0,18 L0,10 C0,8.9 0.9,8 2,8 L4,8 Z M6,8 L12,8 L12,5 C12,3.34314575 10.6568542,2 9,2 C7.34314575,2 6,3.34314575 6,5 L6,8 Z M2,10 L2,18 L16,18 L16,10 L2,10 Z M9,12 C9.55228475,12 10,12.4477153 10,13 L10,15 C10,15.5522847 9.55228475,16 9,16 C8.44771525,16 8,15.5522847 8,15 L8,13 C8,12.4477153 8.44771525,12 9,12 Z" id="Shape"></path>
            </g>
        </g>
    </g>
</svg>