<?xml version="1.0" encoding="UTF-8"?>
<svg width="20px" height="20px" viewBox="0 0 20 20" version="1.1" xmlns="http://www.w3.org/2000/svg" xmlns:xlink="http://www.w3.org/1999/xlink">
    <!-- Generator: Sketch 51.1 (57501) - http://www.bohemiancoding.com/sketch -->
    <title>icons/ui/mail</title>
    <desc>Created with Sketch.</desc>
    <defs></defs>
    <g id="icons/ui/mail" stroke="none" stroke-width="1" fill="none" fill-rule="evenodd">
        <g id="icon-mail" transform="translate(0.000000, 2.000000)" fill="#424B54" fill-rule="nonzero">
            <path d="M2,0 L18,0 C19.1045695,0 20,0.8954305 20,2 L20,14 C20,15.1045695 19.1045695,16 18,16 L2,16 C0.8954305,16 0,15.1045695 0,14 L0,2 C0,0.9 0.9,0 2,0 Z M18,3.38 L18,2 L2,2 L2,3.38 L10,7.38 L18,3.38 Z M18,5.62 L10.45,9.39 C10.1669524,9.53262859 9.83304757,9.53262859 9.55,9.39 L2,5.62 L2,14 L18,14 L18,5.62 Z" id="Shape"></path>
        </g>
    </g>
</svg>