<?xml version="1.0" encoding="UTF-8"?>
<svg width="20px" height="20px" viewBox="0 0 20 20" version="1.1" xmlns="http://www.w3.org/2000/svg" xmlns:xlink="http://www.w3.org/1999/xlink">
    <!-- Generator: Sketch 51.1 (57501) - http://www.bohemiancoding.com/sketch -->
    <title>icons/ui/pause-white</title>
    <desc>Created with Sketch.</desc>
    <defs></defs>
    <g id="icons/ui/pause-white" stroke="none" stroke-width="1" fill="none" fill-rule="evenodd">
        <path d="M4,1 L7,1 C7.55228475,1 8,1.44771525 8,2 L8,18 C8,18.5522847 7.55228475,19 7,19 L4,19 C3.44771525,19 3,18.5522847 3,18 L3,2 C3,1.44771525 3.44771525,1 4,1 Z M13,1 L16,1 C16.5522847,1 17,1.44771525 17,2 L17,18 C17,18.5522847 16.5522847,19 16,19 L13,19 C12.4477153,19 12,18.5522847 12,18 L12,2 C12,1.44771525 12.4477153,1 13,1 Z" id="Combined-Shape" fill="#FFFFFF"></path>
    </g>
</svg>