<?xml version="1.0" encoding="UTF-8"?>
<svg width="20px" height="20px" viewBox="0 0 20 20" version="1.1" xmlns="http://www.w3.org/2000/svg" xmlns:xlink="http://www.w3.org/1999/xlink">
    <!-- Generator: Sketch 50.2 (55047) - http://www.bohemiancoding.com/sketch -->
    <title>icons/ui/twitter</title>
    <desc>Created with Sketch.</desc>
    <defs></defs>
    <g id="icons/ui/twitter" stroke="none" stroke-width="1" fill="none" fill-rule="evenodd">
        <g id="001-twitter-black-shape" transform="translate(0.000000, 2.000000)" fill="#424B54" fill-rule="nonzero">
            <path d="M19.4045288,2.41600003 C19.3059353,2.44479477 19.2073786,2.47160367 19.1088219,2.49657382 C18.5063021,2.64871154 18.4509191,2.44795741 18.8871429,2.00504062 C19.0824911,1.80656653 19.2551124,1.59069792 19.4050069,1.35754511 C19.7410191,0.834716482 19.449578,0.606712156 18.8779124,0.850934209 C18.6739956,0.938053927 18.4666955,1.01704639 18.256527,1.08747031 C17.6675036,1.28528245 16.8316471,0.986890982 16.3067958,0.654004667 C15.6441858,0.233814759 14.8911464,0.0238301295 14.0474201,0.0238301295 C12.8655854,0.0238301295 11.8582476,0.440636747 11.0248182,1.27358803 C10.1916463,2.10698062 9.77483965,3.11461264 9.77483965,4.29615312 C9.77483965,4.457742 9.78407015,4.62179479 9.8023105,4.78812762 C9.83224526,5.05886437 9.37627338,5.25513196 8.7609559,5.1682329 C7.42992548,4.9803132 6.16531052,4.57700297 4.96685359,3.9587435 C3.7782891,3.34566928 2.72928533,2.57416884 1.82002614,1.64420539 C1.3853837,1.19974405 0.797537067,1.23802671 0.635249472,1.83800907 C0.538016659,2.1976675 0.489657677,2.57170492 0.489657677,2.96019487 C0.489657677,3.69230941 0.661580294,4.371321 1.00549908,4.99722965 C1.1765391,5.30871298 1.37685193,5.59070285 1.60687887,5.84301538 C1.99378751,6.2677286 1.93457993,6.51415714 1.39601165,6.36315944 C0.857664014,6.21216173 0.463142981,5.987982 0.463142981,6.0026184 C0.463142981,6.01725481 0.463142981,6.02916988 0.463142981,6.02916988 C0.463142981,7.06063203 0.787019448,7.96694922 1.43517691,8.74723886 C1.8344419,9.22796024 2.29828361,9.5993131 2.82651814,9.86085612 C3.38354742,10.1367781 3.64303105,10.2906811 3.33154773,10.3309863 C3.14362803,10.3552945 2.95456832,10.3674302 2.76440535,10.3674302 C2.63569323,10.3674302 2.50065583,10.361583 2.35977122,10.349668 C2.13695216,10.3307657 2.0969043,10.7950487 2.43471845,11.3167741 C2.70321193,11.7313374 3.04687329,12.0961443 3.46551865,12.4112684 C3.89133512,12.7319822 4.35024899,12.962193 4.84152476,13.1024157 C5.43930062,13.2727938 5.55926031,13.5831738 5.02628182,13.9027476 C3.70742389,14.6941065 2.247902,15.0897308 0.647936809,15.0897308 C0.467666292,15.0897308 0.295706901,15.0856856 0.131433461,15.0778157 C-0.153719046,15.0640987 0.0375839389,15.3152344 0.588067286,15.6035496 C2.30821283,16.5044977 4.17104494,16.9545856 6.17682106,16.9545856 C7.69330726,16.9545856 9.11748847,16.7144823 10.4491808,16.2339448 C11.7803951,15.7534441 12.9180999,15.1095157 13.8615598,14.3026746 C14.8050196,13.4958335 15.6186273,12.5678926 16.3021254,11.5184108 C16.9854397,10.4689657 17.4945145,9.37333139 17.8298647,8.23161811 C18.1647369,7.08964742 18.3324304,5.94543345 18.3324304,4.79897621 C18.3324304,4.69567554 18.3315478,4.60292927 18.3299665,4.52125223 C18.3268038,4.36775384 18.7328354,3.95227112 19.186086,3.52715337 C19.3906647,3.33518844 19.5857922,3.13373559 19.7721674,2.92242706 C20.1832739,2.45582724 20.0012014,2.24201802 19.4045288,2.41600003 Z" id="Shape"></path>
        </g>
    </g>
</svg>