<?xml version="1.0" encoding="UTF-8" standalone="no"?>
<svg width="20px" height="20px" viewBox="0 0 20 20" version="1.1" xmlns="http://www.w3.org/2000/svg" xmlns:xlink="http://www.w3.org/1999/xlink">
    <!-- Generator: Sketch 48.2 (47327) - http://www.bohemiancoding.com/sketch -->
    <title>icons/ui/upload</title>
    <desc>Created with Sketch.</desc>
    <defs></defs>
    <g id="UI-Components-(Symbols)" stroke="none" stroke-width="1" fill="none" fill-rule="evenodd">
        <g id="icons/ui/upload" fill="#424B54" fill-rule="nonzero">
            <g id="icon-upload" transform="translate(1.000000, 0.000000)">
                <path d="M10,3.41 L10,15 C10,15.5522847 9.55228475,16 9,16 C8.44771525,16 8,15.5522847 8,15 L8,3.41 L4.7,6.71 C4.3008541,7.04716526 3.70942204,7.02021537 3.34259392,6.64814684 C2.97576579,6.27607831 2.9572073,5.68432351 3.3,5.29 L8.3,0.29 C8.68884351,-0.0911428762 9.31115649,-0.0911428762 9.7,0.29 L14.7,5.29 C14.9869635,5.53240293 15.1138747,5.91517806 15.0285739,6.28100729 C14.943273,6.64683651 14.6601505,6.93400357 14.295568,7.02448467 C13.9309854,7.11496576 13.5464487,6.99349651 13.3,6.71 L10,3.4 L10,3.41 Z M0,15 C0,14.4477153 0.44771525,14 1,14 C1.55228475,14 2,14.4477153 2,15 L2,18 L16,18 L16,15 C16,14.4477153 16.4477153,14 17,14 C17.5522847,14 18,14.4477153 18,15 L18,18 C18,19.1045695 17.1045695,20 16,20 L2,20 C0.8954305,20 0,19.1045695 0,18 L0,15 Z" id="Shape"></path>
            </g>
        </g>
    </g>
</svg>