<?xml version="1.0" encoding="UTF-8"?>
<svg width="20px" height="20px" viewBox="0 0 20 20" version="1.1" xmlns="http://www.w3.org/2000/svg" xmlns:xlink="http://www.w3.org/1999/xlink">
    <!-- Generator: Sketch 51.1 (57501) - http://www.bohemiancoding.com/sketch -->
    <title>icons/ui/user-plus</title>
    <desc>Created with Sketch.</desc>
    <defs></defs>
    <g id="icons/ui/user-plus" stroke="none" stroke-width="1" fill="none" fill-rule="evenodd">
        <g id="icon-user-plus" fill="#424B54" fill-rule="nonzero">
            <path d="M17,8 L19,8 C19.5522847,8 20,8.44771525 20,9 C20,9.55228475 19.5522847,10 19,10 L17,10 L17,12 C17,12.5522847 16.5522847,13 16,13 C15.4477153,13 15,12.5522847 15,12 L15,10 L13,10 C12.4477153,10 12,9.55228475 12,9 C12,8.44771525 12.4477153,8 13,8 L15,8 L15,6 C15,5.44771525 15.4477153,5 16,5 C16.5522847,5 17,5.44771525 17,6 L17,8 Z M7,10 C4.23857625,10 2,7.76142375 2,5 C2,2.23857625 4.23857625,1.33226763e-15 7,8.8817842e-16 C9.76142375,2.22044605e-15 12,2.23857625 12,5 C12,7.76142375 9.76142375,10 7,10 Z M7,8 C8.07179678,8.00000002 9.06217785,7.42820325 9.59807625,6.50000001 C10.1339746,5.57179678 10.1339746,4.42820322 9.59807625,3.49999999 C9.06217785,2.57179675 8.07179678,1.99999998 7,2 C5.34314577,2.00000002 4.00000004,3.34314577 4.00000004,5 C4.00000004,6.65685423 5.34314577,7.99999998 7,8 Z M15,19 C15,19.5522847 14.5522847,20 14,20 C13.4477153,20 13,19.5522847 13,19 L13,17 C13,15.3431458 11.6568542,14 10,14 L5,14 C3.34314575,14 2,15.3431458 2,17 L2,19 C2,19.5522847 1.55228475,20 1,20 C0.44771525,20 -8.8817842e-16,19.5522847 -8.8817842e-16,19 L-8.8817842e-16,17 C-6.66133815e-16,14.2385763 2.23857625,12 5,12 L10,12 C12.7614237,12 15,14.2385763 15,17 L15,19 Z" id="Shape"></path>
        </g>
    </g>
</svg>