<?xml version="1.0" encoding="UTF-8" standalone="no"?>
<svg width="20px" height="20px" viewBox="0 0 20 20" version="1.1" xmlns="http://www.w3.org/2000/svg" xmlns:xlink="http://www.w3.org/1999/xlink">
    <!-- Generator: Sketch 48.2 (47327) - http://www.bohemiancoding.com/sketch -->
    <title>icons/ui/view-gray</title>
    <desc>Created with Sketch.</desc>
    <defs></defs>
    <g id="UI-Components-(Symbols)" stroke="none" stroke-width="1" fill="none" fill-rule="evenodd">
        <g id="icons/ui/view-gray" fill="#A0A5A9" fill-rule="nonzero">
            <g id="icon-view" transform="translate(0.000000, 2.000000)">
                <path d="M15.0545455,13.0311111 C13.6904127,14.3664145 11.83934,15.1167051 9.90909091,15.1167051 C7.97884183,15.1167051 6.12776914,14.3664145 4.76363636,13.0311111 L0.272727273,8.62222222 C0.100624863,8.45531858 0.00381970514,8.22812225 0.00381970514,7.99111111 C0.00381970514,7.75409997 0.100624863,7.52690364 0.272727273,7.36 L4.77272727,2.96 C6.13686005,1.62469658 7.98793274,0.874405999 9.91818182,0.874405999 C11.8484309,0.874405999 13.6995036,1.62469658 15.0636364,2.96 L19.5636364,7.36 C19.7357388,7.52690364 19.8325439,7.75409997 19.8325439,7.99111111 C19.8325439,8.22812225 19.7357388,8.45531858 19.5636364,8.62222222 L15.0636364,13.0222222 L15.0545455,13.0311111 Z M6.05454545,11.7688889 C8.18412761,13.8485574 11.6340542,13.8485574 13.7636364,11.7688889 L17.6181818,8 L13.7636364,4.23111111 C11.6340542,2.15144264 8.18412761,2.15144264 6.05454545,4.23111111 L2.18181818,8 L6.04545455,11.7688889 L6.05454545,11.7688889 Z M9.90909091,11.5555556 C7.90078273,11.5555556 6.27272727,9.96367911 6.27272727,8 C6.27272727,6.03632089 7.90078273,4.44444444 9.90909091,4.44444444 C11.9173991,4.44444444 13.5454545,6.03632089 13.5454545,8 C13.5454545,9.96367911 11.9173991,11.5555556 9.90909091,11.5555556 Z M9.90909091,9.77777778 C10.913245,9.77777778 11.7272727,8.98183956 11.7272727,8 C11.7272727,7.01816044 10.913245,6.22222222 9.90909091,6.22222222 C8.90493682,6.22222222 8.09090909,7.01816044 8.09090909,8 C8.09090909,8.98183956 8.90493682,9.77777778 9.90909091,9.77777778 Z" id="Shape"></path>
            </g>
        </g>
    </g>
</svg>