<?xml version="1.0" encoding="UTF-8"?>
<svg width="25px" height="20px" viewBox="0 0 25 20" version="1.1" xmlns="http://www.w3.org/2000/svg" xmlns:xlink="http://www.w3.org/1999/xlink">
    <!-- Generator: Sketch 51.1 (57501) - http://www.bohemiancoding.com/sketch -->
    <title>icons/ui/volume-on-white</title>
    <desc>Created with Sketch.</desc>
    <defs></defs>
    <g id="icons/ui/volume-on-white" stroke="none" stroke-width="1" fill="none" fill-rule="evenodd">
        <g id="volume-on" fill="#FFFFFF" fill-rule="nonzero">
            <path d="M12.0489691,0.35 L12.0489691,19.65 C12.0489691,20 11.8298969,20.1 11.5592784,19.8625 L4.58762887,13.8625 L0.773195876,13.8625 C0.412371134,13.8625 0.103092784,13.575 0.103092784,13.2125 L0.103092784,6.7875 C0.103092784,6.4375 0.399484536,6.1375 0.773195876,6.1375 L4.58762887,6.1375 L11.5592784,0.1375 C11.8298969,-0.1 12.0489691,-0.0125 12.0489691,0.35 Z" id="Shape"></path>
            <path d="M14.5876289,15 L14.5876289,12.5 C16.0180412,12.5 17.1649485,11.3875 17.1649485,10 C17.1649485,8.6125 16.0180412,7.5 14.5876289,7.5 L14.5876289,5 C17.435567,5 19.742268,7.2375 19.742268,10 C19.742268,12.7625 17.435567,15 14.5876289,15 Z" id="Shape"></path>
            <path d="M24.8969072,10 C24.8969072,4.475 20.2835052,0 14.5876289,0 L14.5876289,2.5 C18.8530928,2.5 22.3195876,5.8625 22.3195876,10 C22.3195876,14.1375 18.8530928,17.5 14.5876289,17.5 L14.5876289,20 C20.2835052,19.9875 24.8840206,15.5125 24.8969072,10 Z" id="Shape"></path>
        </g>
    </g>
</svg>