<?xml version="1.0" encoding="UTF-8"?>
<svg width="25px" height="20px" viewBox="0 0 25 20" version="1.1" xmlns="http://www.w3.org/2000/svg" xmlns:xlink="http://www.w3.org/1999/xlink">
    <!-- Generator: Sketch 51.1 (57501) - http://www.bohemiancoding.com/sketch -->
    <title>icons/ui/volume-off-white</title>
    <desc>Created with Sketch.</desc>
    <defs></defs>
    <g id="icons/ui/volume-off-white" stroke="none" stroke-width="1" fill="none" fill-rule="evenodd">
        <g id="volume-off" fill="#FFFFFF" fill-rule="nonzero">
            <path d="M11.7978947,0.469135802 L11.7978947,19.5432099 C11.7978947,19.8888889 11.5831579,19.9876543 11.3178947,19.7530864 L4.48421053,13.8148148 L0.745263158,13.8148148 C0.391578947,13.8148148 0.0884210526,13.5308642 0.0884210526,13.1728395 L0.0884210526,6.81481481 C0.0884210526,6.4691358 0.378947368,6.17283951 0.745263158,6.17283951 L4.48421053,6.17283951 L11.3178947,0.234567901 C11.5705263,0.012345679 11.7978947,0.111111111 11.7978947,0.469135802 Z M23.9115789,7.08641975 L22.0673684,5.28395062 L19.0863158,8.19753086 L16.1052632,5.28395062 L14.2610526,7.08641975 L17.2421053,10 L14.2610526,12.9135802 L16.1052632,14.7160494 L19.0863158,11.8024691 L22.0673684,14.7160494 L23.9115789,12.9135802 L20.9305263,10 L23.9115789,7.08641975 Z" id="Shape"></path>
        </g>
    </g>
</svg>