<?xml version="1.0" encoding="UTF-8" standalone="no"?>
<svg width="20px" height="20px" viewBox="0 0 20 20" version="1.1" xmlns="http://www.w3.org/2000/svg" xmlns:xlink="http://www.w3.org/1999/xlink">
    <!-- Generator: Sketch 48.2 (47327) - http://www.bohemiancoding.com/sketch -->
    <title>icons/ui/x-circle</title>
    <desc>Created with Sketch.</desc>
    <defs></defs>
    <g id="UI-Components-(Symbols)" stroke="none" stroke-width="1" fill="none" fill-rule="evenodd">
        <g id="icons/ui/x-circle" fill="#424B54" fill-rule="nonzero">
            <g id="icon-x-circle">
                <path d="M3.05312993,17.1931299 C0.453564089,14.6823852 -0.588996039,10.964351 0.326158368,7.46805669 C1.24131277,3.97176238 3.97176238,1.24131277 7.46805669,0.326158368 C10.964351,-0.588996039 14.6823852,0.453564089 17.1931299,3.05312993 C20.982852,6.9769188 20.9286537,13.2139777 17.0713157,17.0713157 C13.2139777,20.9286537 6.9769188,20.982852 3.05312993,17.1931299 Z M4.46312993,15.7831299 C7.58906162,18.9090616 12.6571982,18.9090616 15.7831299,15.7831299 C18.9090616,12.6571982 18.9090616,7.58906162 15.7831299,4.46312993 C12.6571982,1.33719825 7.58906162,1.33719825 4.46312993,4.46312993 C1.33719825,7.58906162 1.33719825,12.6571982 4.46312993,15.7831299 Z M11.5331299,10.1231299 L12.9531299,11.5331299 C13.2067885,11.7867885 13.3058535,12.1565039 13.213008,12.503008 C13.1201625,12.849512 12.849512,13.1201625 12.503008,13.213008 C12.1565039,13.3058535 11.7867885,13.2067885 11.5331299,12.9531299 L10.1231299,11.5231299 L8.71312993,12.9431299 C8.45947137,13.1967885 8.08975594,13.2958535 7.74325188,13.203008 C7.39674782,13.1101625 7.12609734,12.839512 7.03325187,12.493008 C6.94040639,12.1465039 7.03947135,11.7767885 7.29312993,11.5231299 L8.72312993,10.1231299 L7.30312993,8.71312993 C7.04947135,8.45947137 6.95040639,8.08975594 7.04325187,7.74325188 C7.13609734,7.39674782 7.40674782,7.12609734 7.75325188,7.03325187 C8.09975594,6.94040639 8.46947137,7.03947135 8.72312993,7.29312993 L10.1231299,8.72312993 L11.5331299,7.30312993 C11.7867885,7.04947135 12.1565039,6.95040639 12.503008,7.04325187 C12.849512,7.13609734 13.1201625,7.40674782 13.213008,7.75325188 C13.3058535,8.09975594 13.2067885,8.46947137 12.9531299,8.72312993 L11.5231299,10.1231299 L11.5331299,10.1231299 Z" id="Shape"></path>
            </g>
        </g>
    </g>
</svg>